<?xml version="1.0" encoding="utf-8"?>
<!-- Generator: Adobe Illustrator 16.0.0, SVG Export Plug-In . SVG Version: 6.00 Build 0)  -->
<!DOCTYPE svg PUBLIC "-//W3C//DTD SVG 1.1//EN" "http://www.w3.org/Graphics/SVG/1.1/DTD/svg11.dtd">
<svg version="1.1" id="Layer_1" xmlns="http://www.w3.org/2000/svg" xmlns:xlink="http://www.w3.org/1999/xlink" x="0px" y="0px"
	 width="275px" height="275px" viewBox="0 0 275 275" enable-background="new 0 0 275 275" xml:space="preserve">
<g>
	<g>
		<path fill="#231F20" d="M93.334,120.675c4.102,0.892,7.387-0.946,9.706-4.288c0.461-0.664-0.623-1.288-1.079-0.631
			c-1.982,2.855-4.772,4.479-8.295,3.713C92.88,119.299,92.546,120.504,93.334,120.675L93.334,120.675z"/>
	</g>
</g>
<g>
	<g>
		<path fill="#231F20" d="M102.04,116.388c8.93-12.955,23.687-19.203,38.195-23.783c13.71-4.329,27.565-7.779,41.146-12.528
			c7.292-2.55,14.468-4.588,22.221-3.186c7.433,1.344,14.493,4.734,21.489,7.474c12.228,4.79,29.56,10.388,35.87,23.023
			c0.36,0.721,1.438,0.088,1.08-0.631c-6.184-12.38-22.421-17.97-34.424-22.735c-7.381-2.93-14.743-6.174-22.471-8.077
			c-7.182-1.768-14.013-0.343-20.923,1.856c-7.525,2.395-14.808,5.301-22.429,7.44c-8.165,2.292-16.387,4.367-24.46,6.978
			c-13.967,4.518-27.819,11.126-36.374,23.537C100.501,116.422,101.585,117.046,102.04,116.388L102.04,116.388z"/>
	</g>
</g>
<g>
	<g>
		<path fill="#231F20" d="M261.875,110.073c0.137,9.042,1.863,17.958,2,27c0.012,0.805,1.262,0.807,1.25,0
			c-0.137-9.042-1.863-17.958-2-27C263.113,109.268,261.863,109.266,261.875,110.073L261.875,110.073z"/>
	</g>
</g>
<g>
	<g>
		<path fill="#231F20" d="M262.959,137.757c-5.517,11.063-10.848,21.165-21.774,27.776c-0.688,0.416-0.061,1.498,0.631,1.079
			c11.11-6.722,16.588-16.925,22.224-28.225C264.397,137.669,263.319,137.035,262.959,137.757L262.959,137.757z"/>
	</g>
</g>
<g>
	<g>
		<path fill="#231F20" d="M172.501,193.697c21.055-2.301,38.469-14.575,57.315-23.085c0.733-0.331,0.098-1.408-0.631-1.079
			c-18.608,8.402-35.896,20.643-56.685,22.914C171.709,192.533,171.7,193.785,172.501,193.697L172.501,193.697z"/>
	</g>
</g>
<g>
	<g>
		<path fill="#231F20" d="M230.5,168.697c6.788-0.162,12.203-3.054,17.443-7.182c0.633-0.499-0.259-1.377-0.885-0.885
			c-4.954,3.904-10.114,6.663-16.559,6.816C229.695,167.467,229.693,168.717,230.5,168.697L230.5,168.697z"/>
	</g>
</g>
<g>
	<g>
		<path fill="#231F20" d="M263.875,136.073c-0.001,1.427,0.207,3.409-0.818,4.558c-0.534,0.6,0.347,1.486,0.885,0.884
			c1.298-1.456,1.183-3.614,1.184-5.442C265.125,135.267,263.875,135.267,263.875,136.073L263.875,136.073z"/>
	</g>
</g>
<g>
	<g>
		<path fill="#231F20" d="M260.875,105.073c0,2.667,0,5.333,0,8c0,0.806,1.25,0.806,1.25,0c0-2.667,0-5.333,0-8
			C262.125,104.267,260.875,104.267,260.875,105.073L260.875,105.073z"/>
	</g>
</g>
<g>
	<g>
		<path fill="#231F20" d="M91.897,122.239c1,5,2,10,3,15c0.158,0.791,1.362,0.455,1.205-0.332c-0.999-5-2-10-3-15
			C92.944,121.117,91.739,121.452,91.897,122.239L91.897,122.239z"/>
	</g>
</g>
<g>
	<g>
		<path fill="#231F20" d="M101.666,121.676c7.353-2.361,22.409-6.001,26.232,3.562c0.095,0.237,0.31,0.494,0.603,0.459
			c4.596-0.551,5.507,2.269,8.557,4.818c0.614,0.513,1.504-0.366,0.885-0.884c-2.287-1.91-3.512-4.784-6.625-5.334
			c-2.486-0.439-2.27-0.161-3.696-2.146c-0.82-1.141-2.041-1.907-3.244-2.574c-6.602-3.658-16.368-1.25-23.042,0.894
			C100.569,120.716,100.896,121.923,101.666,121.676L101.666,121.676z"/>
	</g>
</g>
<g>
	<g>
		<path fill="#231F20" d="M137.666,131.675c5.667-1.884,13.085,7.977,16.186,11.556c4.528,5.228,8.925,10.986,12.108,17.156
			c0.37,0.716,1.448,0.084,1.08-0.631c-3.768-7.3-9.149-14.003-14.652-20.056c-3.09-3.399-9.562-11.057-15.054-9.231
			C136.573,130.723,136.899,131.931,137.666,131.675L137.666,131.675z"/>
	</g>
</g>
<g>
	<g>
		<path fill="#231F20" d="M165.897,159.238c3.484,10.783,6.015,23.508,3,34.668c-0.211,0.779,0.995,1.109,1.205,0.332
			c3.066-11.352,0.544-24.367-3-35.332C166.855,158.143,165.648,158.47,165.897,159.238L165.897,159.238z"/>
	</g>
</g>
<g>
	<g>
		<path fill="#231F20" d="M93.875,125.072c0.001,4.029-0.15,8.267,1.021,12.167c0.231,0.77,1.438,0.442,1.205-0.332
			c-1.138-3.789-0.975-7.917-0.977-11.834C95.125,124.266,93.875,124.266,93.875,125.072L93.875,125.072z"/>
	</g>
</g>
<g>
	<g>
		<path fill="#231F20" d="M116.185,161.613c9.337,4.887,16.574,12.518,24.73,19.024c7.22,5.761,17.865,8.812,26.418,12.037
			c0.756,0.285,1.079-0.924,0.332-1.205c-9.562-3.604-20.188-7.009-28.157-13.573c-7.403-6.098-14.113-12.872-22.692-17.363
			C116.102,160.16,115.47,161.238,116.185,161.613L116.185,161.613z"/>
	</g>
</g>
<g>
	<g>
		<path fill="#231F20" d="M89.5,134.448c-8.302,0.122-16.155,2.007-24.167,4.023c-0.194,0.049-0.402,0.231-0.437,0.437
			c-0.723,4.278,1.225,6.646,4.161,9.607c0.568,0.573,1.452-0.312,0.884-0.884c-0.957-0.965-7.164-7.229-2.688-8.354
			c2.061-0.519,4.122-1.036,6.19-1.527c5.287-1.254,10.622-1.972,16.056-2.052C90.306,135.686,90.307,134.436,89.5,134.448
			L89.5,134.448z"/>
	</g>
</g>
<g>
	<g>
		<path fill="#231F20" d="M68.875,148.072c-0.574,6.863,1.881,12.171,6.969,16.689c5.033,4.469,12.036,7.53,14.053,14.477
			c0.056,0.193,0.226,0.402,0.437,0.438c5.801,0.976,10.968,3.168,14.724,7.84c0.505,0.628,1.384-0.263,0.884-0.885
			c-3.182-3.957-7.344-6.215-12.187-7.561c-3.091-0.859-2.958-1.816-4.5-4.264c-0.963-1.527-2.312-2.805-3.645-4
			c-7.641-6.853-16.482-10.799-15.484-22.734C70.193,147.27,68.942,147.275,68.875,148.072L68.875,148.072z"/>
	</g>
</g>
<g>
	<g>
		<path fill="#231F20" d="M106.334,186.675c10.76,3.106,35.513,18.747,42.706,2.713c0.327-0.729-0.75-1.365-1.08-0.631
			c-6.712,14.964-31.02-0.321-41.294-3.287C105.89,185.246,105.561,186.451,106.334,186.675L106.334,186.675z"/>
	</g>
</g>
<g>
	<g>
		<path fill="#231F20" d="M120.96,165.389c5.611,11.216,25.329,13.926,25.915,27.684c0.034,0.803,1.284,0.807,1.25,0
			c-0.616-14.461-20.34-16.83-26.086-28.314C121.679,164.037,120.6,164.67,120.96,165.389L120.96,165.389z"/>
	</g>
</g>
<g>
	<g>
		<path fill="#231F20" d="M145.876,195.072c0,4,0,8,0,12c0,0.806,1.25,0.806,1.25,0c0-4,0-8,0-12
			C147.126,194.266,145.876,194.266,145.876,195.072L145.876,195.072z"/>
	</g>
</g>
<g>
	<g>
		<path fill="#231F20" d="M64.058,138.631c-2.878,3.684-6.767,5.847-10.873,7.902c-0.721,0.36-0.088,1.438,0.631,1.078
			c4.202-2.102,8.186-4.334,11.126-8.096C65.432,138.889,64.554,137.997,64.058,138.631L64.058,138.631z"/>
	</g>
</g>
<g>
	<g>
		<path fill="#231F20" d="M50.96,145.389c5.131,7.547,2.256,16.646,6.225,24.649c3.35,6.756,10.36,10.202,16.484,13.958
			c8.242,5.057,15.343,11.525,24.016,15.99c7.777,4.004,16.28,5.989,24.981,4.688c0.795-0.118,0.456-1.323-0.332-1.205
			c-19.894,2.974-33.776-11.806-49.25-21.298c-7.202-4.418-13.394-8.26-16.465-16.578c-1.353-3.662-0.708-8.057-1.066-11.891
			c-0.312-3.341-1.651-6.206-3.514-8.945C51.589,144.096,50.505,144.72,50.96,145.389L50.96,145.389z"/>
	</g>
</g>
<g>
	<g>
		<path fill="#231F20" d="M123.5,204.697c8.881-0.56,16.605,5.081,24.443-1.183c0.629-0.503-0.262-1.382-0.885-0.884
			c-7.285,5.822-15.331,0.298-23.558,0.816C122.699,203.498,122.694,204.748,123.5,204.697L123.5,204.697z"/>
	</g>
</g>
<g>
	<g>
		<path fill="#231F20" d="M49.942,149.631c-3.399-3.199-7.814-4.992-12.276-6.16c-0.408-0.107-0.77,0.195-0.791,0.602
			c-0.175,3.43-1.824,6.566-2,10c-0.041,0.807,1.209,0.803,1.25,0c0.175-3.429,1.824-6.564,2-10
			c-0.264,0.201-0.527,0.402-0.791,0.604c4.253,1.113,8.48,2.785,11.724,5.839C49.645,151.066,50.53,150.185,49.942,149.631
			L49.942,149.631z"/>
	</g>
</g>
<g>
	<g>
		<path fill="#231F20" d="M33.875,153.072c0.976,14.637,3.806,32.6,17.696,40.639c3.425,1.982,6.791,2.434,10.679,2.068
			c3.193-0.3,6.144-0.799,9.116,0.814c2.46,1.334,4.253,3.712,6.545,5.287c3.246,2.231,6.353,2.162,10.232,2.059
			c6.147-0.166,12.205-0.799,18.356-0.242c0.803,0.073,0.796-1.178,0-1.25c-4.552-0.412-9.069-0.254-13.625,0
			c-5.412,0.302-10.75,1.185-15.296-2.41c-2.597-2.053-4.733-4.434-7.912-5.567c-4.007-1.43-8.827,0.703-13,0
			c-8.682-1.463-14.4-10.743-17.246-18.188c-2.812-7.36-3.775-15.398-4.295-23.209C35.072,152.273,33.822,152.268,33.875,153.072
			L33.875,153.072z"/>
	</g>
</g>
<g>
	<g>
		<path fill="#231F20" d="M31.875,156.072c0.456,10.416,0.656,21.33,4.919,31.03c4.269,9.714,13.589,14.521,23.541,16.573
			c0.787,0.162,1.122-1.043,0.332-1.205c-10.652-2.197-19.341-7.359-23.525-17.736c-3.601-8.932-3.602-19.186-4.017-28.662
			C33.09,155.27,31.84,155.266,31.875,156.072L31.875,156.072z"/>
	</g>
</g>
<g>
	<g>
		<path fill="#231F20" d="M60.334,202.675c10.042,1.574,18.411,6.463,27.8,9.937c11.944,4.418,23.991-0.773,36.199,1.062
			c0.788,0.119,1.127-1.085,0.332-1.205c-11.589-1.743-23.276,3.113-34.646-0.527c-10.126-3.241-18.678-8.799-29.354-10.472
			C59.878,201.346,59.54,202.551,60.334,202.675L60.334,202.675z"/>
	</g>
</g>
<g>
	<g>
		<path fill="#231F20" d="M125.103,213.238c1.035-2.932,3.194-4.922,5.713-6.627c0.664-0.448,0.039-1.531-0.631-1.078
			c-2.805,1.897-5.139,4.117-6.288,7.373C123.628,213.668,124.836,213.992,125.103,213.238L125.103,213.238z"/>
	</g>
</g>
<g>
	<g>
		<path fill="#231F20" d="M30.185,163.533c-6.965,4.506-15.35,3.068-22.851,5.938c-0.745,0.284-0.422,1.493,0.332,1.205
			c7.625-2.916,16.067-1.481,23.15-6.064C31.489,164.176,30.864,163.094,30.185,163.533L30.185,163.533z"/>
	</g>
</g>
<g>
	<g>
		<path fill="#231F20" d="M4.897,170.238c0.861,6.371,1.074,12.824,3,19c0.239,0.768,1.446,0.439,1.205-0.332
			c-1.923-6.168-2.139-12.637-3-19C5.995,169.111,4.791,169.451,4.897,170.238L4.897,170.238z"/>
	</g>
</g>
<g>
	<g>
		<path fill="#231F20" d="M8.334,189.675c15.647,4.94,24.431,21.354,37.851,29.937c0.681,0.436,1.308-0.646,0.631-1.08
			c-13.539-8.658-22.311-25.061-38.149-30.062C7.896,188.227,7.568,189.434,8.334,189.675L8.334,189.675z"/>
	</g>
</g>
<g>
	<g>
		<path fill="#231F20" d="M46.5,219.696c5.638-0.213,11.487-2.552,16.791-4.272c4.521-1.467,10.901-2.766,14.65-5.91
			c0.619-0.518-0.271-1.397-0.884-0.883c-3.538,2.967-9.811,4.173-14.099,5.588c-5.161,1.704-10.966,4.02-16.458,4.228
			C45.697,218.477,45.693,219.727,46.5,219.696L46.5,219.696z"/>
	</g>
</g>
<g>
	<g>
		<path fill="#231F20" d="M8.875,188.072c0.855,6.713,0.408,13.346,4.085,19.314c0.422,0.686,1.503,0.059,1.079-0.631
			c-3.55-5.762-3.091-12.217-3.915-18.684C10.024,187.284,8.773,187.273,8.875,188.072L8.875,188.072z"/>
	</g>
</g>
<g>
	<g>
		<path fill="#231F20" d="M12.334,207.674c14.29,5.482,23.367,20.457,38.999,23c0.788,0.129,1.126-1.076,0.332-1.205
			c-15.563-2.533-24.716-17.52-38.999-23C11.913,206.18,11.59,207.389,12.334,207.674L12.334,207.674z"/>
	</g>
</g>
<g>
	<g>
		<path fill="#231F20" d="M51.5,229.697c7.526-0.865,14.882-3.333,21.93-6.018c6.454-2.459,13.43-5.357,18.513-10.166
			c0.586-0.555-0.299-1.438-0.884-0.884c-5.242,4.96-12.612,7.806-19.239,10.331c-6.495,2.474-13.39,4.689-20.32,5.486
			C50.708,228.537,50.7,229.789,51.5,229.697L51.5,229.697z"/>
	</g>
</g>
<g>
	<g>
		<path fill="#231F20" d="M142.5,96.198c10.166-0.34,19.883-7.457,29.938-3.017c0.146,0.064,0.273-0.151,0.127-0.216
			c-10.134-4.475-19.814,2.64-30.064,2.983C142.339,95.953,142.339,96.203,142.5,96.198L142.5,96.198z"/>
	</g>
</g>
<g>
	<g>
		<path fill="#231F20" d="M176.5,90.197c6.869,0.28,12.686,4.126,19.438,4.938c6.965,0.836,13.624-3.645,20.562-3.937
			c0.16-0.007,0.161-0.257,0-0.25c-7.094,0.299-13.429,4.228-20.562,3.937c-6.769-0.276-12.582-4.658-19.438-4.938
			C176.339,89.941,176.34,90.191,176.5,90.197L176.5,90.197z"/>
	</g>
</g>
<g>
	<g>
		<path fill="#231F20" d="M193.607,145.136c2.878-4.99,10.227-7.96,15.176-10.332c4.757-2.279,12.163-6.327,17.717-5.607
			c0.159,0.021,0.157-0.229,0-0.25c-5.416-0.702-12.022,2.995-16.782,5.147c-5.28,2.388-13.254,5.587-16.327,10.915
			C193.311,145.149,193.526,145.275,193.607,145.136L193.607,145.136z"/>
	</g>
</g>
<g>
	<g>
		<path fill="#231F20" d="M197.533,145.193c9.229-2.724,20.469-6.705,27.055-14.032c0.107-0.12-0.069-0.297-0.178-0.177
			c-6.547,7.285-17.786,11.266-26.943,13.968C197.312,144.998,197.378,145.239,197.533,145.193L197.533,145.193z"/>
	</g>
</g>
<g>
	<g>
		<path fill="#231F20" d="M170.62,157.105c2.265-8.562,11.615-6.036,17.943-8.925c0.146-0.067,0.019-0.282-0.127-0.216
			c-6.45,2.944-15.772,0.434-18.057,9.074C170.338,157.195,170.579,157.262,170.62,157.105L170.62,157.105z"/>
	</g>
</g>
<g>
	<g>
		<path fill="#231F20" d="M154.466,137.193c3.414,0.546,6.748,0.396,9.018-2.558c1.386-1.804,2.435-3.817,4.373-5.112
			c4.062-2.716,13.167,0.865,17.609,1.67c0.157,0.028,0.225-0.212,0.066-0.241c-4.98-0.902-13.686-4.397-18.433-1.224
			c-1.039,0.695-1.784,1.889-2.481,2.9c-2.624,3.809-5.309,5.088-10.086,4.324C154.375,136.927,154.307,137.168,154.466,137.193
			L154.466,137.193z"/>
	</g>
</g>
<g>
	<g>
		<path fill="#231F20" d="M176.5,135.198c7.926,0.589,13.248-6.637,21-7c0.16-0.007,0.161-0.257,0-0.25
			c-7.745,0.363-13.102,7.587-21,7C176.339,134.936,176.34,135.186,176.5,135.198L176.5,135.198z"/>
	</g>
</g>
<g>
	<g>
		<path fill="#231F20" d="M167.466,135.952c-2.877,0.961-5.938,2.006-7.086,5.087c-0.057,0.152,0.185,0.217,0.24,0.066
			c1.114-2.988,4.137-3.985,6.912-4.912C167.685,136.143,167.619,135.901,167.466,135.952L167.466,135.952z"/>
	</g>
</g>
<g>
	<g>
		<path fill="#231F20" d="M232.62,129.105c2.271-13.469,19.761-2.245,23.001-15c0.04-0.156-0.201-0.223-0.24-0.066
			c-3.203,12.607-20.701,1.349-23.001,15C232.353,129.197,232.594,129.264,232.62,129.105L232.62,129.105z"/>
	</g>
</g>
<g>
	<g>
		<path fill="#231F20" d="M164.501,179.948c2.418,0,2.418-3.75,0-3.75S162.083,179.948,164.501,179.948L164.501,179.948z"/>
	</g>
</g>
<g>
	<g>
		<path fill="#231F20" d="M160.5,187.947c2.418,0,2.418-3.75,0-3.75S158.082,187.947,160.5,187.947L160.5,187.947z"/>
	</g>
</g>
<g>
	<g>
		<path fill="#231F20" d="M112.5,152.947c0.667,0,1.333,0,2,0c1.022,0,1.875-0.854,1.875-1.875s-0.853-1.875-1.875-1.875
			c-0.667,0-1.333,0-2,0c-1.022,0-1.875,0.854-1.875,1.875S111.479,152.947,112.5,152.947L112.5,152.947z"/>
	</g>
</g>
<g>
	<g>
		<path fill="#231F20" d="M128.5,184.947c2.418,0,2.418-3.75,0-3.75S126.082,184.947,128.5,184.947L128.5,184.947z"/>
	</g>
</g>
<g>
	<g>
		<path fill="#231F20" d="M139.002,188.881c1.59,0.521,3.46,1.041,5.053,0.27c1.762-0.854,1.763-2.967,1.253-4.576
			c-0.727-2.297-4.347-1.314-3.615,0.997c0.085,0.269,0.157,0.535,0.212,0.812c-0.089-0.451-0.114,0.562,0.007-0.09
			c-0.061,0.199-0.039,0.158,0.062-0.124c0.094-0.157,0.222-0.278,0.383-0.362c-0.201,0.153,0.399-0.088-0.095,0.018
			c0.523-0.111-0.077-0.03-0.223-0.037c-0.214-0.021-0.218-0.018-0.01,0.009c-0.122-0.02-0.245-0.042-0.367-0.067
			c-0.564-0.109-1.117-0.285-1.664-0.463c-0.971-0.318-2.045,0.359-2.306,1.309C137.411,187.596,138.031,188.563,139.002,188.881
			L139.002,188.881z"/>
	</g>
</g>
<g>
	<g>
		<path fill="#231F20" d="M84.625,139.073c0.029,0.739,0.305,1.378,0.498,2.077c0.015,0.057,0.028,0.111,0.039,0.168
			c0.072,0.325-0.038-0.513-0.038-0.215c0.014-0.839,0.558-1.375,1.632-1.606c0.429-0.041,0.436,0.085,0.167-0.009
			c0.529,0.186-0.263-0.188-0.395-0.271c-0.374-0.234-0.729-0.5-1.083-0.764c0.287,0.707,0.575,1.412,0.862,2.118
			c0.005-0.015,0.319-0.575,0.129-0.338c0.117-0.147,0.096-0.083-0.095-0.013c0.298-0.109-0.375-0.012,0.157-0.023
			c0.175-0.003,0.352,0.015,0.526,0.029c1.062,0.086,1.983-0.103,2.8-0.828c0.764-0.68,0.691-1.961,0-2.652
			c-0.754-0.754-1.888-0.679-2.651,0c0.123-0.121,0.268-0.201,0.436-0.241c-0.197,0.05-0.143,0.049,0.162-0.002
			c-0.204,0.022-0.414,0-0.617-0.017c-0.529-0.042-1.022-0.047-1.549,0.056c-1.561,0.308-2.412,1.636-2.914,3.031
			c-0.304,0.846,0.219,1.641,0.862,2.117c1.551,1.151,4.15,2.701,5.217,0.066c0.235-0.58,0.066-1.3-0.112-1.875
			c-0.069-0.223-0.147-0.441-0.217-0.663c-0.028-0.089-0.052-0.178-0.076-0.268c-0.119-0.451,0.02,0.388,0.009,0.121
			C88.28,136.664,84.529,136.654,84.625,139.073L84.625,139.073z"/>
	</g>
</g>
<g>
	<g>
		<path fill="#231F20" d="M39.5,154.947c2.418,0,2.418-3.75,0-3.75S37.082,154.947,39.5,154.947L39.5,154.947z"/>
	</g>
</g>
<g>
	<g>
		<path fill="#231F20" d="M39.5,166.948c2.418,0,2.418-3.75,0-3.75S37.082,166.948,39.5,166.948L39.5,166.948z"/>
	</g>
</g>
<g>
	<g>
		<path fill="#231F20" d="M43.5,191.947c2.418,0,2.418-3.75,0-3.75S41.082,191.947,43.5,191.947L43.5,191.947z"/>
	</g>
</g>
<g>
	<g>
		<path fill="#231F20" d="M25.5,202.947c2.418,0,2.418-3.75,0-3.75S23.082,202.947,25.5,202.947L25.5,202.947z"/>
	</g>
</g>
<g>
	<g>
		<path fill="#231F20" d="M12.5,187.947c0.167,0,0.333,0.002,0.5,0.004c0.088,0.002,0.762,0.092,0.334,0.018
			c0.087,0.015,0.668,0.236,0.385,0.1c0.279,0.135,0.28,0.166,0.454,0.33c0.742,0.703,1.914,0.738,2.651,0
			c0.708-0.707,0.742-1.949,0-2.65c-1.237-1.172-2.659-1.549-4.325-1.551c-1.022-0.001-1.875,0.854-1.875,1.875
			C10.625,187.096,11.479,187.946,12.5,187.947L12.5,187.947z"/>
	</g>
</g>
<g>
	<g>
		<path fill="#231F20" d="M32.375,185.072c0-1,0-2,0-3c0-1.021-0.853-1.875-1.875-1.875s-1.875,0.854-1.875,1.875c0,1,0,2,0,3
			c0,1.022,0.853,1.875,1.875,1.875S32.375,186.095,32.375,185.072L32.375,185.072z"/>
	</g>
</g>
<g>
	<g>
		<path fill="#231F20" d="M40.5,196.947c2.418,0,2.418-3.75,0-3.75S38.082,196.947,40.5,196.947L40.5,196.947z"/>
	</g>
</g>
<g>
	<g>
		<path fill="#231F20" d="M28.5,216.947c2.418,0,2.418-3.75,0-3.75S26.082,216.947,28.5,216.947L28.5,216.947z"/>
	</g>
</g>
<g>
	<g>
		<path fill="#231F20" d="M49.174,225.398c1.048,0.973,2.274,1.164,3.558,0.555c1.12-0.53,1.853-1.885,2.387-2.936
			c0.463-0.91,0.246-2.026-0.673-2.564c-0.843-0.494-2.102-0.238-2.565,0.672c-0.168,0.33-0.344,0.654-0.536,0.971
			c-0.068,0.111-0.14,0.22-0.214,0.326c-0.323,0.479,0.211-0.227-0.135,0.158c-0.068,0.072-0.139,0.141-0.214,0.205
			c0.354-0.32-0.235,0.02,0.292-0.17c0.095-0.009,0.189-0.018,0.284-0.027c-0.202-0.004-0.143,0.006,0.177,0.026
			c0.089,0.022,0.575,0.396,0.292,0.132c-0.748-0.695-1.909-0.742-2.651,0C48.472,223.449,48.425,224.703,49.174,225.398
			L49.174,225.398z"/>
	</g>
</g>
<g>
	<g>
		<path fill="#231F20" d="M66.5,221.947c2.418,0,2.418-3.75,0-3.75S64.082,221.947,66.5,221.947L66.5,221.947z"/>
	</g>
</g>
<g>
	<g>
		<path fill="#231F20" d="M144.815,105.612c1.066-0.614,0.778-1.497-0.25-1.907c-0.285-0.114-0.593-0.184-0.887-0.268
			c-0.142-0.04-0.28-0.084-0.418-0.133c-0.226,0.73,0.098,0.862,0.969,0.394c2.044,0.002,4.065,0.047,5.955,0.915
			c0.105-0.388,0.21-0.776,0.315-1.165c-3.479,0.001-6.775,0.202-10.166,1.022c-0.694,0.168-0.533,1.228,0.166,1.228
			c2.667,0,5.333,0,8,0c0.806,0,0.806-1.25,0-1.25c-2.667,0-5.333,0-8,0c0.056,0.409,0.11,0.818,0.166,1.228
			c3.279-0.793,6.474-0.977,9.834-0.978c0.586,0,0.902-0.896,0.315-1.165c-1.491-0.685-2.981-0.953-4.611-1.049
			c-1.17-0.069-3.079-0.435-3.984,0.588c-0.341,0.385-0.203,0.993,0.248,1.231c0.28,0.148,0.575,0.248,0.878,0.339
			c0.227,0.068,0.454,0.13,0.68,0.198c0.874,0.264-0.237-0.08,0.159-0.308C143.486,104.935,144.115,106.015,144.815,105.612
			L144.815,105.612z"/>
	</g>
</g>
<g>
	<g>
		<path fill="#231F20" d="M167.897,100.907c0.06-0.174-2.504-1.088-3.081-1.374c-0.105,0.388-0.21,0.776-0.315,1.165
			c2.363,0.11,4.615,0.923,6.999,1c0-0.417,0-0.833,0-1.25c-3.989-0.002-7.927-0.074-11.833-0.978
			c-0.056,0.409-0.11,0.818-0.166,1.228c4.39,0.137,7.738,2.836,11.833,3.978c0.777,0.217,1.107-0.989,0.332-1.205
			c-4.24-1.182-7.615-3.88-12.165-4.022c-0.703-0.022-0.855,1.068-0.166,1.228c4.01,0.928,8.065,1.021,12.165,1.022
			c0.808,0,0.804-1.224,0-1.25c-2.386-0.077-4.629-0.89-6.999-1c-0.607-0.028-0.873,0.889-0.315,1.165
			c1.035,0.511,4.297,2.437,4.917,0.626C169.364,100.474,168.157,100.148,167.897,100.907L167.897,100.907z"/>
	</g>
</g>
<g>
	<g>
		<path fill="#231F20" d="M167.499,113.698c2.266,0.001,4.589-0.073,6.686,0.915c0.105-0.388,0.21-0.776,0.315-1.165
			c-1.306-0.045-1.604-0.526-2.379-1.385c-0.39-0.433-1.502-0.904-2.045-0.513c-1.564,1.125,1.757,3.071,0.884,4.208
			c0.285-0.075,0.57-0.149,0.855-0.224c-1.934-1.087-2.453-3.347-3.874-4.902c-0.295,0.294-0.59,0.589-0.885,0.884
			c2.002,1.882,4.89,2.809,7.609,2.161c0.784-0.187,0.451-1.392-0.332-1.205c-2.275,0.542-4.725-0.271-6.393-1.839
			c-0.59-0.554-1.428,0.29-0.885,0.884c1.52,1.662,2.041,3.924,4.128,5.097c0.325,0.183,0.645,0.049,0.855-0.224
			c0.914-1.19-0.475-2.898-1.027-3.938c-0.104-0.313-0.157-0.219-0.161,0.281c0.225,0.039,0.361,0.188,0.505,0.347
			c0.206,0.229,0.368,0.5,0.574,0.733c0.642,0.724,1.662,0.856,2.569,0.887c0.599,0.021,0.886-0.896,0.315-1.165
			c-2.322-1.094-4.798-1.084-7.316-1.085C166.693,112.447,166.693,113.697,167.499,113.698L167.499,113.698z"/>
	</g>
</g>
<g>
	<g>
		<path fill="#231F20" d="M184.334,98.675c1.883,0.51,3.636,0.795,5.566,0.958c3.006,0.254,2.974,0.729,2.974,3.439
			c0,0.399,0.4,0.72,0.791,0.603c3.931-1.176,8.198-1.434,12.001-3c0.617-0.254,0.59-1.228-0.166-1.228c-3.667,0-7.333,0-11,0
			c0,0.417,0,0.833,0,1.25c5.07-0.003,10.187,0.051,15.166-1.023c-0.11-0.402-0.222-0.803-0.332-1.205
			c-5.186,1.938-10.587,2.934-16.001,4c-0.791,0.155-0.455,1.36,0.332,1.205c5.415-1.066,10.815-2.062,16.001-4
			c0.749-0.28,0.465-1.377-0.332-1.205c-4.866,1.049-9.881,0.975-14.834,0.978c-0.806,0-0.806,1.25,0,1.25c3.667,0,7.333,0,11,0
			c-0.056-0.409-0.11-0.818-0.166-1.228c-2.4,0.988-5.044,1.378-7.573,1.909c-1.18,0.248-2.35,0.52-3.517,0.818
			c-0.2,0.051-0.12-2.708-0.12-3.125c0-0.342-0.284-0.624-0.625-0.625c-3.016-0.013-5.902-0.183-8.833-0.977
			C183.887,97.259,183.557,98.465,184.334,98.675L184.334,98.675z"/>
	</g>
</g>
<g>
	<g>
		<path fill="#231F20" d="M237.057,113.515c0.629,0.548,1.267,0.886,2.067,1.116c1.465,0.42,2.171,0.405,1.773,2.277
			c0.348-0.092,0.696-0.184,1.045-0.276c-0.847-0.847-1.771-1.673-2.389-2.711c-0.635-1.068-0.428-2.667-0.429-3.848
			c-0.389,0.105-0.776,0.21-1.165,0.315c0.149,0.304,0.669,2.067,0.706,2.082c0.125,0.306,0.249,0.612,0.374,0.918
			c1.086-2.34,1.597-4.785,3-7c-0.389-0.105-0.776-0.21-1.165-0.315c0,2.667,0,5.333,0,8c0,0.806,1.25,0.806,1.25,0
			c0-2.667,0-5.333,0-8c0-0.637-0.837-0.833-1.165-0.315c-1.41,2.228-1.908,4.647-3,7c-0.183,0.394-0.023,0.76,0.374,0.918
			c2.692,1.071,1.216-2.881,0.706-3.918c-0.282-0.574-1.165-0.28-1.165,0.315c0.001,1.345-0.083,2.76,0.397,4.041
			c0.508,1.354,1.798,2.412,2.785,3.401c0.317,0.318,0.945,0.192,1.045-0.276c0.231-1.086,0.472-2.363-0.516-3.141
			c-1.065-0.84-2.559-0.519-3.646-1.467C237.336,112.104,236.448,112.984,237.057,113.515L237.057,113.515z"/>
	</g>
</g>
<g>
	<g>
		<path fill="#231F20" d="M126.058,112.514c0.562,0.678-0.199,1.915,0.47,2.624c1.031,1.092,2.801-1.02,3.414-1.623
			c-0.294-0.294-0.589-0.589-0.884-0.884c-1.826,1.87-3.2,4.118-5,6c0.327,0.252,0.654,0.505,0.981,0.757
			c0.489-0.652,0.971-1.309,1.444-1.972c0.314-0.44,1.089-1.223,0.75-1.82c-0.178-0.315-0.551-0.369-0.855-0.225
			c-0.12,0.057-0.226,0.167-0.321,0.258c-0.535,0.512,0.143,1.288,0.757,0.981c1.426-0.711,3.06-1.792,4.685-1.914
			c0.799-0.06,0.805-1.311,0-1.25c-1.865,0.14-3.68,1.269-5.315,2.085c0.252,0.327,0.505,0.654,0.757,0.981
			c0.103-0.102,0.125-0.123,0.068-0.062c-0.285-0.075-0.57-0.149-0.855-0.224c0.051-0.511,0.018-0.643-0.102-0.397
			c-0.083,0.143-0.18,0.279-0.272,0.416c-0.258,0.382-0.53,0.754-0.8,1.127c-0.336,0.464-0.677,0.925-1.021,1.383
			c-0.432,0.576,0.5,1.261,0.981,0.757c1.8-1.882,3.174-4.13,5-6c0.563-0.577-0.309-1.45-0.884-0.884
			c-0.552,0.542-1.101,1.114-1.769,1.515c0.204-0.122,0.206,0.454,0.175-0.043c-0.01-0.165-0.005-0.331-0.005-0.495
			c-0.001-0.719-0.042-1.405-0.517-1.978C126.426,111.009,125.547,111.899,126.058,112.514L126.058,112.514z"/>
	</g>
</g>
<g>
	<g>
		<path fill="#231F20" d="M156.666,137.675c2.212-0.346,4.452,0.199,6.624-0.288c1.85-0.414,2.943-2.513,3.75-4
			c0.215-0.396-0.049-0.965-0.54-0.94c-1.178,0.059-1.564,0.35-2.441,1.183c-0.379,0.36-0.106,1.105,0.442,1.067
			c2.81-0.197,5.741-0.958,8.315-2.085c0.679-0.297,0.176-1.286-0.481-1.142c-3.515,0.771-6.013,2.424-9.15,4.063
			c-0.464,0.242-0.38,1.038,0.149,1.142c4.512,0.889,8.926,0.07,13.332-1c0.783-0.19,0.451-1.396-0.332-1.205
			c-4.182,1.015-8.383,1.844-12.668,1c0.05,0.381,0.1,0.761,0.149,1.142c2.999-1.567,5.482-3.198,8.852-3.937
			c-0.16-0.381-0.321-0.761-0.481-1.142c-2.344,1.025-5.125,1.734-7.685,1.914c0.147,0.355,0.295,0.711,0.442,1.067
			c0.519-0.272,1.038-0.544,1.557-0.816c-0.18-0.313-0.359-0.627-0.54-0.94c-1.301,2.399-2.543,3.692-5.312,3.542
			c-1.473-0.08-2.858-0.058-4.314,0.17C155.539,136.595,155.878,137.799,156.666,137.675L156.666,137.675z"/>
	</g>
</g>
<g>
	<g>
		<path fill="#231F20" d="M156.04,125.388c0.354-0.789,0.425-1.555,0.373-2.412c-0.072-1.186,0.017-1.847,1.253-2.3
			c-0.202-0.053-0.405-0.107-0.608-0.161c1.012,1.133,0.967,2.843,2.001,4c0-0.294,0-0.589,0-0.884
			c-0.548,0.547-1.084,1.149-1.707,1.614c-0.331,0.247,0.333,0.653,0.401,0.235c0.068-0.422,0.218-0.836,0.35-1.242
			c0.25-0.769-0.957-1.095-1.205-0.332c-0.204,0.627-0.968,2.621,0.34,2.68c1.006,0.046,2.093-1.46,2.706-2.072
			c0.251-0.25,0.227-0.63,0-0.884c-1.012-1.132-0.968-2.842-2.001-4c-0.138-0.154-0.413-0.232-0.608-0.161
			c-1.011,0.371-1.884,0.91-2.143,2.018c-0.254,1.087,0.243,2.211-0.231,3.269C154.634,125.486,155.71,126.122,156.04,125.388
			L156.04,125.388z"/>
	</g>
</g>
<g>
	<g>
		<path fill="#231F20" d="M147.5,120.698c0.666,0,1.333,0,1.999,0c0.806,0,0.806-1.25,0-1.25c-0.666,0-1.333,0-1.999,0
			C146.694,119.448,146.694,120.698,147.5,120.698L147.5,120.698z"/>
	</g>
</g>
<g>
	<g>
		<path fill="#231F20" d="M240.5,100.947c2.418,0,2.418-3.75,0-3.75S238.082,100.947,240.5,100.947L240.5,100.947z"/>
	</g>
</g>
<g>
	<g>
		<path fill="#231F20" d="M247.501,108.947c2.418,0,2.418-3.75,0-3.75S245.083,108.947,247.501,108.947L247.501,108.947z"/>
	</g>
</g>
<g>
	<g>
		<path fill="#231F20" d="M250.499,133.198c-0.818,0.017-1.591,0.459-1.993,1.179c-0.665,1.188-0.169,2.522,0.374,3.643
			c0.445,0.919,1.735,1.158,2.565,0.672c0.932-0.545,1.118-1.646,0.673-2.565c-0.267-0.549,0.099,0.302-0.086-0.178
			c-0.047-0.122-0.081-0.247-0.114-0.373c-0.103-0.388,0.03,0.459,0.013,0.116c0.005-0.2-0.012-0.104-0.051,0.287
			c0.048-0.18,0.002-0.083-0.137,0.291c-0.184,0.417-0.783,0.669-1.244,0.679c1.021-0.021,1.875-0.837,1.875-1.875
			C252.374,134.066,251.521,133.177,250.499,133.198L250.499,133.198z"/>
	</g>
</g>
<g>
	<g>
		<path fill="#231F20" d="M227.998,151.881c2.624-0.871,5.245-1.791,8.004-1c1.287,0.369,2.813-0.941,2.306-2.307
			c-0.476-1.283-1.312-3.06-2.985-2.959c-1.519,0.092-2.495,1.146-3.769,1.838c-2.125,1.156-0.232,4.395,1.893,3.238
			c0.465-0.252,0.897-0.536,1.328-0.844c0.182-0.133,0.366-0.262,0.554-0.387c0.547-0.373-1.023-0.934-0.636,0.11
			c0.769-0.769,1.537-1.538,2.306-2.307c-3.435-0.985-6.706-0.093-9.996,1C224.719,149.023,225.697,152.646,227.998,151.881
			L227.998,151.881z"/>
	</g>
</g>
<g>
	<g>
		<path fill="#231F20" d="M228.625,157.072c0.056,1.265,0.669,2.432,1.549,3.326c0.717,0.729,1.934,0.719,2.652,0
			c0.727-0.727,0.717-1.924,0-2.651c-0.03-0.03-0.059-0.062-0.088-0.093c-0.032-0.037-0.063-0.073-0.095-0.11
			c-0.229-0.267,0.283,0.388,0.043,0.057c-0.126-0.175-0.231-0.36-0.328-0.552c0.095,0.24,0.106,0.262,0.037,0.064
			c-0.146-0.43-0.001,0.409-0.021-0.041c-0.045-1.02-0.818-1.875-1.875-1.875C229.512,155.197,228.58,156.051,228.625,157.072
			L228.625,157.072z"/>
	</g>
</g>
<g>
	<g>
		<path fill="#231F20" d="M80.5,228.947c1.431-0.001,2.847,0.031,4.178-0.553c1.276-0.561,1.678-2.065,1.697-3.322
			c0.037-2.42-3.713-2.416-3.75,0c-0.001,0.082-0.045,0.639,0.024,0.127c-0.023,0.174-0.242,0.622,0.003,0.131
			c-0.136,0.271,0.265-0.24,0.323-0.284c-0.386,0.294,0.228-0.048-0.085,0.046c-0.086,0.025-0.537,0.098-0.073,0.037
			c-0.235,0.031-0.474,0.039-0.71,0.051c-0.535,0.023-1.072,0.018-1.607,0.018C78.082,225.197,78.082,228.947,80.5,228.947
			L80.5,228.947z"/>
	</g>
</g>
<g>
	<g>
		<path fill="#231F20" d="M88.5,231.947c2.418,0,2.418-3.75,0-3.75S86.082,231.947,88.5,231.947L88.5,231.947z"/>
	</g>
</g>
<g>
	<g>
		<path fill="#231F20" d="M92.5,224.946c2.418,0,2.418-3.75,0-3.75S90.081,224.946,92.5,224.946L92.5,224.946z"/>
	</g>
</g>
<g>
	<g>
		<path fill="#231F20" d="M94.5,220.946c2.418,0,2.418-3.75,0-3.75S92.082,220.946,94.5,220.946L94.5,220.946z"/>
	</g>
</g>
<g>
	<g>
		<path fill="#231F20" d="M104.12,218.125c-0.566-1.131-1.105-2.42-2.183-3.157c-0.953-0.651-2.284-0.206-2.856,0.722
			c-0.43,0.697-0.45,1.589-0.456,2.383c-0.007,1.021,0.858,1.875,1.875,1.875c1.028,0,1.868-0.854,1.875-1.875
			c0.001-0.217,0.007-0.433,0.02-0.648c0.021-0.223,0.013-0.176-0.026,0.138c0.013-0.089,0.036-0.175,0.061-0.261
			c-0.068,0.242-0.192,0.449-0.373,0.624c-0.722,0.87-1.686,0.56-2.303,0.054c0.033,0.03,0.064,0.062,0.094,0.094
			c0.218,0.23-0.295-0.406-0.091-0.119c0.452,0.635,0.778,1.37,1.126,2.064c0.457,0.914,1.728,1.164,2.565,0.673
			C104.371,220.149,104.577,219.039,104.12,218.125L104.12,218.125z"/>
	</g>
</g>
<g>
	<g>
		<path fill="#231F20" d="M98.5,225.947c2.418,0,2.418-3.75,0-3.75S96.082,225.947,98.5,225.947L98.5,225.947z"/>
	</g>
</g>
<g>
	<g>
		<path fill="#231F20" d="M152.5,193.947c2.418,0,2.418-3.75,0-3.75S150.082,193.947,152.5,193.947L152.5,193.947z"/>
	</g>
</g>
<g>
	<g>
		<path fill="#231F20" d="M158.5,197.947c2.418,0,2.418-3.75,0-3.75S156.082,197.947,158.5,197.947L158.5,197.947z"/>
	</g>
</g>
<g>
	<g>
		<path fill="#231F20" d="M165.827,202.398c0.419-0.42,0.881-0.854,1.167-1.38c0.331-0.606,0.381-1.269,0.381-1.946
			c0.001-1.021-0.854-1.875-1.875-1.875c-1.022,0-1.874,0.854-1.875,1.875c0,0.153-0.001,0.306-0.006,0.459
			c-0.016,0.203-0.002,0.123,0.041-0.242c-0.024,0.158-0.159,0.399,0.096-0.163c-0.176,0.388,0.312-0.325-0.043,0.07
			c-0.171,0.19-0.356,0.368-0.538,0.55c-0.722,0.723-0.723,1.93,0,2.652C163.897,203.12,165.105,203.121,165.827,202.398
			L165.827,202.398z"/>
	</g>
</g>
<g>
	<g>
		<path fill="#231F20" d="M152.447,205.691c0.316-0.158,0.632-0.314,0.952-0.463c-0.274,0.127,0.646-0.088,0.029-0.029
			c0.212,0.006,0.19-0.002-0.063-0.025c0.108,0.024,0.215,0.057,0.318,0.095c-0.151-0.071-0.11-0.054,0.124,0.056
			c0.251,0.115,0.498,0.243,0.746,0.367c0.914,0.456,2.023,0.252,2.565-0.673c0.49-0.837,0.241-2.109-0.673-2.565
			c-0.938-0.468-1.819-0.904-2.875-1.004c-1.046-0.099-2.123,0.558-3.017,1.004c-0.914,0.457-1.163,1.729-0.673,2.565
			C150.424,205.943,151.533,206.148,152.447,205.691L152.447,205.691z"/>
	</g>
</g>
<g>
	<g>
		<path fill="#231F20" d="M90.5,230.947c2.418,0,2.418-3.75,0-3.75S88.082,230.947,90.5,230.947L90.5,230.947z"/>
	</g>
</g>
<g>
	<g>
		<path fill="#231F20" d="M62.5,230.947c2.418,0,2.418-3.75,0-3.75S60.082,230.947,62.5,230.947L62.5,230.947z"/>
	</g>
</g>
<g>
	<g>
		<path fill="#231F20" d="M70.5,231.947c2.418,0,2.418-3.75,0-3.75S68.082,231.947,70.5,231.947L70.5,231.947z"/>
	</g>
</g>
<g>
	<g>
		<path fill="#231F20" d="M98.185,143.613c12.538,5.561,20.942,16.913,30.874,25.9c0.596,0.54,1.483-0.342,0.884-0.883
			c-10.009-9.059-18.488-20.492-31.126-26.098C98.085,142.21,97.449,143.287,98.185,143.613L98.185,143.613z"/>
	</g>
</g>
<g>
	<g>
		<path fill="#231F20" d="M127.392,135.046c3.618,5.104,4.665,11.22,10.044,15.046c0.132,0.094,0.257-0.123,0.127-0.217
			c-5.366-3.814-6.364-9.887-9.956-14.955C127.516,134.79,127.299,134.914,127.392,135.046L127.392,135.046z"/>
	</g>
</g>
<g>
	<g>
		<path fill="#231F20" d="M117.467,139.104c5.83,1.057,9.926,4.273,11.912,9.912c0.053,0.151,0.295,0.086,0.241-0.066
			c-2.015-5.723-6.16-9.012-12.087-10.087C117.376,138.834,117.309,139.074,117.467,139.104L117.467,139.104z"/>
	</g>
</g>
<g>
	<g>
		<path fill="#231F20" d="M152.411,161.071c1.873,1.823,4.128,3.177,6,5c0.116,0.112,0.293-0.063,0.178-0.177
			c-1.873-1.822-4.128-3.178-6-5C152.473,160.782,152.296,160.959,152.411,161.071L152.411,161.071z"/>
	</g>
</g>
<g>
	<g>
		<path fill="#231F20" d="M87.437,157.091c3.83,1.911,7.706,3.865,12.064,4.017c0.161,0.006,0.161-0.244,0-0.25
			c-4.317-0.15-8.146-2.09-11.938-3.982C87.419,156.803,87.292,157.02,87.437,157.091L87.437,157.091z"/>
	</g>
</g>
<g>
	<g>
		<path fill="#231F20" d="M93.437,170.091c2.203,1.009,4.685,1.015,7.062,1.017c0.161,0,0.161-0.25,0-0.25
			c-2.33-0.002-4.777,0.007-6.937-0.982C93.417,169.809,93.291,170.023,93.437,170.091L93.437,170.091z"/>
	</g>
</g>
<g>
	<g>
		<path fill="#231F20" d="M111.467,176.104c2.655,0.854,4.995,0.988,7.121-1.032c0.117-0.111-0.06-0.288-0.177-0.177
			c-2.059,1.956-4.328,1.788-6.878,0.967C111.379,175.812,111.314,176.054,111.467,176.104L111.467,176.104z"/>
	</g>
</g>
<g>
	<g>
		<path fill="#231F20" d="M103.392,158.045c2.345,4.438,6.539,7.186,11.075,9.059c0.149,0.061,0.213-0.182,0.066-0.242
			c-4.475-1.847-8.611-4.562-10.925-8.941C103.533,157.777,103.317,157.903,103.392,158.045L103.392,158.045z"/>
	</g>
</g>
<g>
	<g>
		<path fill="#231F20" d="M64.411,164.071c1,1,2,2,3,2.999c0.114,0.115,0.291-0.062,0.177-0.176c-1-1-2-2-3-3
			C64.474,163.78,64.297,163.957,64.411,164.071L64.411,164.071z"/>
	</g>
</g>
<g>
	<g>
		<path fill="#231F20" d="M106.437,193.09c2.202,1.01,4.685,1.016,7.062,1.018c0.161,0,0.161-0.25,0-0.25
			c-2.33-0.002-4.777,0.006-6.937-0.982C106.417,192.808,106.291,193.023,106.437,193.09L106.437,193.09z"/>
	</g>
</g>
<g>
	<g>
		<path fill="#231F20" d="M52.412,176.07c3,3.001,6,6.001,9,9.002c0.114,0.113,0.291-0.062,0.177-0.178c-3-3-6-6-9-9
			C52.474,175.779,52.297,175.957,52.412,176.07L52.412,176.07z"/>
	</g>
</g>
<g>
	<g>
		<path fill="#231F20" d="M50.467,187.104c3.656,0.867,7.29,1.002,11.033,1.004c0.161,0,0.161-0.25,0-0.25
			c-3.715-0.002-7.334-0.133-10.967-0.995C50.376,186.825,50.31,187.066,50.467,187.104L50.467,187.104z"/>
	</g>
</g>
<g>
	<g>
		<path fill="#231F20" d="M77.437,192.09c1.32,0.645,2.595,1.017,4.064,1.018c0.161,0,0.161-0.25,0-0.25
			c-1.43-0.001-2.65-0.355-3.938-0.983C77.418,191.804,77.292,192.02,77.437,192.09L77.437,192.09z"/>
	</g>
</g>
<g>
	<g>
		<path fill="#231F20" d="M46.392,169.046c1,2,2,4,3,6c0.072,0.145,0.288,0.018,0.216-0.126c-1-2-2-4-3-6
			C46.536,168.775,46.32,168.902,46.392,169.046L46.392,169.046z"/>
	</g>
</g>
<g>
	<g>
		<path fill="#231F20" d="M21.38,178.016c0.895,3.4,2.594,6.811,6.087,8.088c0.152,0.056,0.216-0.186,0.066-0.241
			c-3.406-1.246-5.043-4.608-5.912-7.913C21.58,177.794,21.339,177.859,21.38,178.016L21.38,178.016z"/>
	</g>
</g>
<g>
	<g>
		<path fill="#231F20" d="M37.5,200.107c9.089-0.508,14.224,7.67,23,8c0.161,0.006,0.161-0.244,0-0.25
			c-8.789-0.33-13.893-8.509-23-8C37.34,199.866,37.339,200.116,37.5,200.107L37.5,200.107z"/>
	</g>
</g>
<g>
	<g>
		<path fill="#231F20" d="M95.5,209.107c0.161,0,0.161-0.25,0-0.25S95.338,209.107,95.5,209.107L95.5,209.107z"/>
	</g>
</g>
</svg>
