<?xml version="1.0" encoding="utf-8"?>
<!-- Generator: Adobe Illustrator 16.0.0, SVG Export Plug-In . SVG Version: 6.00 Build 0)  -->
<!DOCTYPE svg PUBLIC "-//W3C//DTD SVG 1.1//EN" "http://www.w3.org/Graphics/SVG/1.1/DTD/svg11.dtd">
<svg version="1.1" id="Layer_1" xmlns="http://www.w3.org/2000/svg" xmlns:xlink="http://www.w3.org/1999/xlink" x="0px" y="0px"
	 width="275px" height="275px" viewBox="0 0 275 275" enable-background="new 0 0 275 275" xml:space="preserve">
<g>
	<g>
		<path fill="#231F20" d="M182.606,31.816c1.046,9.252-2.514,19.153,1.354,28.004c1.578,3.611,5.429,6.246,8.542,8.434
			c4.986,3.505,10.4,6.224,15.026,10.25c4.34,3.777,7.298,9.119,10.936,13.558c3.983,4.86,8.767,8.627,13.855,12.245
			c5.729,4.073,10.482,8.406,14.886,13.858c3.14,3.889,6.406,7.225,11.063,9.185c0.693,0.292,0.992-0.838,0.311-1.125
			c-5.393-2.27-8.791-6.718-12.363-11.127c-3.092-3.817-6.678-6.954-10.611-9.867c-4.923-3.646-9.877-7.012-14.117-11.483
			c-4.126-4.352-7.192-9.536-11.104-14.051c-6.463-7.46-16.575-10.473-23.378-17.584c-7.209-7.537-2.187-21.042-3.233-30.296
			C183.689,31.078,182.521,31.069,182.606,31.816L182.606,31.816z"/>
	</g>
</g>
<g>
	<g>
		<path fill="#231F20" d="M184.615,32.399c2.508-0.001,5.536,0.188,7.541-1.596c0.563-0.5-0.265-1.322-0.824-0.824
			c-1.72,1.529-4.577,1.252-6.717,1.254C183.863,31.233,183.863,32.399,184.615,32.399L184.615,32.399z"/>
	</g>
</g>
<g>
	<g>
		<path fill="#231F20" d="M191.332,30.803c21.106,26.608,55.888,37.554,76.99,64.157c0.467,0.589,1.286-0.242,0.824-0.824
			c-21.105-26.608-55.887-37.554-76.99-64.157C191.689,29.39,190.87,30.221,191.332,30.803L191.332,30.803z"/>
	</g>
</g>
<g>
	<g>
		<path fill="#231F20" d="M264.455,99.409c0.951,0,1.903,0,2.854,0c0.752,0,0.752-1.166,0-1.166c-0.951,0-1.903,0-2.854,0
			C263.703,98.243,263.703,99.409,264.455,99.409L264.455,99.409z"/>
	</g>
</g>
<g>
	<g>
		<path fill="#231F20" d="M182.896,33.745c13.573,9.536,27.703,18.25,41.16,27.957c13.884,10.015,27.867,21.312,37.045,35.992
			c0.398,0.636,1.407,0.051,1.008-0.589c-8.771-14.03-21.816-24.811-34.959-34.577c-14.151-10.516-29.247-19.661-43.666-29.79
			C182.867,32.305,182.285,33.316,182.896,33.745L182.896,33.745z"/>
	</g>
</g>
<g>
	<g>
		<path fill="#231F20" d="M266.727,100.252c-1.188,17.791,2.71,35.124,4.275,52.751c0.065,0.744,1.232,0.75,1.166,0
			c-1.565-17.622-5.462-34.968-4.275-52.751C267.942,99.501,266.776,99.506,266.727,100.252L266.727,100.252z"/>
	</g>
</g>
<g>
	<g>
		<path fill="#231F20" d="M260.179,159.289c2.577-0.061,4.348-1.258,6.116-3.021c0.533-0.531-0.291-1.355-0.824-0.824
			c-1.541,1.537-3.029,2.625-5.292,2.68C259.428,158.141,259.426,159.309,260.179,159.289L260.179,159.289z"/>
	</g>
</g>
<g>
	<g>
		<path fill="#231F20" d="M262.619,97.812c1.807,1.647,4.721,1.646,6.527,0c0.558-0.507-0.27-1.33-0.824-0.824
			c-1.324,1.206-3.555,1.207-4.879,0C262.889,96.482,262.062,97.305,262.619,97.812L262.619,97.812z"/>
	</g>
</g>
<g>
	<g>
		<path fill="#231F20" d="M265.3,97.4c1.054,19.686-9.754,39.057-4.258,58.612c0.065,0.23,0.308,0.453,0.562,0.428
			c2.67-0.275,4.199-1.156,6.117-3.023c0.54-0.525-0.285-1.348-0.824-0.824c-6.871,6.686-6.347-5.85-6.296-9.652
			c0.073-5.539,1.188-11.05,2.271-16.463c1.928-9.642,4.124-19.176,3.594-29.077C266.426,96.652,265.26,96.648,265.3,97.4
			L265.3,97.4z"/>
	</g>
</g>
<g>
	<g>
		<path fill="#231F20" d="M149.733,76.037c11.26-4.52,22.419-9.275,33.57-14.054c0.689-0.295,0.095-1.3-0.588-1.007
			c-11.059,4.739-22.127,9.454-33.293,13.936C148.734,75.189,149.035,76.317,149.733,76.037L149.733,76.037z"/>
	</g>
</g>
<g>
	<g>
		<path fill="#231F20" d="M218.773,147.584c14.21-1.154,29.464-8.505,39.285-18.831c0.519-0.544-0.306-1.37-0.824-0.824
			c-9.599,10.09-24.56,17.358-38.461,18.489C218.029,146.479,218.023,147.645,218.773,147.584L218.773,147.584z"/>
	</g>
</g>
<g>
	<g>
		<path fill="#231F20" d="M222.955,167.719c12.387-6.338,23.424-15.283,37.18-18.6c0.73-0.178,0.421-1.301-0.311-1.125
			c-13.853,3.34-24.979,12.332-37.457,18.717C221.697,167.053,222.287,168.061,222.955,167.719L222.955,167.719z"/>
	</g>
</g>
<g>
	<g>
		<path fill="#231F20" d="M224.838,173.996c15.189,3.275,22.173-13.635,36.074-15.549c0.742-0.104,0.425-1.227-0.311-1.125
			c-13.58,1.871-20.825,18.703-35.453,15.549C224.415,172.713,224.104,173.838,224.838,173.996L224.838,173.996z"/>
	</g>
</g>
<g>
	<g>
		<path fill="#231F20" d="M150.355,73.336c-11.369,0.233-21.879,4.887-31.866,9.939c-12.387,6.267-24.119,12.818-37.231,17.55
			c-25.386,9.159-51.634,16.277-75.029,30.123c-0.646,0.382-0.06,1.391,0.589,1.007c23.281-13.778,49.447-20.98,74.75-30.005
			c11.087-3.955,21.212-8.981,31.564-14.545c11.535-6.2,23.841-12.627,37.223-12.902C151.106,74.487,151.108,73.321,150.355,73.336
			L150.355,73.336z"/>
	</g>
</g>
<g>
	<g>
		<path fill="#231F20" d="M5.164,130.674c0.718,11.121-0.649,22.294-2.312,33.275c-0.111,0.734,1.013,1.051,1.125,0.311
			c1.678-11.088,3.078-22.357,2.353-33.585C6.281,129.928,5.115,129.923,5.164,130.674L5.164,130.674z"/>
	</g>
</g>
<g>
	<g>
		<path fill="#231F20" d="M3.897,162.277c4.804,2.424,7.721,6.762,10.33,11.307c1.022,1.781,1.952,3.617,2.929,5.422
			c1.612,2.98,1.47,6.367,2.262,9.576c0.979,3.963,5.228,6.709,8.119,9.162c5.02,4.26,4.847,9.129,7.191,14.719
			c1.588,3.785,5.658,6.748,7.839,10.271c2.225,3.594,4.033,7.42,6.346,10.965c1.845,2.828,4.116,5.365,7.107,6.982
			c0.91,0.492,2.096,0.857,3.131,0.918c1.133,0.066,2.646,6.404,2.787,7.404c0.033,0.23,0.332,0.457,0.562,0.428
			c6.46-0.795,12.922-1.482,19.437-1.555c0.334-0.004,0.561-0.264,0.583-0.582c0.236-3.402,1.122-6.191-0.021-9.486
			c-0.212-0.611-1.136-0.523-1.146,0.156c-0.055,3.932,0.503,8.984,5.322,9.35c5.131,0.389,10.692-4.469,14.398-7.369
			c4.286-3.355,8.052-7.271,12.207-10.766c4.757-4.002,10.036-2.465,15.508-2.193c4.583,0.227,8.803-1.42,12.554-3.924
			c3.746-2.5,6.783-5.996,10.081-9.027c4.895-4.498,10.411-6.129,16.862-7.156c13.198-2.104,23.634-9.293,34.625-16.561
			c7.493-4.953,18.699-9.664,21.999-18.689c2.661-7.283-0.196-18.561-4.081-24.922c-0.392-0.641-1.4-0.057-1.008,0.588
			c4.436,7.264,6.91,19.477,2.512,27.158c-2.374,4.146-7.496,6.555-11.343,9.094c-4.929,3.252-9.827,6.555-14.775,9.781
			c-5.132,3.346-10.398,6.379-15.848,9.174c-4.723,2.422-10.102,2.828-15.238,3.729c-9.135,1.602-14.165,6.795-20.707,12.844
			c-4.055,3.748-8.65,6.391-14.251,6.74c-3.623,0.225-7.121-1.018-10.74-0.557c-4.842,0.613-8.155,4.168-11.525,7.268
			c-4.356,4.004-8.875,7.918-13.941,11.006c-2.193,1.338-4.672,2.576-7.289,2.617c-4.074,0.062-4.196-5.342-4.156-8.184
			c-0.382,0.051-0.764,0.104-1.146,0.154c0.359,1.035,1.757,8.58-1.152,8.611c-2.973,0.031-5.945,0.287-8.905,0.549
			c-0.929,0.082-8.246,1.484-8.428,0.191c-0.321-2.27-1.832-4.229-2.159-6.551c-0.037-0.262-0.328-0.414-0.562-0.428
			c-8.493-0.496-12.458-11.111-16.068-17.453c-1.831-3.215-4.04-5.893-6.554-8.582c-3.509-3.754-2.963-9.314-5.481-13.602
			c-1.809-3.078-5.321-5.221-7.93-7.551c-2.874-2.564-3.842-5.316-4.287-9.02c-0.188-1.561-0.381-3.529-1.161-4.926
			c-3.747-6.707-6.982-14.445-14.203-18.09C3.816,160.932,3.226,161.938,3.897,162.277L3.897,162.277z"/>
	</g>
</g>
<g>
	<g>
		<path fill="#231F20" d="M219.765,152.6c1.596,7.396,4.627,14.369,6.221,21.768c0.158,0.734,1.283,0.422,1.125-0.311
			c-1.595-7.398-4.626-14.371-6.221-21.768C220.73,151.555,219.606,151.865,219.765,152.6L219.765,152.6z"/>
	</g>
</g>
<g>
	<g>
		<path fill="#231F20" d="M218.211,147.934c2.495,8.43,7.384,15.602,6.977,24.723c-0.033,0.752,1.133,0.75,1.166,0
			c0.413-9.25-4.481-16.463-7.018-25.033C219.123,146.904,217.997,147.211,218.211,147.934L218.211,147.934z"/>
	</g>
</g>
<g>
	<g>
		<path fill="#231F20" d="M148.646,76.037c9.504,2.799,15.291,12.541,20.618,20.257c2.618,3.792,4.259,7.197,7.67,10.381
			c2.764,2.58,6.443,3.301,9.669,5.066c3.795,2.078,7.475,4.464,11.176,6.706c4.271,2.587,9.751,5.308,12.29,9.75
			c3.29,5.755,1.769,14.206,8.411,17.752c0.663,0.354,1.252-0.654,0.588-1.008c-6.995-3.734-4.986-14.487-9.989-20.121
			c-2.735-3.082-7.26-5.259-10.711-7.38c-4.052-2.49-8.129-5.037-12.3-7.321c-4.632-2.536-8.9-3.805-12.229-8.361
			c-2.664-3.646-4.804-7.709-7.457-11.403c-4.626-6.441-9.48-13.103-17.426-15.443C148.232,74.699,147.926,75.825,148.646,76.037
			L148.646,76.037z"/>
	</g>
</g>
<g>
	<g>
		<path fill="#231F20" d="M158.346,72.209c-0.943,5.129,2.396,9.462,5.603,13.107c4.722,5.368,10.739,9.398,15.54,14.671
			c3.423,3.76,5.824,7.254,11.095,6.269c7.551-1.411,13.968-4.675,20.051-9.378c0.389-0.3,0.094-0.833-0.257-0.975
			c-1.465-0.592-2.501-0.766-4.043-0.798c-0.753-0.016-0.751,1.15,0,1.166c3.547,0.076,2.401,0.625,0.628,1.851
			c-1.577,1.089-3.239,2.05-4.907,2.991c-3.062,1.728-6.201,2.944-9.644,3.593c-2.446,0.461-4.786,1.398-6.916-0.331
			c-2.058-1.672-3.933-3.839-5.711-5.792c-3.49-3.833-7.771-6.989-11.537-10.544c-4.039-3.812-9.905-9.385-8.776-15.52
			C159.605,71.784,158.481,71.47,158.346,72.209L158.346,72.209z"/>
	</g>
</g>
<g>
	<g>
		<path fill="#231F20" d="M185.754,105.43c6.212-6.506,15.902-7.386,23.845-10.734c0.682-0.288,0.383-1.417-0.311-1.125
			c-8.135,3.43-17.987,4.361-24.358,11.035C184.41,105.149,185.234,105.975,185.754,105.43L185.754,105.43z"/>
	</g>
</g>
<g>
	<g>
		<path fill="#231F20" d="M196.5,91.507c-2.469,3.952-6.157,6.743-10.536,8.284c-0.704,0.248-0.401,1.375,0.311,1.125
			c4.672-1.644,8.598-4.603,11.233-8.82C197.907,91.456,196.897,90.871,196.5,91.507L196.5,91.507z"/>
	</g>
</g>
<g>
	<g>
		<path fill="#231F20" d="M167.46,86.942c5.286-0.609,9.518,2.303,11.1,7.347c0.225,0.715,1.351,0.41,1.125-0.31
			c-1.725-5.498-6.418-8.872-12.225-8.203C166.722,85.861,166.714,87.028,167.46,86.942L167.46,86.942z"/>
	</g>
</g>
<g>
	<g>
		<path fill="#231F20" d="M161.724,75.978c1.104,0.539,2.173,0.856,3.403,0.857c0.752,0,0.752-1.166,0-1.166
			c-1.021-0.001-1.894-0.248-2.815-0.698C161.639,74.643,161.048,75.648,161.724,75.978L161.724,75.978z"/>
	</g>
</g>
<g>
	<g>
		<path fill="#231F20" d="M178.71,74.332c0.834,0.835,1.761,1.961,2.894,2.392c0.421,0.16,0.928,0.099,1.185-0.311
			c0.34-0.544,0.144-1.295,0.007-1.871c-0.174-0.732-1.299-0.421-1.125,0.31c0.052,0.219,0.104,0.437,0.127,0.661
			c0.02,0.197-0.078,0.312,0.11,0.176c0.127-0.091,0.213,0,0.065-0.067c-0.16-0.072-0.306-0.177-0.448-0.277
			c-0.732-0.515-1.36-1.207-1.99-1.837C179.002,72.975,178.178,73.799,178.71,74.332L178.71,74.332z"/>
	</g>
</g>
<g>
	<g>
		<path fill="#231F20" d="M185.187,87.699c1.996,0.498,6.759,2.091,6.958-1.34c0.044-0.751-1.123-0.748-1.166,0
			c-0.116,1.998-4.387,0.489-5.481,0.215C184.767,86.393,184.457,87.517,185.187,87.699L185.187,87.699z"/>
	</g>
</g>
<g>
	<g>
		<path fill="#231F20" d="M177.412,64.375c0.826,0.299,4.556,0.736,2.333,1.208c-0.636,0.135-0.5,1.228,0.155,1.146
			c15.063-1.878,23.864,17.764,31.371,27.7c0.447,0.592,1.461,0.012,1.008-0.589c-7.729-10.229-16.769-30.224-32.379-28.277
			c0.052,0.382,0.104,0.764,0.155,1.146c0.878-0.187,1.662-0.459,2.471-0.837c0.4-0.187,0.36-0.809,0-1.007
			c-1.507-0.83-3.19-1.03-4.804-1.614C177.014,62.993,176.711,64.12,177.412,64.375L177.412,64.375z"/>
	</g>
</g>
<g>
	<g>
		<path fill="#231F20" d="M229.364,107.854c5.488,3.964,10.623,8.361,15.431,13.125c0.534,0.53,1.359-0.294,0.824-0.824
			c-4.878-4.835-10.099-9.287-15.667-13.308C229.342,106.406,228.761,107.418,229.364,107.854L229.364,107.854z"/>
	</g>
</g>
<g>
	<g>
		<path fill="#231F20" d="M215.858,127.564c-1.094,19.118,24.363-1.068,30.421-4.938c-0.285-0.219-0.57-0.439-0.856-0.658
			c-2.685,10.564-13.021,13.438-22.762,13.566c-0.751,0.01-0.752,1.176,0,1.166c10.307-0.134,21.073-3.35,23.887-14.422
			c0.121-0.477-0.411-0.943-0.856-0.658c-4.678,2.988-9.075,6.361-13.877,9.167c-5.9,3.448-15.398,7.424-14.79-3.222
			C217.067,126.812,215.901,126.816,215.858,127.564L215.858,127.564z"/>
	</g>
</g>
<g>
	<g>
		<path fill="#231F20" d="M13.018,141.854c20.187,27.895,25.189,67.945,55.409,88.064c0.628,0.418,1.211-0.594,0.589-1.008
			c-29.979-19.957-34.956-59.961-54.991-87.645C13.588,140.662,12.576,141.242,13.018,141.854L13.018,141.854z"/>
	</g>
</g>
<g>
	<g>
		<path fill="#231F20" d="M69.344,229.977c11.204,2.369,22.719-4.172,31.963-9.719c11.461-6.877,21.77-15.465,33.13-22.482
			c27.417-16.934,61.587-22.303,85.527-44.92c0.548-0.518-0.278-1.34-0.824-0.824c-23.173,21.893-56.535,28.547-83.79,43.85
			c-10.567,5.932-19.989,13.939-30.135,20.551c-9.896,6.447-23.147,15.045-35.561,12.42C68.92,228.695,68.608,229.82,69.344,229.977
			L69.344,229.977z"/>
	</g>
</g>
<g>
	<g>
		<path fill="#231F20" d="M151.427,170.826c18.121-8.674,36.24-17.635,55.839-22.484c0.729-0.182,0.42-1.307-0.311-1.125
			c-19.695,4.875-37.906,13.885-56.116,22.602C150.16,170.145,150.752,171.148,151.427,170.826L151.427,170.826z"/>
	</g>
</g>
<g>
	<g>
		<path fill="#231F20" d="M72.765,183.328c12.675-4.865,26.051-12.936,40.118-10.109c0.734,0.148,1.047-0.977,0.31-1.125
			c-14.347-2.883-27.8,5.145-40.737,10.109C71.76,182.469,72.062,183.598,72.765,183.328L72.765,183.328z"/>
	</g>
</g>
<g>
	<g>
		<path fill="#231F20" d="M51.205,217.385c4.213,3.57,7.786,7.75,11.663,11.662c0.53,0.535,1.354-0.289,0.824-0.824
			c-3.876-3.912-7.449-8.094-11.663-11.662C51.459,216.078,50.63,216.898,51.205,217.385L51.205,217.385z"/>
	</g>
</g>
<g>
	<g>
		<path fill="#231F20" d="M81.316,224.533c14.113-4.941,25.832-14.635,39.651-20.213c0.688-0.279,0.388-1.406-0.31-1.125
			c-13.82,5.58-25.546,15.273-39.651,20.213C80.301,223.654,80.604,224.781,81.316,224.533L81.316,224.533z"/>
	</g>
</g>
<g>
	<g>
		<path fill="#231F20" d="M43.065,141.363c15.101,1.814,26.63-9.732,41.206-10.883c0.745-0.059,0.75-1.226,0-1.166
			c-14.554,1.149-26.181,12.69-41.206,10.883C42.32,140.107,42.329,141.273,43.065,141.363L43.065,141.363z"/>
	</g>
</g>
<g>
	<g>
		<path fill="#231F20" d="M120.034,139.031c26.162,2.754,37.413-38.467,65.152-28.008c0.705,0.266,1.007-0.862,0.311-1.125
			c-11.914-4.492-22.098,0.919-31.241,8.514c-9.824,8.16-20.058,20.945-34.222,19.454
			C119.287,137.787,119.294,138.954,120.034,139.031L120.034,139.031z"/>
	</g>
</g>
<g>
	<g>
		<path fill="#231F20" d="M183.632,114.563c-3.518,0.923-6.553,2.705-8.809,5.592c-0.458,0.585,0.361,1.417,0.824,0.824
			c2.142-2.739,4.953-4.415,8.295-5.292C184.669,115.497,184.36,114.372,183.632,114.563L183.632,114.563z"/>
	</g>
</g>
<g>
	<g>
		<path fill="#231F20" d="M172.418,146.729c6.555-2.979,12.845-6.699,20.076-7.717c0.742-0.105,0.425-1.229-0.311-1.125
			c-7.335,1.033-13.708,4.815-20.354,7.834C171.146,146.031,171.739,147.037,172.418,146.729L172.418,146.729z"/>
	</g>
</g>
<g>
	<g>
		<path fill="#231F20" d="M65.906,163.055c9.587-7.379,23.062-8.342,34.692-9.25c0.745-0.059,0.75-1.225,0-1.166
			c-11.849,0.926-25.52,1.896-35.281,9.408C64.73,162.5,65.31,163.514,65.906,163.055L65.906,163.055z"/>
	</g>
</g>
<g>
	<g>
		<path fill="#231F20" d="M82.871,166.223c20.686-3.176,38.328-14.258,57.534-21.77c0.692-0.271,0.391-1.4-0.311-1.125
			c-19.189,7.506-36.868,18.598-57.533,21.77C81.819,165.211,82.135,166.334,82.871,166.223L82.871,166.223z"/>
	</g>
</g>
<g>
	<g>
		<path fill="#231F20" d="M208.083,98.798c-0.076,0.665-0.2,1.279-0.004,1.921c0.055,0.181,0.209,0.374,0.407,0.407
			c1.206,0.206,2.088-1.602,2.72-2.364c4.114-4.962,10.67-1.157,13.37,3.396c2.327,3.923,2.333,9.122,2.977,13.51
			c0.331,2.256,2.227,5.062-0.625,6.255c-1.937,0.811-8.689,3.434-6.813-1.202c0.266-0.657-0.709-0.942-1.066-0.449
			c-3.483,4.819-1.105,11.11-5.353,15.432c-0.527,0.536,0.297,1.361,0.824,0.824c4.472-4.549,1.938-10.691,5.536-15.667
			c-0.355-0.15-0.711-0.3-1.066-0.449c-0.593,1.464-0.766,2.5-0.799,4.042c-0.007,0.305,0.271,0.601,0.583,0.583
			c3.938-0.223,7.632-1.521,11.179-3.189c0.216-0.102,0.357-0.434,0.269-0.658c-2.909-7.331-0.752-18.514-8.044-23.673
			c-2.383-1.686-5.228-2.702-8.212-2.284c-1.149,0.161-2.242,1.308-3.004,2.059c-0.854,0.841-1.943,3.518-1.712,1.506
			C209.335,98.052,208.168,98.06,208.083,98.798L208.083,98.798z"/>
	</g>
</g>
<g>
	<g>
		<path fill="#231F20" d="M197.004,104.435c-3.782,0.094-7.069,1.526-10.401,3.19c-0.673,0.336-0.082,1.342,0.588,1.007
			c3.149-1.572,6.236-2.942,9.813-3.031C197.755,105.583,197.757,104.417,197.004,104.435L197.004,104.435z"/>
	</g>
</g>
<g>
	<g>
		<path fill="#231F20" d="M204.275,105.501c-1.93,3.828-2.544,8.87,2.218,10.805c4.575,1.86,10.241,0.638,14.128-2.233
			c0.599-0.441,0.018-1.455-0.588-1.007c-3.196,2.36-7.329,3.4-11.258,2.724c-5.33-0.916-5.574-5.571-3.492-9.7
			C205.62,105.42,204.614,104.83,204.275,105.501L204.275,105.501z"/>
	</g>
</g>
<g>
	<g>
		<path fill="#231F20" d="M199.551,112.638c-2.145,9.743,8.411,9.96,14.851,6.878c0.679-0.325,0.087-1.33-0.588-1.007
			c-5.388,2.579-15.045,3.101-13.138-5.562C200.837,112.214,199.713,111.903,199.551,112.638L199.551,112.638z"/>
	</g>
</g>
<g>
	<g>
		<path fill="#FFFFFF" d="M213.33,104.435c-0.777,0-1.554,0-2.331,0c-0.752,0-0.752,1.166,0,1.166c0.777,0,1.554,0,2.331,0
			C214.082,105.601,214.082,104.435,213.33,104.435L213.33,104.435z"/>
	</g>
</g>
<g>
	<g>
		<path fill="#FFFFFF" d="M211.481,105.521c1.38,0.67,2.661,0.856,4.182,0.857c0.752,0,0.752-1.166,0-1.166
			c-1.306-0.001-2.403-0.121-3.594-0.698C211.396,104.188,210.805,105.193,211.481,105.521L211.481,105.521z"/>
	</g>
</g>
<g>
	<g>
		<path fill="#231F20" d="M264.799,155.338c2.042-0.652,4.178-0.904,6.221-1.555c0.714-0.227,0.408-1.354-0.311-1.125
			c-2.043,0.65-4.178,0.904-6.221,1.555C263.775,154.441,264.08,155.568,264.799,155.338L264.799,155.338z"/>
	</g>
</g>
<g>
	<g>
		<path fill="#231F20" d="M220.587,109.877c-1.564-0.084-3.105-1.414-3.046-3.045c0.027-0.752-1.139-0.75-1.166,0
			c-0.084,2.287,2.035,4.095,4.212,4.211C221.339,111.084,221.335,109.917,220.587,109.877L220.587,109.877z"/>
	</g>
</g>
<g>
	<g>
		<path fill="#231F20" d="M208.772,102.839c1.408,1.612,3.358,2.494,5.49,1.964c0.729-0.182,0.42-1.306-0.311-1.125
			c-1.739,0.433-3.226-0.371-4.355-1.663C209.102,101.448,208.279,102.276,208.772,102.839L208.772,102.839z"/>
	</g>
</g>
<g>
	<g>
		<path fill="#231F20" d="M208.924,102.362c-0.519,0-1.037,0-1.556,0c-0.752,0-0.752,1.166,0,1.166c0.519,0,1.037,0,1.556,0
			C209.676,103.528,209.676,102.362,208.924,102.362L208.924,102.362z"/>
	</g>
</g>
<g>
	<g>
		<path fill="#231F20" d="M209.667,103.737c-0.613,0.307-1.176,0.65-1.673,1.127c-0.544,0.521,0.282,1.345,0.824,0.824
			c0.426-0.408,0.913-0.682,1.437-0.945C210.928,104.407,210.337,103.401,209.667,103.737L209.667,103.737z"/>
	</g>
</g>
<g>
	<g>
		<path fill="#231F20" d="M210.933,104.759c-0.014,0.616-0.178,1.203-0.606,1.661c-0.514,0.548,0.309,1.374,0.824,0.824
			c0.643-0.685,0.928-1.556,0.948-2.485C212.115,104.007,210.949,104.008,210.933,104.759L210.933,104.759z"/>
	</g>
</g>
<g>
	<g>
		<path fill="#231F20" d="M212.25,105.432c0.209,0.89,0.238,1.787,0.239,2.697c0,0.752,1.166,0.752,1.166,0
			c0-1.013-0.049-2.017-0.28-3.006C213.203,104.39,212.079,104.7,212.25,105.432L212.25,105.432z"/>
	</g>
</g>
<g>
	<g>
		<path fill="#231F20" d="M213.437,104.912c0.28,0.283,0.5,0.566,0.687,0.92c0.353,0.665,1.358,0.076,1.008-0.589
			c-0.23-0.436-0.523-0.807-0.87-1.155C213.73,103.553,212.906,104.378,213.437,104.912L213.437,104.912z"/>
	</g>
</g>
<g>
	<g>
		<path fill="#231F20" d="M216.404,107.366c-0.534,0.239-1.208,0.179-1.777,0.18c-0.752,0-0.752,1.167,0,1.166
			c0.81,0,1.615-0.003,2.365-0.339C217.678,108.066,217.084,107.062,216.404,107.366L216.404,107.366z"/>
	</g>
</g>
<g>
	<g>
		<path fill="#231F20" d="M215.938,108.611c-0.178,0.316-0.431,0.474-0.794,0.489c-0.749,0.031-0.752,1.197,0,1.166
			c0.768-0.032,1.419-0.389,1.802-1.066C217.315,108.544,216.308,107.956,215.938,108.611L215.938,108.611z"/>
	</g>
</g>
<g>
	<g>
		<path fill="#231F20" d="M216.698,106.249c-0.229,0-0.688,0.068-0.882-0.088c-0.579-0.468-1.409,0.352-0.824,0.824
			c0.503,0.406,1.081,0.429,1.706,0.43C217.45,107.417,217.45,106.25,216.698,106.249L216.698,106.249z"/>
	</g>
</g>
<g>
	<g>
		<path fill="#231F20" d="M217.413,110.201c-0.016,0.62-0.171,1.221-0.44,1.779c-0.325,0.674,0.681,1.266,1.008,0.589
			c0.36-0.748,0.578-1.535,0.599-2.368C218.598,109.449,217.432,109.451,217.413,110.201L217.413,110.201z"/>
	</g>
</g>
<g>
	<g>
		<path fill="#231F20" d="M218.527,111.273c0.159,0.335,0.181,0.635,0.182,1.001c0.002,0.752,1.168,0.752,1.166,0
			c-0.001-0.581-0.091-1.063-0.34-1.59C219.213,110.005,218.208,110.597,218.527,111.273L218.527,111.273z"/>
	</g>
</g>
<g>
	<g>
		<path fill="#231F20" d="M219.226,110.72c0.04,0.926,0.501,1.851,1.326,2.318c0.654,0.372,1.242-0.636,0.588-1.007
			c-0.462-0.263-0.726-0.791-0.748-1.312C220.359,109.971,219.192,109.967,219.226,110.72L219.226,110.72z"/>
	</g>
</g>
<g>
	<g>
		<path fill="#231F20" d="M207.068,110.876c0.608,1.926,2.341,3.083,4.346,2.48c0.718-0.216,0.412-1.342-0.311-1.125
			c-1.383,0.416-2.488-0.328-2.91-1.665C207.968,109.852,206.842,110.157,207.068,110.876L207.068,110.876z"/>
	</g>
</g>
<g>
	<g>
		<path fill="#231F20" d="M210.48,109.49c0.752,0,0.752-1.166,0-1.166S209.729,109.49,210.48,109.49L210.48,109.49z"/>
	</g>
</g>
<g>
	<g>
		<path fill="#231F20" d="M127.81,90.829c0.752,0,0.752-1.166,0-1.166S127.058,90.829,127.81,90.829L127.81,90.829z"/>
	</g>
</g>
<g>
	<g>
		<path fill="#231F20" d="M110.706,102.88c-7.605,0.756-15.594-1.365-22.997,0.991c-6.909,2.2-10.805,10.47-11.401,17.201
			c-1.289,14.564,16.917,8.238,25.222,7.055c-0.189-0.325-0.378-0.65-0.567-0.975c-1.445,1.721-2.438,3.719-3.887,5.442
			c-0.264,0.314-0.204,0.871,0.257,0.975c3.907,0.874,11.965-0.035,9.436-5.806c-3.274-7.471-14.498-2.78-19.543-0.761
			c-0.689,0.276-0.389,1.404,0.31,1.125c4.414-1.767,9.265-3.808,14.106-2.988c1.772,0.565,3.146,1.636,4.12,3.212
			c2.515,3.467-3.544,4.348-4.859,4.463c-4.146,0.363-0.34-3.38,0.884-4.838c0.396-0.471,0.013-1.057-0.567-0.975
			c-4.862,0.693-9.636,1.938-14.538,2.346c-7.406,0.617-10.245-3.332-8.811-10.523c1.604-8.042,6.618-13.972,14.903-14.781
			c5.958-0.582,11.95,0.597,17.931,0.002C111.447,103.972,111.454,102.806,110.706,102.88L110.706,102.88z"/>
	</g>
</g>
<g>
	<g>
		<path fill="#231F20" d="M89.419,121.071c9.249,3.988,22.599,5.957,31.027-0.869c-0.325-0.189-0.649-0.378-0.975-0.567
			c-0.295,1.33-0.466,1.6,0.059,2.782c0.119,0.269,0.562,0.384,0.798,0.209c12.731-9.461-10.134-18.104-17.243-20.503
			c-0.714-0.241-1.019,0.886-0.31,1.125c4.364,1.473,8.626,3.216,12.67,5.43c2.205,1.207,4.273,2.66,6.008,4.485
			c1.232,1.297,1.888,2.898,1.525,4.67c-0.175,0.857-2.853,4.231-2.382,2.111c0.133-0.601-0.527-0.929-0.975-0.567
			c-7.957,6.443-20.896,4.445-29.614,0.686C89.325,119.77,88.73,120.774,89.419,121.071L89.419,121.071z"/>
	</g>
</g>
<g>
	<g>
		<path fill="#231F20" d="M101.787,118.647c3.994-5.018,11.516-3.483,15.55-8.553c0.357-0.448,0.037-1.108-0.567-0.975
			c-4.457,0.99-8.856,2.849-12.58,5.502c0.266,0.266,0.532,0.532,0.798,0.798c2.279-4.08,8.043-7.495,12.419-4.456
			c0.62,0.43,1.202-0.581,0.589-1.007c-4.887-3.394-11.44,0.263-14.015,4.874c-0.267,0.479,0.298,1.154,0.798,0.798
			c3.658-2.607,7.922-4.412,12.301-5.384c-0.189-0.325-0.378-0.65-0.567-0.975c-3.994,5.018-11.516,3.483-15.55,8.553
			C100.5,118.405,101.319,119.236,101.787,118.647L101.787,118.647z"/>
	</g>
</g>
<g>
	<g>
		<path fill="#231F20" d="M102.427,118.53c2.629,4.126,6.79,5.617,11.542,4.932c0.742-0.107,0.425-1.231-0.31-1.125
			c-4.208,0.606-7.899-0.744-10.226-4.396C103.031,117.309,102.022,117.894,102.427,118.53L102.427,118.53z"/>
	</g>
</g>
<g>
	<g>
		<path fill="#231F20" d="M117.29,111.65c2.034,2.108,2.9,4.451,2.939,7.362c0.01,0.751,1.176,0.752,1.166,0
			c-0.043-3.213-1.039-5.863-3.281-8.187C117.591,110.284,116.768,111.109,117.29,111.65L117.29,111.65z"/>
	</g>
</g>
<g>
	<g>
		<path fill="#231F20" d="M110.082,118.45c-0.251-0.087-0.537-0.174-0.741-0.354c0.01,0.009,0.018,0.153-0.006,0.203
			c0.032-0.065,0.141-0.131,0.196-0.169c0.622-0.426,1.401-0.649,2.107-0.887c0.709-0.239,0.405-1.365-0.31-1.125
			c-0.61,0.206-1.212,0.426-1.799,0.689c-0.422,0.19-0.896,0.443-1.16,0.84c-0.679,1.022,0.63,1.658,1.403,1.928
			C110.484,119.823,110.788,118.696,110.082,118.45L110.082,118.45z"/>
	</g>
</g>
<g>
	<g>
		<path fill="#231F20" d="M116.709,115.28c0.101-0.3,0.205-0.6,0.317-0.896c0.027-0.07,0.054-0.137,0.084-0.205
			c0.059-0.129,0.043-0.074,0.011-0.049c-0.137,0.057-0.275,0.114-0.412,0.171c0.003,0,0.007,0,0.01,0
			c-0.168-0.097-0.336-0.193-0.503-0.289c-0.103-0.16-0.055-0.308-0.083-0.161c-0.032,0.166-0.076,0.329-0.119,0.492
			c-0.125,0.473-0.276,0.939-0.43,1.404c-0.237,0.716,0.89,1.02,1.125,0.31c0.188-0.569,0.37-1.142,0.511-1.725
			c0.068-0.279,0.171-0.644,0.003-0.908c-0.28-0.438-0.825-0.329-1.068,0.066c-0.27,0.437-0.409,1-0.571,1.481
			C115.344,115.685,116.471,115.989,116.709,115.28L116.709,115.28z"/>
	</g>
</g>
<g>
	<g>
		<path fill="#231F20" d="M119.669,111.65c0.944-0.992,0.947-2.224,0.948-3.521c0-0.752-1.166-0.752-1.166,0
			c0,0.948,0.093,1.962-0.606,2.697C118.327,111.37,119.15,112.196,119.669,111.65L119.669,111.65z"/>
	</g>
</g>
<g>
	<g>
		<path fill="#231F20" d="M121.375,112.947c0.562-1.662,1.206-3.444,2.842-4.315c0.664-0.354,0.075-1.36-0.589-1.007
			c-1.915,1.02-2.717,3.062-3.378,5.013C120.008,113.352,121.135,113.656,121.375,112.947L121.375,112.947z"/>
	</g>
</g>
<g>
	<g>
		<path fill="#231F20" d="M120.658,112.578c1.846,0.591,3.667,0.796,5.597,0.797c0.752,0,0.752-1.166,0-1.166
			c-1.828-0.001-3.538-0.197-5.287-0.756C120.249,111.224,119.944,112.35,120.658,112.578L120.658,112.578z"/>
	</g>
</g>
<g>
	<g>
		<path fill="#231F20" d="M122.366,117.263c1.794-0.062,3.383-0.848,4.96-1.634c0.673-0.335,0.082-1.341-0.589-1.007
			c-1.385,0.69-2.794,1.42-4.372,1.475C121.616,116.123,121.614,117.29,122.366,117.263L122.366,117.263z"/>
	</g>
</g>
<g>
	<g>
		<path fill="#231F20" d="M104.33,117.673c-2.007,0.639-3.974,0.755-6.064,0.756c-0.752,0-0.752,1.167,0,1.166
			c2.196-0.001,4.269-0.127,6.374-0.797C105.354,118.57,105.048,117.444,104.33,117.673L104.33,117.673z"/>
	</g>
</g>
<g>
	<g>
		<path fill="#231F20" d="M106.04,119.207c-2.073,0-4.146,0-6.219,0c-0.752,0-0.752,1.166,0,1.166c2.073,0,4.146,0,6.219,0
			C106.792,120.373,106.792,119.207,106.04,119.207L106.04,119.207z"/>
	</g>
</g>
<g>
	<g>
		<path fill="#231F20" d="M105.628,119.378c-0.93,0.878-2.206,1.348-3.475,1.384c-0.75,0.021-0.752,1.188,0,1.166
			c1.58-0.045,3.143-0.634,4.299-1.726C107,119.685,106.174,118.862,105.628,119.378L105.628,119.378z"/>
	</g>
</g>
<g>
	<g>
		<path fill="#231F20" d="M107.183,120.155c-1.456,1.417-3.209,2.47-4.665,3.888c-0.54,0.525,0.286,1.349,0.824,0.824
			c1.456-1.417,3.208-2.47,4.665-3.888C108.547,120.455,107.722,119.63,107.183,120.155L107.183,120.155z"/>
	</g>
</g>
<g>
	<g>
		<path fill="#231F20" d="M96.71,126.204c-1.586,0.117-3.079,0.659-4.665,0.777c0.098,0.362,0.196,0.724,0.294,1.086
			c2.906-1.728,7.301-1.472,10.591-1.475c0.752,0,0.752-1.167,0-1.166c-3.487,0.002-8.084-0.207-11.18,1.634
			c-0.474,0.282-0.304,1.131,0.294,1.086c1.586-0.117,3.079-0.659,4.665-0.777C97.456,127.315,97.461,126.148,96.71,126.204
			L96.71,126.204z"/>
	</g>
</g>
<g>
	<g>
		<path fill="#231F20" d="M113.521,119.516c0.619,0.305,1.566,0.84,2.266,0.477c0.808-0.419,0.378-1.45,0.086-2.051
			c-0.328-0.677-1.333-0.085-1.007,0.589c0.088,0.183,0.164,0.362,0.216,0.559c0.054,0.206,0.042-0.134,0.232-0.149
			c-0.391,0.03-0.871-0.267-1.205-0.431C113.437,118.178,112.846,119.184,113.521,119.516L113.521,119.516z"/>
	</g>
</g>
<g>
	<g>
		<path fill="#231F20" d="M107.96,110.048c-1.034,1.198-1.285,3.082-2.852,3.737c0.246,0.188,0.492,0.375,0.738,0.562
			c-0.201-2.586,0.437-5.23,2.622-6.838c2.551-1.877,5.084,0.276,6.399,2.467c0.219-0.286,0.439-0.571,0.658-0.857
			c-5.118-0.736-9.803,1.037-12.32,5.711c-0.254,0.471,0.299,1.172,0.798,0.798c2.008-1.505,3.975-2.764,6.219-3.888
			c-0.292-0.168-0.585-0.335-0.877-0.503c-0.09,1.193-1.264,0.532-2.043,1.051c-0.622,0.415-0.039,1.425,0.589,1.007
			c0.544-0.363,1.355-0.044,1.975-0.337c0.587-0.277,0.606-1.202,0.646-1.721c0.036-0.472-0.513-0.686-0.877-0.503
			c-2.244,1.123-4.211,2.382-6.219,3.888c0.266,0.266,0.532,0.532,0.798,0.798c2.253-4.184,6.402-5.837,11.003-5.175
			c0.474,0.068,0.948-0.373,0.658-0.857c-1.469-2.448-4.185-4.784-7.193-3.322c-3.119,1.515-4.255,5.012-4,8.282
			c0.026,0.334,0.361,0.72,0.738,0.562c2.103-0.879,1.987-2.438,3.367-4.038C109.273,110.307,108.452,109.478,107.96,110.048
			L107.96,110.048z"/>
	</g>
</g>
<g>
	<g>
		<path fill="#231F20" d="M108.217,118.45c-1.033,0.335-2.103,0.54-3.134,0.876c-0.622,0.203-1.122,0.553-1.182,1.242
			c-0.065,0.75,1.102,0.743,1.166,0c0.004-0.045,0.842-0.271,1.005-0.313c0.823-0.216,1.645-0.417,2.454-0.68
			C109.239,119.343,108.935,118.217,108.217,118.45L108.217,118.45z"/>
	</g>
</g>
<g>
	<g>
		<path fill="#231F20" d="M106.04,118.041c2.599,0.033,4.962,0.601,7.292-0.857c-0.236-0.305-0.471-0.61-0.707-0.916
			c-1.138,1.09-2.381,1.574-3.77,2.241c0.292,0.168,0.585,0.335,0.877,0.503c0.044-0.5,0.314-1.016,0.516-1.463
			c0.112-0.249,0.238-0.49,0.365-0.73c0.077-0.146,0.479-0.585,0.199-0.478c-0.189-0.05-0.378-0.1-0.567-0.15
			c-0.034-0.045-0.068-0.089-0.102-0.134c0.102,0.743,1.225,0.425,1.125-0.31c-0.021-0.154-0.082-0.275-0.198-0.381
			c-0.145-0.13-0.371-0.226-0.567-0.15c-1.089,0.421-1.842,2.737-1.936,3.796c-0.042,0.478,0.517,0.677,0.877,0.503
			c1.488-0.714,2.793-1.262,4.005-2.423c0.478-0.457-0.142-1.269-0.707-0.916c-2.113,1.323-4.354,0.728-6.703,0.698
			C105.288,116.865,105.289,118.032,106.04,118.041L106.04,118.041z"/>
	</g>
</g>
<g>
	<g>
		<path fill="#231F20" d="M115.37,115.708c0.021,0.001,0.043,0.001,0.064,0.002c-0.326-0.012-0.417-0.297-0.275-0.854
			c0.288-0.333,0.977,0.221,0.803,0.6c0.124-0.269,0.395-0.491,0.597-0.697c0.529-0.537-0.278-1.34-0.824-0.824
			c-0.566,0.533-1.175,0.606-1.92,0.607c-0.502,0-0.78,0.639-0.412,0.995c0.549,0.533,1.242,1.081,2.024,0.688
			c0.562-0.283,0.725-1.033,1.132-1.466c0.516-0.546-0.308-1.373-0.824-0.824c-0.307,0.325-0.512,0.71-0.743,1.088
			c-0.043,0.07-0.171,0.186-0.127,0.184c-0.198,0.007-0.515-0.375-0.638-0.494c-0.137,0.332-0.275,0.664-0.412,0.995
			c1.062-0.001,1.951-0.2,2.744-0.949c-0.275-0.275-0.549-0.549-0.824-0.824c-0.327,0.332-0.719,0.694-0.87,1.149
			c-0.161,0.488,0.307,0.891,0.766,0.796c0.3-0.062,0.552-0.355,0.553-0.663c0.002-0.466-0.412-0.663-0.815-0.676
			C114.617,114.519,114.62,115.685,115.37,115.708L115.37,115.708z"/>
	</g>
</g>
<g>
	<g>
		<path fill="#231F20" d="M115.005,116.314c0.273-0.237,1.081,0.045,1.374,0.123c0.377,0.101,0.887,0.397,1.27,0.191
			c0.312-0.168,0.402-0.676,0.118-0.916c-0.113-0.095-0.225-0.152-0.355-0.218c-0.255-0.129,0.065,0.206-0.004,0.068
			c-0.031-0.061-0.062-0.121-0.093-0.182c-0.229-0.448-0.467-0.891-0.718-1.327c-0.21-0.366-0.448-0.851-0.816-1.084
			c-0.488-0.309-0.966,0.091-0.993,0.601c-0.023,0.433,0.516,0.739,0.877,0.503c0.33-0.215,0.667-0.455,1.051-0.562
			c0.027-0.007-0.098-0.048-0.136-0.1c0.054,0.073,0.068,0.174,0.09,0.259c0.158,0.602,0.261,1.18,0.529,1.75
			c0.32,0.68,1.326,0.087,1.007-0.589c-0.306-0.649-0.227-1.655-0.751-2.182c-0.702-0.706-1.733-0.004-2.379,0.417
			c0.292,0.168,0.585,0.335,0.877,0.503c-0.795,0.018-1.065,0.145-0.812,0.379c0.076,0.077,0.003-0.006,0.08,0.103
			c0.092,0.13,0.175,0.268,0.257,0.404c0.208,0.344,0.399,0.699,0.588,1.054c0.117,0.221,0.232,0.443,0.345,0.666
			c0.07,0.139,0.189,0.214,0.323,0.281c0.068,0.034,0.417,0.256,0.207,0.08c0.04-0.305,0.079-0.61,0.118-0.916
			c-0.001,0-0.002,0.001-0.003,0.001c0.15-0.02,0.3-0.039,0.449-0.059c-1.067-0.207-2.347-0.924-3.324-0.075
			C113.612,115.984,114.441,116.805,115.005,116.314L115.005,116.314z"/>
	</g>
</g>
<g>
	<g>
		<path fill="#231F20" d="M78.051,116.485c1.814,0,3.628,0,5.442,0c0.752,0,0.752-1.166,0-1.166c-1.814,0-3.628,0-5.442,0
			C77.299,115.319,77.299,116.485,78.051,116.485L78.051,116.485z"/>
	</g>
</g>
<g>
	<g>
		<path fill="#231F20" d="M82.716,111.821c1.521-0.001,2.802-0.188,4.183-0.857c0.676-0.328,0.085-1.333-0.589-1.007
			c-1.19,0.577-2.289,0.697-3.594,0.698C81.964,110.655,81.964,111.821,82.716,111.821L82.716,111.821z"/>
	</g>
</g>
<g>
	<g>
		<path fill="#231F20" d="M86.604,110.266c0.752,0,0.752-1.166,0-1.166S85.852,110.266,86.604,110.266L86.604,110.266z"/>
	</g>
</g>
<g>
	<g>
		<path fill="#231F20" d="M81.161,114.153c0.518,0,1.037,0,1.555,0c0.752,0,0.752-1.166,0-1.166c-0.518,0-1.037,0-1.555,0
			C80.409,112.987,80.409,114.153,81.161,114.153L81.161,114.153z"/>
	</g>
</g>
<g>
	<g>
		<path fill="#231F20" d="M81.161,114.931c1.037,0,2.073,0,3.11,0c0.752,0,0.752-1.166,0-1.166c-1.037,0-2.073,0-3.11,0
			C80.409,113.765,80.409,114.931,81.161,114.931L81.161,114.931z"/>
	</g>
</g>
<g>
	<g>
		<path fill="#231F20" d="M82.716,114.931c1.781,0,3.336-0.07,4.959-0.857c0.529-0.256,0.266-1.103-0.294-1.086
			c-1.109,0.031-2.247,0.308-3.337,0.487c-0.701,0.116-1.401,0.233-2.102,0.35c-0.25,0.042-0.5,0.083-0.75,0.122
			c-0.184,0.029-0.345,0.011-0.106,0.056c0.046,0.355,0.093,0.71,0.14,1.066c-0.235,0.123,0.063,0.008,0.145-0.01
			c0.241-0.052,0.483-0.1,0.724-0.148c0.737-0.148,0.424-1.272-0.31-1.125c-0.365,0.073-0.812,0.099-1.148,0.275
			c-0.43,0.226-0.356,0.972,0.139,1.066c0.89,0.169,2.142-0.289,3.015-0.435c1.173-0.195,2.398-0.505,3.59-0.539
			c-0.098-0.362-0.196-0.724-0.294-1.086c-1.42,0.688-2.819,0.698-4.371,0.698C81.964,113.765,81.964,114.931,82.716,114.931
			L82.716,114.931z"/>
	</g>
</g>
<g>
	<g>
		<path fill="#231F20" d="M80.383,118.041c1.521-0.001,2.802-0.188,4.182-0.857c0.528-0.256,0.267-1.104-0.294-1.086
			c-0.593,0.018-1.125,0.119-1.642,0.421c-0.619,0.362-1.12,0.874-1.763,1.214c-0.665,0.352-0.075,1.358,0.589,1.007
			c0.963-0.51,1.672-1.44,2.815-1.476c-0.098-0.362-0.196-0.724-0.294-1.086c-1.19,0.577-2.288,0.697-3.593,0.698
			C79.631,116.875,79.631,118.042,80.383,118.041L80.383,118.041z"/>
	</g>
</g>
<g>
	<g>
		<path fill="#231F20" d="M98.266,109.1c-1.296,0-2.592,0-3.888,0c-0.752,0-0.752,1.166,0,1.166c1.296,0,2.592,0,3.888,0
			C99.018,110.266,99.018,109.1,98.266,109.1L98.266,109.1z"/>
	</g>
</g>
<g>
	<g>
		<path fill="#231F20" d="M94.083,112.289c-1.189,0.577-2.288,0.697-3.593,0.698c-0.752,0-0.752,1.167,0,1.166
			c1.521-0.001,2.801-0.188,4.182-0.857C95.349,112.968,94.757,111.962,94.083,112.289L94.083,112.289z"/>
	</g>
</g>
<g>
	<g>
		<path fill="#231F20" d="M92.529,115.398c-1.189,0.578-2.288,0.698-3.593,0.699c-0.752,0-0.752,1.167,0,1.166
			c1.521-0.001,2.801-0.188,4.182-0.858C93.794,116.077,93.203,115.071,92.529,115.398L92.529,115.398z"/>
	</g>
</g>
<g>
	<g>
		<path fill="#231F20" d="M85.826,127.37c1.593-0.054,3.077-0.723,4.665-0.777c0.75-0.025,0.752-1.192,0-1.166
			c-1.593,0.054-3.077,0.723-4.665,0.777C85.076,126.229,85.074,127.396,85.826,127.37L85.826,127.37z"/>
	</g>
</g>
<g>
	<g>
		<path fill="#231F20" d="M91.269,128.147c2.327-0.039,4.196-0.887,5.854-2.502c0.54-0.525-0.286-1.349-0.824-0.824
			c-1.44,1.403-3.007,2.126-5.03,2.161C90.518,126.994,90.516,128.16,91.269,128.147L91.269,128.147z"/>
	</g>
</g>
<g>
	<g>
		<path fill="#231F20" d="M100.963,129.485c-0.533,0.496-1.304,0.662-1.889,1.084c-0.771,0.557-0.299,1.307,0.499,1.413
			c1.105,0.147,2.188-0.166,2.984-0.976c0.645-0.656,0.911-1.581,1.563-2.253c0.524-0.54-0.3-1.365-0.824-0.824
			c-0.496,0.51-0.875,1.072-1.206,1.698c-0.334,0.631-0.778,0.941-1.449,1.194c-0.304,0.114-0.778,0.059-1.091-0.023
			c0.321,0.337,0.377,0.583,0.169,0.737c0.046-0.031,0.093-0.06,0.142-0.088c0.117-0.07,0.241-0.131,0.362-0.193
			c0.542-0.277,1.113-0.525,1.563-0.944C102.339,129.796,101.512,128.973,100.963,129.485L100.963,129.485z"/>
	</g>
</g>
<g>
	<g>
		<path fill="#231F20" d="M101.22,103.678c-1.835,0.708-4.251,0.419-6.185,0.498c-2.638,0.107-5.251,0.389-7.809,1.057
			c-0.727,0.19-0.418,1.315,0.31,1.125c2.977-0.778,6.01-0.969,9.072-1.075c1.579-0.055,3.417,0.101,4.922-0.48
			C102.224,104.535,101.923,103.407,101.22,103.678L101.22,103.678z"/>
	</g>
</g>
<g>
	<g>
		<path fill="#231F20" d="M75.934,117.613c0.44,1.47,0.737,2.971,0.757,4.51c0.01,0.767,1.091,0.733,1.166,0
			c0.058-0.567,0.526-0.252,0.972-0.194c-0.137-0.332-0.275-0.664-0.412-0.995c-0.589,0.743-0.966,1.588-1.555,2.332
			c-0.244,0.308-0.216,0.685,0.118,0.916c2.349,1.626,4.437,3.679,7.137,4.723c0.702,0.271,1.003-0.856,0.31-1.125
			c-2.586-1-4.606-3.046-6.857-4.605c0.039,0.305,0.079,0.61,0.118,0.916c0.589-0.743,0.966-1.588,1.555-2.332
			c0.334-0.421,0.112-0.927-0.412-0.995c-1.386-0.182-1.977-0.217-2.138,1.36c0.389,0,0.777,0,1.166,0
			c-0.021-1.638-0.331-3.255-0.798-4.819C76.843,116.584,75.718,116.891,75.934,117.613L75.934,117.613z"/>
	</g>
</g>
<g>
	<g>
		<path fill="#231F20" d="M78.051,128.147c0.765,0,1.53,0,2.295,0c0.752,0,0.752-1.166,0-1.166c-1.596,0-2.677-1.544-3.347-2.82
			c-0.335,0.196-0.671,0.393-1.007,0.589c1.312,2.328,4.124,4.048,6.568,4.933c0.673,0.244,0.935-0.702,0.449-1.066
			c-0.253-0.19-0.959-0.565-1.121-0.85c-0.116,0.286-0.232,0.571-0.349,0.856c-0.326,0.073,0.888,0.333,1.167,0.391
			c0.581,0.119,1.165,0.102,1.719-0.11c0.695-0.266,0.394-1.394-0.31-1.125c-1.076,0.411-1.912-0.499-2.886-0.28
			c-0.374,0.084-0.527,0.542-0.349,0.856c0.299,0.525,1.083,0.926,1.54,1.269c0.15-0.355,0.3-0.71,0.449-1.066
			c-2.165-0.784-4.711-2.338-5.871-4.397c-0.37-0.657-1.355-0.075-1.007,0.589c0.882,1.68,2.326,3.397,4.354,3.397
			c0.752,0,0.752-1.166,0-1.166c-0.765,0-1.53,0-2.295,0C77.299,126.981,77.299,128.147,78.051,128.147L78.051,128.147z"/>
	</g>
</g>
<g>
	<g>
		<path fill="#231F20" d="M79.312,126.513c1.089,0.781,2.268,1.345,3.521,1.807c0.558,0.205,1.128,0.372,1.696,0.545
			c0.21,0.064,0.419,0.132,0.627,0.204c0.59,0.204-0.128,0.112,0.258-0.361c-0.471,0.577,0.349,1.408,0.824,0.824
			c0.634-0.776-0.044-1.309-0.772-1.587c-1.944-0.742-3.836-1.197-5.565-2.438C79.288,125.067,78.707,126.079,79.312,126.513
			L79.312,126.513z"/>
	</g>
</g>
</svg>
