<?xml version="1.0" encoding="utf-8"?>
<!-- Generator: Adobe Illustrator 16.0.0, SVG Export Plug-In . SVG Version: 6.00 Build 0)  -->
<!DOCTYPE svg PUBLIC "-//W3C//DTD SVG 1.1//EN" "http://www.w3.org/Graphics/SVG/1.1/DTD/svg11.dtd">
<svg version="1.1" id="Layer_1" xmlns="http://www.w3.org/2000/svg" xmlns:xlink="http://www.w3.org/1999/xlink" x="0px" y="0px"
	 width="275px" height="275px" viewBox="0 0 275 275" enable-background="new 0 0 275 275" xml:space="preserve">
<g>
	<g>
		<path fill="#231F20" d="M28.053,79.086c0.015,3.164,0.126,6.234,2.111,8.832c3.503,4.585,7.23,8.942,10.51,13.708
			c6.635,9.641,11.86,20.167,16.285,30.978c0.363,0.889,1.822,0.5,1.454-0.4c-3.642-8.898-7.816-17.513-12.812-25.736
			c-2.627-4.323-5.548-8.459-8.601-12.49c-1.448-1.911-2.967-3.766-4.498-5.611c-2.455-2.96-2.925-5.532-2.942-9.28
			C29.556,78.114,28.048,78.114,28.053,79.086L28.053,79.086z"/>
	</g>
</g>
<g>
	<g>
		<path fill="#231F20" d="M57.686,134.104c-11.756-0.613-33.001,5.553-28.958,21.139c4.952,19.088,30.202,16.059,44.895,15.92
			c-0.217-0.379-0.434-0.756-0.651-1.135c-4.226,7.609-4.407,17.068-3.678,25.521c0.729,8.457,2.92,17.922,8.7,24.428
			c0.531,0.596,1.415-0.041,1.26-0.734c-2.814-12.607-4.69-25.412-4.122-38.357c0.12-2.73-0.104-7.766,3.162-8.705
			c1.687-0.484,3.497-0.641,5.22-0.963c3.245-0.607,5.464-1.883,7.619-4.35c7.732-8.857,10.025-25.102-1.267-32.025
			c-3.341-2.049-7.547-2.662-11.384-2.713c-2.857-0.039-5.748,0.426-8.592,0.65c-0.993,0.348-1.885,0.227-2.677-0.361
			c0.4-2.59,4.104-2.223,1.207-0.02c-1.747,1.33,0.146-6.846,0.31-7.496c0.737-2.942,1.728-5.819,2.729-8.678
			c1.708-4.876,3.685-9.668,5.601-14.465c2.374-5.945,4.7-11.908,6.353-18.102c0.895-3.353,2.846-9.808-0.644-12.348
			c-0.788-0.573-1.539,0.736-0.761,1.302c2.864,2.084,0.374,9.061-0.324,11.677c-1.177,4.41-2.792,8.708-4.441,12.959
			c-4.596,11.837-9.985,23.49-11.701,36.183c-0.06,0.447,0.186,0.994,0.727,0.955c2.919-0.211,5.841-2.266,3.948-5.418
			c-2.356-3.924-4.5,3.326-4.675,4.463c-0.073,0.475,0.194,0.957,0.727,0.955c10.667-0.053,24.937-3.242,29.202,9.883
			c2.611,8.033-1.703,21.963-10.183,24.955c-3.169,1.117-6.828,0.732-9.772,2.482c-2.411,1.432-1.751,7-1.891,9.18
			c-0.832,12.977,1.358,26.139,4.175,38.758c0.42-0.244,0.84-0.488,1.26-0.732c-5.555-6.252-7.407-15.285-8.259-23.361
			c-0.855-8.111-0.575-17.473,3.472-24.76c0.274-0.494-0.068-1.141-0.651-1.135c-13.896,0.133-32.666,3.092-41.476-10.516
			c-10.437-16.123,13.445-24.158,25.539-23.527C58.658,135.662,58.653,134.154,57.686,134.104L57.686,134.104z"/>
	</g>
</g>
<g>
	<g>
		<path fill="#231F20" d="M28.993,79.893c0.742-1.758,1.881-4.138,4.08-4.208c1.865-0.061,3.456,2.015,4.467,3.315
			c0.597,0.767,1.656-0.309,1.066-1.066c-1.403-1.804-3.536-4.104-6.097-3.718c-2.667,0.401-4.022,3.033-4.97,5.277
			C27.161,80.387,28.621,80.774,28.993,79.893L28.993,79.893z"/>
	</g>
</g>
<g>
	<g>
		<path fill="#231F20" d="M38.799,78.667c0.86-2.05,2.028-4.304,4.276-5.053c1.989-0.663,4.119,0.725,5.649,1.826
			c0.791,0.569,1.542-0.739,0.761-1.302c-2.123-1.528-4.592-2.718-7.22-1.842c-2.567,0.856-3.955,3.67-4.92,5.971
			C36.969,79.162,38.429,79.549,38.799,78.667L38.799,78.667z"/>
	</g>
</g>
<g>
	<g>
		<path fill="#231F20" d="M50.864,75.322c3.321-3.137,6.646-3.137,9.967,0c0.707,0.667,1.774-0.397,1.066-1.066
			c-3.937-3.718-8.163-3.718-12.1,0C49.09,74.924,50.158,75.989,50.864,75.322L50.864,75.322z"/>
	</g>
</g>
<g>
	<g>
		<path fill="#231F20" d="M63.343,73.562c0.003-2.373,0.238-4.461,1.8-6.363c0.571-0.695,2.462,0.272,3.042,0.578
			c1.045,0.55,1.779,1.474,2.335,2.488c0.467,0.853,1.769,0.092,1.302-0.761c-0.703-1.283-1.633-2.26-2.875-3.029
			c-1.008-0.624-2.907-1.325-4.105-0.996c-1.043,0.287-2.058,2.37-2.381,3.285c-0.552,1.563-0.624,3.153-0.625,4.797
			C61.833,74.535,63.341,74.535,63.343,73.562L63.343,73.562z"/>
	</g>
</g>
<g>
	<g>
		<path fill="#231F20" d="M71.746,70.266c2.099,3.058,5.228,5.701,8.539,2.604c0.711-0.666-0.357-1.729-1.066-1.066
			c-2.497,2.335-4.683-0.132-6.171-2.298C72.501,68.709,71.194,69.462,71.746,70.266L71.746,70.266z"/>
	</g>
</g>
<g>
	<g>
		<path fill="#231F20" d="M79.219,71.644c1.436,1.437,2.629,2.933,3.56,4.75c0.443,0.866,1.744,0.103,1.302-0.761
			c-0.986-1.927-2.273-3.532-3.795-5.056C79.597,69.889,78.531,70.955,79.219,71.644L79.219,71.644z"/>
	</g>
</g>
<g>
	<g>
		<path fill="#231F20" d="M40.281,88.34c4.338,15.638,10.155,31.399,18.414,45.418c0.164,0.279,0.599,0.025,0.434-0.254
			c-8.243-13.991-14.032-29.685-18.363-45.298C40.679,87.894,40.194,88.027,40.281,88.34L40.281,88.34z"/>
	</g>
</g>
<g>
	<g>
		<path fill="#231F20" d="M51.314,85.755c-1.391,7.007,0.827,13.261,3.516,19.675c3.592,8.567,5.983,16.558,2.614,25.683
			c-0.113,0.305,0.373,0.434,0.484,0.133c2.726-7.381,1.936-14.251-0.788-21.494c-2.965-7.884-7.075-15.136-5.342-23.863
			C51.861,85.572,51.377,85.437,51.314,85.755L51.314,85.755z"/>
	</g>
</g>
<g>
	<g>
		<path fill="#231F20" d="M62.337,85.822c1.187,13.875,4.172,30.269-3.642,42.778c-0.172,0.275,0.263,0.529,0.434,0.254
			c7.877-12.61,4.905-29.065,3.711-43.032C62.813,85.501,62.31,85.499,62.337,85.822L62.337,85.822z"/>
	</g>
</g>
<g>
	<g>
		<path fill="#231F20" d="M73.371,79.692c-0.236,10.471-5.311,20.782-8.635,30.541c-2.161,6.347-5.99,15.792-2.364,22.298
			c0.158,0.283,0.592,0.029,0.434-0.254c-4.21-7.557,1.522-19.466,4.102-26.761c2.921-8.259,6.766-16.933,6.966-25.824
			C73.881,79.368,73.378,79.369,73.371,79.692L73.371,79.692z"/>
	</g>
</g>
<g>
	<g>
		<path fill="#231F20" d="M75.823,84.595c1.09,9.753-3.568,18.427-7.546,26.997c-2.854,6.149-5.631,12.869-3.478,19.654
			c0.098,0.309,0.583,0.176,0.484-0.133c-2.666-8.399,2.272-16.799,5.737-24.203c3.304-7.062,6.191-14.385,5.305-22.315
			C76.29,84.277,75.787,84.273,75.823,84.595L75.823,84.595z"/>
	</g>
</g>
<g>
	<g>
		<path fill="#231F20" d="M47.628,88.273c-0.671,14.394,14.154,23.69,12.258,38c-0.042,0.32,0.461,0.316,0.503,0
			c1.906-14.392-12.93-23.6-12.258-38C48.146,87.949,47.643,87.95,47.628,88.273L47.628,88.273z"/>
	</g>
</g>
<g>
	<g>
		<path fill="#231F20" d="M54.983,82.144c-0.895,16.113,7.105,30.755,8.581,46.583c0.03,0.32,0.533,0.324,0.503,0
			c-1.476-15.823-9.476-30.478-8.581-46.583C55.504,81.819,55.001,81.821,54.983,82.144L54.983,82.144z"/>
	</g>
</g>
<g>
	<g>
		<path fill="#231F20" d="M50.331,151.547c2.706-0.002,5.249-0.172,7.735-1.33c0.881-0.41,0.115-1.709-0.761-1.303
			c-2.224,1.037-4.564,1.123-6.975,1.125C49.359,150.041,49.359,151.549,50.331,151.547L50.331,151.547z"/>
	</g>
</g>
<g>
	<g>
		<path fill="#231F20" d="M67.293,146.615c3.533,1.125,6.674,1.125,10.207,0c0.923-0.293,0.529-1.748-0.4-1.453
			c-3.28,1.043-6.126,1.043-9.406,0C66.765,144.867,66.37,146.322,67.293,146.615L67.293,146.615z"/>
	</g>
</g>
<g>
	<g>
		<path fill="#231F20" d="M48.905,160.102c10.36,2.062,20.154,0.354,29.822-3.68c0.884-0.367,0.497-1.828-0.4-1.453
			c-9.378,3.91-18.932,5.688-29.021,3.68C48.356,158.459,47.951,159.912,48.905,160.102L48.905,160.102z"/>
	</g>
</g>
<g>
	<g>
		<path fill="#231F20" d="M103.131,62.538c0.015,3.164,0.127,6.234,2.112,8.832c3.503,4.585,7.23,8.942,10.51,13.708
			c6.634,9.641,11.86,20.168,16.286,30.979c0.362,0.887,1.822,0.5,1.453-0.4c-3.642-8.899-7.816-17.514-12.812-25.737
			c-2.626-4.323-5.548-8.459-8.601-12.49c-1.447-1.912-2.967-3.767-4.497-5.611c-2.455-2.96-2.925-5.532-2.943-9.28
			C104.634,61.565,103.126,61.565,103.131,62.538L103.131,62.538z"/>
	</g>
</g>
<g>
	<g>
		<path fill="#231F20" d="M132.765,117.553c-11.756-0.612-33.002,5.553-28.959,21.138c4.951,19.09,30.203,16.062,44.895,15.922
			c-0.217-0.379-0.434-0.756-0.65-1.135c-4.227,7.609-4.406,17.068-3.678,25.521c0.729,8.455,2.92,17.922,8.699,24.426
			c0.531,0.596,1.416-0.041,1.26-0.734c-2.814-12.607-4.691-25.41-4.121-38.355c0.119-2.732-0.104-7.766,3.162-8.705
			c1.688-0.484,3.496-0.641,5.219-0.965c3.244-0.607,5.465-1.883,7.619-4.35c7.732-8.855,10.025-25.098-1.268-32.021
			c-3.34-2.048-7.547-2.664-11.383-2.715c-2.857-0.038-5.748,0.428-8.592,0.652c-0.992,0.347-1.885,0.226-2.676-0.362
			c0.4-2.59,4.102-2.222,1.205-0.019c-1.744,1.328,0.146-6.847,0.311-7.499c0.736-2.941,1.727-5.819,2.729-8.678
			c1.709-4.875,3.686-9.667,5.602-14.465c2.373-5.945,4.699-11.908,6.352-18.101c0.895-3.353,2.846-9.808-0.643-12.348
			c-0.789-0.573-1.539,0.736-0.762,1.302c2.863,2.085,0.373,9.061-0.324,11.677c-1.178,4.41-2.791,8.708-4.441,12.959
			c-4.596,11.837-9.986,23.49-11.699,36.184c-0.061,0.446,0.184,0.993,0.727,0.954c2.92-0.211,5.838-2.266,3.947-5.417
			c-2.357-3.925-4.5,3.327-4.674,4.463c-0.074,0.474,0.193,0.957,0.727,0.954c10.666-0.05,24.936-3.24,29.201,9.883
			c2.611,8.035-1.705,21.963-10.184,24.953c-3.17,1.119-6.828,0.734-9.771,2.484c-2.41,1.432-1.752,7-1.891,9.18
			c-0.834,12.975,1.359,26.137,4.176,38.756c0.42-0.244,0.84-0.488,1.26-0.732c-5.555-6.25-7.406-15.283-8.258-23.359
			c-0.855-8.111-0.576-17.473,3.473-24.76c0.273-0.494-0.068-1.141-0.652-1.135c-13.896,0.133-32.667,3.09-41.476-10.518
			c-10.437-16.121,13.447-24.156,25.54-23.527C133.738,119.112,133.732,117.604,132.765,117.553L132.765,117.553z"/>
	</g>
</g>
<g>
	<g>
		<path fill="#231F20" d="M104.071,63.344c0.742-1.758,1.882-4.138,4.08-4.208c1.865-0.061,3.456,2.015,4.467,3.315
			c0.597,0.767,1.656-0.309,1.066-1.066c-1.403-1.804-3.536-4.104-6.097-3.718c-2.667,0.401-4.023,3.033-4.97,5.277
			C102.239,63.838,103.699,64.226,104.071,63.344L104.071,63.344z"/>
	</g>
</g>
<g>
	<g>
		<path fill="#231F20" d="M113.877,62.118c0.86-2.05,2.028-4.304,4.276-5.053c1.989-0.663,4.12,0.725,5.65,1.826
			c0.791,0.569,1.543-0.74,0.762-1.302c-2.123-1.528-4.594-2.718-7.221-1.842c-2.568,0.855-3.955,3.669-4.921,5.97
			C112.047,62.613,113.507,63,113.877,62.118L113.877,62.118z"/>
	</g>
</g>
<g>
	<g>
		<path fill="#231F20" d="M125.943,58.773c3.32-3.136,6.646-3.137,9.966,0c0.706,0.667,1.775-0.397,1.066-1.066
			c-3.937-3.718-8.162-3.717-12.099,0C124.168,58.375,125.237,59.44,125.943,58.773L125.943,58.773z"/>
	</g>
</g>
<g>
	<g>
		<path fill="#231F20" d="M138.422,57.014c0.002-2.373,0.238-4.461,1.799-6.362c0.572-0.695,2.463,0.271,3.043,0.577
			c1.045,0.551,1.779,1.474,2.334,2.488c0.469,0.853,1.77,0.092,1.303-0.761c-0.703-1.283-1.633-2.26-2.877-3.029
			c-1.008-0.624-2.906-1.325-4.104-0.996c-1.043,0.287-2.059,2.371-2.38,3.285c-0.552,1.563-0.624,3.153-0.626,4.797
			C136.913,57.986,138.42,57.986,138.422,57.014L138.422,57.014z"/>
	</g>
</g>
<g>
	<g>
		<path fill="#231F20" d="M146.826,53.717c2.098,3.058,5.227,5.701,8.537,2.604c0.711-0.666-0.357-1.729-1.066-1.066
			c-2.496,2.335-4.682-0.132-6.168-2.298C147.582,52.16,146.273,52.913,146.826,53.717L146.826,53.717z"/>
	</g>
</g>
<g>
	<g>
		<path fill="#231F20" d="M154.297,55.095c1.438,1.437,2.629,2.933,3.561,4.75c0.443,0.866,1.744,0.103,1.303-0.761
			c-0.988-1.926-2.273-3.532-3.797-5.056C154.676,53.341,153.609,54.407,154.297,55.095L154.297,55.095z"/>
	</g>
</g>
<g>
	<g>
		<path fill="#231F20" d="M115.359,71.791c4.338,15.638,10.156,31.398,18.414,45.418c0.164,0.279,0.599,0.026,0.434-0.254
			c-8.24-13.992-14.032-29.685-18.363-45.298C115.757,71.345,115.272,71.478,115.359,71.791L115.359,71.791z"/>
	</g>
</g>
<g>
	<g>
		<path fill="#231F20" d="M126.393,69.206c-1.392,7.007,0.826,13.261,3.516,19.675c3.592,8.567,5.983,16.557,2.614,25.681
			c-0.112,0.305,0.373,0.435,0.484,0.134c2.726-7.38,1.936-14.25-0.788-21.493c-2.965-7.884-7.075-15.136-5.342-23.863
			C126.941,69.023,126.456,68.888,126.393,69.206L126.393,69.206z"/>
	</g>
</g>
<g>
	<g>
		<path fill="#231F20" d="M137.417,69.273c1.185,13.875,4.171,30.269-3.644,42.778c-0.173,0.276,0.263,0.528,0.434,0.254
			c7.879-12.61,4.905-29.065,3.711-43.032C137.891,68.953,137.388,68.95,137.417,69.273L137.417,69.273z"/>
	</g>
</g>
<g>
	<g>
		<path fill="#231F20" d="M148.451,63.144c-0.236,10.471-5.312,20.782-8.637,30.541c-2.16,6.348-5.99,15.792-2.364,22.298
			c0.157,0.283,0.592,0.03,0.434-0.254c-4.211-7.556,1.521-19.466,4.102-26.761c2.922-8.259,6.766-16.933,6.967-25.824
			C148.961,62.819,148.457,62.82,148.451,63.144L148.451,63.144z"/>
	</g>
</g>
<g>
	<g>
		<path fill="#231F20" d="M150.9,68.046c1.092,9.753-3.566,18.427-7.545,26.997c-2.854,6.148-5.631,12.869-3.479,19.653
			c0.098,0.308,0.584,0.176,0.484-0.134c-2.664-8.397,2.273-16.797,5.738-24.201c3.305-7.062,6.189-14.385,5.303-22.315
			C151.367,67.728,150.865,67.725,150.9,68.046L150.9,68.046z"/>
	</g>
</g>
<g>
	<g>
		<path fill="#231F20" d="M122.707,71.724c-0.671,14.395,14.154,23.69,12.259,38.002c-0.043,0.321,0.46,0.316,0.502,0
			c1.907-14.393-12.93-23.601-12.259-38.002C123.224,71.4,122.721,71.401,122.707,71.724L122.707,71.724z"/>
	</g>
</g>
<g>
	<g>
		<path fill="#231F20" d="M130.063,65.595c-0.896,16.113,7.104,30.755,8.58,46.583c0.029,0.32,0.531,0.323,0.502,0
			c-1.475-15.824-9.474-30.479-8.58-46.583C130.583,65.271,130.081,65.272,130.063,65.595L130.063,65.595z"/>
	</g>
</g>
<g>
	<g>
		<path fill="#231F20" d="M114.99,133.771c2.706-0.002,5.249-0.172,7.736-1.328c0.881-0.41,0.114-1.711-0.761-1.303
			c-2.224,1.033-4.564,1.121-6.975,1.123C114.018,132.264,114.018,133.771,114.99,133.771L114.99,133.771z"/>
	</g>
</g>
<g>
	<g>
		<path fill="#231F20" d="M153.406,130.525c3.531,1.125,6.674,1.125,10.205,0c0.924-0.293,0.529-1.748-0.4-1.453
			c-3.279,1.043-6.125,1.045-9.404,0C152.877,128.777,152.482,130.232,153.406,130.525L153.406,130.525z"/>
	</g>
</g>
<g>
	<g>
		<path fill="#231F20" d="M132.63,139.537c6.846,2.154,13.002,0.125,18.799-3.74c0.635-0.424,0.039-1.455-0.602-1.027
			c-5.531,3.688-11.299,5.689-17.881,3.619C132.212,138.158,131.901,139.309,132.63,139.537L132.63,139.537z"/>
	</g>
</g>
<g>
	<g>
		<path fill="#231F20" d="M178.986,66.523c0.014,3.164,0.125,6.234,2.109,8.832c3.504,4.585,7.23,8.942,10.512,13.708
			c6.635,9.641,11.859,20.168,16.285,30.979c0.361,0.887,1.822,0.5,1.453-0.4c-3.643-8.899-7.816-17.515-12.812-25.737
			c-2.625-4.323-5.547-8.459-8.6-12.49c-1.447-1.912-2.967-3.767-4.498-5.611c-2.455-2.96-2.924-5.532-2.941-9.28
			C180.488,65.551,178.98,65.55,178.986,66.523L178.986,66.523z"/>
	</g>
</g>
<g>
	<g>
		<path fill="#231F20" d="M208.619,121.539c-11.756-0.613-33,5.555-28.957,21.139c4.949,19.088,30.201,16.061,44.895,15.92
			c-0.217-0.377-0.434-0.756-0.652-1.135c-4.225,7.611-4.406,17.07-3.678,25.523c0.729,8.455,2.92,17.922,8.699,24.426
			c0.531,0.596,1.416-0.041,1.26-0.734c-2.814-12.607-4.689-25.41-4.121-38.355c0.119-2.732-0.105-7.768,3.162-8.705
			c1.686-0.486,3.496-0.643,5.219-0.965c3.244-0.607,5.465-1.883,7.619-4.35c7.732-8.855,10.027-25.1-1.266-32.022
			c-3.342-2.048-7.549-2.664-11.385-2.715c-2.857-0.038-5.748,0.427-8.592,0.651c-0.992,0.347-1.885,0.226-2.676-0.362
			c0.4-2.59,4.102-2.221,1.205-0.019c-1.744,1.328,0.148-6.847,0.311-7.498c0.736-2.941,1.727-5.819,2.729-8.678
			c1.709-4.876,3.688-9.667,5.604-14.465c2.373-5.945,4.697-11.907,6.35-18.101c0.895-3.353,2.846-9.808-0.645-12.348
			c-0.787-0.573-1.539,0.736-0.762,1.302c2.865,2.084,0.377,9.06-0.322,11.677c-1.176,4.41-2.791,8.708-4.439,12.958
			c-4.596,11.838-9.986,23.489-11.701,36.183c-0.061,0.446,0.184,0.993,0.727,0.954c2.92-0.21,5.838-2.265,3.947-5.417
			c-2.355-3.925-4.498,3.327-4.674,4.463c-0.074,0.474,0.193,0.957,0.727,0.954c10.666-0.05,24.936-3.24,29.201,9.884
			c2.611,8.033-1.703,21.963-10.184,24.953c-3.17,1.119-6.828,0.732-9.771,2.482c-2.412,1.434-1.752,7-1.891,9.182
			c-0.832,12.975,1.357,26.137,4.176,38.756c0.42-0.244,0.84-0.488,1.26-0.732c-5.555-6.25-7.406-15.283-8.258-23.359
			c-0.855-8.113-0.574-17.473,3.473-24.762c0.273-0.492-0.068-1.141-0.65-1.135c-13.896,0.133-32.668,3.092-41.477-10.516
			c-10.436-16.121,13.445-24.158,25.539-23.527C209.592,123.098,209.586,121.589,208.619,121.539L208.619,121.539z"/>
	</g>
</g>
<g>
	<g>
		<path fill="#231F20" d="M179.926,67.329c0.742-1.758,1.883-4.138,4.08-4.208c1.865-0.061,3.455,2.015,4.467,3.315
			c0.596,0.767,1.654-0.309,1.066-1.066c-1.404-1.804-3.537-4.104-6.098-3.718c-2.666,0.401-4.023,3.033-4.969,5.277
			C178.094,67.824,179.555,68.211,179.926,67.329L179.926,67.329z"/>
	</g>
</g>
<g>
	<g>
		<path fill="#231F20" d="M189.732,66.103c0.861-2.05,2.029-4.303,4.277-5.053c1.988-0.663,4.117,0.725,5.646,1.826
			c0.791,0.569,1.543-0.739,0.762-1.302c-2.123-1.528-4.592-2.717-7.219-1.842c-2.566,0.856-3.955,3.67-4.92,5.97
			C187.902,66.599,189.361,66.986,189.732,66.103L189.732,66.103z"/>
	</g>
</g>
<g>
	<g>
		<path fill="#231F20" d="M201.797,62.758c3.32-3.136,6.646-3.136,9.967,0c0.705,0.667,1.773-0.397,1.066-1.066
			c-3.938-3.718-8.162-3.718-12.1,0C200.023,62.361,201.092,63.425,201.797,62.758L201.797,62.758z"/>
	</g>
</g>
<g>
	<g>
		<path fill="#231F20" d="M214.275,60.999c0.002-2.373,0.238-4.461,1.801-6.362c0.572-0.695,2.461,0.271,3.041,0.578
			c1.045,0.551,1.781,1.474,2.336,2.488c0.469,0.853,1.771,0.092,1.303-0.761c-0.703-1.283-1.635-2.26-2.877-3.029
			c-1.008-0.624-2.904-1.326-4.104-0.996c-1.043,0.287-2.059,2.37-2.383,3.285c-0.551,1.563-0.623,3.153-0.625,4.797
			C212.766,61.971,214.273,61.971,214.275,60.999L214.275,60.999z"/>
	</g>
</g>
<g>
	<g>
		<path fill="#231F20" d="M222.68,57.703c2.098,3.056,5.229,5.701,8.537,2.604c0.711-0.666-0.357-1.73-1.066-1.066
			c-2.494,2.336-4.682-0.133-6.168-2.298C223.436,56.146,222.127,56.899,222.68,57.703L222.68,57.703z"/>
	</g>
</g>
<g>
	<g>
		<path fill="#231F20" d="M230.15,59.081c1.436,1.438,2.631,2.934,3.562,4.75c0.445,0.865,1.746,0.103,1.303-0.761
			c-0.988-1.926-2.275-3.531-3.799-5.056C230.529,57.326,229.463,58.392,230.15,59.081L230.15,59.081z"/>
	</g>
</g>
<g>
	<g>
		<path fill="#231F20" d="M191.217,75.776c4.336,15.639,10.154,31.399,18.412,45.417c0.164,0.279,0.6,0.026,0.434-0.254
			c-8.242-13.991-14.033-29.684-18.361-45.297C191.615,75.331,191.129,75.463,191.217,75.776L191.217,75.776z"/>
	</g>
</g>
<g>
	<g>
		<path fill="#231F20" d="M202.248,73.191c-1.391,7.007,0.826,13.262,3.516,19.676c3.594,8.568,5.982,16.558,2.613,25.683
			c-0.113,0.305,0.373,0.435,0.484,0.134c2.727-7.38,1.938-14.251-0.787-21.495c-2.965-7.885-7.074-15.136-5.342-23.864
			C202.797,73.009,202.311,72.874,202.248,73.191L202.248,73.191z"/>
	</g>
</g>
<g>
	<g>
		<path fill="#231F20" d="M213.27,73.258c1.188,13.876,4.174,30.269-3.641,42.779c-0.172,0.276,0.264,0.528,0.434,0.254
			c7.877-12.612,4.904-29.066,3.709-43.033C213.744,72.938,213.242,72.935,213.27,73.258L213.27,73.258z"/>
	</g>
</g>
<g>
	<g>
		<path fill="#231F20" d="M224.305,67.129c-0.236,10.471-5.311,20.782-8.635,30.542c-2.162,6.347-5.992,15.792-2.365,22.298
			c0.156,0.283,0.592,0.03,0.434-0.254c-4.211-7.556,1.523-19.466,4.104-26.761c2.92-8.26,6.766-16.934,6.965-25.825
			C224.814,66.805,224.312,66.805,224.305,67.129L224.305,67.129z"/>
	</g>
</g>
<g>
	<g>
		<path fill="#231F20" d="M226.756,72.033c1.09,9.753-3.568,18.426-7.545,26.996c-2.855,6.149-5.631,12.87-3.477,19.655
			c0.098,0.308,0.582,0.176,0.484-0.134c-2.666-8.398,2.271-16.798,5.734-24.203c3.305-7.062,6.191-14.385,5.305-22.314
			C227.223,71.714,226.719,71.711,226.756,72.033L226.756,72.033z"/>
	</g>
</g>
<g>
	<g>
		<path fill="#231F20" d="M198.562,75.709c-0.672,14.395,14.152,23.69,12.258,38.002c-0.043,0.321,0.461,0.316,0.502,0
			c1.906-14.393-12.93-23.601-12.258-38.002C199.08,75.385,198.576,75.387,198.562,75.709L198.562,75.709z"/>
	</g>
</g>
<g>
	<g>
		<path fill="#231F20" d="M205.916,69.58c-0.895,16.113,7.105,30.756,8.582,46.584c0.029,0.32,0.531,0.323,0.502,0
			c-1.477-15.824-9.477-30.479-8.582-46.584C206.436,69.256,205.934,69.258,205.916,69.58L205.916,69.58z"/>
	</g>
</g>
<g>
	<g>
		<path fill="#231F20" d="M205.582,138.852c1.924-0.002,3.691-0.191,5.314-1.311c0.654-0.453,0.033-1.531-0.627-1.074
			c-1.451,1-2.975,1.139-4.688,1.141C204.779,137.607,204.779,138.852,205.582,138.852L205.582,138.852z"/>
	</g>
</g>
<g>
	<g>
		<path fill="#231F20" d="M224.287,134.246c1.896,1.213,3.545,1.213,5.441,0c0.578-0.367,0.043-1.291-0.537-0.92
			c-0.639,0.408-1.281,0.771-2.049,0.844c-0.846,0.078-1.637-0.408-2.316-0.844C224.244,132.955,223.709,133.877,224.287,134.246
			L224.287,134.246z"/>
	</g>
</g>
<g>
	<g>
		<path fill="#231F20" d="M194.869,146.201c13.564,2.072,26.736,0.412,39.76-3.68c1.068-0.334,0.613-2.018-0.463-1.68
			c-12.688,3.986-25.613,5.699-38.834,3.68C194.232,144.354,193.76,146.033,194.869,146.201L194.869,146.201z"/>
	</g>
</g>
<g>
	<g>
		<path fill="#231F20" d="M69.122,176.256c1.877,15.021,5.289,29.897,4.269,45.122c0.502,0,1.005,0,1.508,0
			c0.025-14.635,0.58-29.272,0-43.902c-0.032-0.795-0.969-0.97-1.405-0.381c-4.447,6.012-4.659,14.259-4.143,21.417
			c0.528,7.33,2.336,15.3,6.582,21.418c0.55,0.792,1.858,0.04,1.302-0.762c-7.122-10.263-10.284-30.706-2.439-41.312
			c-0.468-0.127-0.937-0.254-1.405-0.381c0.58,14.63,0.025,29.268,0,43.902c-0.001,0.981,1.443,0.961,1.508,0
			c1.021-15.233-2.391-30.095-4.269-45.122C70.51,175.305,69.001,175.293,69.122,176.256L69.122,176.256z"/>
	</g>
</g>
<g>
	<g>
		<path fill="#231F20" d="M145.342,159.793c1.316,11.645-0.662,25.026,4.98,35.746c0.43,0.815,1.499,0.205,1.378-0.581
			c-1.278-8.324-3.628-16.354-6.098-24.39c-0.459,0.193-0.918,0.387-1.378,0.581c4.188,9.023,8.163,18.182,8.434,28.277
			c0.503,0,1.005,0,1.508,0c-0.119-3.182-0.63-6.225-1.247-9.347c-0.188-0.954-1.641-0.549-1.453,0.4
			c0.586,2.972,1.079,5.912,1.192,8.946c0.036,0.969,1.534,0.974,1.508,0c-0.277-10.351-4.344-19.783-8.639-29.039
			c-0.363-0.782-1.626-0.225-1.378,0.581c2.469,8.035,4.818,16.065,6.098,24.39c0.459-0.193,0.918-0.387,1.378-0.581
			c-5.491-10.431-3.492-23.629-4.775-34.984C146.742,158.838,145.232,158.827,145.342,159.793L145.342,159.793z"/>
	</g>
</g>
<g>
	<g>
		<path fill="#231F20" d="M227.686,162.031c-2.075,6.831-0.258,13.775-1.22,20.732c-0.883,6.377-6.358,10.36-5.515,17.273
			c0.093,0.763,1.349,1.117,1.48,0.2c1.794-12.396,2.435-24.879,2.466-37.396c0.003-0.975-1.481-0.97-1.508,0
			c-0.146,5.333,1.952,10.553,3.633,15.524c1.771,5.24,5.263,12.828,2.567,18.241c-0.432,0.868,0.869,1.632,1.303,0.762
			c2.263-4.547,0.542-9.994-0.829-14.555c-1.932-6.428-5.353-13.128-5.166-19.973c-0.503,0-1.005,0-1.508,0
			c-0.031,12.378-0.638,24.735-2.411,36.995c0.493,0.066,0.987,0.134,1.48,0.2c-0.76-6.226,3.524-11.24,5.46-16.873
			c0.905-2.634,0.387-6.116,0.264-8.814c-0.187-4.096-0.253-7.937,0.956-11.918C229.423,161.499,227.967,161.104,227.686,162.031
			L227.686,162.031z"/>
	</g>
</g>
<g>
	<g>
		<path fill="#231F20" d="M70.341,184.793c0.521,9.548,0.057,19.113,0.61,28.658c0.056,0.963,1.526,0.979,1.508,0
			c-0.079-4.275-0.531-8.529-0.61-12.805c-0.018-0.971-1.526-0.973-1.508,0c0.079,4.275,0.531,8.529,0.61,12.805
			c0.502,0,1.005,0,1.508,0c-0.553-9.545-0.089-19.11-0.61-28.658C71.796,183.826,70.288,183.821,70.341,184.793L70.341,184.793z"/>
	</g>
</g>
<g>
	<g>
		<path fill="#231F20" d="M70.978,190.48c2.197,8.201,6.458,15.532,6.68,24.19c0.025,0.971,1.533,0.973,1.508,0
			c-0.227-8.801-4.499-16.248-6.734-24.591C72.181,189.142,70.726,189.54,70.978,190.48L70.978,190.48z"/>
	</g>
</g>
<g>
	<g>
		<path fill="#231F20" d="M112.797,255.962c7.849,0.812,16.392-7.015,11.407-14.776c-0.167-0.26-0.56-0.35-0.785-0.102
			c-6.033,6.642-0.886,18.15,7.671,19.146c0.153,0.018,0.371-0.104,0.432-0.248c1.604-3.773,0.795-6.895-2.619-9.22
			c-0.199-0.137-0.436-0.056-0.605,0.078c-0.11,0.087-0.221,0.173-0.33,0.26c-0.168,0.131-0.191,0.436-0.078,0.605
			c0.504,0.763,1.587,0.688,2.339,1.14c0.554,0.334,1.056-0.531,0.504-0.863c-0.763-0.459-3.415-1.473-0.835,0.805
			c0.44,0.707,0.881,1.415,1.32,2.122c0.635,1.672,0.104,3.032-1.592,4.081c-0.981-0.204-1.873-0.702-2.721-1.215
			c-3.218-1.946-4.858-5.951-5.081-9.547c-0.104-1.675,0.32-3.286,1.057-4.772c1.538-3.102,1.803,3.632,1.494,4.737
			c-1.344,4.82-7.017,7.241-11.577,6.77C112.156,254.896,112.162,255.896,112.797,255.962L112.797,255.962z"/>
	</g>
</g>
<g>
	<g>
		<path fill="#231F20" d="M130.479,252.913c4.071,0.535,8.479,0.65,10.798-3.297c0.131-0.223,0.064-0.562-0.18-0.684
			c-4.012-1.999-6.847,0.533-5.668,4.811c1.501,5.449,6.975,4.952,10.647,2.072c0.507-0.397-0.206-1.101-0.707-0.707
			c-3.689,2.893-8.654,2.464-9.228-2.903c-0.198-1.856,0.767-3.407,2.775-3.056c2.96,0.517-1.359,2.57-2.474,2.857
			c-1.896,0.489-4.06,0.156-5.965-0.094C129.842,251.829,129.85,252.83,130.479,252.913L130.479,252.913z"/>
	</g>
</g>
<g>
	<g>
		<path fill="#231F20" d="M146.585,254.674c2.417-1.292,3.851-3.25,3.279-6.053c-0.035-0.17-0.19-0.303-0.35-0.35
			c-1.607-0.471-3.856-0.767-4.971,0.832c-0.947,1.359-0.628,3.098-0.021,4.524c2.023,4.762,7.434,4.995,11.209,2.266
			c0.518-0.374,0.02-1.242-0.504-0.863c-3.542,2.56-8.258,2.248-9.972-2.234c-0.485-1.27-0.562-3.127,0.927-3.734
			c0.853-0.348,1.859-0.146,2.712,0.07c0.669,0.169-0.286,2.493-0.437,2.752c-0.521,0.892-1.499,1.457-2.377,1.927
			C145.512,254.114,146.017,254.978,146.585,254.674L146.585,254.674z"/>
	</g>
</g>
<g>
	<g>
		<path fill="#231F20" d="M155.979,254.852c0.691-7.128,1.801-14.207,2.439-21.341c0.058-0.646-0.933-0.632-1,0
			c-0.739,6.958-4.105,25.745,8.56,22.434c0.623-0.163,0.358-1.128-0.266-0.965c-11.49,3.005-7.963-15.169-7.294-21.469
			c-0.333,0-0.667,0-1,0c-0.639,7.134-1.748,14.213-2.439,21.341C154.917,255.493,155.918,255.487,155.979,254.852L155.979,254.852z
			"/>
	</g>
</g>
<g>
	<g>
		<path fill="#231F20" d="M151.078,246.798c3.655,0.522,7.184,0.091,10.632-1.22c0.597-0.228,0.338-1.194-0.266-0.965
			c-3.26,1.239-6.635,1.716-10.101,1.22C150.714,245.743,150.441,246.706,151.078,246.798L151.078,246.798z"/>
	</g>
</g>
<g>
	<g>
		<path fill="#231F20" d="M166.199,255.815c2.485-2.539,4.312-5.225,5.007-8.758c-0.321,0-0.644,0-0.965,0
			c0.643,2.02,1.064,4.075,0.975,6.203c-0.152,3.631-3.021,3.638-5.729,2.379c-0.084,0.311-0.168,0.621-0.252,0.932
			c4.856,0.065,9.86,0.965,13.769-2.585c0.479-0.435-0.23-1.14-0.707-0.707c-3.664,3.327-8.547,2.354-13.062,2.292
			c-0.473-0.007-0.716,0.716-0.252,0.932c2.275,1.058,5.088,1.841,6.607-0.723c1.494-2.521,0.426-6.438-0.385-8.988
			c-0.141-0.441-0.863-0.513-0.965,0c-0.663,3.373-2.375,5.892-4.749,8.316C165.041,255.569,165.748,256.277,166.199,255.815
			L166.199,255.815z"/>
	</g>
</g>
</svg>
