<?xml version="1.0" encoding="utf-8"?>
<!-- Generator: Adobe Illustrator 16.0.0, SVG Export Plug-In . SVG Version: 6.00 Build 0)  -->
<!DOCTYPE svg PUBLIC "-//W3C//DTD SVG 1.1//EN" "http://www.w3.org/Graphics/SVG/1.1/DTD/svg11.dtd">
<svg version="1.1" id="Layer_1" xmlns="http://www.w3.org/2000/svg" xmlns:xlink="http://www.w3.org/1999/xlink" x="0px" y="0px"
	 width="275px" height="275px" viewBox="0 0 275 275" enable-background="new 0 0 275 275" xml:space="preserve">
<g>
	<g>
		<path fill="#231F20" d="M40.654,62.211c-0.082-3.978-1.157-8.02-0.221-11.966c0.967-4.075,5.841-3.358,8.614-1.911
			c2.346,1.224,4.285,3.387,5.776,5.525c0.458,0.656,1.542,0.032,1.079-0.631c-3.283-4.709-8.999-9.399-14.855-6.224
			c-4.286,2.324-1.718,11.585-1.643,15.207C39.421,63.017,40.671,63.018,40.654,62.211L40.654,62.211z"/>
	</g>
</g>
<g>
	<g>
		<path fill="#231F20" d="M54.254,53.32c11.354,14.541,28.834,9.858,43.941,4.827c0.761-0.253,0.435-1.46-0.332-1.205
			c-14.654,4.88-31.628,9.706-42.726-4.506C54.643,51.801,53.765,52.692,54.254,53.32L54.254,53.32z"/>
	</g>
</g>
<g>
	<g>
		<path fill="#231F20" d="M99.321,56.878c0.226-5.356,6.325-16.974,13.06-14.127c2.697,1.14,2.502,6.642,2.562,8.967
			c0.073,2.834-0.175,5.662-0.205,8.494c-0.009,0.807,1.241,0.806,1.25,0c0.056-5.149,2.515-18.119-5.072-19.142
			c-6.957-0.938-12.607,10.167-12.845,15.809C98.037,57.684,99.287,57.681,99.321,56.878L99.321,56.878z"/>
	</g>
</g>
<g>
	<g>
		<path fill="#231F20" d="M43.427,54.712c-0.247,1.694-0.377,3.419-0.058,5.113c0.192,1.023,0.624,2.073,1.411,2.782
			c1.388,1.251,3.37,0.986,4.886,0.129c1.523-0.86,2.798-2.384,3.002-4.159c0.256-2.237-1.798-3.623-3.66-4.243
			c-1.591-0.53-3.312-0.687-4.979-0.748c-0.807-0.03-0.804,1.221,0,1.25c1.725,0.063,3.481,0.245,5.105,0.867
			c0.908,0.349,1.679,0.875,2.08,1.625c0.022,0.041,0.042,0.083,0.062,0.126c0.067,0.143-0.049-0.126,0.008,0.021
			c0.033,0.084,0.059,0.171,0.083,0.258c0.023,0.086,0.041,0.173,0.055,0.261c0.026,0.152-0.016-0.145,0,0.009
			c0.006,0.059,0.008,0.117,0.011,0.176c0.003,0.088,0,0.177-0.004,0.265c-0.002,0.044-0.007,0.089-0.011,0.133
			c-0.016,0.155,0.022-0.143-0.002,0.011c-0.031,0.195-0.083,0.385-0.146,0.571c-0.086,0.253-0.043,0.146-0.178,0.41
			c-0.095,0.187-0.206,0.364-0.325,0.537c-0.162,0.236-0.435,0.548-0.758,0.846c-0.525,0.483-1.266,0.921-1.949,1.127
			c-0.181,0.054-0.366,0.095-0.552,0.125c-0.158,0.026,0.141-0.016-0.018,0.002c-0.045,0.005-0.091,0.009-0.137,0.012
			c-0.105,0.008-0.211,0.01-0.317,0.009c-0.09-0.001-0.179-0.008-0.269-0.017c-0.155-0.015,0.143,0.022-0.01-0.001
			c-0.043-0.007-0.087-0.016-0.13-0.024c-0.087-0.018-0.172-0.042-0.257-0.067c-0.042-0.013-0.084-0.028-0.126-0.043
			c-0.168-0.06,0.043,0.023-0.056-0.022c-0.166-0.076-0.321-0.172-0.468-0.279c0.129,0.095-0.092-0.083-0.127-0.116
			c-0.084-0.079-0.162-0.165-0.237-0.252c-0.006-0.008-0.042-0.049-0.121-0.167c-0.062-0.092-0.118-0.188-0.172-0.285
			c-0.153-0.275-0.182-0.363-0.275-0.64c-0.467-1.38-0.409-2.906-0.268-4.346c0.03-0.309,0.069-0.617,0.114-0.925
			c0.049-0.337-0.078-0.67-0.437-0.769C43.898,54.193,43.476,54.374,43.427,54.712L43.427,54.712z"/>
	</g>
</g>
<g>
	<g>
		<path fill="#231F20" d="M106.823,49.896c-0.998,1.378-1.91,2.841-2.488,4.449c-0.349,0.974-0.545,2.059-0.302,3.081
			c0.389,1.631,2.024,2.36,3.581,2.228c1.671-0.143,3.307-1.037,4.214-2.465c1.141-1.795,0.535-3.949-0.677-5.531
			c-0.79-1.032-1.765-1.88-2.806-2.652c-0.648-0.481-1.271,0.605-0.631,1.079c1.132,0.839,2.216,1.823,2.921,3.042
			c0.266,0.458,0.393,0.769,0.508,1.309c0.011,0.053,0.021,0.106,0.029,0.159c0.03,0.175-0.014-0.132,0.006,0.043
			c0.012,0.102,0.018,0.204,0.021,0.307c0.003,0.099,0,0.199-0.005,0.298c-0.003,0.049-0.008,0.097-0.013,0.146
			c-0.011,0.112,0.02-0.109-0.011,0.072c-0.031,0.186-0.082,0.367-0.144,0.544c-0.015,0.043-0.032,0.087-0.049,0.13
			c0.06-0.153,0.002-0.007-0.01,0.02c-0.045,0.098-0.096,0.192-0.148,0.286c-0.046,0.08-0.096,0.157-0.146,0.233
			c-0.025,0.038-0.052,0.075-0.079,0.112c-0.092,0.127,0.084-0.104-0.014,0.02c-0.125,0.156-0.263,0.301-0.408,0.439
			c-0.066,0.063-0.137,0.124-0.208,0.184c-0.035,0.03-0.072,0.059-0.108,0.088c0.126-0.1,0.001-0.003-0.021,0.014
			c-0.163,0.119-0.335,0.226-0.511,0.325c-0.081,0.045-0.164,0.088-0.247,0.129c-0.041,0.02-0.303,0.136-0.146,0.07
			c-0.184,0.077-0.372,0.142-0.562,0.198c-0.174,0.051-0.35,0.09-0.527,0.123c-0.043,0.008-0.087,0.014-0.131,0.021
			c0.177-0.027,0.026-0.004-0.009,0c-0.101,0.011-0.202,0.018-0.304,0.022c-0.169,0.008-0.338,0.003-0.507-0.011
			c-0.218-0.018,0.043,0.013-0.119-0.014c-0.092-0.015-0.184-0.036-0.274-0.059c-0.076-0.02-0.151-0.043-0.226-0.069
			c-0.199-0.068,0.043,0.027-0.101-0.04c-0.069-0.032-0.137-0.069-0.202-0.107c-0.047-0.027-0.279-0.195-0.122-0.073
			c-0.12-0.093-0.228-0.202-0.324-0.318c-0.088-0.105,0.085,0.117,0.005,0.004c-0.023-0.032-0.044-0.064-0.065-0.098
			c-0.05-0.079-0.093-0.162-0.133-0.247c-0.062-0.131,0.053,0.133-0.001-0.003c-0.016-0.04-0.028-0.08-0.042-0.121
			c-0.027-0.084-0.049-0.17-0.067-0.256c-0.01-0.045-0.018-0.09-0.025-0.135c-0.027-0.159,0.016,0.141-0.003-0.023
			c-0.013-0.117-0.017-0.235-0.018-0.353c-0.004-0.521,0.069-0.845,0.231-1.398c0.439-1.507,1.313-2.883,2.205-4.159
			c0.096-0.138,0.194-0.275,0.294-0.412C108.376,49.873,107.292,49.25,106.823,49.896L106.823,49.896z"/>
	</g>
</g>
<g>
	<g>
		<path fill="#231F20" d="M38.76,61.71c0.685,2.79,1.265,5.62,1.311,8.501c0.013,0.805,1.263,0.807,1.25,0
			c-0.048-2.99-0.645-5.938-1.356-8.833C39.773,60.596,38.568,60.928,38.76,61.71L38.76,61.71z"/>
	</g>
</g>
<g>
	<g>
		<path fill="#231F20" d="M114.738,59.544c-0.563,12.864,3.862,25.7,13.768,34.224c11.126,9.573,27.163,7.642,40.721,9.959
			c18.236,3.118,31.907,15.033,37.592,32.739c2.85,8.876,3.341,19.508,1.16,28.59c-2.167,9.025-10.302,15.676-16.421,22.11
			c-0.555,0.584,0.328,1.47,0.885,0.885c5.499-5.783,11.452-11.195,15.128-18.393c3.592-7.033,3.249-16.202,2.455-23.816
			c-1.628-15.625-10.619-30.415-24.443-38.087c-13.485-7.484-29.187-5.451-43.717-8.645c-17.769-3.906-26.613-22.771-25.877-39.566
			C116.023,58.738,114.773,58.742,114.738,59.544L114.738,59.544z"/>
	</g>
</g>
<g>
	<g>
		<path fill="#231F20" d="M40.157,69.193c1.27,2.507,2.791,4.784,4.764,6.793c0.565,0.576,1.449-0.309,0.884-0.884
			c-1.901-1.935-3.346-4.127-4.569-6.54C40.872,67.843,39.793,68.476,40.157,69.193L40.157,69.193z"/>
	</g>
</g>
<g>
	<g>
		<path fill="#231F20" d="M44.071,74.878c-1.234,11.721-1.312,23.525,0.417,35.2c1.868,12.614,7.944,24.138,9.583,36.8
			c0.102,0.789,1.353,0.799,1.25,0c-1.508-11.652-6.618-22.35-9.044-33.79c-2.635-12.428-2.278-25.648-0.956-38.21
			C45.406,74.077,44.155,74.085,44.071,74.878L44.071,74.878z"/>
	</g>
</g>
<g>
	<g>
		<path fill="#231F20" d="M54.071,146.212c1.848,14.668-1.946,29.73,2.022,44.166c0.213,0.775,1.419,0.445,1.205-0.332
			c-3.936-14.32-0.144-29.281-1.978-43.834C55.222,145.423,53.971,145.413,54.071,146.212L54.071,146.212z"/>
	</g>
</g>
<g>
	<g>
		<path fill="#231F20" d="M56.029,188.919c-3.863,0.285-6.908,2.158-7.851,6.076c-0.692,2.877,1.667,6.729,4.661,7.1
			c5.601,0.691,11.431-1.658,16.934-2.436c9.628-1.359,19.15-3.268,28.922-2.822c0.807,0.037,0.803-1.215,0-1.25
			c-9.865-0.449-19.542,1.422-29.254,2.867c-3.776,0.562-7.412,1.459-11.162,2.154c-2.507,0.467-5.292,0.873-7.428-1.014
			c-4.789-4.229,1.161-9.131,5.177-9.426C56.828,190.11,56.834,188.86,56.029,188.919L56.029,188.919z"/>
	</g>
</g>
<g>
	<g>
		<path fill="#231F20" d="M116.03,180.919c-6.366,0.854-13.465,4.902-13.542,12.125c-0.085,7.883,9.394,7.043,14.374,5.104
			c0.743-0.289,0.42-1.498-0.332-1.205c-4.444,1.73-12.47,2.977-12.792-3.898c-0.302-6.439,6.91-10.152,12.292-10.875
			C116.817,182.063,116.827,180.813,116.03,180.919L116.03,180.919z"/>
	</g>
</g>
<g>
	<g>
		<path fill="#231F20" d="M96.53,196.147c2.013,0.625,4.073,0.688,6.166,0.689c0.806,0,0.806-1.25,0-1.25
			c-1.983-0.002-3.924-0.053-5.834-0.645C96.09,194.702,95.762,195.909,96.53,196.147L96.53,196.147z"/>
	</g>
</g>
<g>
	<g>
		<path fill="#231F20" d="M114.862,198.813c1.984-0.705,3.476-2.027,4.943-3.492c0.57-0.57-0.313-1.455-0.885-0.885
			c-1.303,1.303-2.622,2.543-4.391,3.172C113.776,197.876,114.1,199.085,114.862,198.813L114.862,198.813z"/>
	</g>
</g>
<g>
	<g>
		<path fill="#231F20" d="M118.696,196.169c16.752,1.439,48.597,3.605,51.937-19.125c0.115-0.787-1.09-1.127-1.205-0.332
			c-3.234,22.018-34.461,19.605-50.732,18.207C117.892,194.851,117.899,196.101,118.696,196.169L118.696,196.169z"/>
	</g>
</g>
<g>
	<g>
		<path fill="#231F20" d="M159.834,192.212c5.9,1.322,12.148,0.823,18.082,0c5.646-0.783,12.186-2.194,16.526-6.16
			c0.596-0.545-0.291-1.427-0.885-0.885c-4.201,3.84-10.535,4.981-15.974,5.84c-5.625,0.888-11.823,1.254-17.418,0
			C159.381,190.831,159.048,192.036,159.834,192.212L159.834,192.212z"/>
	</g>
</g>
<g>
	<g>
		<path fill="#231F20" d="M208.525,165.52c7.448-0.299,13.729,3.246,17.764,9.453c4.676,7.193,3.14,16.189-0.416,23.434
			c-6.986,14.23-21.725,22.416-35.978,27.511c-6.258,2.237-12.479,4.426-18.396,7.477c-6.718,3.464-12.65,8.229-19.472,11.535
			c-3.922,1.901-8.312,1.971-6.957-3.432c0.522-2.087,1.681-4.131,3.166-5.674c4.803-4.991,12.166-7.201,18.622-9.041
			c9.042-2.576,18.727-4.421,26.011-10.799c5.311-4.649,9.891-10.277,13.981-16.003c6.086-8.519,15.202-25.764-0.965-28.818
			c-0.787-0.149-1.124,1.056-0.332,1.205c20.512,3.876-2.158,30.854-8.822,38.045c-6.53,7.047-13.964,10.676-23.255,13.279
			c-8.614,2.415-21.686,4.464-27.218,12.511c-2.049,2.979-5.562,11.623,0.868,11.683c4.857,0.045,10.749-4.589,14.611-7.023
			c7.071-4.458,13.886-8.383,21.755-11.331c12.823-4.806,24.484-8.93,34.497-18.691c8.293-8.085,14.447-19.191,11.724-31.006
			c-2.214-9.603-11.645-15.945-21.188-15.563C207.723,164.302,207.719,165.552,208.525,165.52L208.525,165.52z"/>
	</g>
</g>
<g>
	<g>
		<path fill="#231F20" d="M154.127,231.258c2.015,2.688,3.972,5.398,5.271,8.518c0.305,0.733,1.515,0.412,1.205-0.332
			c-1.345-3.23-3.308-6.03-5.396-8.816C154.729,229.99,153.644,230.612,154.127,231.258L154.127,231.258z"/>
	</g>
</g>
<g>
	<g>
		<path fill="#231F20" d="M94.601,72.462c-2.541,2.994-3.491,7.574-0.709,10.792c2.914,3.372,6.899,2.328,9.647-0.64
			c2.633-2.845,1.857-6.866-0.935-9.239c-3.009-2.556-7.205-2.209-10.003,0.419c-0.589,0.553,0.297,1.435,0.884,0.884
			c2.226-2.091,5.128-2.355,7.726-0.78c2.552,1.548,3.467,4.646,1.917,7.208c-1.79,2.959-5.521,4.176-8.089,1.567
			c-2.598-2.637-1.714-6.781,0.447-9.328C96.002,72.735,95.123,71.846,94.601,72.462L94.601,72.462z"/>
	</g>
</g>
<g>
	<g>
		<path fill="#231F20" d="M59.459,75.795c-2.541,2.994-3.491,7.574-0.709,10.792c2.914,3.372,6.899,2.328,9.647-0.64
			c2.633-2.845,1.857-6.866-0.935-9.239c-3.009-2.556-7.205-2.209-10.003,0.419c-0.589,0.553,0.297,1.435,0.884,0.884
			c2.226-2.091,5.128-2.355,7.726-0.78c2.552,1.548,3.467,4.646,1.917,7.208c-1.79,2.959-5.521,4.176-8.089,1.567
			c-2.598-2.637-1.714-6.781,0.447-9.328C60.861,76.068,59.981,75.179,59.459,75.795L59.459,75.795z"/>
	</g>
</g>
<g>
	<g>
		<path fill="#231F20" d="M62.125,80.942c0.031-0.48,0.001-0.108-0.05,0.035c0.165-0.461-0.083,0.131-0.126,0.219
			c-0.287,0.585-0.449,1.093-0.491,1.746c-0.065,1.021,0.902,1.875,1.875,1.875c1.071,0,1.81-0.855,1.875-1.875
			c-0.031,0.48-0.001,0.108,0.05-0.035c-0.165,0.461,0.083-0.131,0.126-0.219c0.287-0.585,0.449-1.094,0.491-1.747
			c0.065-1.021-0.902-1.875-1.875-1.875C62.929,79.067,62.19,79.923,62.125,80.942L62.125,80.942z"/>
	</g>
</g>
<g>
	<g>
		<path fill="#231F20" d="M96.792,77.609c0,0.667,0,1.333,0,2c0,1.022,0.853,1.875,1.875,1.875s1.875-0.853,1.875-1.875
			c0-0.667,0-1.333,0-2c0-1.022-0.853-1.875-1.875-1.875S96.792,76.587,96.792,77.609L96.792,77.609z"/>
	</g>
</g>
<g>
	<g>
		<path fill="#231F20" d="M77.558,88.051c1.588,1.269,3.678,2.65,5.833,2.196c2.263-0.476,3.572-2.325,4.481-4.322
			c0.332-0.728-0.746-1.364-1.079-0.631c-0.714,1.566-1.623,3.114-3.354,3.668c-1.776,0.568-3.696-0.755-4.998-1.794
			C77.819,86.67,76.928,87.548,77.558,88.051L77.558,88.051z"/>
	</g>
</g>
<g>
	<g>
		<path fill="#231F20" d="M82.708,88.942c0.001,2.968,0.01,5.928,0.689,8.833c0.183,0.785,1.388,0.452,1.205-0.332
			c-0.653-2.796-0.643-5.646-0.644-8.501C83.958,88.136,82.708,88.136,82.708,88.942L82.708,88.942z"/>
	</g>
</g>
<g>
	<g>
		<path fill="#231F20" d="M82.351,102.149c0.647,0.308,1.59,0.792,2.311,0.48c0.41-0.178,0.354-0.727,0.131-1.006
			c-0.276-0.347-0.904-0.481-1.294-0.616c-0.111,0.402-0.221,0.803-0.332,1.205c0.722,0.188,1.631,0.735,2.393,0.685
			c0.818-0.054,1.254-1.05,1.646-1.639c0.297-0.447-0.194-1.095-0.706-0.918c-0.523,0.181-1.273,0.339-1.493,0.917
			c-0.074,0.196,0.01,0.471,0.161,0.608c0.57,0.518,1.49-0.071,1.94-0.48c0.598-0.543-0.289-1.425-0.884-0.884
			c-0.157,0.143-0.474,0.328-0.598,0.312c0.147,0.061,0.295,0.122,0.442,0.183c-0.005-0.005-0.011-0.01-0.016-0.015
			c0.053,0.203,0.107,0.406,0.161,0.608c-0.228,0.261-0.249,0.333-0.063,0.213c0.213-0.111,0.457-0.179,0.683-0.257
			c-0.235-0.306-0.47-0.612-0.706-0.918c-0.191,0.288-0.378,0.578-0.574,0.861c-0.123,0.178-0.206,0.14-0.021,0.17
			c-0.681-0.109-1.361-0.478-2.033-0.651c-0.787-0.205-1.087,0.945-0.332,1.205c0.185,0.064,0.699,0.24,0.742,0.294
			c-0.053-0.203-0.107-0.406-0.161-0.608c-0.001,0.008-0.003,0.017-0.004,0.025c0.096-0.125,0.191-0.249,0.287-0.374
			c0.33-0.143,0.174-0.061-0.088-0.123c-0.333-0.08-0.653-0.21-0.961-0.357C82.258,100.725,81.624,101.803,82.351,102.149
			L82.351,102.149z"/>
	</g>
</g>
<g>
	<g>
		<path fill="#231F20" d="M110.708,92.942c0.027,2.024,0.344,4.824,2.439,5.802c1.671,0.78,3.319-0.372,4.272-1.697
			c0.661-0.918,1.017-2.098,1.157-3.208c0.095-0.747,0.104-1.48,0.048-2.23c-0.049-0.656-0.93-0.891-1.428-1.119
			c-2.888-1.32-4.76,0.629-6.403,2.804c-0.486,0.644,0.6,1.265,1.079,0.631c0.653-0.864,1.324-1.769,2.256-2.351
			c1.152-0.72,2.525-0.016,3.556,0.575c-0.103-0.18-0.207-0.36-0.31-0.54c0.153,2.043-0.229,5.13-2.461,6.011
			c-2.509,0.99-2.936-3.214-2.956-4.678C111.948,92.137,110.698,92.136,110.708,92.942L110.708,92.942z"/>
	</g>
</g>
<g>
	<g>
		<path fill="#231F20" d="M52.042,97.609c-0.167,2.42,0.613,4.672,3.029,5.549c1.586,0.576,3.714,0.272,5.013-0.817
			c1.685-1.414-0.372-4.756-1.579-5.802c-2.088-1.812-5.09-1.123-6.947,0.628c-0.587,0.554,0.298,1.437,0.884,0.884
			c1.413-1.333,3.356-1.795,5.059-0.714c0.948,0.602,2.792,3.437,1.45,4.297c-1.014,0.649-2.435,0.658-3.548,0.319
			c-1.895-0.576-2.23-2.633-2.112-4.344C53.347,96.805,52.097,96.81,52.042,97.609L52.042,97.609z"/>
	</g>
</g>
<g>
	<g>
		<path fill="#231F20" d="M-41.333-9.375c0.806,0,0.806-1.25,0-1.25S-42.14-9.375-41.333-9.375L-41.333-9.375z"/>
	</g>
</g>
</svg>
