<?xml version="1.0" encoding="utf-8"?>
<!-- Generator: Adobe Illustrator 16.0.0, SVG Export Plug-In . SVG Version: 6.00 Build 0)  -->
<!DOCTYPE svg PUBLIC "-//W3C//DTD SVG 1.1//EN" "http://www.w3.org/Graphics/SVG/1.1/DTD/svg11.dtd">
<svg version="1.1" id="Layer_1" xmlns="http://www.w3.org/2000/svg" xmlns:xlink="http://www.w3.org/1999/xlink" x="0px" y="0px"
	 width="275px" height="275px" viewBox="0 0 275 275" enable-background="new 0 0 275 275" xml:space="preserve">
<g>
	<g>
		<path fill="#231F20" d="M137.126,15.764c2.8-0.316,5.524-0.101,8.326,0.091c1.109,0.077,2.22,0.089,3.331,0.036
			c1.719-0.032,1.104,4.054,1.115,4.848c0.084,6.272-0.17,12.535,0.096,18.806c0.034,0.802,1.284,0.806,1.25,0
			c-0.347-8.151,0.097-16.307-0.252-24.458c-0.014-0.31-0.276-0.664-0.625-0.625c-4.425,0.499-8.816-0.447-13.241,0.052
			C136.335,14.604,136.326,15.854,137.126,15.764L137.126,15.764z"/>
	</g>
</g>
<g>
	<g>
		<path fill="#231F20" d="M134.33,17.018c0.148,6.576-0.586,14.189,2.188,20.354c2.861,6.357,8.572,6.278,14.342,3.726
			c0.315-0.14,0.375-0.583,0.224-0.854c-3.755-6.722-7.025-13.659-9.599-20.922c-0.24-0.678-1.168-0.542-1.228,0.166
			c-0.434,5.208-4.149,20.356,5.373,19.3c0.791-0.088,0.8-1.338,0-1.249c-7.988,0.886-4.503-13.491-4.123-18.051
			c-0.409,0.055-0.818,0.111-1.228,0.166c2.072,5.847,4.585,11.482,7.426,16.995c0.561,1.087,2.752,3.344,0.484,4.213
			c-1.145,0.438-2.354,0.669-3.571,0.792c-2.511,0.252-4.595-0.982-6.007-2.97c-4.078-5.739-2.884-15.013-3.034-21.665
			C135.561,16.213,134.312,16.211,134.33,17.018L134.33,17.018z"/>
	</g>
</g>
<g>
	<g>
		<path fill="#231F20" d="M134.015,19.054c4.809-0.405,9.418,0.572,14.18,1.035c-1.041-1.041-2.082-2.082-3.123-3.123
			c0.449,7.809-0.005,15.632,0.325,23.445c0.17,4.012,6.416,4.029,6.246,0c-0.331-7.813,0.123-15.637-0.325-23.445
			c-0.105-1.829-1.351-2.951-3.123-3.123c-4.775-0.464-9.354-1.441-14.18-1.035C130.032,13.144,129.999,19.392,134.015,19.054
			L134.015,19.054z"/>
	</g>
</g>
<g>
	<g>
		<path fill="#231F20" d="M128.865,15.783c-0.458,8.254,0.81,16.359,2.463,24.422c0.809,3.944,6.829,2.271,6.022-1.66
			c-1.546-7.541-2.668-15.046-2.24-22.762C135.334,11.757,129.088,11.779,128.865,15.783L128.865,15.783z"/>
	</g>
</g>
<g>
	<g>
		<path fill="#231F20" d="M133.253,43.437c4.389,0.321,8.778,0.641,13.167,0.961c4.021,0.293,3.992-5.955,0-6.246
			c-4.39-0.32-8.778-0.64-13.167-0.961C129.233,36.896,129.261,43.145,133.253,43.437L133.253,43.437z"/>
	</g>
</g>
<g>
	<g>
		<path fill="#231F20" d="M134.003,15.14c-0.717,8.958-1.934,17.608,1.693,26.108c1.184,2.775,4.874,1.435,5.708-0.746
			c2.668-6.985,3.145-14.562,3.689-21.953c-2.082,0-4.164,0-6.246,0c0.38,7.684-0.571,15.023,3,22.129
			c1.318,2.624,4.853,1.581,5.708-0.746c1.293-3.52,1.584-7.17,1.863-10.885c0.302-4.02-5.946-3.991-6.246,0
			c-0.239,3.185-0.533,6.212-1.641,9.225c1.903-0.249,3.806-0.498,5.708-0.746c-2.967-5.903-1.832-12.604-2.146-18.977
			c-0.2-4.049-5.951-3.998-6.246,0c-0.507,6.876-0.984,13.796-3.466,20.293c1.902-0.249,3.805-0.498,5.708-0.746
			c-3.07-7.197-1.442-15.432-0.84-22.956C140.57,11.122,134.322,11.153,134.003,15.14L134.003,15.14z"/>
	</g>
</g>
<g>
	<g>
		<path fill="#231F20" d="M132.216,17.415c0.669,6.496-0.069,12.791-1.238,19.184c2.727,0.369,5.453,0.738,8.179,1.107
			c0.075-4.062,0.148-8.124,0.223-12.185c0.073-3.963-5.949-5.932-7.759-2.102c-2.561,5.418-2.634,10.552-1.677,16.39
			c0.31,1.887,2.306,2.942,4.015,3.057c3.131,0.211,6.148,0.996,9.23,0c5.089-1.645,2.911-9.687-2.213-8.03
			c-2.192,0.708-4.762-0.145-7.017-0.297c1.338,1.019,2.677,2.038,4.015,3.057c-0.562-3.431-0.681-6.762,0.837-9.973
			c-2.586-0.701-5.173-1.401-7.759-2.102c-0.075,4.062-0.148,8.124-0.223,12.185c-0.085,4.616,7.322,5.793,8.179,1.107
			c1.297-7.094,2.279-14.183,1.536-21.398C140,12.127,131.667,12.074,132.216,17.415L132.216,17.415z"/>
	</g>
</g>
<g>
	<g>
		<path fill="#231F20" d="M138.234,21.588c-0.024,1.354-0.05,2.708-0.075,4.062c-0.042,2.27,1.927,4.164,4.164,4.164
			c2.302,0,4.121-1.895,4.164-4.164c0.025-1.354,0.05-2.708,0.075-4.062c0.041-2.27-1.926-4.164-4.164-4.164
			C140.098,17.424,138.276,19.319,138.234,21.588L138.234,21.588z"/>
	</g>
</g>
<g>
	<g>
		<path fill="#231F20" d="M136.968,44.952c4.586,0.081,9.244-0.003,13.309-2.395c4.624-2.72,0.436-9.92-4.203-7.19
			c-2.72,1.6-6.062,1.311-9.106,1.257C131.595,36.529,131.604,44.857,136.968,44.952L136.968,44.952z"/>
	</g>
</g>
<g>
	<g>
		<path fill="#231F20" d="M129.75,37.01c-15.037,5.96-26.284,17.903-40.233,25.74c-0.702,0.394-0.072,1.473,0.631,1.078
			c13.842-7.776,25.016-19.701,39.935-25.614C130.822,37.921,130.5,36.713,129.75,37.01L129.75,37.01z"/>
	</g>
</g>
<g>
	<g>
		<path fill="#231F20" d="M151.939,38.561c16.672,7.257,33.001,15.25,49.306,23.287c0.72,0.355,1.354-0.722,0.631-1.078
			c-16.306-8.038-32.634-16.031-49.306-23.287C151.839,37.164,151.203,38.24,151.939,38.561L151.939,38.561z"/>
	</g>
</g>
<g>
	<g>
		<path fill="#231F20" d="M88.835,62.879c37.177,4.536,74.464-0.564,111.734,0.011c0.806,0.013,0.805-1.237,0-1.249
			c-37.27-0.575-74.557,4.525-111.734-0.011C88.037,61.533,88.046,62.783,88.835,62.879L88.835,62.879z"/>
	</g>
</g>
<g>
	<g>
		<path fill="#231F20" d="M91.735,60.693c-5.645,0.762-11.348,0.854-17.003,1.517c-0.79,0.093-0.799,1.343,0,1.249
			c5.767-0.676,11.579-0.784,17.335-1.562C92.863,61.791,92.522,60.587,91.735,60.693L91.735,60.693z"/>
	</g>
</g>
<g>
	<g>
		<path fill="#231F20" d="M91.239,63.326c1.85,20.995,7.877,41.335,14.14,61.369c0.239,0.766,1.445,0.439,1.204-0.332
			c-6.228-19.921-12.255-40.158-14.095-61.037C92.418,62.53,91.168,62.523,91.239,63.326L91.239,63.326z"/>
	</g>
</g>
<g>
	<g>
		<path fill="#231F20" d="M197.894,63.245c1.428,20.473-4.688,40.12-10.212,59.575c-0.22,0.776,0.985,1.105,1.205,0.332
			c5.554-19.563,11.691-39.323,10.257-59.907C199.088,62.446,197.838,62.44,197.894,63.245L197.894,63.245z"/>
	</g>
</g>
<g>
	<g>
		<path fill="#231F20" d="M106.831,125.149c26.281,3.607,54.041,6.16,79.609-2.614c0.757-0.26,0.432-1.466-0.332-1.204
			c-25.348,8.697-52.887,6.19-78.945,2.614C106.375,123.837,106.036,125.041,106.831,125.149L106.831,125.149z"/>
	</g>
</g>
<g>
	<g>
		<path fill="#231F20" d="M105.357,124.529c-0.043,2.369-0.086,4.738-0.13,7.107c-0.015,0.806,1.234,0.805,1.249,0
			c0.043-2.369,0.086-4.738,0.13-7.107C106.621,123.723,105.372,123.724,105.357,124.529L105.357,124.529z"/>
	</g>
</g>
<g>
	<g>
		<path fill="#231F20" d="M105.852,132.261c27.955-2.267,56.067,4.37,83.522-3.577c0.772-0.223,0.443-1.429-0.332-1.204
			c-27.353,7.917-55.344,1.274-83.19,3.532C105.054,131.076,105.048,132.326,105.852,132.261L105.852,132.261z"/>
	</g>
</g>
<g>
	<g>
		<path fill="#231F20" d="M185.734,122.249c1.008,1.968,2.963,3.189,3.969,5.151c0.367,0.717,1.445,0.084,1.078-0.631
			c-1.009-1.967-2.964-3.189-3.969-5.151C186.445,120.901,185.368,121.533,185.734,122.249L185.734,122.249z"/>
	</g>
</g>
<g>
	<g>
		<path fill="#231F20" d="M105.094,132.128c0.682,3.336,0.773,6.627,0.667,10.016c-0.025,0.806,1.224,0.804,1.249,0
			c0.11-3.502-0.008-6.906-0.712-10.348C106.137,131.007,104.933,131.342,105.094,132.128L105.094,132.128z"/>
	</g>
</g>
<g>
	<g>
		<path fill="#231F20" d="M106.22,142.747c28.532,4.638,56.955-1.063,85.56-1.301c0.805-0.007,0.806-1.256,0-1.25
			c-28.479,0.237-56.82,5.963-85.228,1.346C105.764,141.414,105.426,142.618,106.22,142.747L106.22,142.747z"/>
	</g>
</g>
<g>
	<g>
		<path fill="#231F20" d="M188.563,129.096c-0.068,3.946-0.151,8.015,1.911,11.523c0.407,0.693,1.487,0.065,1.078-0.631
			c-1.944-3.308-1.805-7.18-1.739-10.892C189.827,128.29,188.578,128.292,188.563,129.096L188.563,129.096z"/>
	</g>
</g>
<g>
	<g>
		<path fill="#231F20" d="M111.071,141.614c0.935,2.286,1.028,4.831,1.654,7.208c0.205,0.778,1.41,0.448,1.204-0.332
			c-0.625-2.377-0.719-4.922-1.654-7.208C111.975,140.547,110.766,140.868,111.071,141.614L111.071,141.614z"/>
	</g>
</g>
<g>
	<g>
		<path fill="#231F20" d="M112.201,148.192c24.704,4.05,49.559-1.213,74.36,0.899c0.803,0.068,0.797-1.182,0-1.25
			c-24.685-2.102-49.443,3.177-74.028-0.854C111.745,146.858,111.407,148.062,112.201,148.192L112.201,148.192z"/>
	</g>
</g>
<g>
	<g>
		<path fill="#231F20" d="M186.948,147.19c1.147-1.175,1.279-2.911,1.332-4.469c0.026-0.806-1.223-0.804-1.25,0
			c-0.04,1.204-0.071,2.67-0.965,3.586C185.502,146.884,186.385,147.768,186.948,147.19L186.948,147.19z"/>
	</g>
</g>
<g>
	<g>
		<path fill="#231F20" d="M112.701,148.483c-1.288,3.33-3.292,6.319-4.579,9.652c-0.302,0.783,0.954,1.118,1.252,0.346
			c1.287-3.331,3.291-6.32,4.579-9.652C114.256,148.047,113,147.711,112.701,148.483L112.701,148.483z"/>
	</g>
</g>
<g>
	<g>
		<path fill="#231F20" d="M107.698,159.817c26.824,4.87,53.583-3.524,80.467-0.696c0.833,0.088,0.824-1.212,0-1.299
			c-26.767-2.815-53.422,5.591-80.122,0.743C107.225,158.417,106.875,159.668,107.698,159.817L107.698,159.817z"/>
	</g>
</g>
<g>
	<g>
		<path fill="#231F20" d="M185.158,147.84c3.204,2.721,6.091,5.761,8.657,9.09c0.484,0.628,1.57,0.008,1.078-0.631
			c-2.634-3.416-5.562-6.549-8.853-9.342C185.431,146.438,184.543,147.318,185.158,147.84L185.158,147.84z"/>
	</g>
</g>
<g>
	<g>
		<path fill="#231F20" d="M190.221,158.405c1.789,0.095,3.545-0.116,5.266-0.61c0.772-0.223,0.444-1.428-0.332-1.205
			c-1.62,0.466-3.25,0.655-4.934,0.565C189.415,157.113,189.42,158.362,190.221,158.405L190.221,158.405z"/>
	</g>
</g>
<g>
	<g>
		<path fill="#231F20" d="M112.146,161.568c-1.895,24.935-6.472,49.585-12.509,73.83c-0.227,0.91,1.177,1.297,1.403,0.387
			c6.067-24.371,10.656-49.153,12.561-74.217C113.672,160.632,112.217,160.639,112.146,161.568L112.146,161.568z"/>
	</g>
</g>
<g>
	<g>
		<path fill="#231F20" d="M189.131,160.666c0.806,0,0.806-1.25,0-1.25S188.325,160.666,189.131,160.666L189.131,160.666z"/>
	</g>
</g>
<g>
	<g>
		<path fill="#231F20" d="M188.479,158.697c5.084,22.845,7.47,46.204,13.115,68.933c0.226,0.91,1.629,0.524,1.402-0.387
			c-5.645-22.729-8.03-46.088-13.115-68.933C189.679,157.395,188.275,157.783,188.479,158.697L188.479,158.697z"/>
	</g>
</g>
<g>
	<g>
		<path fill="#231F20" d="M105.265,236.511c32.973,1.755,67.043,9.861,99.074-2.012c0.872-0.323,0.495-1.729-0.387-1.402
			c-31.908,11.827-65.849,3.707-98.688,1.959C104.327,235.006,104.332,236.461,105.265,236.511L105.265,236.511z"/>
	</g>
</g>
<g>
	<g>
		<path fill="#231F20" d="M104.625,238.701c1.439,4.588,2.233,9.299,2.91,14.051c0.132,0.926,1.534,0.53,1.403-0.387
			c-0.677-4.752-1.471-9.463-2.91-14.051C105.749,237.423,104.344,237.804,104.625,238.701L104.625,238.701z"/>
	</g>
</g>
<g>
	<g>
		<path fill="#231F20" d="M108.429,254.736c29.037,5.089,59.25,7.562,88.049-0.207c0.905-0.244,0.521-1.647-0.387-1.402
			c-28.541,7.699-58.501,5.25-87.276,0.207C107.898,253.173,107.506,254.575,108.429,254.736L108.429,254.736z"/>
	</g>
</g>
<g>
	<g>
		<path fill="#231F20" d="M195.055,238.845c0.712,5.018,0.548,9.794-0.487,14.759c-0.191,0.915,1.211,1.305,1.402,0.387
			c1.089-5.22,1.237-10.25,0.487-15.532C196.326,237.532,194.925,237.928,195.055,238.845L195.055,238.845z"/>
	</g>
</g>
<g>
	<g>
		<path fill="#231F20" d="M197.103,237.34c-0.179,5.476-0.423,10.911-1.519,16.295c-0.187,0.916,1.216,1.306,1.402,0.387
			c1.121-5.507,1.389-11.077,1.571-16.682C198.588,236.401,197.133,236.404,197.103,237.34L197.103,237.34z"/>
	</g>
</g>
<g>
	<g>
		<path fill="#231F20" d="M102.757,236.059c2.682,3.977,4.734,8.258,6.708,12.616c0.386,0.854,1.64,0.113,1.256-0.734
			c-1.975-4.358-4.026-8.64-6.708-12.616C103.491,234.551,102.23,235.278,102.757,236.059L102.757,236.059z"/>
	</g>
</g>
<g>
	<g>
		<path fill="#231F20" d="M71.458,66.785c3.454,0.542,6.926,0.837,10.417,0.992c0.806,0.036,0.802-1.213,0-1.249
			c-3.38-0.15-6.742-0.422-10.085-0.947C71.002,65.457,70.664,66.661,71.458,66.785L71.458,66.785z"/>
	</g>
</g>
<g>
	<g>
		<path fill="#231F20" d="M72.488,65.628c5.769,0.105,11.539,0.21,17.308,0.316c0.62,0.011,0.855-0.861,0.315-1.164
			c-5.718-3.207-12.304-2.322-17.912,0.699c-0.662,0.357-0.18,1.259,0.481,1.142c5.755-1.022,11.535-1.878,17.317-2.731
			c0.603-0.089,0.595-1.108,0-1.204c-6.097-0.99-12.038-0.308-17.807,1.875c-0.746,0.282-0.423,1.49,0.332,1.204
			c5.535-2.094,11.284-2.827,17.143-1.875c0-0.401,0-0.803,0-1.204c-5.782,0.853-11.562,1.708-17.317,2.731
			c0.161,0.38,0.321,0.761,0.481,1.142c5.208-2.807,11.315-3.691,16.65-0.7c0.105-0.388,0.21-0.776,0.315-1.164
			c-5.769-0.106-11.539-0.211-17.308-0.316C71.682,64.365,71.684,65.614,72.488,65.628L72.488,65.628z"/>
	</g>
</g>
<g>
	<g>
		<path fill="#231F20" d="M88.856,66.693c0.106-0.4,0.235-0.961,0.606-1.208c0.317-0.21,0.806,0.217,1.034,0.392
			c-0.042-0.327-0.084-0.654-0.126-0.981c-0.505,0.58-1.09,1.152-1.812,1.455c-0.314,0.131-0.535,0.408-0.436,0.768
			c0.082,0.297,0.454,0.568,0.768,0.436c0.935-0.391,1.7-1.015,2.362-1.776c0.288-0.331,0.206-0.727-0.126-0.981
			c-0.619-0.474-1.46-0.84-2.213-0.436c-0.736,0.396-1.059,1.234-1.261,1.998C87.445,67.141,88.65,67.471,88.856,66.693
			L88.856,66.693z"/>
	</g>
</g>
<g>
	<g>
		<path fill="#231F20" d="M73.071,67.495c9.464,9.076,16.252,20.353,24.529,30.437c0.511,0.624,1.39-0.266,0.883-0.883
			c-8.279-10.088-15.06-21.356-24.529-30.437C73.373,66.055,72.489,66.937,73.071,67.495L73.071,67.495z"/>
	</g>
</g>
<g>
	<g>
		<path fill="#231F20" d="M198.352,73.008c6.767,0.123,13.533,0.247,20.3,0.371c0.806,0.015,0.805-1.234,0-1.249
			c-6.767-0.124-13.533-0.248-20.3-0.371C197.546,71.744,197.547,72.993,198.352,73.008L198.352,73.008z"/>
	</g>
</g>
<g>
	<g>
		<path fill="#231F20" d="M224.469,74.72c0.673,2.282,2.106,4.114,3.772,5.768c0.571,0.568,1.455-0.315,0.883-0.883
			c-1.513-1.503-2.839-3.141-3.45-5.217C225.446,73.617,224.24,73.946,224.469,74.72L224.469,74.72z"/>
	</g>
</g>
<g>
	<g>
		<path fill="#231F20" d="M229.056,81.083c-0.281,12.875-1.436,25.685-3.728,38.363c-0.142,0.788,1.062,1.124,1.205,0.332
			c2.311-12.786,3.488-25.708,3.772-38.695C230.323,80.276,229.073,80.278,229.056,81.083L229.056,81.083z"/>
	</g>
</g>
<g>
	<g>
		<path fill="#231F20" d="M198.167,83.161c8.548,0.066,18.445-1.638,24.853,5.358c0.545,0.596,1.426-0.291,0.883-0.883
			c-6.673-7.287-16.799-5.655-25.735-5.725C197.361,81.906,197.361,83.155,198.167,83.161L198.167,83.161z"/>
	</g>
</g>
<g>
	<g>
		<path fill="#231F20" d="M222.836,88.078c-0.512,11.352-6.099,21.341-11.662,30.958c-0.404,0.699,0.675,1.328,1.078,0.631
			c5.681-9.818,11.311-20.006,11.834-31.589C224.122,87.272,222.873,87.276,222.836,88.078L222.836,88.078z"/>
	</g>
</g>
<g>
	<g>
		<path fill="#231F20" d="M211.291,117.895c-0.776,0.708-1.618,0.794-2.625,0.777c-0.806-0.014-0.805,1.235,0,1.249
			c1.353,0.024,2.482-0.207,3.508-1.143C212.771,118.233,211.885,117.353,211.291,117.895L211.291,117.895z"/>
	</g>
</g>
<g>
	<g>
		<path fill="#231F20" d="M204.979,120.255c0.021,2.03,0.747,4.047,2.121,5.556c0.543,0.597,1.424-0.289,0.883-0.883
			c-1.149-1.263-1.736-2.98-1.754-4.673C206.22,119.45,204.971,119.449,204.979,120.255L204.979,120.255z"/>
	</g>
</g>
<g>
	<g>
		<path fill="#231F20" d="M205.604,120.879c1.692,0.031,3.384,0.062,5.076,0.094c0.806,0.015,0.805-1.234,0-1.249
			c-1.692-0.031-3.384-0.062-5.076-0.094C204.798,119.615,204.799,120.865,205.604,120.879L205.604,120.879z"/>
	</g>
</g>
<g>
	<g>
		<path fill="#231F20" d="M208.408,124.975c5.636,0.931,11.028,0.287,16.598-0.718c0.792-0.143,0.455-1.346-0.332-1.204
			c-5.347,0.964-10.528,1.611-15.934,0.718C207.952,123.641,207.615,124.844,208.408,124.975L208.408,124.975z"/>
	</g>
</g>
<g>
	<g>
		<path fill="#231F20" d="M225.465,123.655c0.051-2.743,0.255-5.324,1.144-7.939c0.26-0.765-0.947-1.09-1.205-0.332
			c-0.925,2.725-1.135,5.412-1.188,8.271C224.2,124.461,225.449,124.459,225.465,123.655L225.465,123.655z"/>
	</g>
</g>
<g>
	<g>
		<path fill="#231F20" d="M201.768,76.697c4.427,1.074,8.801,0.97,13.32,0.892c6.546-0.112,9.338,3.034,11.275,9.16
			c0.887,2.806,5.31,1.606,4.416-1.218c-1.694-5.359-4.199-10.201-9.866-11.957c-5.709-1.77-12.067,0.127-17.929-1.294
			C200.115,71.584,198.897,76,201.768,76.697L201.768,76.697z"/>
	</g>
</g>
<g>
	<g>
		<path fill="#231F20" d="M198.351,76.622c6.381,9.316,20.59,2.146,26.177,12.667c1.386,2.609,5.339,0.295,3.955-2.312
			c-2.533-4.77-6.482-7.346-11.699-8.457c-4.52-0.962-11.528,0.096-14.478-4.21C200.648,71.89,196.677,74.178,198.351,76.622
			L198.351,76.622z"/>
	</g>
</g>
<g>
	<g>
		<path fill="#231F20" d="M201.858,82.771c7.37-1.695,14.862-3.502,22.156-0.59c2.745,1.096,3.926-3.335,1.217-4.417
			c-8.03-3.207-16.474-1.276-24.59,0.59C197.763,79.016,198.983,83.432,201.858,82.771L201.858,82.771z"/>
	</g>
</g>
<g>
	<g>
		<path fill="#231F20" d="M224.178,90.165c-0.439,9.627-4.785,18.372-11.001,25.592c-1.917,2.226,1.309,5.48,3.238,3.238
			c7.041-8.178,11.845-17.933,12.343-28.83C228.893,87.211,224.312,87.224,224.178,90.165L224.178,90.165z"/>
	</g>
</g>
<g>
	<g>
		<path fill="#231F20" d="M221.887,104.343c0.609,6.139-1.692,11.26-7.286,14.121c-2.63,1.346-0.312,5.297,2.312,3.955
			c6.897-3.528,10.312-10.441,9.554-18.076C226.178,101.433,221.595,101.404,221.887,104.343L221.887,104.343z"/>
	</g>
</g>
<g>
	<g>
		<path fill="#231F20" d="M206.58,124.595c4.646,0.083,9.262,0.123,13.827-0.855c2.888-0.619,1.663-5.034-1.217-4.417
			c-4.152,0.89-8.389,0.768-12.61,0.692C203.625,119.962,203.63,124.542,206.58,124.595L206.58,124.595z"/>
	</g>
</g>
<g>
	<g>
		<path fill="#231F20" d="M224.02,103.973c1.465,6.663-1.2,12.87-3.417,19.035c-1.002,2.787,3.425,3.976,4.416,1.218
			c2.545-7.078,5.087-13.876,3.417-21.471C227.802,99.871,223.387,101.095,224.02,103.973L224.02,103.973z"/>
	</g>
</g>
<g>
	<g>
		<path fill="#231F20" d="M105.814,135.958c26.417,0.482,52.845,0.917,79.239-0.583c2.937-0.167,2.952-4.748,0-4.58
			c-26.395,1.5-52.822,1.065-79.239,0.583C102.859,131.323,102.864,135.904,105.814,135.958L105.814,135.958z"/>
	</g>
</g>
<g>
	<g>
		<path fill="#231F20" d="M104.521,134.701c-0.031,1.692-0.062,3.384-0.093,5.076c-0.03,1.625,1.476,2.422,2.899,2.208
			c25.321-3.807,51.132-2.97,76.655-3.583c2.948-0.071,2.955-4.652,0-4.581c-25.954,0.624-52.125-0.124-77.873,3.747
			c0.966,0.736,1.933,1.472,2.899,2.208c0.031-1.692,0.062-3.384,0.093-5.076C109.155,131.746,104.575,131.751,104.521,134.701
			L104.521,134.701z"/>
	</g>
</g>
<g>
	<g>
		<path fill="#231F20" d="M107.143,140.989c26.491,4.533,53.371,1.187,79.868-1.516c2.909-0.297,2.938-4.88,0-4.58
			c-26.023,2.654-52.626,6.133-78.65,1.679C105.473,136.079,104.236,140.492,107.143,140.989L107.143,140.989z"/>
	</g>
</g>
<g>
	<g>
		<path fill="#231F20" d="M108.104,144.054c6.219,1.092,12.226,1.18,18.479,0.317c2.915-0.401,1.669-4.814-1.218-4.416
			c-5.389,0.743-10.688,0.622-16.043-0.317C106.434,139.131,105.199,143.544,108.104,144.054L108.104,144.054z"/>
	</g>
</g>
<g>
	<g>
		<path fill="#231F20" d="M185.809,132.805c0.562-0.656,0.606-1.405,0.137-2.132c-0.1-0.154-0.359-0.438-0.394-0.522
			c0.195,0.486-0.408,0.558,0.219,0.318c0.53-0.204,1.11-0.297,1.665-0.405c-0.427-0.243-0.854-0.485-1.28-0.727
			c0.683,2.276,0.889,4.486,0.847,6.85c-0.023,1.343,2.059,1.341,2.082,0c0.045-2.543-0.188-4.957-0.921-7.403
			c-0.173-0.574-0.714-0.837-1.28-0.727c-1.143,0.222-3.032,0.494-3.364,1.876c-0.104,0.438,0.027,0.856,0.234,1.24
			c0.085,0.157,0.209,0.299,0.315,0.441c0.309,0.411-0.051,0.091,0.268-0.28C183.467,132.346,184.933,133.826,185.809,132.805
			L185.809,132.805z"/>
	</g>
</g>
<g>
	<g>
		<path fill="#231F20" d="M113.624,136.851c3.074,0.988,6.189,1.158,9.397,1.219c0-0.694,0-1.388,0-2.082
			c-4.4-0.081-8.801-0.161-13.201-0.241c0,0.694,0,1.388,0,2.082c3.046,0.055,6.093,0.111,9.139,0.167
			c1.343,0.024,1.341-2.058,0-2.082c-3.046-0.055-6.093-0.111-9.139-0.167c-1.343-0.024-1.341,2.058,0,2.082
			c4.4,0.08,8.801,0.16,13.201,0.241c1.343,0.024,1.341-2.056,0-2.082c-3.02-0.058-5.946-0.214-8.843-1.145
			C112.896,134.432,112.351,136.442,113.624,136.851L113.624,136.851z"/>
	</g>
</g>
<g>
	<g>
		<path fill="#231F20" d="M183.06,132.058c1.343,0,1.343-2.082,0-2.082S181.717,132.058,183.06,132.058L183.06,132.058z"/>
	</g>
</g>
<g>
	<g>
		<path fill="#231F20" d="M189.882,139.741c-0.055-0.119-0.08-0.2-0.118-0.335c-0.027-0.13-0.027-0.12,0,0.031
			c-0.007,0.11-0.039,0.212-0.096,0.307c-0.167,0.26-0.386,0.391-0.658,0.392c0.108,0.004,0.076-0.003-0.096-0.02
			c0.056,0.01,0.35,0.124,0.116,0.021c0.566,0.247,0.835,0.483,1.247,0.902c0.943,0.957,2.415-0.516,1.473-1.473
			c-0.688-0.698-1.616-1.407-2.623-1.507c-0.612-0.061-1.208,0.334-1.383,0.925c-0.186,0.626,0.083,1.247,0.341,1.807
			c0.237,0.516,0.971,0.639,1.424,0.373C190.033,140.858,190.119,140.257,189.882,139.741L189.882,139.741z"/>
	</g>
</g>
<g>
	<g>
		<path fill="#231F20" d="M108.111,251.782c27.765,3.788,56.509,7.581,84.198,1.261c4.572-1.043,2.633-8.057-1.934-7.014
			c-26.317,6.007-53.934,2.34-80.331-1.261C105.459,244.143,103.48,251.15,108.111,251.782L108.111,251.782z"/>
	</g>
</g>
<g>
	<g>
		<path fill="#231F20" d="M113.006,256.173c26.86,0.924,53.718,4.091,80.274-1.721c4.582-1.002,2.639-8.015-1.934-7.014
			c-25.855,5.657-52.19,2.359-78.341,1.461C108.312,248.738,108.328,256.013,113.006,256.173L113.006,256.173z"/>
	</g>
</g>
<g>
	<g>
		<path fill="#231F20" d="M192.119,238.651c-0.119,3.672-0.238,7.345-0.355,11.017c-0.15,4.693,7.124,4.679,7.273,0
			c0.117-3.672,0.237-7.345,0.355-11.017C199.545,233.958,192.271,233.973,192.119,238.651L192.119,238.651z"/>
	</g>
</g>
<g>
	<g>
		<path fill="#231F20" d="M107.356,242.208c28.027,2.23,56.138,3.183,84.161,5.458c4.679,0.38,4.642-6.896,0-7.273
			c-28.023-2.276-56.134-3.228-84.161-5.458C102.677,234.562,102.713,241.839,107.356,242.208L107.356,242.208z"/>
	</g>
</g>
<g>
	<g>
		<path fill="#231F20" d="M111.108,251.976c18.957,0.609,37.927,1.215,56.888,0.447c4.674-0.188,4.692-7.464,0-7.273
			c-18.961,0.767-37.932,0.161-56.888-0.447C106.415,244.551,106.429,251.825,111.108,251.976L111.108,251.976z"/>
	</g>
</g>
<g>
	<g>
		<path fill="#231F20" d="M185.47,238.82c-26.135,3.008-52.027-2.915-78.158-2.505c-3.423,0.054-5.223,5.13-1.835,6.777
			c28.617,13.916,59.53-2.877,89.263-0.835c4.685,0.322,4.653-6.954,0-7.273c-14.248-0.979-28.358,2.107-42.342,4.393
			c-14.325,2.341-29.757,3.996-43.25-2.565c-0.612,2.26-1.224,4.519-1.835,6.777c26.131-0.409,52.023,5.513,78.158,2.505
			C190.073,245.564,190.125,238.284,185.47,238.82L185.47,238.82z"/>
	</g>
</g>
<g>
	<g>
		<path fill="#231F20" d="M176.115,245.411c-3.722-0.12-7.443-0.24-11.165-0.357c-4.693-0.148-4.679,7.126,0,7.273
			c3.722,0.117,7.443,0.237,11.165,0.357C180.809,252.836,180.794,245.562,176.115,245.411L176.115,245.411z"/>
	</g>
</g>
<g>
	<g>
		<path fill="#231F20" d="M144.021,65.307c0.863,8.122,1.659,16.23,1.585,24.407c-0.007,0.806,1.242,0.805,1.25,0
			c0.073-8.177-0.723-16.286-1.585-24.407C145.187,64.514,143.937,64.506,144.021,65.307L144.021,65.307z"/>
	</g>
</g>
<g>
	<g>
		<path fill="#231F20" d="M96.339,63.584c3.77,20.142,11.24,39.503,13.098,60.003c0.072,0.795,1.322,0.802,1.249,0
			c-1.869-20.615-9.352-40.081-13.143-60.335C97.395,62.461,96.191,62.797,96.339,63.584L96.339,63.584z"/>
	</g>
</g>
<g>
	<g>
		<path fill="#231F20" d="M103.41,65.746c3.809,19.601,9.171,38.839,14.173,58.157c0.202,0.779,1.406,0.448,1.204-0.332
			c-5.001-19.317-10.364-38.556-14.173-58.157C104.461,64.623,103.257,64.959,103.41,65.746L103.41,65.746z"/>
	</g>
</g>
<g>
	<g>
		<path fill="#231F20" d="M112.544,64.73c0.827,21.342,8.202,41.51,12.09,62.348c0.147,0.791,1.351,0.455,1.204-0.332
			c-3.867-20.729-11.223-40.784-12.045-62.016C113.762,63.928,112.513,63.925,112.544,64.73L112.544,64.73z"/>
	</g>
</g>
<g>
	<g>
		<path fill="#231F20" d="M123.714,64.935c-1.128,20.796,7.079,40.479,8.024,61.092c0.037,0.802,1.286,0.806,1.249,0
			c-0.945-20.61-9.151-40.305-8.024-61.092C125.007,64.13,123.758,64.134,123.714,64.935L123.714,64.935z"/>
	</g>
</g>
<g>
	<g>
		<path fill="#231F20" d="M130.822,65.065c0.839,20.668,7.211,40.558,9.039,61.11c0.071,0.796,1.321,0.803,1.25,0
			c-1.828-20.552-8.201-40.445-9.04-61.11C132.038,64.263,130.789,64.26,130.822,65.065L130.822,65.065z"/>
	</g>
</g>
<g>
	<g>
		<path fill="#231F20" d="M158.237,65.566c-0.339,20.284,0.14,40.627-3.123,60.721c-0.128,0.788,1.076,1.125,1.205,0.332
			c3.28-20.207,2.826-40.655,3.168-61.053C159.5,64.76,158.251,64.762,158.237,65.566L158.237,65.566z"/>
	</g>
</g>
<g>
	<g>
		<path fill="#231F20" d="M168.41,64.736c-0.373,20.303-0.846,40.622-4.138,60.703c-0.129,0.788,1.075,1.125,1.205,0.332
			c3.31-20.191,3.808-40.619,4.183-61.035C169.675,63.93,168.426,63.932,168.41,64.736L168.41,64.736z"/>
	</g>
</g>
<g>
	<g>
		<path fill="#231F20" d="M177.567,63.888c-0.405,20.351-1.797,40.652-4.16,60.869c-0.093,0.799,1.157,0.79,1.25,0
			c2.362-20.217,3.754-40.518,4.16-60.869C178.833,63.082,177.584,63.084,177.567,63.888L177.567,63.888z"/>
	</g>
</g>
<g>
	<g>
		<path fill="#231F20" d="M184.676,64.019c-0.474,19.38-4.641,38.43-5.119,57.804c-0.02,0.806,1.229,0.804,1.25,0
			c0.478-19.375,4.645-38.424,5.119-57.804C185.945,63.212,184.696,63.214,184.676,64.019L184.676,64.019z"/>
	</g>
</g>
<g>
	<g>
		<path fill="#231F20" d="M189.752,64.111c1.519,19.027-0.634,37.93-4.062,56.642c-0.144,0.787,1.06,1.124,1.205,0.332
			c3.447-18.815,5.634-37.836,4.107-56.974C190.938,63.314,189.688,63.308,189.752,64.111L189.752,64.111z"/>
	</g>
</g>
<g>
	<g>
		<path fill="#231F20" d="M119.164,164.552c1.184,23.698-6.05,47.13-12.377,69.698c-0.253,0.905,1.15,1.289,1.403,0.387
			c6.36-22.686,13.619-46.258,12.429-70.085C120.572,163.618,119.117,163.613,119.164,164.552L119.164,164.552z"/>
	</g>
</g>
<g>
	<g>
		<path fill="#231F20" d="M128.344,163.467c0.956,25.623-6.529,50.26-9.535,75.496c-0.111,0.931,1.345,0.92,1.455,0
			c3.007-25.246,10.492-49.86,9.535-75.496C129.764,162.531,128.31,162.528,128.344,163.467L128.344,163.467z"/>
	</g>
</g>
<g>
	<g>
		<path fill="#231F20" d="M137.575,160.774c-0.784,24.418-1.656,48.845-4.378,73.138c-0.104,0.932,1.352,0.922,1.455,0
			c2.722-24.293,3.594-48.72,4.378-73.138C139.061,159.836,137.605,159.839,137.575,160.774L137.575,160.774z"/>
	</g>
</g>
<g>
	<g>
		<path fill="#231F20" d="M147.857,159.736c1.01,25.802-0.701,51.574-1.556,77.354c-0.031,0.938,1.424,0.936,1.455,0
			c0.854-25.779,2.565-51.552,1.556-77.354C149.275,158.802,147.821,158.798,147.857,159.736L147.857,159.736z"/>
	</g>
</g>
<g>
	<g>
		<path fill="#231F20" d="M156.812,163.001c-1.59,24.466,4.321,48.667,2.734,73.133c-0.061,0.938,1.395,0.932,1.455,0
			c1.586-24.466-4.324-48.667-2.734-73.133C158.327,162.063,156.872,162.069,156.812,163.001L156.812,163.001z"/>
	</g>
</g>
<g>
	<g>
		<path fill="#231F20" d="M165.019,160.51c-0.66,25.903,5.294,51.426,4.633,77.329c-0.023,0.938,1.431,0.937,1.455,0
			c0.66-25.903-5.294-51.426-4.633-77.329C166.497,159.571,165.043,159.573,165.019,160.51L165.019,160.51z"/>
	</g>
</g>
<g>
	<g>
		<path fill="#231F20" d="M175.215,159.459c0.333,25.128,7.367,49.564,7.765,74.673c0.015,0.938,1.47,0.938,1.455,0
			c-0.397-25.11-7.432-49.547-7.765-74.673C176.657,158.521,175.202,158.521,175.215,159.459L175.215,159.459z"/>
	</g>
</g>
<g>
	<g>
		<path fill="#231F20" d="M180.301,162.74c4.667,10.664,6.441,22.514,8.115,33.948c1.781,12.171,2.972,24.42,4.783,36.586
			c0.138,0.926,1.539,0.53,1.402-0.387c-3.464-23.271-3.485-49.037-13.045-70.882C181.182,161.148,179.929,161.89,180.301,162.74
			L180.301,162.74z"/>
	</g>
</g>
<g>
	<g>
		<path fill="#231F20" d="M221.306,73.737c1.086,1.672,2.409,3.033,4.038,4.181c0.66,0.465,1.283-0.618,0.631-1.078
			c-1.45-1.022-2.624-2.247-3.591-3.734C221.947,72.434,220.865,73.059,221.306,73.737L221.306,73.737z"/>
	</g>
</g>
<g>
	<g>
		<path fill="#231F20" d="M223.947,78.937c1.444-1.814,2.583-2.605,0.954-4.985c-0.456,1.121-0.912,2.243-1.369,3.364
			c6.044-2.046,2.078,16.265,1.569,18.85c-1.516,7.689-3.855,15.14-5.753,22.729c0.735-0.561,1.472-1.121,2.208-1.681
			c-5.05,0.638-9.934,2.359-15.036,2.501c0.386,1.422,0.771,2.845,1.156,4.268c1.869-0.833,3.633-1.387,5.599-1.878
			c-0.588-1.396-1.176-2.791-1.765-4.186c-1.799,0.892-3.027,2.174-4.411,3.618c-1.16,1.21-0.703,3.405,1.011,3.828
			c4.587,1.131,9.233,0.855,13.92,0.88c2.954,0.016,2.953-4.564,0-4.58c-4.253-0.023-8.536,0.311-12.703-0.717
			c0.337,1.276,0.674,2.552,1.011,3.828c1.125-1.174,1.975-2.152,3.485-2.901c2.393-1.187,0.684-4.797-1.765-4.186
			c-2.339,0.584-4.497,1.362-6.694,2.34c-2.13,0.948-1.007,4.328,1.156,4.268c5.148-0.144,9.959-1.86,15.036-2.501
			c1.01-0.127,1.938-0.604,2.208-1.681c1.596-6.38,16.337-53.236-1.449-47.214c-1.312,0.444-2.25,2.077-1.369,3.364
			c-0.227-0.331,0.929-2.03-0.237-0.564C218.89,77.984,222.108,81.248,223.947,78.937L223.947,78.937z"/>
	</g>
</g>
<g>
	<g>
		<path fill="#231F20" d="M199.499,76.942c-0.008,0.445-0.021,0.888-0.059,1.332c0.041-0.481-0.054,0.233-0.063,0.277
			c-0.036,0.149-0.078,0.296-0.128,0.442c0.092-0.179,0.075-0.141-0.053,0.114c1.396,0.182,2.791,0.365,4.186,0.547
			c-0.042-0.135-0.076-0.272-0.101-0.412c0.131,0.625,0.121-0.376,0.002,0.369c0.023-0.144,0.074-0.282,0.123-0.418
			c-0.22,0.617-0.073,0.19-0.003,0.048c0.381-0.77,0.625-1.437,0.676-2.298c0.074-1.248-1.098-2.29-2.29-2.29
			C200.484,74.652,199.573,75.697,199.499,76.942c0.037-0.625,0.045-0.269-0.014-0.073c-0.137,0.461,0.233-0.497,0.022-0.062
			c-0.186,0.384-0.356,0.77-0.519,1.167c-0.367,0.9-0.278,1.983-0.023,2.896c0.504,1.807,3.284,2.382,4.186,0.547
			c0.705-1.436,0.9-2.891,0.928-4.476c0.022-1.249-1.059-2.29-2.29-2.29C200.524,74.652,199.521,75.694,199.499,76.942
			L199.499,76.942z"/>
	</g>
</g>
<g>
	<g>
		<path fill="#231F20" d="M222.621,87.915c1.118,8.383-1.752,15.659-5.128,23.177c-1.199,2.671,2.747,5.002,3.955,2.312
			c3.685-8.204,6.976-16.325,5.753-25.489C226.816,85.032,222.231,84.994,222.621,87.915L222.621,87.915z"/>
	</g>
</g>
<g>
	<g>
		<path fill="#231F20" d="M221.172,75.34c-0.581,0.262-0.857,0.204-1.629,0.191c0.203,1.5,0.406,2.999,0.608,4.499
			c1.27-0.406,2.504-0.938,3.853-0.946c2.22-0.012,3.205-3.17,1.156-4.268c-1.979-1.059-3.829-1.968-6.121-2.07
			c0.203,1.5,0.406,2.999,0.608,4.499c1.551-0.347,2.396-0.38,3.779,0.091c1.182,0.402,2.501-0.451,2.816-1.6
			c0.347-1.258-0.419-2.415-1.6-2.817c-2.088-0.711-4.089-0.566-6.213-0.091c-2.615,0.585-1.89,4.388,0.608,4.499
			c1.456,0.064,2.555,0.773,3.809,1.445c0.386-1.422,0.771-2.845,1.156-4.268c-1.794,0.01-3.386,0.572-5.069,1.109
			c-2.453,0.784-2.021,4.454,0.608,4.499c1.437,0.024,2.631-0.225,3.941-0.816c1.138-0.514,1.401-2.143,0.821-3.133
			C223.626,75.002,222.311,74.827,221.172,75.34L221.172,75.34z"/>
	</g>
</g>
<g>
	<g>
		<path fill="#231F20" d="M206.981,126.455c5.085,1.03,9.954,0.375,15.049-0.209c2.875-0.33,2.975-4.827,0-4.58
			c-5.178,0.429-10.362,0.364-15.552,0.271c0.764,0.763,1.526,1.527,2.29,2.29c0.008-0.37,0.015-0.74,0.021-1.11
			c-0.764,0.763-1.526,1.527-2.29,2.29c4.421,0.583,8.88,0.771,13.302,1.353c-0.203-1.5-0.406-2.999-0.608-4.499
			c-1.06,0.354-2.173,0.852-3.297,0.959c-2.892,0.275-3.002,4.525,0,4.58c0.925,0.017,1.851,0.034,2.775,0.051
			c0-1.527,0-3.053,0-4.58c-3.905-0.069-7.78-0.076-11.668,0.34c-2.876,0.308-3.014,4.522,0,4.58
			c4.24,0.081,9.278,0.818,13.217-1.168c3.688-1.859,5.188-7.311,6.728-10.742c1.198-2.671-2.748-5.002-3.955-2.312
			c-1.163,2.593-2.302,7.125-4.742,8.891c-2.659,1.923-8.251,0.808-11.247,0.75c0,1.527,0,3.053,0,4.58
			c3.888-0.416,7.763-0.409,11.668-0.34c2.955,0.052,2.95-4.526,0-4.58c-0.925-0.017-1.851-0.034-2.775-0.051
			c0,1.527,0,3.053,0,4.58c1.597-0.152,2.993-0.615,4.514-1.122c2.599-0.867,1.881-4.171-0.608-4.499
			c-4.422-0.583-8.881-0.77-13.302-1.353c-1.255-0.166-2.271,1.167-2.29,2.29c-0.006,0.37-0.013,0.74-0.021,1.11
			c-0.024,1.265,1.061,2.268,2.29,2.29c5.189,0.093,10.374,0.158,15.552-0.271c0-1.527,0-3.053,0-4.58
			c-4.627,0.53-9.202,1.31-13.832,0.373C205.315,121.454,204.087,125.869,206.981,126.455L206.981,126.455z"/>
	</g>
</g>
<g>
	<g>
		<path fill="#231F20" d="M199.488,83.633c2.954,0,2.954-4.58,0-4.58S196.534,83.633,199.488,83.633L199.488,83.633z"/>
	</g>
</g>
<g>
	<g>
		<path fill="#231F20" d="M184.869,240.927c-1.557-0.022-3.037,0.003-4.504,0.564c-2.198,0.841-2.146,3.559,0,4.416
			c1.828,0.731,3.545,1.992,5.512,2.322c-0.183-1.395-0.365-2.79-0.548-4.186c-1.426,1.096-3.188,0.701-4.507,1.608
			c-1.252,0.861-1.715,3.213,0,3.955c1.312,0.568,3.961,1.678,5.283,0.697c1.407-1.044,1.524-2.932,0-3.955
			c-1.542-1.035-4.383-0.771-6.172-0.908c-3.185-0.245-6.385-0.28-9.577-0.34c0.203,1.499,0.406,2.999,0.608,4.498
			c3.523-0.511,7.055-0.958,10.576-1.472c2.914-0.424,1.671-4.837-1.217-4.416c-3.522,0.513-7.054,0.96-10.576,1.472
			c-2.633,0.382-1.881,4.452,0.608,4.498c2.406,0.045,4.811,0.099,7.215,0.202c1.357,0.059,5.149-0.3,6.223,0.421
			c0-1.318,0-2.637,0-3.955c0.95-0.705,1.516-0.164,0.17-0.501c0.208,0.053-1.267-0.385-0.83-0.196c0,1.318,0,2.637,0,3.955
			c-1.117,0.77,1.312-0.063,1.716-0.169c1.021-0.268,1.966-0.805,2.792-1.439c1.361-1.046,1.661-3.815-0.548-4.186
			c-1.919-0.322-3.707-1.601-5.512-2.322c0,1.472,0,2.944,0,4.416c1.108-0.424,2.113-0.417,3.287-0.4
			C187.824,245.55,187.82,240.969,184.869,240.927L184.869,240.927z"/>
	</g>
</g>
<g>
	<g>
		<path fill="#231F20" d="M100.84,237.318c2.722,5.157,1.782,11.431,5.625,16.109c4.256,5.184,11.829,3.734,17.667,3.739
			c2.954,0.003,2.954-4.577,0-4.58c-5.103-0.005-12.023,1.679-15.184-3.506c-2.502-4.104-1.859-9.728-4.153-14.075
			C103.417,232.394,99.463,234.708,100.84,237.318L100.84,237.318z"/>
	</g>
</g>
<g>
	<g>
		<path fill="#231F20" d="M200.577,235.823c0.823,4.683,2.012,11.983-3.15,14.548c1.122,0.862,2.243,1.725,3.364,2.586
			c0.79-5.401,2.365-10.624,2.589-16.107c-1.499,0.203-2.999,0.406-4.498,0.608c0.731,3.27,0.366,6.304-1.083,9.315
			c-1.274,2.648,2.675,4.973,3.955,2.312c2.007-4.171,2.558-8.318,1.544-12.845c-0.584-2.61-4.396-1.895-4.498,0.608
			c-0.206,5.066-1.694,9.897-2.425,14.891c-0.292,1.993,1.437,3.544,3.364,2.586c7.309-3.632,6.442-12.961,5.254-19.72
			C204.482,231.7,200.069,232.936,200.577,235.823L200.577,235.823z"/>
	</g>
</g>
<g>
	<g>
		<path fill="#231F20" d="M186.769,137.124c-9.259,0.782-18.903-1.41-27.849,1.806c-2.759,0.991-1.569,5.418,1.217,4.416
			c8.511-3.058,17.806-0.896,26.632-1.642C189.689,141.457,189.713,136.875,186.769,137.124L186.769,137.124z"/>
	</g>
</g>
<g>
	<g>
		<path fill="#231F20" d="M135.029,139.603c-2.726,0.453-5.529,0.361-8.282,0.312c-2.955-0.054-2.95,4.527,0,4.58
			c3.187,0.058,6.347,0.049,9.5-0.476C139.155,143.535,137.918,139.122,135.029,139.603L135.029,139.603z"/>
	</g>
</g>
<g>
	<g>
		<path fill="#231F20" d="M182.978,129.923c-1.251,2.681-1.376,3.743-0.374,3.187c-0.62,0.331-0.418,0.173-0.194,0.109
			c0.197-0.057,0.399-0.101,0.599-0.149c0.61-0.147,1.173-0.361,1.748-0.621c1.138-0.514,1.402-2.142,0.821-3.133
			c-0.68-1.16-1.996-1.336-3.134-0.822c0.644-0.291,0.04-0.032-0.114,0.016c-0.178,0.055-0.358,0.099-0.539,0.143
			c-0.505,0.125-0.94,0.26-1.424,0.469c-0.63,0.273-1.122,0.899-1.31,1.551c-0.271,0.943,0.074,1.777,0.683,2.488
			c0.812,0.95,2.408,0.831,3.238,0C183.912,132.228,183.788,130.871,182.978,129.923L182.978,129.923z"/>
	</g>
</g>
<g>
	<g>
		<path fill="#231F20" d="M78.724,68.099c2.812,0.05,5.624,0.085,8.39-0.495c2.89-0.605,1.664-5.021-1.218-4.417
			c-2.346,0.492-4.79,0.374-7.172,0.332C75.769,63.466,75.773,68.047,78.724,68.099L78.724,68.099z"/>
	</g>
</g>
<g>
	<g>
		<path fill="#231F20" d="M89.591,64.654c0.369-0.282,0.765-0.516,1.16-0.758c0.172-0.105,0.346-0.216,0.504-0.341
			c0.358-0.282,0.016,0.036-0.079,0.198c-0.138,0.234-0.268,0.471-0.414,0.7c-0.151,0.236,0.036-0.083,0.07-0.201
			c0.067-0.23,0.171-0.477,0.188-0.718c0.003-0.042-0.059-0.057-0.078-0.021c-0.125,0.238-0.234,0.48-0.33,0.732
			c-0.177,0.467-0.016,0.251-0.311-0.058c0.127,0.133-0.202,0.585,0.034,0.236c0.094-0.139,0.161-0.306,0.226-0.46
			c0.05-0.118,0.101-0.451-0.001,0.015c-0.067,0.307-0.135,0.614-0.202,0.921c-0.004,0.02,0.003,0.036,0.019,0.047
			c0.226,0.162,0.358,0.143,0.597,0.01c0.027-0.015,0.027-0.057,0-0.072c-0.437-0.25-0.878-0.503-1.292-0.791
			c0.053,0.037,0.487-0.106,0.558-0.12c0.351-0.071,0.701-0.111,1.058-0.119c-0.399,0.009-0.999,0.304-1.456,0.452
			c-0.037,0.012-0.042,0.071,0,0.08c0.451,0.093,0.813,0.325,1.222,0.52c0.078,0.037-0.312,0.326-0.378,0.389
			c-0.299,0.282-0.763,0.719-0.911,1.121c-0.014,0.038,0.032,0.062,0.061,0.047c0.003-0.002,0.007-0.003,0.01-0.005
			c0.048-0.023,0.006-0.095-0.042-0.072c0.203-0.098,0.362-0.386,0.531-0.589c0.263-0.315,0.557-0.633,0.917-0.835
			c0.034-0.019,0.022-0.064-0.01-0.076c-0.41-0.156-0.761-0.41-1.182-0.54c0.058,0.018,0.542-0.22,0.634-0.254
			c0.277-0.102,0.555-0.178,0.845-0.23c0.048-0.009,0.034-0.08-0.011-0.082c-0.673-0.025-1.303,0.115-1.959,0.244
			c-0.03,0.006-0.04,0.049-0.018,0.069c0.257,0.238,0.604,0.404,0.902,0.583c0.145,0.087,0.292,0.172,0.438,0.257
			c-0.508-0.294-0.406-0.23-0.302-0.703c0.05-0.23,0.101-0.461,0.151-0.691c0.01-0.044-0.056-0.078-0.076-0.032
			c-0.164,0.376-0.292,0.778-0.568,1.091c-0.036,0.041,0.018,0.092,0.059,0.059c0.275-0.221,0.276-0.383,0.01-0.613
			c-0.04-0.035-0.096,0.02-0.059,0.059c0.191,0.173,0.321,0.384,0.391,0.633c0.012,0.035,0.073,0.044,0.08,0
			c0.042-0.278,0.131-0.524,0.242-0.784c0.03-0.069,0.144-0.49,0.079-0.232c-0.078,0.305-0.18,0.603-0.257,0.908
			c-0.012,0.048,0.049,0.07,0.076,0.032c0.314-0.441,0.545-0.932,0.858-1.373c0.029-0.041-0.032-0.08-0.065-0.05
			c-0.602,0.525-1.328,0.862-1.96,1.346C89.507,64.614,89.549,64.687,89.591,64.654L89.591,64.654z"/>
	</g>
</g>
<g>
	<g>
		<path fill="#231F20" d="M92.228,66.472c0.162-0.78,0.446-1.394,0.287-2.208c-0.101-0.518-0.899-0.384-0.9,0.122
			c0,0.74-0.014,1.48-0.041,2.22c0.305,0,0.611,0,0.916,0c0.009-0.842-0.156-1.667-0.231-2.502c-0.044-0.489-0.771-0.654-0.9-0.122
			c-0.214,0.885-0.923,1.377-1.454,2.071c-0.359,0.469,0.437,0.924,0.791,0.462c0.598-0.781,1.302-1.281,1.546-2.29
			c-0.3-0.041-0.6-0.081-0.9-0.122c0.075,0.836,0.241,1.661,0.231,2.502c-0.006,0.592,0.895,0.588,0.916,0
			c0.026-0.74,0.04-1.48,0.041-2.22c-0.3,0.041-0.6,0.081-0.9,0.122c0.12,0.611-0.165,1.135-0.287,1.722
			C91.225,66.805,92.108,67.051,92.228,66.472L92.228,66.472z"/>
	</g>
</g>
<g>
	<g>
		<path fill="#231F20" d="M90.382,63.636c0.146-0.083,0.133-0.099-0.038-0.05c-0.153-0.152-0.305-0.305-0.458-0.458
			c0.017-0.285-0.067-0.047-0.211,0.095c-0.179,0.178-0.375,0.329-0.602,0.439c-0.362,0.175-0.258,0.746,0.109,0.837
			c0.777,0.194,1.409,0.717,2.204,0.873c-0.067-0.255-0.135-0.511-0.202-0.766c-0.526,0.648-0.978,1.359-1.616,1.907
			c-0.449,0.385,0.202,1.03,0.647,0.647c0.639-0.548,1.089-1.258,1.616-1.907c0.197-0.243,0.169-0.693-0.202-0.766
			c-0.79-0.155-1.426-0.679-2.204-0.873c0.037,0.279,0.073,0.558,0.109,0.837c0.449-0.217,1.234-0.771,1.268-1.325
			c0.014-0.227-0.22-0.487-0.458-0.458c-0.174,0.022-0.283,0.073-0.424,0.175C89.446,63.187,89.902,63.982,90.382,63.636
			L90.382,63.636z"/>
	</g>
</g>
<g>
	<g>
		<path fill="#231F20" d="M90.989,67.146c1.254-1.146,1.772-2.752,1.572-4.425c-0.06-0.498-0.733-0.642-0.9-0.122
			c-0.294,0.92-0.631,1.826-0.883,2.76c-0.154,0.571,0.73,0.813,0.884,0.243c0.251-0.934,0.589-1.839,0.883-2.76
			c-0.3-0.041-0.6-0.081-0.9-0.122c0.173,1.452-0.209,2.777-1.304,3.778C89.905,66.898,90.554,67.544,90.989,67.146L90.989,67.146z"
			/>
	</g>
</g>
<g>
	<g>
		<path fill="#231F20" d="M82.821,66.603c-3.232,0.147-6.456,0.434-9.688,0.588c-0.592,0.028-0.588,0.881,0,0.916
			c1.898,0.114,3.787,0.317,5.677,0.527c0.586,0.065,0.581-0.852,0-0.916c-1.89-0.21-3.778-0.414-5.677-0.527
			c0,0.305,0,0.611,0,0.916c3.232-0.154,6.455-0.441,9.688-0.588C83.41,67.492,83.412,66.576,82.821,66.603L82.821,66.603z"/>
	</g>
</g>
<g>
	<g>
		<path fill="#231F20" d="M71.668,67.095c2.916,0.372,5.839,0.61,8.775,0.737c0.591,0.025,0.588-0.891,0-0.916
			c-2.936-0.126-5.859-0.366-8.775-0.737C71.083,66.104,71.091,67.021,71.668,67.095L71.668,67.095z"/>
	</g>
</g>
<g>
	<g>
		<path fill="#231F20" d="M73.657,62.715c-0.108,0.21-0.209,0.425-0.311,0.639c-0.057,0.119-0.115,0.238-0.174,0.356
			c-0.124,0.245-0.17,0.125,0.115,0.034c0.172,0.07,0.345,0.141,0.517,0.211c0.02,0.275,0.041,0.332,0.063,0.17
			c0.018-0.079,0.038-0.157,0.059-0.234c0.15-0.572-0.734-0.814-0.884-0.243c-0.067,0.255-0.156,0.519-0.029,0.769
			c0.089,0.176,0.332,0.27,0.517,0.211c0.493-0.158,0.707-1.039,0.918-1.45C74.717,62.652,73.927,62.189,73.657,62.715
			L73.657,62.715z"/>
	</g>
</g>
<g>
	<g>
		<path fill="#231F20" d="M71.111,67.496c1.315,0.259,2.637,0.473,3.966,0.646c0.511,0.067,0.631-0.827,0.122-0.9
			c-0.738-0.105-1.477-0.211-2.215-0.317c-0.577-0.083-0.826,0.8-0.243,0.884c0.738,0.105,1.477,0.211,2.215,0.317
			c0.041-0.3,0.081-0.6,0.122-0.9c-1.248-0.163-2.488-0.37-3.723-0.614C70.778,66.499,70.532,67.382,71.111,67.496L71.111,67.496z"
			/>
	</g>
</g>
<g>
	<g>
		<path fill="#231F20" d="M75.148,64.257c0.9,0.014,1.751-0.02,2.625-0.248c0.58-0.152,0.329-0.985-0.243-0.884
			c-1.157,0.207-2.327-0.036-3.487-0.082c0.147,0.193,0.294,0.387,0.442,0.58c0.071-0.273,0.222-0.48,0.453-0.62
			c0.413-0.328-0.119-0.986-0.555-0.719c-1.545,0.946-2.659,2.323-3.058,4.108c-0.128,0.575,0.755,0.82,0.884,0.243
			c0.349-1.562,1.284-2.732,2.636-3.56c-0.185-0.24-0.37-0.479-0.555-0.719c-0.402,0.319-0.603,0.504-0.689,1.024
			c-0.049,0.299,0.122,0.567,0.442,0.58c1.255,0.05,2.48,0.272,3.73,0.05c-0.081-0.294-0.162-0.589-0.243-0.884
			c-0.795,0.208-1.567,0.228-2.382,0.215C74.557,63.332,74.558,64.248,75.148,64.257L75.148,64.257z"/>
	</g>
</g>
<g>
	<g>
		<path fill="#231F20" d="M76.903,67.885c4.638,0.885,9.366,0.252,14.009-0.286c0.58-0.067,0.586-0.984,0-0.916
			c-4.548,0.527-9.219,1.187-13.766,0.318C76.569,66.892,76.323,67.774,76.903,67.885L76.903,67.885z"/>
	</g>
</g>
<g>
	<g>
		<path fill="#231F20" d="M90.813,62.707c-0.026,0.394-0.174,0.765-0.446,1.053c-0.405,0.429,0.242,1.078,0.647,0.647
			c0.444-0.471,0.672-1.059,0.715-1.701C91.769,62.117,90.852,62.121,90.813,62.707L90.813,62.707z"/>
	</g>
</g>
<g>
	<g>
		<path fill="#231F20" d="M80.84,64.296c-1.809,0.508-3.501,1.34-5.31,1.847c-0.568,0.16-0.327,1.043,0.243,0.884
			c1.809-0.508,3.501-1.34,5.31-1.847C81.651,65.02,81.41,64.136,80.84,64.296L80.84,64.296z"/>
	</g>
</g>
<g>
	<g>
		<path fill="#231F20" d="M72.578,64.822c-0.593,0.679-0.843,1.491-1.222,2.293c-0.112,0.238-0.042,0.625,0.274,0.673
			c2.165,0.324,4.328,0.344,6.505,0.133c0.583-0.057,0.588-0.973,0-0.916c-2.089,0.203-4.183,0.21-6.262-0.101
			c0.091,0.225,0.183,0.449,0.274,0.673c0.338-0.715,0.548-1.501,1.078-2.108C73.613,65.027,72.967,64.376,72.578,64.822
			L72.578,64.822z"/>
	</g>
</g>
<g>
	<g>
		<path fill="#231F20" d="M221.211,105.022c-0.688,0.623-1.4,1.173-1.979,1.908c0.24,0.185,0.479,0.37,0.72,0.555
			c1.126-1.591,2.44-3.122,2.913-5.054c0.107-0.439-0.435-0.778-0.766-0.445c-1.973,1.986-3.188,4.444-4.36,6.955
			c-0.205,0.438,0.365,0.984,0.72,0.555c1.91-2.317,4.18-4.345,5.748-6.93c0.235-0.387-0.236-0.874-0.627-0.626
			c-1.27,0.805-2.403,1.631-3.268,2.883c0.264,0.154,0.527,0.308,0.791,0.462c0.581-1.273,1.358-2.373,2.216-3.474
			c0.357-0.46-0.286-1.113-0.648-0.647c-0.901,1.16-1.745,2.316-2.358,3.66c-0.244,0.535,0.452,0.953,0.791,0.462
			c0.77-1.115,1.812-1.84,2.939-2.554c-0.209-0.209-0.418-0.418-0.627-0.626c-1.526,2.515-3.745,4.488-5.605,6.744
			c0.24,0.185,0.479,0.37,0.72,0.555c1.139-2.437,2.3-4.838,4.218-6.77c-0.256-0.148-0.511-0.297-0.766-0.445
			c-0.452,1.845-1.747,3.317-2.821,4.835c-0.299,0.423,0.398,0.963,0.72,0.555c0.577-0.735,1.289-1.286,1.979-1.908
			C222.298,105.273,221.648,104.627,221.211,105.022L221.211,105.022z"/>
	</g>
</g>
<g>
	<g>
		<path fill="#231F20" d="M201.427,72.606c-0.3-0.152-0.6-0.305-0.899-0.458c-0.22-0.193-0.563-0.175-0.72,0.093
			c-1.818,3.115,6.103,1.171,7.982,1.188c5.062,0.046,10.089,0.756,15.156,0.749c0.508,0,0.637-0.791,0.122-0.9
			c-3.71-0.784-3.014-0.098,0.178-0.205c0.59-0.02,0.592-0.905,0-0.916c-1.11-0.02-2.222-0.041-3.332-0.061
			c-0.801,0.927-0.536,1.173,0.791,0.74c3.366-0.21,6.52-0.198,8.134,3.898c0.214,0.543,1.1,0.307,0.883-0.243
			c-2.047-5.197-6.584-4.699-11.474-4.425c-0.587,0.033-0.594,0.905,0,0.916c0.556,0.01,1.11,0.021,1.666,0.03
			c1.335,0.578,1.918,0.311,1.746-0.802c-0.781,0.026-2.214,0.303-2.988,0.437c-0.54,0.093-0.36,0.862,0.122,0.9
			c5.79,0.45,0.947-0.326-0.792-0.413c-2.271-0.113-4.54-0.317-6.809-0.469c-3.93-0.262-7.808-0.224-11.688,0.465
			c-0.2,0.036-0.333,0.252-0.336,0.442c-0.005,0.277-0.009,0.555-0.014,0.833c-0.01,0.598,0.868,0.58,0.916,0
			c0.129-1.57,0.088-1.206,1.111-0.916C201.753,73.65,201.994,72.767,201.427,72.606L201.427,72.606z"/>
	</g>
</g>
<g>
	<g>
		<path fill="#231F20" d="M219.526,124.647c0.895,0.048,1.729,0.239,2.618,0.029c-0.173-0.225-0.345-0.449-0.518-0.673
			c-0.562,1.09-1.047,1.827-2.269,2.242c0.081,0.294,0.163,0.589,0.244,0.884c1.465-0.592,2.741-1.553,4.204-2.145
			c-0.148-0.255-0.298-0.511-0.446-0.766c-1.141,1.311-2.66,2.052-4.292,2.576c-0.56,0.18-0.32,1.065,0.244,0.884
			c1.771-0.57,3.455-1.388,4.696-2.812c0.269-0.309,0.018-0.953-0.446-0.766c-1.465,0.593-2.74,1.553-4.204,2.145
			c-0.533,0.216-0.326,1.077,0.244,0.884c1.455-0.495,2.134-1.339,2.815-2.664c0.186-0.36-0.115-0.768-0.518-0.673
			c-0.796,0.188-1.574-0.018-2.374-0.061C218.936,123.699,218.938,124.615,219.526,124.647L219.526,124.647z"/>
	</g>
</g>
<g>
	<g>
		<path fill="#231F20" d="M203.557,122.239c0.119,1.569,0.042,3.227,0.683,4.697c0.662,1.518,2.321,1.514,3.686,1.089
			c0.562-0.175,0.321-1.06-0.244-0.884c-1.421,0.443-2.441,0.233-2.855-1.283c-0.318-1.163-0.262-2.426-0.353-3.62
			C204.429,121.654,203.512,121.649,203.557,122.239L203.557,122.239z"/>
	</g>
</g>
<g>
	<g>
		<path fill="#231F20" d="M228.508,93.821c0.573,5.606-0.485,10.999-1.397,16.51c-0.096,0.578,0.787,0.825,0.883,0.243
			c0.927-5.595,2.014-11.057,1.431-16.753C229.364,93.24,228.447,93.234,228.508,93.821L228.508,93.821z"/>
	</g>
</g>
<g>
	<g>
		<path fill="#231F20" d="M223.134,99.275c-0.062,1.73-0.63,3.218-1.419,4.74c-0.271,0.523,0.52,0.987,0.791,0.462
			c0.862-1.662,1.477-3.312,1.544-5.202C224.071,98.684,223.154,98.686,223.134,99.275L223.134,99.275z"/>
	</g>
</g>
<g>
	<g>
		<path fill="#231F20" d="M185.898,131.358c0.206,2.111,0.029,4.21,0.738,6.242c0.159,0.458,0.962,0.42,0.899-0.122
			c-0.148-1.28-0.515-2.523-0.763-3.785c-0.138-0.704-0.213-1.407-0.186-2.124c0.015-0.38,0.125-0.777,0.36-1.082
			c0.237-0.306,1.501-0.741,1.562-0.022c0.262,3.076-1.021,6.677,2.202,8.589c0.51,0.302,0.97-0.49,0.463-0.791
			c-2.98-1.768-1.438-5.829-1.85-8.647c-0.021-0.14-0.181-0.298-0.319-0.32c-5.184-0.818-2.708,5.405-2.387,8.182
			c0.3-0.041,0.6-0.081,0.899-0.122c-0.68-1.952-0.507-3.974-0.705-5.999C186.758,130.775,185.841,130.77,185.898,131.358
			L185.898,131.358z"/>
	</g>
</g>
<g>
	<g>
		<path fill="#231F20" d="M104.524,133.877c0.201,1.438,0.207,2.877,0.181,4.325c-0.01,0.591,0.906,0.59,0.916,0
			c0.027-1.534-0.001-3.047-0.213-4.568C105.326,133.051,104.444,133.3,104.524,133.877L104.524,133.877z"/>
	</g>
</g>
<g>
	<g>
		<path fill="#231F20" d="M104.518,133.202c-0.037,2.042-0.053,4.076,0.167,6.109c0.064,0.594,0.842,0.584,0.916,0
			c0.259-2.046,0.028-3.969-0.466-5.959c-0.127-0.511-0.891-0.389-0.9,0.122c-0.027,1.48-0.054,2.96-0.081,4.44
			c0.305,0,0.611,0,0.916,0c0.029-1.573,0.058-3.145,0.087-4.718c0.011-0.595-0.88-0.584-0.916,0
			c-0.308,4.944,1.36,11.468,7.624,10.009c0.575-0.134,0.332-1.017-0.243-0.883c-5.641,1.313-6.728-4.896-6.464-9.126
			c-0.305,0-0.611,0-0.916,0c-0.029,1.573-0.059,3.145-0.087,4.718c-0.011,0.591,0.905,0.59,0.916,0
			c0.027-1.48,0.054-2.96,0.081-4.44c-0.3,0.041-0.6,0.081-0.9,0.122c0.476,1.914,0.681,3.758,0.434,5.716c0.305,0,0.611,0,0.916,0
			c-0.219-2.033-0.203-4.067-0.167-6.109C105.445,132.611,104.529,132.612,104.518,133.202L104.518,133.202z"/>
	</g>
</g>
<g>
	<g>
		<path fill="#231F20" d="M201.82,228.306c0.999,2.129,1.754,4.315,2.005,6.663c0.085,0.792,1.335,0.801,1.25,0
			c-0.276-2.579-1.079-4.955-2.177-7.294C202.557,226.946,201.48,227.581,201.82,228.306L201.82,228.306z"/>
	</g>
</g>
<g>
	<g>
		<path fill="#231F20" d="M145.222,255.893c1.481,0.099,2.954,0.257,4.436,0.357c-0.056-0.409-0.11-0.818-0.166-1.228
			c-2.203,0.591-4.453,0.828-6.687,1.267c-0.634,0.125-0.559,1.037,0,1.205c8.472,2.54,16.848-0.259,25.438-0.349
			c0.807-0.009,0.804-1.224,0-1.25c-2.81-0.089-5.475-0.194-8.225,0.43c-0.735,0.167-0.491,1.16,0.166,1.228
			c3.448,0.353,6.81,0.585,10.167-0.395c0.719-0.21,0.506-1.15-0.166-1.228c-3.715-0.423-7.382,0.028-11.105,0.075
			c-0.806,0.011-0.805,1.234,0,1.25c2.498,0.045,4.996,0.091,7.494,0.137c-0.056-0.409-0.11-0.818-0.166-1.228
			c-2.396,0.637-4.819,1.045-7.248,1.534c-0.733,0.148-0.495,1.173,0.166,1.228c4.094,0.335,8.11,0.331,12.116-0.637
			c0.783-0.189,0.451-1.394-0.332-1.205c-3.91,0.944-7.805,0.919-11.784,0.592c0.056,0.409,0.11,0.818,0.166,1.228
			c2.429-0.489,4.852-0.898,7.248-1.534c0.691-0.184,0.534-1.214-0.166-1.228c-2.498-0.045-4.996-0.091-7.494-0.137
			c0,0.417,0,0.833,0,1.25c3.724-0.048,7.391-0.499,11.105-0.075c-0.056-0.409-0.11-0.818-0.166-1.228
			c-3.253,0.949-6.516,0.69-9.835,0.35c0.056,0.409,0.11,0.818,0.166,1.228c2.678-0.608,5.188-0.472,7.893-0.385
			c0-0.417,0-0.833,0-1.25c-8.475,0.09-16.735,2.904-25.105,0.394c0,0.401,0,0.804,0,1.205c2.261-0.444,4.462-0.67,6.687-1.267
			c0.708-0.19,0.519-1.181-0.166-1.228c-1.481-0.1-2.954-0.258-4.436-0.357C144.417,254.589,144.422,255.839,145.222,255.893
			L145.222,255.893z"/>
	</g>
</g>
</svg>
