<?xml version="1.0" encoding="utf-8"?>
<!-- Generator: Adobe Illustrator 16.0.0, SVG Export Plug-In . SVG Version: 6.00 Build 0)  -->
<!DOCTYPE svg PUBLIC "-//W3C//DTD SVG 1.1//EN" "http://www.w3.org/Graphics/SVG/1.1/DTD/svg11.dtd">
<svg version="1.1" id="Layer_1" xmlns="http://www.w3.org/2000/svg" xmlns:xlink="http://www.w3.org/1999/xlink" x="0px" y="0px"
	 width="275px" height="275px" viewBox="0 0 275 275" enable-background="new 0 0 275 275" xml:space="preserve">
<g>
	<g>
		<path fill="#231F20" d="M80.185,83.614c3.134,3.316,7.089,3.908,11.476,3.919c7.491,0.019,13.274,0.348,15.872,8.646
			c0.157,0.501,0.945,0.287,0.787-0.217c-1.445-4.617-4.1-8.37-9.2-9.035c-6.338-0.827-13.426,1.327-18.358-3.891
			C80.399,82.654,79.823,83.232,80.185,83.614L80.185,83.614z"/>
	</g>
</g>
<g>
	<g>
		<path fill="#231F20" d="M78.906,85.394c4.66-17.045,23.818,2.6,25.685,11.766c0.105,0.516,0.892,0.297,0.787-0.217
			c-2.048-10.061-22.353-29.714-27.259-11.766C77.98,85.686,78.768,85.901,78.906,85.394L78.906,85.394z"/>
	</g>
</g>
<g>
	<g>
		<path fill="#231F20" d="M84.395,86.675c8.395-0.767,15.16,3.014,17.254,11.466c0.126,0.511,0.914,0.294,0.787-0.217
			c-2.173-8.775-9.26-12.868-18.041-12.066C83.875,85.906,83.871,86.723,84.395,86.675L84.395,86.675z"/>
	</g>
</g>
<g>
	<g>
		<path fill="#231F20" d="M78.404,84.699c4.903,0.907,9.842,0.993,14.815,0.995c0.526,0,0.526-0.816,0-0.816
			c-4.901-0.002-9.763-0.071-14.598-0.965C78.106,83.817,77.887,84.604,78.404,84.699L78.404,84.699z"/>
	</g>
</g>
<g>
	<g>
		<path fill="#231F20" d="M80.473,89.616c5.135-0.073,10.027-1.109,14.815-2.956c0.486-0.188,0.275-0.977-0.217-0.787
			c-4.715,1.818-9.534,2.854-14.599,2.927C79.947,88.807,79.946,89.624,80.473,89.616L80.473,89.616z"/>
	</g>
</g>
<g>
	<g>
		<path fill="#231F20" d="M79.492,83.734c6.161-0.193,14.912-4.095,20.155,0.165c2.515,2.042,3.519,6.033,4.905,8.83
			c1.182,2.385,2.917,4.211,5.128,5.657c0.442,0.289,0.851-0.418,0.412-0.705c-6.084-3.979-5.814-12.732-12.363-15.984
			c-4.727-2.347-13.296,1.067-18.237,1.222C78.967,82.934,78.965,83.75,79.492,83.734L79.492,83.734z"/>
	</g>
</g>
<g>
	<g>
		<path fill="#231F20" d="M80.582,81.757c6.028-1.473,12.071-1.536,17.035,2.62c4.012,3.359,5.778,8.871,6.974,13.764
			c0.125,0.511,0.912,0.294,0.787-0.217c-1.304-5.336-3.374-11.442-8.031-14.829c-5.112-3.717-11.063-3.572-16.982-2.125
			C79.854,81.095,80.07,81.882,80.582,81.757L80.582,81.757z"/>
	</g>
</g>
<g>
	<g>
		<path fill="#231F20" d="M79.384,82.739c2.938,0.514,5.871,0.773,8.851,0.909c1.757,0.08,3.519,0.075,5.277,0.084
			c-0.377-0.002-4.471,1.787-5.717,2.05c-1.586,0.335-3.216,0.523-4.817,0.774c-1.788,0.281,0.522-3.265,0.88-3.916
			c1.599-2.91,4.284-4.593,7.577-4.581c9.792,0.038,18.859,13.725,21,22.04c0.131,0.51,0.918,0.293,0.787-0.217
			c-3.413-13.259-24.853-34.759-32.161-12.746c-0.106,0.32,0.217,0.554,0.502,0.502c4.843-0.877,9.613-1.211,13.824-3.962
			c0.333-0.217,0.214-0.76-0.206-0.761c-5.226-0.004-10.416-0.062-15.58-0.966C79.086,81.861,78.866,82.648,79.384,82.739
			L79.384,82.739z"/>
	</g>
</g>
<g>
	<g>
		<path fill="#231F20" d="M80.339,88.018c-2.494-3.436,15.599-5.817,17.295-5.759c0.34,0.012,0.562-0.465,0.289-0.697
			c-2.374-2.014-4.77-2.762-7.832-3.207c-1.539-0.224-2.732,0.063-0.083-0.902c2.393-0.872,4.669,0.878,6.251,2.432
			c4.136,4.062,5.915,10.056,8.866,14.919c0.273,0.449,0.979,0.039,0.705-0.412c-3.548-5.847-9.075-23.007-18.697-16.324
			c-0.353,0.245-0.195,0.709,0.206,0.761c2.695,0.345,5.194,0.597,7.722,1.667c2.827,1.196-2.626,1.115-2.873,1.158
			c-4.636,0.812-8.922,2.519-13.291,4.216c-0.181,0.07-0.288,0.196-0.3,0.394c-0.086,1.373,0.328,1.191,1.036,2.167
			C79.94,88.852,80.649,88.444,80.339,88.018L80.339,88.018z"/>
	</g>
</g>
<g>
	<g>
		<path fill="#231F20" d="M84.116,80.732c1.807-1.007,3.91-2.236,5.866-2.837c-2.888,0.887-0.042,0.169,0.34,0.067
			c3.487-0.936,6.792,1.243,9.211,3.463c4.192,3.846,6.821,9.589,8.983,14.751c0.2,0.478,0.991,0.269,0.787-0.217
			c-3.632-8.67-11.089-23.486-22.66-17.403c-0.347,0.182-0.202,0.799,0.206,0.761c1.559-0.146,3.024-0.534,4.521-0.994
			c0.425-0.13,0.367-0.838-0.108-0.802c-2.826,0.218-5.093,1.131-7.559,2.506C83.244,80.284,83.655,80.989,84.116,80.732
			L84.116,80.732z"/>
	</g>
</g>
<g>
	<g>
		<path fill="#231F20" d="M93.998,86.125c4.101,1.934,6.596,5.179,7.656,9.561c0.249-0.104,0.498-0.209,0.746-0.314
			c-1.087-1.97-2.627-3.568-3.922-5.393c-0.183-0.257-0.677-0.285-0.746,0.098c-0.427,2.358-0.458,4.466,0.532,6.687
			c0.168,0.377,0.776,0.182,0.761-0.206c-0.168-4.143-2.457-7.621-3.937-11.384c-0.167,0.167-0.334,0.334-0.502,0.502
			c4.803,1.214,4.68,7.577,5.598,11.48c0.099,0.42,0.659,0.357,0.787,0c0.595-1.657,1.335-3.239,1.486-5.01
			c-0.205,0.118-0.41,0.235-0.614,0.353c0.652,0.302,1.956,0.681,1.742,1.754c0.262,0,0.525,0,0.787,0
			c-0.145-0.42-0.286-0.824-0.458-1.235c-0.201-0.478-0.991-0.268-0.787,0.217c0.173,0.412,0.313,0.815,0.458,1.235
			c0.122,0.353,0.703,0.425,0.787,0c0.309-1.549-0.91-2.118-2.117-2.677c-0.292-0.135-0.587,0.029-0.614,0.353
			c-0.144,1.691-0.891,3.217-1.457,4.793c0.262,0,0.525,0,0.787,0c-0.999-4.252-0.949-10.731-6.168-12.051
			c-0.275-0.07-0.622,0.199-0.502,0.502c1.445,3.674,3.743,7.123,3.908,11.167c0.253-0.069,0.507-0.137,0.761-0.206
			c-0.895-2.008-0.834-3.929-0.45-6.058c-0.249,0.033-0.498,0.065-0.746,0.098c1.292,1.818,2.839,3.43,3.922,5.393
			c0.229,0.415,0.853,0.127,0.746-0.314c-1.105-4.57-3.754-8.032-8.031-10.049C93.937,85.197,93.521,85.901,93.998,86.125
			L93.998,86.125z"/>
	</g>
</g>
<g>
	<g>
		<path fill="#231F20" d="M79.578,90.185c0.628,6.734,7.513,25.838,16.384,15.976c0.351-0.39-0.225-0.97-0.577-0.577
			c-8.132,9.04-14.417-9.241-14.991-15.398C80.346,89.666,79.529,89.661,79.578,90.185L79.578,90.185z"/>
	</g>
</g>
<g>
	<g>
		<path fill="#231F20" d="M80.192,92.008c1.881-0.896,3.99-1.385,6.059-0.939c0.513,0.111,0.731-0.676,0.217-0.787
			c-2.295-0.496-4.598,0.025-6.688,1.021C79.305,91.529,79.72,92.233,80.192,92.008L80.192,92.008z"/>
	</g>
</g>
<g>
	<g>
		<path fill="#231F20" d="M81.349,94.5c2.67,0.979,5.21,0.362,7.26-1.576c0.383-0.362-0.195-0.939-0.577-0.577
			c-1.852,1.752-4.067,2.245-6.466,1.366C81.07,93.532,80.859,94.321,81.349,94.5L81.349,94.5z"/>
	</g>
</g>
<g>
	<g>
		<path fill="#231F20" d="M82.576,93.901c-0.82,1.21-1.778,2.256-3.187,2.753c-0.493,0.174-0.281,0.963,0.217,0.787
			c1.623-0.572,2.729-1.73,3.675-3.128C83.577,93.875,82.869,93.468,82.576,93.901L82.576,93.901z"/>
	</g>
</g>
<g>
	<g>
		<path fill="#231F20" d="M82.03,96.068c-0.025,0.851-0.549,1.514-0.925,2.245c-0.24,0.467,0.464,0.88,0.705,0.412
			c0.451-0.878,1.006-1.635,1.036-2.657C82.862,95.541,82.045,95.542,82.03,96.068L82.03,96.068z"/>
	</g>
</g>
<g>
	<g>
		<path fill="#231F20" d="M82.03,95.087c0,0.834,0.008,1.61,0.61,2.249c0.361,0.384,0.938-0.194,0.577-0.577
			c-0.431-0.458-0.37-1.084-0.371-1.672C82.846,94.561,82.029,94.561,82.03,95.087L82.03,95.087z"/>
	</g>
</g>
<g>
	<g>
		<path fill="#231F20" d="M83.501,94.598c0,0.817,0,1.633,0,2.45c0,0.526,0.816,0.526,0.816,0c0-0.817,0-1.633,0-2.45
			C84.318,94.071,83.501,94.071,83.501,94.598L83.501,94.598z"/>
	</g>
</g>
<g>
	<g>
		<path fill="#231F20" d="M84.398,94.515c0.526,0,0.526-0.816,0-0.816S83.872,94.515,84.398,94.515L84.398,94.515z"/>
	</g>
</g>
<g>
	<g>
		<path fill="#231F20" d="M84.481,94.107c0.001,1.113,0.108,2.214,1.182,2.803c0.462,0.253,0.874-0.452,0.412-0.705
			c-0.798-0.438-0.777-1.289-0.778-2.098C85.297,93.581,84.48,93.581,84.481,94.107L84.481,94.107z"/>
	</g>
</g>
<g>
	<g>
		<path fill="#231F20" d="M85.517,94.804c0.336,0.691,0.505,1.471,1.044,2.042c0.362,0.384,0.938-0.195,0.577-0.577
			c-0.47-0.499-0.622-1.271-0.917-1.877C85.992,93.918,85.288,94.332,85.517,94.804L85.517,94.804z"/>
	</g>
</g>
<g>
	<g>
		<path fill="#231F20" d="M86.561,94.396c0.427,0.466,0.564,1.032,1.269,1.1c0.524,0.05,0.519-0.767,0-0.816
			c-0.147-0.014-0.25-0.282-0.316-0.387c-0.108-0.171-0.239-0.326-0.375-0.474C86.782,93.429,86.206,94.008,86.561,94.396
			L86.561,94.396z"/>
	</g>
</g>
<g>
	<g>
		<path fill="#231F20" d="M87.912,92.636c0.028,0.943,0.452,1.601,1.101,2.25c0.372,0.373,0.95-0.205,0.577-0.577
			c-0.491-0.492-0.84-0.95-0.861-1.673C88.713,92.11,87.896,92.109,87.912,92.636L87.912,92.636z"/>
	</g>
</g>
<g>
	<g>
		<path fill="#231F20" d="M83.418,101.868c1.007-0.029,2.002-0.404,2.739-1.1c0.384-0.362-0.195-0.938-0.577-0.577
			c-0.579,0.546-1.373,0.837-2.162,0.86C82.893,101.066,82.892,101.883,83.418,101.868L83.418,101.868z"/>
	</g>
</g>
<g>
	<g>
		<path fill="#231F20" d="M86.958,105.285c0.659-0.208,1.4-0.208,2.027-0.507c0.701-0.333,1.008-1.025,1.2-1.739
			c0.096-0.356-0.287-0.627-0.6-0.461c-1.033,0.549-1.712,1.515-2.844,1.92c0.104,0.249,0.209,0.498,0.314,0.746
			c1.104-0.553,2.133-1.159,3.024-2.025c0.378-0.367-0.2-0.944-0.577-0.577c-0.842,0.818-1.817,1.375-2.859,1.897
			C86.231,104.745,86.522,105.441,86.958,105.285c0.619-0.221,1.151-0.533,1.663-0.942c0.458-0.365,0.854-0.783,1.376-1.06
			c-0.2-0.154-0.4-0.308-0.6-0.461c-0.162,0.604-0.373,1.119-1.007,1.308c-0.541,0.161-1.108,0.196-1.649,0.368
			C86.241,104.656,86.455,105.445,86.958,105.285L86.958,105.285z"/>
	</g>
</g>
<g>
	<g>
		<path fill="#231F20" d="M99.243,98.312c-0.929,1.726-8.376,9.026-3.985,10.557c6.301,2.196,9.646-5.79,9.157-10.841
			c-0.05-0.519-0.867-0.524-0.816,0c0.408,4.209-2.565,12.781-8.314,9.954c-2.414-1.187,3.911-7.859,4.663-9.257
			C100.198,98.261,99.493,97.849,99.243,98.312L99.243,98.312z"/>
	</g>
</g>
<g>
	<g>
		<path fill="#231F20" d="M93.361,108.607c-3.243,6.582-9.034,12.615-7.202,20.578c0.997,4.334,3.846,5.33,7.892,3.92
			c6.352-2.212,13.156-7.726,17.914-12.396c6.54-6.419,4.135-11.641,1.75-19.358c-0.155-0.501-0.943-0.288-0.787,0.217
			c0.732,2.369,1.628,4.676,2.394,7.033c1.297,3.994-0.517,7.432-2.974,10.481c-3.549,4.403-8.853,7.292-13.449,10.458
			c-1.862,1.283-3.854,2.355-5.991,3.1c-4.545,1.583-5.986-2.385-6.167-6.119c-0.326-6.761,4.515-11.801,7.325-17.502
			C94.298,108.549,93.594,108.135,93.361,108.607L93.361,108.607z"/>
	</g>
</g>
<g>
	<g>
		<path fill="#231F20" d="M100.467,110.871c-4.508,1.304-6.524,4.966-8.129,9.109c-0.171,0.441,0.52,0.705,0.746,0.314
			c4.763-8.198,12.271-13.277,19.544-19.036c0.413-0.327-0.169-0.9-0.577-0.577c-7.318,5.793-14.884,10.959-19.672,19.201
			c0.249,0.105,0.498,0.21,0.746,0.314c1.495-3.857,3.31-7.309,7.559-8.539C101.189,111.512,100.974,110.724,100.467,110.871
			L100.467,110.871z"/>
	</g>
</g>
<g>
	<g>
		<path fill="#231F20" d="M115.377,108.922c0.652,4.169,2.853,7.366,4.795,11.031c2.939,5.546,2.538,12.666,2.544,18.764
			c0,0.526,0.817,0.526,0.816,0c-0.005-4.967-0.102-9.891-1.086-14.774c-1.113-5.52-5.402-9.613-6.282-15.238
			C116.083,108.186,115.297,108.407,115.377,108.922L115.377,108.922z"/>
	</g>
</g>
<g>
	<g>
		<path fill="#231F20" d="M95.468,133.187c6.133,2.735,10.513,8.047,14.625,13.171c0.33,0.41,0.903-0.171,0.577-0.578
			c-4.154-5.176-8.593-10.535-14.79-13.298C95.403,132.27,94.988,132.973,95.468,133.187L95.468,133.187z"/>
	</g>
</g>
<g>
	<g>
		<path fill="#231F20" d="M110.489,146.463c4.777-1.094,8.329-4.324,12.352-6.904c0.441-0.283,0.033-0.99-0.412-0.705
			c-3.961,2.54-7.447,5.743-12.157,6.822C109.759,145.793,109.977,146.58,110.489,146.463L110.489,146.463z"/>
	</g>
</g>
<g>
	<g>
		<path fill="#231F20" d="M108.992,146.069c3.287,25.886,1.518,51.946,1.47,77.946c-0.001,0.526,0.815,0.526,0.816,0
			c0.047-26,1.817-52.061-1.47-77.946C109.743,145.555,108.925,145.548,108.992,146.069L108.992,146.069z"/>
	</g>
</g>
<g>
	<g>
		<path fill="#231F20" d="M122.527,140.091c2.226,0.92,4.163,2.312,5.64,4.225c0.317,0.41,1.027,0.005,0.705-0.412
			c-1.623-2.102-3.68-3.588-6.128-4.6C122.257,139.103,122.047,139.893,122.527,140.091L122.527,140.091z"/>
	</g>
</g>
<g>
	<g>
		<path fill="#231F20" d="M135.968,158.924c4.302,21.956,2.49,44.352,2.437,66.562c-0.001,0.526,0.815,0.526,0.816,0
			c0.053-22.285,1.851-44.752-2.466-66.779C136.654,158.19,135.867,158.41,135.968,158.924L135.968,158.924z"/>
	</g>
</g>
<g>
	<g>
		<path fill="#231F20" d="M110.381,224.424c7.384,0.771,23.896,8.732,29.274,0.289c0.284-0.445-0.423-0.854-0.705-0.412
			c-4.976,7.811-21.44,0.051-28.569-0.693C109.857,223.553,109.863,224.37,110.381,224.424L110.381,224.424z"/>
	</g>
</g>
<g>
	<g>
		<path fill="#231F20" d="M114.873,225.978c1.042,8.49,1.061,17.056,1.844,25.569c0.684,7.433-1.467,11.052-8.015,14.766
			c-0.243,0.138-0.29,0.582,0,0.705c3.281,1.398,7.368,2.077,10.82,0.984c4.548-1.439,2.927-8.424,2.542-11.633
			c-0.062-0.516-0.879-0.522-0.816,0c0.529,4.402,1.591,11.072-5.04,11.345c-1.335,0.055-7.846-0.185-4.678-2.114
			c2.549-1.552,4.703-3.521,5.739-6.363c1.291-3.541,0.228-8.085-0.109-11.69c-0.67-7.183-0.589-14.396-1.47-21.568
			C115.626,225.462,114.809,225.456,114.873,225.978L114.873,225.978z"/>
	</g>
</g>
<g>
	<g>
		<path fill="#231F20" d="M118.795,227.447c0.523,6.977,0.921,13.96,1.254,20.947c0.179,3.75,0.332,7.501,0.484,11.252
			c0.14,3.44,0.051,5.074-2.6,7.221c-0.238,0.193-0.101,0.62,0.18,0.683c3.426,0.766,6.603,0.058,10.022-0.491
			c0.519-0.083,0.298-0.87-0.217-0.787c-1.14,0.178-2.277,0.365-3.414,0.562c-0.245,0.042-6.559,0.656-3.136-1.288
			c0.121-0.068,0.208-0.212,0.202-0.353c-0.503-12.591-1.018-25.18-1.96-37.746C119.572,226.926,118.755,226.922,118.795,227.447
			L118.795,227.447z"/>
	</g>
</g>
<g>
	<g>
		<path fill="#231F20" d="M127.129,228.427c-0.046,12.586-0.919,25.161-0.492,37.748c0.018,0.525,0.834,0.526,0.816,0
			c-0.427-12.587,0.445-25.162,0.492-37.748C127.948,227.9,127.131,227.9,127.129,228.427L127.129,228.427z"/>
	</g>
</g>
<g>
	<g>
		<path fill="#231F20" d="M118.796,20.085c-1.037,9.243-8.37,16.511-12.303,24.633c-3.914,8.083-7.915,16.053-10.233,24.771
			c-0.136,0.509,0.652,0.725,0.787,0.217c2.667-10.031,7.301-20.019,12.405-29.052c3.825-6.769,9.26-12.545,10.16-20.57
			C119.671,19.562,118.854,19.568,118.796,20.085L118.796,20.085z"/>
	</g>
</g>
<g>
	<g>
		<path fill="#231F20" d="M118.713,21.965c10.056,1.345,18.486,7.693,27.384,12.074c8.32,4.097,17.315,5.661,24.864,11.401
			c0.419,0.319,0.825-0.391,0.412-0.705c-8.299-6.311-18.478-8.069-27.594-12.778c-8.12-4.195-15.808-9.57-25.066-10.809
			C118.192,21.079,118.199,21.896,118.713,21.965L118.713,21.965z"/>
	</g>
</g>
<g>
	<g>
		<path fill="#231F20" d="M96.653,70.987c4.979,0.082,9.396-1.641,13.911-3.582c6.868-2.952,14.104-4.479,21.267-6.557
			c14.007-4.061,27.237-9.433,40.523-15.409c0.479-0.216,0.063-0.919-0.412-0.705c-12.661,5.695-25.272,10.88-38.592,14.818
			c-6.173,1.825-12.625,3.063-18.668,5.256c-6.031,2.188-11.402,5.471-18.029,5.362C96.126,70.162,96.127,70.979,96.653,70.987
			L96.653,70.987z"/>
	</g>
</g>
<g>
	<g>
		<path fill="#231F20" d="M96.735,68.618c0,0.665,0.107,1.625-0.371,2.163c-0.224,0.251-0.088,0.711,0.289,0.697
			c0.917-0.035,2.066-0.478,2.74-1.101c0.388-0.358-0.191-0.934-0.577-0.577c-0.51,0.472-1.469,0.835-2.163,0.861
			c0.096,0.232,0.192,0.464,0.289,0.697c0.658-0.739,0.609-1.812,0.61-2.74C97.552,68.092,96.736,68.092,96.735,68.618
			L96.735,68.618z"/>
	</g>
</g>
<g>
	<g>
		<path fill="#231F20" d="M120.675,20.004c1.144,0,2.288,0,3.432,0c0.526,0,0.526-0.816,0-0.816c-1.144,0-2.288,0-3.432,0
			C120.148,19.188,120.148,20.004,120.675,20.004L120.675,20.004z"/>
	</g>
</g>
<g>
	<g>
		<path fill="#231F20" d="M125.659,13.223c0,2.778,0,5.556,0,8.333c0,0.526,0.816,0.526,0.816,0c0-2.778,0-5.556,0-8.333
			C126.475,12.697,125.659,12.697,125.659,13.223L125.659,13.223z"/>
	</g>
</g>
<g>
	<g>
		<path fill="#231F20" d="M137.424,14.694c0.351,4.823-0.875,9.466-1.47,14.216c-0.065,0.521,0.752,0.515,0.816,0
			c0.596-4.763,1.822-9.38,1.47-14.216C138.202,14.172,137.386,14.168,137.424,14.694L137.424,14.694z"/>
	</g>
</g>
<g>
	<g>
		<path fill="#231F20" d="M126.667,14.597c1.78-0.627,3.558-1.003,5.448-1.102c0.885-0.046,1.761,0.063,2.629,0.23
			c0.41,0.079,3.124,1.675,2.795,1.787c-3.904,1.339-8.865,1.283-12.835,0.259c0.033,0.249,0.065,0.498,0.098,0.746
			c3.705-2.307,8.033-0.946,11.943,0.041c0.511,0.129,0.727-0.658,0.217-0.787c-4.134-1.044-8.678-2.383-12.572,0.041
			c-0.293,0.183-0.254,0.655,0.098,0.746c4.459,1.15,9.584,1.005,13.944-0.49c0.235-0.081,0.399-0.368,0.244-0.6
			c-2.638-3.938-8.393-3.01-12.226-1.658C125.957,13.983,126.169,14.772,126.667,14.597L126.667,14.597z"/>
	</g>
</g>
<g>
	<g>
		<path fill="#231F20" d="M126.067,20.004c3.749,0.435,7.506,0.488,11.276,0.489c0.526,0,0.526-0.816,0-0.816
			c-3.77-0.001-7.527-0.054-11.276-0.489C125.544,19.127,125.55,19.944,126.067,20.004L126.067,20.004z"/>
	</g>
</g>
<g>
	<g>
		<path fill="#231F20" d="M138.813,23.436c6.633,0.181,12.947,2.734,19.607,2.452c0.524-0.022,0.526-0.839,0-0.816
			c-6.649,0.282-12.979-2.271-19.607-2.452C138.287,22.604,138.288,23.421,138.813,23.436L138.813,23.436z"/>
	</g>
</g>
<g>
	<g>
		<path fill="#231F20" d="M157.822,25.873c7.985,2.352,14.729,7.524,21.471,12.214c0.434,0.302,0.841-0.407,0.412-0.705
			c-6.806-4.735-13.607-9.923-21.666-12.296C157.533,24.936,157.318,25.724,157.822,25.873L157.822,25.873z"/>
	</g>
</g>
<g>
	<g>
		<path fill="#231F20" d="M170.394,45.93c3.837-1.959,6.967-4.617,8.97-8.479c0.242-0.467-0.463-0.88-0.705-0.412
			c-1.944,3.749-4.956,6.287-8.677,8.187C169.513,45.464,169.926,46.168,170.394,45.93L170.394,45.93z"/>
	</g>
</g>
<g>
	<g>
		<path fill="#231F20" d="M178.603,39.205c0.386,14.644,8.888,27.754,11.612,41.99c1.501,7.839,4.905,15.237,7.191,22.858
			c2.743,9.145,2.333,18.388,2.275,27.804c-0.003,0.527,0.813,0.526,0.816,0c0.048-7.76,0.364-15.405-1.069-23.073
			c-1.465-7.832-4.873-15.226-7.169-22.827c-2.214-7.331-3.426-14.663-6.158-21.882c-3.054-8.067-6.452-16.12-6.683-24.87
			C179.405,38.68,178.589,38.678,178.603,39.205L178.603,39.205z"/>
	</g>
</g>
<g>
	<g>
		<path fill="#231F20" d="M195.394,134.66c2.141-1.613,4.231-3.29,6.373-4.902c0.415-0.312,0.009-1.022-0.412-0.705
			c-2.142,1.612-4.232,3.29-6.373,4.902C194.566,134.268,194.973,134.977,195.394,134.66L195.394,134.66z"/>
	</g>
</g>
<g>
	<g>
		<path fill="#231F20" d="M169.779,45.577c0.354,6.004,3.207,11.786,4.943,17.494c2.321,7.636,6.526,14.587,9.559,21.939
			c3.467,8.407,4.251,17.652,5.199,26.605c0.829,7.827,4.939,14.848,5.299,22.691c0.024,0.524,0.841,0.526,0.816,0
			c-0.336-7.323-4.281-13.674-5.104-20.904c-0.915-8.026-1.669-15.977-3.734-23.814c-1.872-7.104-5.834-13.662-8.8-20.332
			c-1.75-3.938-2.783-8.033-4.194-12.079c-1.336-3.831-2.926-7.495-3.167-11.602C170.565,45.054,169.748,45.051,169.779,45.577
			L169.779,45.577z"/>
	</g>
</g>
<g>
	<g>
		<path fill="#231F20" d="M132.548,159.212c22.933-3.866,43.926-14.848,64.805-24.552c0.478-0.222,0.062-0.925-0.412-0.705
			c-20.827,9.68-41.737,20.613-64.61,24.47C131.813,158.512,132.034,159.299,132.548,159.212L132.548,159.212z"/>
	</g>
</g>
<g>
	<g>
		<path fill="#231F20" d="M99.242,71.276c7.444,14.485,13.358,29.518,19.89,44.408c3.4,7.753,6.035,15.785,7.521,24.125
			c1.302,7.305,2.149,14.148,5.925,20.687c0.096,0.167,0.28,0.224,0.461,0.188c0.816-0.163,1.633-0.326,2.449-0.489
			c0.516-0.103,0.297-0.89-0.217-0.787c-5.896,1.178-7.278-15.711-7.831-19.814c-1.042-7.733-3.816-15.429-6.859-22.573
			c-6.619-15.536-12.905-31.116-20.634-46.155C99.707,70.396,99.002,70.809,99.242,71.276L99.242,71.276z"/>
	</g>
</g>
<g>
	<g>
		<path fill="#231F20" d="M121.302,22.821c-10.267,13.862-18.316,29.25-23.572,45.689c-0.161,0.503,0.627,0.716,0.787,0.217
			c5.235-16.376,13.265-31.688,23.49-45.494C122.321,22.81,121.612,22.403,121.302,22.821L121.302,22.821z"/>
	</g>
</g>
<g>
	<g>
		<path fill="#231F20" d="M124.243,24.782c-9.563,13.083-16.635,27.529-22.101,42.747c-0.179,0.497,0.611,0.708,0.787,0.217
			c5.445-15.16,12.496-29.524,22.019-42.552C125.259,24.769,124.55,24.362,124.243,24.782L124.243,24.782z"/>
	</g>
</g>
<g>
	<g>
		<path fill="#231F20" d="M127.675,27.724c-8.243,13.225-18.381,25.506-22.59,40.787c-0.14,0.508,0.647,0.724,0.787,0.217
			c4.192-15.218,14.303-27.426,22.508-40.591C128.659,27.688,127.953,27.278,127.675,27.724L127.675,27.724z"/>
	</g>
</g>
<g>
	<g>
		<path fill="#231F20" d="M132.046,27.821c-4.997,12.687-10.494,25.605-18.588,36.668c-0.312,0.426,0.397,0.833,0.705,0.412
			c8.14-11.125,13.644-24.102,18.67-36.864C133.027,27.548,132.237,27.337,132.046,27.821L132.046,27.821z"/>
	</g>
</g>
<g>
	<g>
		<path fill="#231F20" d="M129.104,28.312c-1.661,6.871-6.296,12.168-9.628,18.243c-3.71,6.763-6.366,14.045-9.939,20.877
			c-0.244,0.466,0.461,0.879,0.705,0.412c3.797-7.26,6.686-14.948,10.63-22.137c3.166-5.77,7.441-10.646,9.02-17.179
			C130.015,28.017,129.228,27.8,129.104,28.312L129.104,28.312z"/>
	</g>
</g>
<g>
	<g>
		<path fill="#231F20" d="M134.008,30.763c-2.742,11.379-10.004,20.973-12.747,32.354c-0.124,0.512,0.664,0.729,0.787,0.217
			c2.742-11.379,10.004-20.973,12.747-32.354C134.918,30.468,134.131,30.251,134.008,30.763L134.008,30.763z"/>
	</g>
</g>
<g>
	<g>
		<path fill="#231F20" d="M137.914,30.871c-0.937,11.027-8.371,20.317-12.689,30.188c-0.209,0.478,0.495,0.894,0.705,0.412
			c4.385-10.022,11.849-19.392,12.801-30.6C138.775,30.346,137.958,30.351,137.914,30.871L137.914,30.871z"/>
	</g>
</g>
<g>
	<g>
		<path fill="#231F20" d="M141.348,31.853c0.533,10.974-8.248,19.265-12.243,28.813c-0.203,0.485,0.587,0.695,0.787,0.217
			c4.039-9.652,12.812-17.917,12.272-29.03C142.139,31.329,141.322,31.326,141.348,31.853L141.348,31.853z"/>
	</g>
</g>
<g>
	<g>
		<path fill="#231F20" d="M143.796,35.283c-0.334,8.007-4.951,15.27-8.277,22.344c-0.223,0.474,0.481,0.888,0.705,0.412
			c3.38-7.191,8.048-14.61,8.388-22.756C144.635,34.756,143.817,34.758,143.796,35.283L143.796,35.283z"/>
	</g>
</g>
<g>
	<g>
		<path fill="#231F20" d="M147.719,36.753c-0.729,6.97-4.673,12.818-7.787,18.914c-0.239,0.468,0.466,0.881,0.705,0.412
			c3.193-6.249,7.151-12.185,7.898-19.326C148.59,36.229,147.772,36.235,147.719,36.753L147.719,36.753z"/>
	</g>
</g>
<g>
	<g>
		<path fill="#231F20" d="M151.149,38.224c-0.209,5.734-3.237,10.813-6.316,15.482c-0.291,0.441,0.417,0.85,0.705,0.412
			c3.162-4.794,6.214-10.011,6.428-15.895C151.985,37.697,151.169,37.699,151.149,38.224L151.149,38.224z"/>
	</g>
</g>
<g>
	<g>
		<path fill="#231F20" d="M154.581,39.694c0.366,4.458-0.45,8.523-2.395,12.541c-0.229,0.472,0.476,0.886,0.705,0.412
			c2.008-4.147,2.885-8.349,2.506-12.953C155.354,39.173,154.538,39.169,154.581,39.694L154.581,39.694z"/>
	</g>
</g>
<g>
	<g>
		<path fill="#231F20" d="M158.027,40.293c0.785,3.682-0.422,6.916-2.41,9.981c-0.287,0.443,0.42,0.852,0.705,0.412
			c2.121-3.27,3.324-6.708,2.492-10.61C158.705,39.561,157.918,39.78,158.027,40.293L158.027,40.293z"/>
	</g>
</g>
<g>
	<g>
		<path fill="#231F20" d="M161.443,41.656c-0.027,2.291-0.555,4.295-1.905,6.167c-0.309,0.428,0.4,0.835,0.705,0.412
			c1.432-1.984,1.987-4.153,2.017-6.579C162.267,41.129,161.449,41.129,161.443,41.656L161.443,41.656z"/>
	</g>
</g>
<g>
	<g>
		<path fill="#231F20" d="M163.91,43.235c0.438,1.418,0.438,2.778,0,4.196c-0.156,0.504,0.632,0.718,0.787,0.217
			c0.479-1.545,0.479-3.084,0-4.629C164.542,42.517,163.754,42.73,163.91,43.235L163.91,43.235z"/>
	</g>
</g>
<g>
	<g>
		<path fill="#231F20" d="M152.131,38.714c0.725,6.577-4.133,12.303-6.808,17.933c-0.225,0.473,0.479,0.888,0.705,0.412
			c2.73-5.747,7.661-11.608,6.919-18.345C152.891,38.197,152.073,38.191,152.131,38.714L152.131,38.714z"/>
	</g>
</g>
<g>
	<g>
		<path fill="#231F20" d="M97.525,68.522c1.316,0.411,2.659,0.504,4.03,0.505c0.526,0,0.526-0.816,0-0.816
			c-1.3-0.001-2.564-0.086-3.813-0.476C97.238,67.578,97.024,68.366,97.525,68.522L97.525,68.522z"/>
	</g>
</g>
<g>
	<g>
		<path fill="#231F20" d="M98.995,65.089c2.688,0.906,5.296,1.952,7.747,3.392c0.455,0.267,0.866-0.438,0.412-0.705
			c-2.513-1.476-5.186-2.545-7.942-3.474C98.711,64.133,98.499,64.922,98.995,65.089L98.995,65.089z"/>
	</g>
</g>
<g>
	<g>
		<path fill="#231F20" d="M101.065,62.653c3.861,0.09,7.255,1.508,10.579,3.376c0.459,0.258,0.871-0.447,0.412-0.705
			c-3.446-1.937-6.99-3.394-10.991-3.487C100.538,61.825,100.539,62.641,101.065,62.653L101.065,62.653z"/>
	</g>
</g>
<g>
	<g>
		<path fill="#231F20" d="M101.556,59.712c5.995,0.173,11.492,2.359,17.049,4.397c0.495,0.182,0.707-0.607,0.217-0.787
			c-5.629-2.065-11.202-4.251-17.266-4.427C101.029,58.88,101.03,59.697,101.556,59.712L101.556,59.712z"/>
	</g>
</g>
<g>
	<g>
		<path fill="#231F20" d="M104.007,56.281c8.127,0.142,15.366,2.691,22.931,5.377c0.498,0.177,0.709-0.612,0.217-0.787
			c-7.636-2.711-14.966-5.264-23.148-5.407C103.48,55.455,103.481,56.271,104.007,56.281L104.007,56.281z"/>
	</g>
</g>
<g>
	<g>
		<path fill="#231F20" d="M103.516,57.261c7.567,0.908,15.018,2.184,22.442,3.907c0.512,0.119,0.73-0.668,0.217-0.787
			c-7.493-1.739-15.024-3.02-22.659-3.936C102.994,56.382,103,57.199,103.516,57.261L103.516,57.261z"/>
	</g>
</g>
<g>
	<g>
		<path fill="#231F20" d="M105.968,52.849c8.242-0.641,15.086,3.598,22.345,6.807c0.477,0.211,0.893-0.493,0.412-0.705
			c-7.391-3.267-14.376-7.57-22.757-6.918C105.446,52.073,105.442,52.89,105.968,52.849L105.968,52.849z"/>
	</g>
</g>
<g>
	<g>
		<path fill="#231F20" d="M108.038,50.383c9.536-2.619,21.535,3.59,30.079,7.312c0.478,0.208,0.894-0.495,0.412-0.705
			c-8.837-3.85-20.817-10.11-30.708-7.394C107.313,49.735,107.529,50.522,108.038,50.383L108.038,50.383z"/>
	</g>
</g>
<g>
	<g>
		<path fill="#231F20" d="M107.437,46.476c12.158,1.512,23.159,6.509,34.699,10.28c0.502,0.164,0.715-0.625,0.217-0.787
			c-11.616-3.797-22.679-8.788-34.916-10.31C106.916,45.595,106.921,46.412,107.437,46.476L107.437,46.476z"/>
	</g>
</g>
<g>
	<g>
		<path fill="#231F20" d="M112.232,44.01c12.295,2.914,24.172,7.208,36.277,10.785c0.506,0.15,0.721-0.638,0.217-0.787
			c-12.104-3.577-23.982-7.872-36.277-10.785C111.937,43.102,111.72,43.889,112.232,44.01L112.232,44.01z"/>
	</g>
</g>
<g>
	<g>
		<path fill="#231F20" d="M109.889,41.083c13.608,0.777,24.527,9.128,37.148,13.222c0.502,0.163,0.716-0.625,0.217-0.787
			c-12.723-4.127-23.644-12.468-37.365-13.251C109.363,40.237,109.366,41.054,109.889,41.083L109.889,41.083z"/>
	</g>
</g>
<g>
	<g>
		<path fill="#231F20" d="M112.831,39.123c14.44,0.377,26.262,9.38,39.6,13.712c0.502,0.163,0.716-0.625,0.217-0.787
			c-13.417-4.358-25.282-13.362-39.817-13.741C112.304,38.292,112.305,39.109,112.831,39.123L112.831,39.123z"/>
	</g>
</g>
<g>
	<g>
		<path fill="#231F20" d="M115.282,35.691c15.195-0.653,28.946,9.045,41.952,15.631c0.469,0.237,0.882-0.467,0.412-0.705
			c-13.104-6.636-27.033-16.402-42.364-15.743C114.758,34.897,114.755,35.713,115.282,35.691L115.282,35.691z"/>
	</g>
</g>
<g>
	<g>
		<path fill="#231F20" d="M114.791,28.828c8.152,0.444,14.892,6.445,22.065,9.777c7.92,3.68,16.296,6.29,24.301,9.776
			c0.478,0.208,0.894-0.495,0.412-0.705c-8.544-3.72-17.431-6.583-25.886-10.512c-6.95-3.229-12.938-8.719-20.893-9.152
			C114.264,27.983,114.267,28.8,114.791,28.828L114.791,28.828z"/>
	</g>
</g>
<g>
	<g>
		<path fill="#231F20" d="M119.203,26.377c8.648,0.755,15.13,6.298,22.207,10.72c7.026,4.391,15.173,6.466,22.688,9.813
			c0.477,0.212,0.893-0.491,0.412-0.705c-8.498-3.785-17.339-6.307-25.208-11.419c-6.39-4.152-12.277-8.542-20.099-9.225
			C118.678,25.515,118.683,26.332,119.203,26.377L119.203,26.377z"/>
	</g>
</g>
<g>
	<g>
		<path fill="#231F20" d="M156.745,26.812c6.326,3.853,12.818,7.327,19.608,10.294c0.387,0.169,0.887-0.325,0.495-0.641
			c-3.076-2.479-6.624-3.697-10.277-5.084c-1.286-0.477-2.526-1.052-3.718-1.726c1.482,0.786-5.16-2.609-2.266-1.069
			c1.505,0.8,3.145,1.392,4.721,2.033c1.978,0.804,3.917,1.65,5.785,2.684c1.41,0.78,5.252,5.537,1.634,3.726
			c-4.98-2.495-10.301-4.249-15.308-6.695c-2.147-1.049-4.456-3.316-6.778-3.825c1.804,0.396,3.536,1.236,5.199,2.003
			c4.372,2.017,8.541,4.638,12.284,7.659c1.459,1.177,2.784,2.513,3.824,4.077c-1.62-2.435-6.533-3.747-9.129-4.89
			c-6.236-2.746-12.664-5.026-18.898-7.779c-0.473-0.209-0.865,0.416-0.412,0.705c8.588,5.49,17.589,10.211,26.961,14.216
			c0.479,0.205,0.85-0.396,0.412-0.705c-8.481-5.987-18.613-8.71-28.603-11.014c-2.731-0.63-7.881-0.946-0.569,0.181
			c3.668,0.565,7.265,1.566,10.813,2.63c6.986,2.094,13.718,5.03,20.397,7.927c0.416,0.18,0.821-0.279,0.495-0.641
			c-9.121-10.117-24.672-10.718-36.947-14.321c-0.513-0.15-0.703,0.608-0.217,0.787c9.784,3.608,19.065,8.338,28.517,12.708
			c1.106,0.508,2.217,1.008,3.331,1.5c1.832,1.179,2.161,1.048,0.989-0.395c-1.845-0.79-3.605-1.78-5.354-2.76
			c-3.572-2.002-6.985-4.288-10.492-6.401c-3.156-1.901-6.427-3.549-9.846-4.919c-3.258-1.305,0.466-1.218,1.989-1.187
			c1.922,0.04,3.838,0.738,5.618,1.396c6.48,2.392,12.104,7.121,17.504,11.291c0.366,0.283,0.85-0.347,0.495-0.641
			c-7.266-6.026-15.884-10.526-25.181-12.36c-0.435-0.086-0.744,0.518-0.314,0.746c8.909,4.728,17.761,9.577,26.961,13.726
			c0.388,0.175,0.726-0.175,0.559-0.559c-2.134-4.893-6.527-7.813-10.74-10.81c-2.594-1.845-0.364,0.644,0.338,1.147
			c1.894,1.358,3.71,2.825,5.532,4.275c2.728,2.171,5.433,4.36,8.234,6.436c0.236,0.175,0.648-0.058,0.614-0.353
			c-0.118-1.026-0.306-2.036-0.505-3.049c-0.076-0.389-0.715-0.394-0.787,0c-0.446,2.44-2.082,4.263-3.392,6.275
			c-0.213,0.328,0.228,0.81,0.559,0.559c8.447-6.416,2.432-12.368-5.298-15.585c-6.417-2.67-12.291-2.225-19.067-1.979
			c-0.528-0.011-1.058-0.022-1.586-0.033c-2.474,0.635-3.426,0.162-2.857-1.42c2.291-0.303,4.589-0.509,6.893-0.673
			c2.318-0.165,4.637-0.133,6.956-0.03c1.124,0.093,2.247,0.19,3.37,0.291c-1.387,0.525-2.821,0.865-4.304,1.02
			c-0.518,0.057-0.523,0.874,0,0.816c2.094-0.229,3.974-0.886,5.992-1.485c0.363-0.108,0.416-0.71,0-0.787
			c-7.417-1.37-14.869-0.548-22.276,0.49c-0.355,0.05-0.39,0.595-0.098,0.746c4.647,2.413,9.286,1.811,14.363,1.478
			c6.114-0.4,12.779,1.873,17.854,5.204c1.633,1.072,2.925,2.5,3.617,4.332c0.936,2.475-1.318,4.252-2.49,6.053
			c0.826-1.27,1.646-2.402,2.295-3.776c-0.092,0.194-0.747-2.448-0.285,0.009c0.151,0.807-3.824-2.393-4.484-2.918
			c-1.378-1.096-2.747-2.202-4.124-3.299c-2.343-1.864-4.745-3.644-7.216-5.334c-0.442-0.303-0.822,0.396-0.412,0.705
			c4.014,3.03,8.402,5.615,11.404,9.751c1.942,2.676-2.182-0.015-2.996-0.402c-2.729-1.295-5.418-2.675-8.104-4.058
			c-4.014-2.066-8.86-5.625-13.021-6.445c5.076,1.001,9.901,3.211,14.419,5.664c1.882,1.021,3.665,2.211,5.426,3.425
			c4.443,3.066,2.502,0.926,0.793-0.383c-3.082-2.362-6.263-4.572-9.621-6.524c-4.748-2.759-10.618-5.115-15.947-2.714
			c-0.344,0.155-0.209,0.65,0.098,0.746c11.395,3.582,20.305,11.908,31.373,16.177c0.431,0.166,0.739-0.566,0.314-0.746
			c-9.586-4.056-18.82-8.88-28.389-12.976c-1.737-0.744-3.497-1.429-5.26-2.109c-1.199,0.446-1.075,0.715,0.374,0.807
			c1.244,0.342,2.503,0.635,3.758,0.935c4.072,0.973,8.164,1.845,12.211,2.922c4.383,1.166,8.652,2.702,12.611,4.93
			c1.794,1.01,3.385,2.324,4.854,3.756c-1.299-1.265-3.649-1.87-5.379-2.597c-9.719-4.084-19.735-7.487-30.282-8.469
			c-0.46-0.043-0.555,0.705-0.108,0.802c6.528,1.419,13.031,2.891,19.388,4.959c3.866,1.258,7.589,2.889,11.144,4.858
			c0.423,0.253,0.846,0.507,1.27,0.76c1.018,1.124,1.412,1.2,1.185,0.229c-2.208-0.944-4.382-1.967-6.549-3
			c-3.807-1.814-7.519-3.817-11.186-5.895c-1.553-0.88-3.078-1.808-4.603-2.736c-2.502-1.523-1.773-0.438,0.164,0.366
			c8.551,3.55,17.272,6.652,25.365,11.202c0.365,0.206,0.749-0.199,0.559-0.559c-1.959-3.701-5.849-6.237-9.252-8.48
			c-4.057-2.674-8.742-5.361-13.542-6.414c-0.371-0.082-0.727,0.397-0.397,0.682c7.213,6.239,16.832,8.356,25.083,12.81
			c0.209,0.113,0.56,0.028,0.6-0.244c1.043-7.104-11.555-9.092-15.874-11.735c-0.398-0.244-0.825,0.317-0.495,0.641
			c3.837,3.772,9,4.838,13.747,7.057c0.607,0.284,4.549,1.936,0.514,0.104c-1.677-0.761-3.322-1.592-4.966-2.42
			c-3.849-1.939-7.571-4.123-11.25-6.363C156.706,25.832,156.296,26.538,156.745,26.812L156.745,26.812z"/>
	</g>
</g>
<g>
	<g>
		<path fill="#231F20" d="M159.112,24.787c4.244,3.362,7.986,7.334,12.829,9.868c0.466,0.244,0.879-0.461,0.412-0.705
			c-4.778-2.5-8.477-6.423-12.663-9.74C159.282,23.887,158.7,24.46,159.112,24.787L159.112,24.787z"/>
	</g>
</g>
<g>
	<g>
		<path fill="#231F20" d="M137.343,22.455c8.148,0.923,16.326,1.452,24.509,1.961c0.526,0.033,0.522-0.784,0-0.816
			c-8.183-0.509-16.36-1.038-24.509-1.961C136.82,21.579,136.826,22.396,137.343,22.455L137.343,22.455z"/>
	</g>
</g>
<g>
	<g>
		<path fill="#231F20" d="M161.646,24.851c5.736,4.364,11.007,9.26,17.647,12.254c0.476,0.215,0.892-0.489,0.412-0.705
			c-6.632-2.991-11.915-7.894-17.647-12.254C161.639,23.827,161.232,24.537,161.646,24.851L161.646,24.851z"/>
	</g>
</g>
<g>
	<g>
		<path fill="#231F20" d="M140.284,24.907c3.636,0,7.271,0,10.906,0c1.668,0,9.732-0.934,3.31-0.327
			c-0.518,0.049-0.527,0.858,0,0.816c4.737-0.373,8.758,0.104,11.902,4.21c0.315,0.412,1.025,0.006,0.705-0.412
			c-1.571-2.051-3.188-3.34-5.637-4.232c-1.277-0.465-2.768-0.481-4.097-0.535c-1.584-0.064-2.997,0.862,1.047,0.479
			c0.515-0.049,0.535-0.816,0-0.816c-6.046,0-12.091,0-18.137,0C139.758,24.09,139.758,24.907,140.284,24.907L140.284,24.907z"/>
	</g>
</g>
<g>
	<g>
		<path fill="#231F20" d="M136.073,22.826c1.533,1.371,3.508,2.03,3.311,4.614c0.268-0.036,0.534-0.072,0.802-0.108
			c-0.36-0.976-0.617-1.965-0.979-2.941c-0.163-0.44-0.76-0.356-0.802,0.108c-0.623,6.872,12.238,6.999,16.476,8.728
			c0.487,0.199,0.697-0.591,0.217-0.787c-3.906-1.594-16.42-1.944-15.876-7.94c-0.268,0.036-0.534,0.072-0.802,0.108
			c0.36,0.976,0.617,1.965,0.979,2.941c0.161,0.437,0.766,0.36,0.802-0.108c0.217-2.845-1.613-3.46-3.55-5.191
			C136.259,21.898,135.68,22.474,136.073,22.826L136.073,22.826z"/>
	</g>
</g>
<g>
	<g>
		<path fill="#231F20" d="M113.428,76.855c7.141-1.122,15.723-7.494,20.755,0.515c1.867,2.971,2.897,6.515,3.846,9.868
			c0.999,3.532-0.022,3.482-2.878,5.371c-2.638,1.745-5.191,3.577-8.006,5.036c-4.786,2.479-6.644-0.628-8.199-4.645
			c-1.896-4.897-3-10.09-4.252-15.177c-0.125-0.511-0.913-0.294-0.787,0.217c1.622,6.593,2.621,15.292,7.126,20.648
			c3.833,4.557,15.042-6.161,18.475-7.657c0.17-0.074,0.225-0.298,0.188-0.461c-1.198-5.263-2.821-13.572-7.528-16.982
			c-5.258-3.81-13.432,1.613-18.957,2.481C112.692,76.15,112.914,76.937,113.428,76.855L113.428,76.855z"/>
	</g>
</g>
<g>
	<g>
		<path fill="#231F20" d="M117.83,80.982c0.049,0.2,0.098,0.399,0.145,0.6c0.005,0.022,0.071,0.398,0.058,0.236
			c0.268-0.036,0.535-0.072,0.802-0.108c-0.178-0.569-0.194-1.227-0.203-1.816c-0.232,0.096-0.464,0.192-0.697,0.289
			c0.895,0.881,1.918,1.534,2.345,2.761c0.2-0.153,0.4-0.307,0.6-0.461c-0.751-0.405-0.736-0.729-0.361-1.416
			c0.291-0.533,0.534-1.048,0.563-1.664c0.025-0.526-0.791-0.524-0.816,0c-0.038,0.777-0.615,1.366-0.827,2.092
			c-0.232,0.796,0.399,1.353,1.029,1.692c0.295,0.159,0.724-0.105,0.6-0.461c-0.487-1.4-1.532-2.113-2.555-3.121
			c-0.25-0.247-0.702-0.071-0.697,0.289c0.009,0.654,0.034,1.402,0.232,2.034c0.132,0.422,0.842,0.368,0.802-0.109
			c-0.03-0.354-0.147-0.71-0.232-1.053C118.491,80.254,117.703,80.471,117.83,80.982L117.83,80.982z"/>
	</g>
</g>
<g>
	<g>
		<path fill="#231F20" d="M127.89,79.608c0.354-0.521,0.938-1.22,1.608-1.269c-0.096-0.232-0.192-0.464-0.289-0.697
			c-0.305,0.382-0.605,0.769-0.929,1.135c-0.083,0.095-0.173,0.184-0.268,0.268c-0.067,0.059,0.237,0.17,0.15,0.01
			c-0.152-0.28-0.196-0.66-0.271-0.966c-0.142-0.581-0.289-1.161-0.451-1.736c-0.249,0.104-0.498,0.209-0.746,0.314
			c0.104,0.21,0.202,0.424,0.292,0.64c0.066,0.16,0.125,0.322,0.181,0.486c0.025,0.076,0.047,0.152,0.067,0.229
			c0.083,0.307-0.076,0.056,0.195,0.006c0.153,0.062,0.307,0.125,0.461,0.188c-0.334-0.712-0.43-1.455,0.343-1.893
			c0.458-0.259,0.047-0.965-0.412-0.705c-1.188,0.672-1.162,1.889-0.636,3.01c0.082,0.173,0.292,0.219,0.461,0.188
			c1.028-0.19-0.01-2.084-0.247-2.561c-0.209-0.421-0.87-0.124-0.746,0.314c0.212,0.753,0.387,1.515,0.585,2.271
			c0.081,0.309,0.186,0.773,0.495,0.942c0.815,0.447,1.675-1.091,2.053-1.564c0.199-0.249,0.105-0.726-0.289-0.697
			c-1,0.073-1.778,0.885-2.313,1.673C126.889,79.633,127.596,80.042,127.89,79.608L127.89,79.608z"/>
	</g>
</g>
<g>
	<g>
		<path fill="#231F20" d="M125.374,89.986c0.019-0.018,0.051-0.041-0.035,0.025c0.016-0.012-0.399,0.144-0.443-0.262
			c0.028,0.258-0.127,0.583-0.204,0.82c0.2-0.082,0.4-0.163,0.6-0.244c-0.334-0.187-0.457-0.34-0.53-0.702
			c-0.056-0.276-0.184-0.494-0.366-0.705c-0.146-0.169-0.428-0.148-0.577,0c-0.175,0.173-0.361,0.334-0.552,0.49
			c-0.166,0.135-0.358,0.273-0.56,0.352c-0.214,0.084-0.152-0.438-0.153-0.553c-0.136,0.136-0.272,0.272-0.408,0.408
			c0.49,0,0.98,0,1.47,0c-0.096-0.04-0.192-0.08-0.289-0.12c0.252,0.306,0.121,1.002,0.132,1.372c0.014,0.403,0.1,0.765,0.359,1.079
			c0.335,0.406,0.91-0.175,0.577-0.577c-0.231-0.28-0.124-0.893-0.128-1.229c-0.004-0.369-0.048-0.734-0.233-1.059
			c-0.295-0.52-1.404-0.283-1.889-0.283c-0.222,0-0.409,0.186-0.408,0.408c0.003,0.746,0.252,1.589,1.187,1.34
			c0.555-0.147,1.074-0.658,1.472-1.052c-0.192,0-0.385,0-0.577,0c0.182,0.211,0.171,0.515,0.275,0.766
			c0.151,0.363,0.452,0.583,0.786,0.769c0.237,0.132,0.518,0.009,0.6-0.244c0.127-0.395,0.47-1.192-0.003-1.502
			c-0.227-0.149-0.501-0.046-0.679,0.125C124.417,89.775,124.995,90.352,125.374,89.986L125.374,89.986z"/>
	</g>
</g>
<g>
	<g>
		<path fill="#231F20" d="M130.681,87.045c0.445,0.371,0.967,0.242,1.5,0.243c0.376,0,0.29,0.271,0.356,0.558
			c0.02,0.085,0.038,0.165,0.041,0.252c-0.009-0.29,0.479-0.131,0.31-0.233c-0.323-0.195-0.585-0.582-0.803-0.881
			c-0.117-0.162-0.226-0.33-0.324-0.504c-0.024-0.042-0.069-0.129-0.078-0.153c-0.098-0.25,0.057,0.515-0.43,0.292
			c0.069-0.253,0.137-0.507,0.206-0.761c-0.016,0-0.032,0-0.048,0c-0.527,0-0.527,0.816,0,0.816c0.849,0,1.698,0,2.547,0
			c0.526,0,0.526-0.816,0-0.816c-0.016,0-0.032,0-0.048,0c-0.194,0-0.329,0.127-0.394,0.3c-0.238,0.633-0.823,0.898-1.458,0.695
			c-0.503-0.161-0.716,0.627-0.217,0.787c1.089,0.349,2.075-0.232,2.462-1.265c-0.131,0.1-0.262,0.2-0.394,0.3
			c0.016,0,0.032,0,0.048,0c0.526,0,0.526-0.816,0-0.816c-0.849,0-1.698,0-2.547,0c-0.527,0-0.527,0.816,0,0.816
			c0.016,0,0.032,0,0.048,0c0.383,0,0.589-0.585,0.206-0.761c-0.304-0.14-0.658-0.135-0.791,0.23
			c-0.091,0.249,0.066,0.536,0.182,0.749c0.332,0.613,0.817,1.23,1.377,1.649c0.216,0.161,0.584,0.244,0.79,0.015
			c0.266-0.296,0.125-0.622,0.111-0.973c-0.02-0.507-0.29-0.911-0.775-1.065c-0.327-0.104-1.053,0.155-1.301-0.051
			C130.856,86.133,130.275,86.708,130.681,87.045L130.681,87.045z"/>
	</g>
</g>
<g>
	<g>
		<path fill="#231F20" d="M143.852,69.805c3.397,6.309,6.775,12.625,9.807,19.119c0.223,0.477,0.927,0.062,0.705-0.412
			c-3.031-6.495-6.409-12.811-9.807-19.119C144.307,68.929,143.602,69.341,143.852,69.805L143.852,69.805z"/>
	</g>
</g>
<g>
	<g>
		<path fill="#231F20" d="M144.902,67.99c7.103-3.091,14.027-6.584,21.853-7.298c0.52-0.047,0.524-0.864,0-0.816
			c-7.979,0.728-15.024,4.258-22.265,7.409C144.009,67.495,144.425,68.198,144.902,67.99L144.902,67.99z"/>
	</g>
</g>
<g>
	<g>
		<path fill="#231F20" d="M166.361,59.903c1.352,7.799,5.599,14.719,8.333,22.06c0.182,0.489,0.972,0.277,0.787-0.217
			c-2.738-7.354-6.98-14.254-8.333-22.06C167.059,59.168,166.272,59.388,166.361,59.903L166.361,59.903z"/>
	</g>
</g>
<g>
	<g>
		<path fill="#231F20" d="M156.667,88.09c5.519-2.715,11.234-4.869,17.06-6.823c0.497-0.167,0.284-0.955-0.217-0.787
			c-5.894,1.977-11.673,4.159-17.255,6.905C155.782,87.617,156.196,88.321,156.667,88.09L156.667,88.09z"/>
	</g>
</g>
<g>
	<g>
		<path fill="#231F20" d="M155.098,89.111c6.309-2.043,12.18-5.24,18.629-6.864c0.511-0.128,0.294-0.916-0.217-0.787
			c-6.45,1.623-12.32,4.82-18.629,6.864C154.382,88.486,154.596,89.274,155.098,89.111L155.098,89.111z"/>
	</g>
</g>
<g>
	<g>
		<path fill="#231F20" d="M150.372,71.912c0.42,0.308,1.232-0.037,1.27,0.628c0.029,0.522,0.816,0.53,0.816,0c0-0.49,0-0.98,0-1.471
			c-0.254,0.069-0.507,0.137-0.761,0.206c0.326,0.49,0.651,0.98,0.978,1.471c0.139,0.209,0.455,0.287,0.642,0.083
			c0.81-0.891,1.156-2.052,1.962-2.942c-0.214-0.027-0.428-0.055-0.642-0.083c0.327,0.654,0.653,1.307,0.98,1.961
			c0.214-0.165,0.428-0.33,0.642-0.495c-0.796-0.624-1.741-0.625-2.537,0c0.192,0,0.386,0,0.578,0
			c-0.673-0.731-1.161-1.516-2.044-2.025c-0.276-0.159-0.603,0.045-0.614,0.353c-0.044,1.115-0.436,2.23-0.927,3.226
			c0.235,0,0.47,0,0.705,0c-0.351-0.458-0.222-1.31-0.448-1.863c-0.196-0.48-0.986-0.271-0.787,0.217
			c0.276,0.675,0.078,1.468,0.53,2.058c0.169,0.221,0.555,0.305,0.705,0c0.558-1.131,0.988-2.371,1.038-3.638
			c-0.205,0.118-0.409,0.235-0.614,0.353c0.82,0.473,1.257,1.222,1.878,1.897c0.164,0.178,0.409,0.133,0.578,0
			c0.46-0.33,0.921-0.33,1.381,0c0.359,0.282,0.859-0.06,0.642-0.495c-0.327-0.654-0.653-1.307-0.98-1.961
			c-0.115-0.229-0.472-0.27-0.642-0.083c-0.808,0.893-1.154,2.054-1.962,2.942c0.214,0.027,0.428,0.055,0.642,0.083
			c-0.326-0.49-0.651-0.98-0.978-1.471c-0.219-0.329-0.761-0.217-0.761,0.206c0,0.49,0,0.98,0,1.471c0.272,0,0.544,0,0.816,0
			c-0.021-0.363-0.047-0.937-0.438-1.128c-0.387-0.189-0.913,0.031-1.235-0.205C150.359,70.895,149.952,71.604,150.372,71.912
			L150.372,71.912z"/>
	</g>
</g>
<g>
	<g>
		<path fill="#231F20" d="M161.011,67.354c0.416,0.558,0.119,1.422,0.484,1.93c0.233,0.325,0.743,0.22,0.761-0.206
			c0.047-1.13,0.004-2.27,0.004-3.401c-0.205,0.118-0.409,0.235-0.614,0.353c0.922,0.589,1.012,1.843,1.961,2.452
			c0.208,0.133,0.555,0.012,0.6-0.244c0.027-0.289,0.14-0.537,0.335-0.745c-0.111,0.149-0.054,0.243,0.174,0.281
			c0.469,0.293,0.871,0.746,1.261,1.134c0.133-0.228,0.266-0.455,0.397-0.682c-2.116-0.529-4.235-1.038-6.374-1.471
			c0.061,0.228,0.12,0.455,0.181,0.682c0.782-0.63,1.956-1.579,3.032-1.118c1.013,0.434,1.399,1.961,1.68,2.898
			c0.132,0.439,0.802,0.359,0.802-0.108c0-0.653,0-1.307,0-1.96c0-0.362-0.441-0.533-0.697-0.289
			c-1.051,1.005-2.576,2.25-4.123,2.331c-0.523,0.027-0.526,0.844,0,0.816c1.785-0.093,3.471-1.393,4.701-2.57
			c-0.232-0.096-0.465-0.192-0.697-0.289c0,0.653,0,1.307,0,1.96c0.268-0.036,0.534-0.072,0.802-0.108
			c-0.386-1.289-0.9-2.892-2.246-3.469c-1.368-0.586-2.83,0.522-3.831,1.328c-0.234,0.189-0.104,0.625,0.181,0.682
			c2.139,0.433,4.258,0.942,6.374,1.471c0.393,0.098,0.691-0.389,0.397-0.682c-0.958-0.955-2.724-2.647-3.135-0.31
			c0.2-0.082,0.399-0.163,0.6-0.244c-0.921-0.59-1.01-1.843-1.961-2.452c-0.265-0.169-0.614,0.053-0.614,0.353
			c0,1.131,0.043,2.271-0.004,3.401c0.254-0.069,0.507-0.138,0.761-0.206c0.146,0.204-0.031-0.475-0.061-0.679
			c-0.062-0.432-0.158-0.895-0.424-1.25C161.405,66.525,160.695,66.932,161.011,67.354L161.011,67.354z"/>
	</g>
</g>
<g>
	<g>
		<path fill="#231F20" d="M153.126,79.511c0.578,1.946,2.075,3.751,4.257,2.797c1.964-0.859,2.185-3.358,1.391-5.071
			c-0.098-0.211-0.375-0.238-0.559-0.146c-1.308,0.652-2.614,1.307-3.921,1.96c0.138,0.235,0.274,0.47,0.412,0.705
			c1.229-0.721,2.563-0.426,3.823-0.938c-0.153-0.062-0.308-0.125-0.461-0.188c0.562,1.182,0.883,2.405,0.925,3.715
			c0.205-0.118,0.409-0.235,0.614-0.353c-0.9-0.497-1.644-1.175-2.367-1.896c-0.197-0.196-0.494-0.132-0.642,0.083
			c-0.285,0.415-0.297,0.88-0.301,1.37c-0.005,0.584-0.344,0.109-0.651-0.148c-0.303-0.251-0.579-0.537-0.857-0.814
			c-0.334-0.333-0.863,0.09-0.642,0.495c0.832,1.522,1.68,1.722,3.293,1.672c0.525-0.016,0.526-0.833,0-0.816
			c-1.279,0.039-1.891,0.008-2.588-1.268c-0.214,0.165-0.428,0.33-0.642,0.495c0.436,0.434,1.594,1.842,2.358,1.575
			c0.916-0.319,0.295-1.509,0.734-2.148c-0.214,0.027-0.428,0.055-0.642,0.083c0.772,0.771,1.573,1.495,2.533,2.024
			c0.263,0.145,0.625-0.035,0.614-0.353c-0.047-1.453-0.414-2.817-1.036-4.127c-0.071-0.15-0.305-0.251-0.461-0.188
			c-1.333,0.542-2.717,0.256-4.019,1.021c-0.458,0.269-0.056,0.938,0.412,0.705c1.307-0.653,2.613-1.308,3.921-1.96
			c-0.187-0.049-0.372-0.098-0.559-0.146c0.637,1.375,0.423,3.035-0.939,3.872c-1.645,1.01-2.819-0.892-3.216-2.226
			C153.764,78.79,152.976,79.005,153.126,79.511L153.126,79.511z"/>
	</g>
</g>
<g>
	<g>
		<path fill="#231F20" d="M164.4,76.57c0.207,0.518,0.026,0.961,0.022,1.489c-0.004,0.455,0.293,0.822,0.573,1.143
			c0.127,0.145,0.337,0.141,0.495,0.064c0.661-0.322,1.343-0.568,2.031-0.82c0.353-0.129,0.724-0.274,0.96-0.581
			c0.66-0.859-0.485-2.375-0.886-3.081c-0.13-0.229-0.457-0.267-0.642-0.083c-0.489,0.49-0.979,0.981-1.47,1.472
			c-0.152,0.152-0.163,0.426,0,0.577c0.73,0.674,1.88,1.013,2.388,1.878c0.124,0.211,0.47,0.288,0.642,0.083
			c0.597-0.718,0.597-1.332,0-2.049c-0.262-0.314-0.812,0.021-0.683,0.397c0.209,0.612,0.542,1.609,1.265,1.757
			c0.257,0.053,0.517-0.115,0.517-0.394c0-0.817,0-1.634,0-2.451c-0.254,0.069-0.507,0.137-0.761,0.206
			c0.319,0.748-0.02,1.478-0.056,2.245c-0.025,0.526,0.792,0.524,0.816,0c0.047-0.993,0.354-1.696-0.056-2.657
			c-0.167-0.39-0.761-0.171-0.761,0.206c0,0.817,0,1.634,0,2.451c0.172-0.131,0.345-0.263,0.517-0.394
			c-0.36-0.074-0.59-0.882-0.694-1.187c-0.228,0.132-0.455,0.265-0.683,0.397c0,0.298,0,0.596,0,0.895
			c0.214,0.027,0.428,0.055,0.642,0.083c-0.582-0.992-1.699-1.291-2.515-2.043c0,0.192,0,0.385,0,0.577
			c0.489-0.49,0.979-0.981,1.47-1.472c-0.214-0.027-0.428-0.055-0.642-0.083c0.187,0.328,1.338,1.935,0.834,2.27
			c-0.762,0.506-1.818,0.691-2.646,1.095c0.165,0.021,0.33,0.042,0.495,0.064c-0.586-0.669-0.072-1.485-0.387-2.271
			C164.995,75.871,164.205,76.081,164.4,76.57L164.4,76.57z"/>
	</g>
</g>
<g>
	<g>
		<path fill="#231F20" d="M118.332,80.777c1.32-0.412,2.754-0.447,4.02-1.022c-0.2-0.082-0.4-0.163-0.6-0.244
			c0.285,0.905,0.456,1.715-0.437,2.266c-0.662,0.408-1.337,0.715-1.909,1.26c-0.382,0.364,0.196,0.94,0.577,0.577
			c0.691-0.658,1.638-0.919,2.326-1.57c0.76-0.718,0.505-1.877,0.23-2.75c-0.085-0.27-0.356-0.355-0.6-0.244
			c-1.188,0.54-2.582,0.552-3.824,0.94C117.614,80.146,117.828,80.934,118.332,80.777L118.332,80.777z"/>
	</g>
</g>
<g>
	<g>
		<path fill="#231F20" d="M126.149,76.462c0,0.817,0,1.634,0,2.452c0,0.222,0.186,0.409,0.408,0.408
			c1.107-0.001,2.128-0.081,3.146-0.546c0.125-0.057,0.205-0.221,0.202-0.353c-0.029-1.326-0.451-2.465-1.035-3.639
			c-0.06-0.12-0.219-0.211-0.353-0.202c-1.221,0.084-2.113,0.976-3.148,1.527c-0.465,0.248-0.052,0.953,0.412,0.705
			c0.866-0.461,1.72-1.346,2.736-1.416c-0.118-0.067-0.235-0.135-0.353-0.202c0.52,1.046,0.897,2.043,0.923,3.227
			c0.067-0.118,0.135-0.235,0.202-0.353c-0.876,0.4-1.788,0.434-2.734,0.435c0.136,0.136,0.272,0.272,0.408,0.408
			c0-0.817,0-1.634,0-2.452C126.966,75.936,126.149,75.936,126.149,76.462L126.149,76.462z"/>
	</g>
</g>
<g>
	<g>
		<path fill="#231F20" d="M118.332,80.777c1.262-0.412,2.406-0.779,3.529-1.511c-0.205-0.118-0.41-0.235-0.614-0.353
			c0.075,0.701,0.513,1.344,0.809,1.969c0.056,0.117,0.145,0.312,0.111,0.337c-0.218,0.157-0.473,0.269-0.715,0.383
			c-0.286,0.135-0.587,0.246-0.886,0.348c-0.219,0.074-0.335,0.275-0.285,0.502c0.164,0.748,1.256,0.786,1.865,0.791
			c0.527,0.004,0.526-0.812,0-0.816c-0.2-0.002-1.037-0.003-1.078-0.191c-0.095,0.167-0.19,0.334-0.285,0.502
			c0.65-0.22,1.838-0.54,2.206-1.168c0.418-0.713-0.85-1.954-0.925-2.656c-0.031-0.286-0.33-0.538-0.614-0.353
			c-1.062,0.692-2.142,1.04-3.334,1.429C117.616,80.152,117.83,80.941,118.332,80.777L118.332,80.777z"/>
	</g>
</g>
<g>
	<g>
		<path fill="#231F20" d="M145.528,116.059c-0.115,0.784-0.271,2.045-0.489,2.695c-0.1,0.295,0.215,0.588,0.502,0.502
			c3.048-0.911,5.935-2.238,8.907-3.357c3.55-1.336,7.372-1.735,10.947-3.014c0.492-0.176,0.28-0.965-0.217-0.787
			c-3.577,1.28-7.35,1.803-10.947,3.014c-1.751,0.589-3.448,1.363-5.158,2.06c-2.207,0.899-3.181,1.982-2.758-0.896
			C146.392,115.761,145.604,115.539,145.528,116.059L145.528,116.059z"/>
	</g>
</g>
<g>
	<g>
		<path fill="#231F20" d="M145.05,115.827c4.151-0.906,8.26-1.941,12.324-3.181c1.807-0.55,3.581-1.192,5.346-1.861
			c0.456-0.176,0.909-0.359,1.358-0.549c2.215-0.955,2.386,0.891,2.271,2.746c-0.033,0.526,0.784,0.523,0.816,0
			c0.101-1.605-0.042-2.771-0.506-4.275c-0.083-0.27-0.357-0.356-0.6-0.244c-6.749,3.122-13.985,4.997-21.227,6.578
			C144.318,115.152,144.537,115.939,145.05,115.827L145.05,115.827z"/>
	</g>
</g>
<g>
	<g>
		<path fill="#231F20" d="M166.363,109.412c0.804,4.566,3.192,8.545,4.411,12.99c1.303,4.751,1.978,9.558,3.677,14.217
			c0.179,0.491,0.968,0.279,0.787-0.217c-1.503-4.121-2.452-8.362-3.349-12.648c-1.058-5.053-3.845-9.481-4.739-14.559
			C167.06,108.677,166.272,108.897,166.363,109.412L166.363,109.412z"/>
	</g>
</g>
<g>
	<g>
		<path fill="#231F20" d="M155.1,145.729c6.646-0.901,14.868-2.032,20.034-6.723c0.391-0.355-0.188-0.931-0.578-0.578
			c-5.018,4.557-13.196,5.635-19.673,6.514C154.363,145.012,154.585,145.799,155.1,145.729L155.1,145.729z"/>
	</g>
</g>
<g>
	<g>
		<path fill="#231F20" d="M144.779,119.843c0.077,3.741,0.831,6.9,2.507,10.256c2.61,5.228,4.174,10.858,7.108,15.932
			c0.264,0.455,0.969,0.045,0.705-0.412c-2.334-4.035-3.843-8.397-5.599-12.695c-1.884-4.61-3.8-7.976-3.905-13.081
			C145.585,119.317,144.769,119.316,144.779,119.843L144.779,119.843z"/>
	</g>
</g>
<g>
	<g>
		<path fill="#231F20" d="M152.677,130.59c0.387,0.791,0.577,1.572,1.472,1.903c0.25,0.093,0.521-0.145,0.517-0.394
			c-0.013-0.758-0.314-1.352-0.506-2.069c-0.072-0.272-0.486-0.428-0.683-0.18c-0.337,0.427-0.537,1.476,0.181,1.663
			c0.51,0.133,0.726-0.654,0.217-0.787c0.109,0.124,0.148,0.122,0.117-0.005c-0.005-0.084,0.008-0.223,0.063-0.294
			c-0.228-0.06-0.455-0.12-0.683-0.18c0.17,0.638,0.466,1.181,0.477,1.853c0.172-0.131,0.345-0.262,0.517-0.394
			c-0.581-0.215-0.737-1.026-0.983-1.528C153.15,129.705,152.446,130.119,152.677,130.59L152.677,130.59z"/>
	</g>
</g>
<g>
	<g>
		<path fill="#231F20" d="M117.817,81.362c0.02,0.828,0.262,1.797,1.118,2.131c0.935,0.365,1.865-0.235,2.52-0.863
			c0.381-0.365-0.197-0.941-0.577-0.577c-0.391,0.375-0.933,0.824-1.52,0.721c-0.616-0.108-0.713-0.917-0.725-1.412
			C118.621,80.836,117.804,80.835,117.817,81.362L117.817,81.362z"/>
	</g>
</g>
<g>
	<g>
		<path fill="#231F20" d="M128.52,79.318c0.526,0,0.526-0.816,0-0.816S127.994,79.318,128.52,79.318L128.52,79.318z"/>
	</g>
</g>
<g>
	<g>
		<path fill="#231F20" d="M118.92,82.204c0.781-0.378,1.598-0.678,2.369-1.078c0.22-0.114,0.502-0.49,0.652-0.243
			c0.167,0.274,0.27,0.647,0.289,0.968c0.067-0.118,0.135-0.235,0.202-0.353c-1.106,0.554-2.129,1.162-3.024,2.025
			c-0.321,0.309,0.021,0.741,0.397,0.682c1.02-0.159,2.162-0.423,2.562-1.488c0.315-0.84-0.023-1.842,0.175-2.718
			c0.116-0.513-0.671-0.73-0.787-0.217c-0.174,0.766-0.087,1.512-0.104,2.287c-0.024,1.062-1.226,1.218-2.062,1.349
			c0.132,0.228,0.265,0.455,0.397,0.682c0.846-0.816,1.816-1.375,2.859-1.897c0.121-0.061,0.21-0.218,0.202-0.353
			c-0.037-0.637-0.356-1.977-1.194-1.977c-0.404,0-0.821,0.466-1.164,0.645c-0.707,0.366-1.463,0.633-2.18,0.979
			C118.034,81.728,118.448,82.432,118.92,82.204L118.92,82.204z"/>
	</g>
</g>
<g>
	<g>
		<path fill="#231F20" d="M125.185,77.058c0.461,1.431,0.701,2.659,2.246,3.227c0.157,0.058,0.391-0.033,0.461-0.188
			c0.585-1.29,0.546-2.74,0.547-4.128c0-0.526-0.816-0.526-0.816,0c0,1.222,0.081,2.577-0.436,3.716
			c0.154-0.062,0.308-0.125,0.461-0.188c-1.202-0.442-1.324-1.569-1.675-2.657C125.811,76.342,125.022,76.555,125.185,77.058
			L125.185,77.058z"/>
	</g>
</g>
<g>
	<g>
		<path fill="#231F20" d="M121.941,91.028c1.442,0.931,3.02,1.52,4.727,1.021c0.175-0.051,0.3-0.21,0.3-0.394
			c0-0.448,0-0.896,0-1.343c0-0.265,0.092-0.694-0.12-0.906c-0.63-0.63-1.512-0.181-2.25-0.12c-0.518,0.042-0.533,0.816,0,0.816
			c0.654,0,1.308,0,1.961,0c-0.069-0.253-0.137-0.507-0.206-0.761c-1.245,0.835-2.354,1.537-3.825,1.919
			c-0.24,0.062-0.396,0.383-0.244,0.6c0.363,0.516,0.729,0.969,1.331,1.198c0.452,0.171,1.008-0.001,1.472-0.015
			c0.525-0.015,0.527-0.832,0-0.816c-0.318,0.009-0.63,0.058-0.948,0.078c-0.541,0.034-0.875-0.466-1.15-0.856
			c-0.082,0.2-0.163,0.4-0.244,0.6c1.539-0.4,2.714-1.125,4.02-2.001c0.328-0.22,0.218-0.761-0.206-0.761c-0.654,0-1.308,0-1.961,0
			c0,0.272,0,0.544,0,0.816c0.56-0.046,1.262-0.421,1.755-0.056c-0.067-0.118-0.135-0.235-0.202-0.353c0,0.653,0,1.307,0,1.96
			c0.1-0.131,0.2-0.262,0.3-0.394c-1.502,0.438-2.839-0.126-4.098-0.939C121.909,90.037,121.5,90.744,121.941,91.028L121.941,91.028
			z"/>
	</g>
</g>
<g>
	<g>
		<path fill="#231F20" d="M130.588,86.167c0.919-0.318,1.845-0.937,2.833-0.966c-0.136-0.136-0.272-0.272-0.408-0.408
			c0.002,0.472,0.017,0.942,0.034,1.414c0.007,0.193,0.054,0.475-0.04,0.648c-0.073,0.135-0.326,0.228-0.457,0.298
			c-0.436,0.235-0.872,0.467-1.297,0.719c0.186,0.049,0.373,0.098,0.559,0.146c-0.236-0.471-0.479-0.949-0.778-1.383
			c-0.292-0.423-0.897-0.521-0.962,0.12c-0.043,0.421,0.567,0.534,0.761,0.206c0.309-0.521,0.992-0.466,1.501-0.304
			c0.503,0.161,0.716-0.627,0.217-0.787c-0.877-0.281-1.92-0.17-2.423,0.679c0.253,0.069,0.507,0.137,0.761,0.206
			c-0.546,0.019-0.732,0.117-0.559,0.292c0.038,0.053,0.074,0.107,0.108,0.163c0.108,0.168,0.205,0.344,0.301,0.519
			c0.128,0.231,0.25,0.466,0.369,0.702c0.099,0.198,0.376,0.254,0.559,0.146c0.626-0.372,1.624-0.676,2.047-1.31
			c0.145-0.217,0.155-0.513,0.157-0.764c0.006-0.569-0.038-1.14-0.04-1.709c-0.001-0.218-0.185-0.415-0.408-0.408
			c-1.092,0.032-2.041,0.645-3.05,0.995C129.877,85.551,130.09,86.34,130.588,86.167L130.588,86.167z"/>
	</g>
</g>
<g>
	<g>
		<path fill="#231F20" d="M113.405,75.969c0.014,1.516,0.14,2.533,1.1,3.721c0.256,0.317,0.816-0.022,0.682-0.397
			c-0.267-0.745-1.267-2.915-0.237-3.495c1.813-1.021,3.851-1.621,5.845-2.176c3.067-0.853,6.223-1.358,9.304-2.162
			c0.509-0.133,0.293-0.92-0.217-0.787c-5.52,1.44-11.232,2.104-16.274,4.943c-0.15,0.084-0.248,0.292-0.188,0.461
			c0.404,1.13,0.575,2.303,0.98,3.432c0.228-0.132,0.455-0.265,0.682-0.397c-0.656-0.98-0.942-2.028-0.86-3.144
			C114.217,75.442,113.4,75.442,113.405,75.969L113.405,75.969z"/>
	</g>
</g>
<g>
	<g>
		<path fill="#231F20" d="M129.294,72.4c6.503,2.871,7.148,11.201,9.657,17.011c0.208,0.482,0.911,0.066,0.705-0.412
			c-2.571-5.953-3.259-14.35-9.95-17.304C129.229,71.484,128.813,72.188,129.294,72.4L129.294,72.4z"/>
	</g>
</g>
<g>
	<g>
		<path fill="#231F20" d="M129.211,71.355c4.523,5.181,7.983,11.326,8.215,18.34c0.017,0.525,0.834,0.527,0.816,0
			c-0.239-7.233-3.781-13.565-8.455-18.917C129.442,70.38,128.867,70.96,129.211,71.355L129.211,71.355z"/>
	</g>
</g>
<g>
	<g>
		<path fill="#231F20" d="M112.438,77.058c1.11,4.098,2.779,7.873,4.78,11.61c1.085,2.025,2.279,3.994,3.45,5.969
			c0.124,0.209,2.555,3.19,1.058,1.815c-1.094-1.006-1.9-2.74-2.66-4.021c-0.269-0.452-0.975-0.042-0.705,0.412
			c1.286,2.167,2.391,4.175,4.559,5.54c0.354,0.222,0.759-0.212,0.559-0.559c-3.92-6.793-8.18-13.332-10.253-20.982
			C113.088,76.333,112.3,76.549,112.438,77.058L112.438,77.058z"/>
	</g>
</g>
<g>
	<g>
		<path fill="#231F20" d="M121.547,99.404c2.697,0.473,4.674,0.262,6.771-1.577c0.306-0.268-0.015-0.811-0.397-0.682
			c-1.364,0.458-2.708,0.923-4.02,1.513c-0.424,0.19-0.121,0.892,0.314,0.746c1.471-0.491,2.942-0.981,4.413-1.472
			c0.429-0.143,0.367-0.804-0.108-0.802c-1.892,0.006-3.652,0.112-5.502,0.505c-0.454,0.096-0.348,0.814,0.108,0.802
			c5.595-0.158,10.693-2.381,14.507-6.493c0.319-0.344-0.082-0.859-0.495-0.641c-3.813,2.011-7.094,4.834-11.179,6.333
			c-0.49,0.18-0.278,0.969,0.217,0.787c4.153-1.523,7.497-4.37,11.374-6.415c-0.165-0.214-0.33-0.427-0.495-0.641
			c-3.675,3.961-8.541,6.102-13.93,6.254c0.036,0.267,0.072,0.535,0.108,0.802c1.762-0.374,3.493-0.469,5.286-0.476
			c-0.036-0.267-0.072-0.535-0.108-0.802c-1.471,0.49-2.942,0.98-4.413,1.472c0.104,0.249,0.209,0.498,0.314,0.746
			c1.251-0.562,2.528-0.995,3.825-1.431c-0.132-0.228-0.265-0.455-0.397-0.682c-1.858,1.629-3.67,1.771-5.977,1.367
			C121.25,98.527,121.029,99.313,121.547,99.404L121.547,99.404z"/>
	</g>
</g>
<g>
	<g>
		<path fill="#231F20" d="M143.825,69.989c6.938-2.88,14.282-4.835,20.686-8.864c0.314-0.198,0.224-0.812-0.206-0.761
			c-6.78,0.804-15.196,3.31-20.387,7.962c-0.164,0.147-0.152,0.428,0,0.577c5.42,5.303,7.948,12.849,11.211,19.527
			c0.077,0.158,0.297,0.24,0.461,0.188c6.518-2.074,12.812-4.721,19.119-7.353c0.259-0.108,0.363-0.338,0.244-0.6
			c-2.871-6.28-7.369-11.648-9.02-18.464c0.663,2.742,2.9,7.986,4.603,10.276c-2.812-3.784-4.081-8-3.862-12.685
			c0.024-0.526-0.792-0.524-0.816,0c-0.261,5.568,1.677,10.006,4.958,14.421c0.264,0.354,0.877,0.161,0.746-0.314
			c-1.3-4.742-3.85-8.907-5.922-13.333c-0.212-0.452-0.815-0.107-0.746,0.314c0.591,3.595,1.866,6.694,3.598,9.875
			c0.938,1.725,2.002,3.386,3.011,5.07c1.439,2.406,3.387,4.486-0.026,5.911c-4.258,1.778-8.533,3.499-12.883,5.038
			c-2.865,1.014-3.358,0.036-4.472-2.373c-1.043-2.257-2.081-4.513-3.189-6.74c-1.514-3.042-3.285-5.904-5.534-8.453
			c-1.478-1.675,9.893-5.817,10.863-6.145c1.649-0.557,3.336-0.989,5.029-1.385c3.768-0.881-1.701,1.249-2.645,1.69
			c-4.863,2.277-10.08,3.774-15.037,5.833C143.129,69.401,143.339,70.191,143.825,69.989L143.825,69.989z"/>
	</g>
</g>
<g>
	<g>
		<path fill="#231F20" d="M144.589,67.538c6.045,0.876,11.969-2.688,17.372-4.902c0.48-0.197,0.271-0.987-0.217-0.787
			c-5.192,2.127-11.115,5.747-16.938,4.902C144.291,66.676,144.069,67.463,144.589,67.538L144.589,67.538z"/>
	</g>
</g>
<g>
	<g>
		<path fill="#231F20" d="M147.639,66.573c5.206-0.624,9.746-3.286,14.814-4.426c0.514-0.115,0.296-0.903-0.217-0.787
			c-4.992,1.123-9.471,3.783-14.598,4.397C147.123,65.818,147.116,66.636,147.639,66.573L147.639,66.573z"/>
	</g>
</g>
<g>
	<g>
		<path fill="#231F20" d="M144.779,67.635c0.217,4.818,2.534,9.349,4.726,13.546c1.156,2.216,2.435,4.37,3.715,6.516
			c0.662-0.579,0.602-1.174-0.182-1.785c-0.588-1.116-1.112-2.261-1.572-3.437c-0.912,0.106-0.886,0.531,0.078,1.272
			c0.683,0.956,1.211,1.994,1.584,3.115c0.181,0.508,0.857,0.296,0.787-0.217c-0.309-2.258-1.426-3.995-2.493-5.981
			c-0.249-0.464-0.954-0.052-0.705,0.412c0.418,0.791,0.847,1.575,1.287,2.353c-0.065,1.917,0.438,2.614,1.511,2.09
			c-0.549-1.541-1.781-2.944-2.581-4.365c-0.222-0.395-0.922-0.122-0.746,0.314c0.979,2.437,1.981,4.783,3.472,6.961
			c0.294,0.429,0.979,0.045,0.705-0.412c-3.646-6.082-8.44-13.101-8.769-20.383C145.572,67.11,144.756,67.108,144.779,67.635
			L144.779,67.635z"/>
	</g>
</g>
<g>
	<g>
		<path fill="#231F20" d="M146.739,71.066c0.744,6.179,3.683,11.867,6.43,17.364c0.235,0.471,0.939,0.058,0.705-0.412
			c-2.681-5.364-5.592-10.921-6.318-16.952C147.493,70.55,146.677,70.544,146.739,71.066L146.739,71.066z"/>
	</g>
</g>
<g>
	<g>
		<path fill="#231F20" d="M148.33,78.218c0.512,0.508,1.053,0.986,1.588,1.469c0.265,0.239,0.53,0.478,0.794,0.718
			c0.093,0.084,0.185,0.17,0.276,0.256c0.148,0.14,0.117,0.222,0.063-0.004c0.095-0.167,0.189-0.335,0.285-0.502
			c0.25-0.04,0.373,0.09,0.243,0c-0.055-0.037-0.106-0.078-0.159-0.118c-0.187-0.142-0.368-0.29-0.551-0.436
			c-0.407-0.326-0.989,0.249-0.578,0.577c0.313,0.25,0.81,0.836,1.262,0.764c0.226-0.036,0.332-0.305,0.285-0.502
			c-0.042-0.175-0.229-0.314-0.354-0.431c-0.254-0.238-0.514-0.47-0.772-0.703c-0.607-0.548-1.225-1.089-1.805-1.666
			C148.534,77.27,147.956,77.847,148.33,78.218L148.33,78.218z"/>
	</g>
</g>
<g>
	<g>
		<path fill="#231F20" d="M148.211,73.518c0.031,1.895,0.532,3.677,0.995,5.501c0.129,0.51,0.917,0.294,0.787-0.217
			c-0.444-1.753-0.936-3.462-0.966-5.284C149.019,72.992,148.202,72.991,148.211,73.518L148.211,73.518z"/>
	</g>
</g>
<g>
	<g>
		<path fill="#231F20" d="M150.375,71.418c0.795,0.544,1.784,0.122,2.654,0.056c0.519-0.04,0.532-0.816,0-0.816
			c-0.98,0-1.96,0-2.94,0c0.097,0.232,0.192,0.464,0.289,0.697c0.804-0.776,1.72-1.597,2.892-1.662
			c1.157-0.064,1.893,1.207,2.35,2.07c0.049-0.186,0.098-0.373,0.146-0.559c-1.157,0.499-2.479,0.434-3.714,0.435
			c0.097,0.232,0.192,0.464,0.289,0.697c1.043-1.042,2.029-1.728,3.347-2.388c-0.205-0.118-0.409-0.235-0.614-0.353
			c0.383,3.416-2.974,3.199-5.365,2.548c0.1,0.131,0.2,0.262,0.3,0.394c0.042-0.617,1.216-0.419,1.659-0.587
			c0.488-0.184,0.276-0.973-0.217-0.787c-1.136,0.428-2.146-0.267-2.259,1.374c-0.013,0.179,0.134,0.349,0.3,0.394
			c2.915,0.794,6.847,0.666,6.398-3.335c-0.035-0.313-0.318-0.501-0.614-0.353c-1.39,0.696-2.414,1.417-3.513,2.516
			c-0.251,0.251-0.067,0.697,0.289,0.697c1.404-0.001,2.816,0.018,4.126-0.546c0.21-0.091,0.24-0.381,0.146-0.559
			c-0.57-1.076-1.445-2.374-2.799-2.458c-1.499-0.094-2.706,0.902-3.726,1.885c-0.258,0.249-0.062,0.697,0.289,0.697
			c0.98,0,1.96,0,2.94,0c0-0.272,0-0.544,0-0.816c-0.683,0.052-1.626,0.478-2.242,0.056
			C150.352,70.415,149.943,71.123,150.375,71.418L150.375,71.418z"/>
	</g>
</g>
<g>
	<g>
		<path fill="#231F20" d="M159.484,66.165c0.002,1.82,0.062,3.518,1.038,5.107c0.122,0.199,0.356,0.248,0.559,0.146
			c1.783-0.894,3.121-1.775,4.066-3.578c0.121-0.232,0.02-0.528-0.244-0.6c-1.353-0.37-2.928-0.776-4.267-0.158
			c-1.191,0.55-0.949,2.118-0.648,3.111c0.249-0.104,0.497-0.209,0.746-0.314c-0.453-0.841-1.015-1.611-1.47-2.451
			c-0.238-0.44-0.81-0.112-0.746,0.314c0.135,0.919,0.929,1.46,1.755,1.756c0.072-0.262,0.145-0.525,0.217-0.787
			c-0.815-0.131-1.679-0.824-2.269-1.366c0.021,0.165,0.042,0.33,0.063,0.495c1.416-2.184,3.594-2.562,5.813-1.323
			c0.46,0.257,0.872-0.448,0.412-0.705c-2.635-1.471-5.27-0.945-6.931,1.616c-0.096,0.148-0.066,0.375,0.063,0.495
			c0.705,0.647,1.661,1.42,2.63,1.576c0.516,0.083,0.719-0.607,0.217-0.787c-0.562-0.202-1.091-0.553-1.185-1.186
			c-0.249,0.104-0.497,0.209-0.746,0.314c0.455,0.84,1.017,1.61,1.47,2.451c0.22,0.409,0.88,0.128,0.746-0.314
			c-0.263-0.869-0.504-1.951,0.579-2.306c1.032-0.339,2.335,0.084,3.332,0.357c-0.081-0.2-0.163-0.4-0.244-0.6
			c-0.879,1.677-2.129,2.46-3.773,3.285c0.187,0.049,0.372,0.098,0.559,0.146c-0.898-1.465-0.925-3.027-0.927-4.695
			C160.3,65.639,159.483,65.639,159.484,66.165L159.484,66.165z"/>
	</g>
</g>
<g>
	<g>
		<path fill="#231F20" d="M155.59,79.794c0.863-0.146,1.869-0.472,2.747-0.293c0.945,0.191,1.051,1.721,1.162,2.458
			c0.095-0.167,0.19-0.334,0.285-0.502c-0.699,0.122-1.442,0.404-2.153,0.424c-0.613,0.017-1.435-0.957-1.86-1.299
			c0,0.192,0,0.385,0,0.577c0.463-0.478,0.876-1.007,1.293-1.524c0.288-0.358,0.672-0.739,0.851-1.168
			c0.08-0.191-0.085-0.468-0.285-0.502c-0.318-0.054-0.957,0.337-0.921,0.712c0.067,0.714,0.979,0.644,1.426,1.012
			c0.403,0.333,0.984-0.242,0.578-0.577c-0.235-0.194-0.479-0.315-0.761-0.428c-0.159-0.064-0.325-0.109-0.482-0.179
			c0.368,0.164,0.055,0.357,0.332,0.141c-0.132,0.035-0.265,0.07-0.396,0.105c0.002,0,0.005,0.001,0.008,0.001
			c-0.096-0.167-0.19-0.335-0.285-0.502c-0.099,0.237-0.626,0.791-0.868,1.088c-0.343,0.423-0.687,0.853-1.066,1.244
			c-0.142,0.146-0.175,0.436,0,0.577c0.628,0.504,1.344,1.311,2.161,1.507c0.799,0.192,1.873-0.287,2.647-0.422
			c0.237-0.041,0.315-0.3,0.285-0.502c-0.154-1.028-0.354-2.427-1.422-2.92c-1.029-0.475-2.446,0.007-3.491,0.185
			C154.854,79.095,155.075,79.882,155.59,79.794L155.59,79.794z"/>
	</g>
</g>
<g>
	<g>
		<path fill="#231F20" d="M163.434,76.853c2.212-0.445,4.18-0.804,5.976,0.875c0.028-0.213,0.056-0.427,0.083-0.641
			c-0.977,0.636-2.019,1.318-3.219,1.359c-1.135,0.039-2.008-0.999-2.659-1.786c0,0.192,0,0.385,0,0.577
			c1.803-1.414,3.417-2.275,5.303-0.489c0-0.192,0-0.385,0-0.577c-0.36,0.302-0.871,0.464-1.302,0.628
			c-0.228,0.086-0.459,0.159-0.691,0.23c-0.129,0.039-0.259,0.073-0.39,0.103c-0.326,0-0.298,0.172,0.084,0.514
			c0.318-0.42-0.392-0.826-0.705-0.412c-0.074,0.098-0.109,0.189-0.104,0.314c0.008,0.133,0.07,0.294,0.202,0.353
			c0.897,0.397,2.798-0.579,3.483-1.152c0.167-0.14,0.15-0.434,0-0.577c-0.835-0.791-1.717-1.384-2.901-1.361
			c-1.341,0.026-2.564,1.071-3.558,1.85c-0.187,0.146-0.128,0.422,0,0.577c0.751,0.906,1.72,1.93,2.981,2.009
			c1.443,0.091,2.721-0.694,3.887-1.454c0.213-0.139,0.283-0.454,0.083-0.641c-2.022-1.89-4.243-1.594-6.771-1.085
			C162.701,76.17,162.92,76.957,163.434,76.853L163.434,76.853z"/>
	</g>
</g>
<g>
	<g>
		<path fill="#231F20" d="M174.191,136.757c0,0.491,0,0.981,0,1.472c0,0.526,0.816,0.526,0.816,0c0-0.491,0-0.981,0-1.472
			C175.008,136.231,174.191,136.231,174.191,136.757L174.191,136.757z"/>
	</g>
</g>
<g>
	<g>
		<path fill="#231F20" d="M153.928,131.365c0-0.817,0-1.634,0-2.452c-0.232,0.096-0.465,0.192-0.697,0.289
			c0.389,0.376,0.79,0.679,1.291,0.881c0.115,0.046,0.017-0.093,0.036,0.072c0.049,0.397,0.023,0.811,0.023,1.21
			c0.136-0.136,0.272-0.272,0.408-0.408c-0.472-0.005-0.923,0.053-1.192-0.373c-0.273-0.432-0.635-0.751-1.052-1.043
			c-0.068,0.253-0.138,0.507-0.206,0.761c0.176,0,0.352,0.009,0.526,0.021c0.15,0.01,0.3,0.027,0.448,0.054
			c0.066,0.012,0.132,0.028,0.196,0.047c0.149,0.074,0.154-0.035,0.012-0.328c0.228,0.132,0.455,0.265,0.683,0.397
			c0.163-0.49,0.327-0.98,0.49-1.471c-0.263-0.072-0.524-0.145-0.787-0.217c-0.062,0.377-0.122,0.756-0.182,1.134
			c-0.015,0.096-0.03,0.193-0.047,0.289c-0.036,0.208-0.063,0.027,0.138-0.083c0.165,0.021,0.33,0.042,0.495,0.064
			c0.148,0.119,0.073,0.116,0.019-0.063c-0.038-0.126-0.091-0.247-0.143-0.368c-0.133-0.308-0.372-0.562-0.662-0.726
			c0.049,0.186,0.098,0.373,0.146,0.559c0.048-0.08,0.069-0.019,0.2,0.116c0.114,0.117,0.203,0.256,0.293,0.392
			c0.1,0.151,0.189,0.311,0.271,0.472c0.187-0.186,0.372-0.373,0.559-0.559c-0.289-0.136-0.575-0.246-0.889-0.309
			c-0.421-0.083-0.682-0.311-0.988-0.607c-0.028,0.213-0.056,0.427-0.083,0.641c0.473-0.298,0.526-0.367,0.819,0.045
			c0.232,0.326,0.54,0.474,0.935,0.5c0-0.272,0-0.544,0-0.816c-0.503-0.033-0.473-0.465-0.199-0.774
			c-0.212,0.24-0.507-0.268-0.486-0.053c0.013,0.13,0.006,0.263,0.001,0.394c-0.019,0.534-0.097,1.068-0.179,1.596
			c-0.006,0.037-0.012,0.073-0.018,0.11c-0.053,0.328,0.51,0.006,0.34-0.094c-0.16-0.094-0.293-0.284-0.411-0.423
			c-0.158-0.186-0.301-0.385-0.439-0.585c-0.064-0.093-0.125-0.188-0.184-0.283c-0.064-0.104-0.073-0.25-0.055-0.02
			c-0.067,0.118-0.135,0.235-0.202,0.353c-0.424-0.134-0.563-0.139-0.417-0.013c0.125,0.118,0.253,0.116,0.42,0.141
			c0.299,0.044,0.595,0.104,0.887,0.182c0.073,0.02,0.145,0.044,0.214,0.073c0.153,0.069-0.021-0.035,0.039-0.163
			c-0.045,0.096-0.143,0.173-0.216,0.246c-0.485,0.485-0.938,0.959-0.973,1.682c-0.025,0.526,0.791,0.524,0.816,0
			c0.039-0.802,1.103-1.054,1.169-1.819c0.082-0.928-1.544-0.876-2.03-1.081c-0.086-0.036-0.241-0.015-0.314,0.041
			c-0.641,0.487,0.57,1.683,0.906,2.046c0.266,0.288,0.593,0.546,0.991,0.37c0.31-0.137,0.27-0.578,0.311-0.858
			c0.072-0.498,0.58-2.612-0.381-2.593c-0.554,0.011-0.8,0.828-0.808,1.263c-0.012,0.696,0.609,1.038,1.218,1.077
			c0.526,0.034,0.522-0.781,0-0.816c-0.347-0.023-0.44-0.525-0.722-0.694c-0.49-0.294-1.014-0.011-1.444,0.261
			c-0.219,0.138-0.277,0.453-0.083,0.641c0.288,0.278,0.593,0.573,0.974,0.716c0.355,0.133,0.721,0.164,1.069,0.328
			c0.371,0.174,0.75-0.179,0.559-0.559c-0.368-0.728-1.444-2.212-2.175-0.98c-0.112,0.189-0.046,0.45,0.146,0.559
			c0.431,0.243,0.293,0.768,0.621,1.03c0.148,0.119,0.319,0.16,0.494,0.064c0.441-0.241,0.401-1.441,0.466-1.829
			c0.085-0.513-0.618-0.724-0.787-0.217c-0.163,0.49-0.327,0.98-0.49,1.471c-0.125,0.375,0.421,0.714,0.683,0.397
			c0.866-1.053-1.171-1.186-1.761-1.188c-0.431-0.001-0.525,0.538-0.206,0.761c0.473,0.33,0.676,0.759,1.06,1.152
			c0.389,0.398,1.092,0.37,1.597,0.375c0.223,0.002,0.408-0.188,0.408-0.408c0-0.493,0.157-1.423-0.242-1.829
			c-0.134-0.135-0.301-0.194-0.473-0.264c-0.339-0.137-0.617-0.398-0.874-0.648c-0.255-0.247-0.697-0.072-0.697,0.289
			c0,0.817,0,1.634,0,2.452C153.111,131.891,153.928,131.891,153.928,131.365L153.928,131.365z"/>
	</g>
</g>
<g>
	<g>
		<path fill="#231F20" d="M130.341,13.015c-2.55-4.231,0.722-7.418,2.942-10.863c0.286-0.444-0.421-0.853-0.705-0.412
			c-2.451,3.804-5.672,7.158-2.942,11.688C129.907,13.877,130.613,13.467,130.341,13.015L130.341,13.015z"/>
	</g>
</g>
<g>
	<g>
		<path fill="#231F20" d="M132.358,10.279c0.065-3.212,1.268-6.38,4.21-7.981c0.462-0.252,0.05-0.957-0.412-0.705
			c-3.19,1.736-4.543,5.192-4.614,8.686C131.531,10.806,132.347,10.805,132.358,10.279L132.358,10.279z"/>
	</g>
</g>
<g>
	<g>
		<path fill="#231F20" d="M134.808,9.299c0.058-2.417,1.558-4.126,3.72-5.04c0.483-0.205,0.067-0.907-0.412-0.705
			c-2.432,1.027-4.06,3.059-4.125,5.745C133.979,9.826,134.795,9.824,134.808,9.299L134.808,9.299z"/>
	</g>
</g>
<g>
	<g>
		<path fill="#231F20" d="M176.268,38.424c-1.523,1.446-3.375,2.476-4.9,3.922c0.214,0.165,0.428,0.33,0.642,0.495
			c1.577-2.575,3.482-4.861,5.818-6.78c-0.228-0.132-0.455-0.265-0.683-0.397c-1.102,3.402-4.348,5.397-6.331,8.236
			c-0.303,0.433,0.406,0.84,0.705,0.412c2.045-2.926,5.272-4.91,6.413-8.431c0.137-0.423-0.392-0.636-0.683-0.397
			c-2.389,1.963-4.334,4.314-5.945,6.945c-0.248,0.404,0.31,0.809,0.642,0.495c1.523-1.446,3.376-2.475,4.9-3.922
			C177.228,38.639,176.649,38.062,176.268,38.424L176.268,38.424z"/>
	</g>
</g>
<g>
	<g>
		<path fill="#231F20" d="M125.86,25.831c4.815,2.455,9.465,5.209,14.462,7.29c6.526,2.717,13.604,3.84,20.047,6.81
			c5.536,2.552,0.708,1.067-2.041,0.259c-3.718-1.094-7.271-2.708-10.684-4.526c0.027,0.201,0.056,0.402,0.083,0.603
			c1.59,0.6,3.152,1.263,4.687,1.991c1.561,0.714,3.08,1.521,4.603,2.31c3.17,1.644,6.309,3.332,9.531,4.873
			c0.473,0.226,0.887-0.478,0.412-0.705c-6.902-3.301-13.449-7.289-20.688-9.846c-0.444-0.157-0.708,0.52-0.314,0.746
			c5.816,3.351,12.108,5.735,18.727,6.904c0.46,0.082,0.702-0.475,0.314-0.746c-5.501-3.839-11.814-5.335-18.122-7.342
			c-7.344-2.336-13.775-5.841-20.605-9.324C125.804,24.887,125.391,25.592,125.86,25.831L125.86,25.831z"/>
	</g>
</g>
<g>
	<g>
		<path fill="#231F20" d="M112.339,36.67c8.152,0.967,16.013,1.593,23.596,5.011c6.141,2.768,11.303,7.099,17.965,8.701
			c0.512,0.123,0.729-0.664,0.217-0.787c-7.136-1.716-12.512-6.65-19.224-9.271c-7.387-2.885-14.754-3.545-22.554-4.47
			C111.817,35.792,111.823,36.609,112.339,36.67L112.339,36.67z"/>
	</g>
</g>
<g>
	<g>
		<path fill="#231F20" d="M114.3,33.24c9.492-0.027,18.207,0.06,26.818,4.623c6.056,3.208,10.817,8.003,17.682,9.579
			c0.513,0.118,0.73-0.669,0.217-0.787c-8.045-1.847-14.185-8.051-21.567-11.471c-7.144-3.309-15.498-2.782-23.149-2.759
			C113.774,32.425,113.773,33.241,114.3,33.24L114.3,33.24z"/>
	</g>
</g>
<g>
	<g>
		<path fill="#231F20" d="M106.946,50.888c10.652,0.154,20.411,3.113,30.287,6.848c0.493,0.187,0.705-0.603,0.217-0.787
			c-9.95-3.763-19.792-6.722-30.503-6.877C106.419,50.063,106.42,50.88,106.946,50.888L106.946,50.888z"/>
	</g>
</g>
<g>
	<g>
		<path fill="#231F20" d="M108.308,47.931c9.371,1.612,18.299,4.876,27.454,7.354c0.509,0.138,0.725-0.65,0.217-0.787
			c-9.154-2.478-18.083-5.742-27.454-7.354C108.01,47.055,107.79,47.842,108.308,47.931L108.308,47.931z"/>
	</g>
</g>
<g>
	<g>
		<path fill="#231F20" d="M110.869,53.338c6.663,0.408,13.361,0.064,19.99,0.966c0.515,0.07,0.737-0.716,0.217-0.787
			c-6.703-0.912-13.469-0.582-20.207-0.995C110.342,52.489,110.346,53.306,110.869,53.338L110.869,53.338z"/>
	</g>
</g>
<g>
	<g>
		<path fill="#231F20" d="M101.063,56.28c8.982,0.496,17.965,0.945,26.963,0.98c0.527,0.002,0.526-0.814,0-0.816
			c-8.998-0.035-17.98-0.484-26.963-0.98C100.537,55.434,100.54,56.251,101.063,56.28L101.063,56.28z"/>
	</g>
</g>
<g>
	<g>
		<path fill="#231F20" d="M105.475,63.143c3.595,0,7.19,0,10.786,0c0.526,0,0.526-0.816,0-0.816c-3.595,0-7.19,0-10.786,0
			C104.949,62.326,104.949,63.143,105.475,63.143L105.475,63.143z"/>
	</g>
</g>
<g>
	<g>
		<path fill="#231F20" d="M186.746,68.821c1.994,4.411,3.102,9.114,3.881,13.875c0.085,0.519,0.871,0.298,0.787-0.217
			c-0.792-4.836-1.938-9.591-3.963-14.07C187.234,67.93,186.531,68.345,186.746,68.821L186.746,68.821z"/>
	</g>
</g>
<g>
	<g>
		<path fill="#231F20" d="M113.213,265.343c1.771,0.525,3.417,0.742,5.256,0.751c0-0.272,0-0.544,0-0.816
			c-2.877,0.059-5.431,0.762-8.197,1.485c-0.441,0.115-0.357,0.826,0.108,0.802c1.979-0.102,3.903-0.635,5.882-0.736
			c0.464-0.023,0.551-0.656,0.108-0.802c-2.209-0.729-3.827-0.451-6.099,0c-0.461,0.092-0.343,0.802,0.108,0.802
			c1.716,0,3.431,0,5.147,0c0.542,0,0.507-0.753,0-0.816c-0.421-0.227-0.843-0.452-1.265-0.679
			c-0.375-0.273-0.848,0.344-0.495,0.642c0.927,0.779,1.911,1.383,3.122,1.575c0.036-0.268,0.072-0.534,0.108-0.802
			c-0.49,0-0.981,0-1.471,0c0.069,0.254,0.137,0.507,0.206,0.761c0.693-0.334,1.352-0.582,2.108-0.695
			c0.465-0.069,0.339-0.802-0.108-0.802c-1.132,0-2.263,0-3.395,0c-0.526,0-0.526,0.816,0,0.816c0.641,0,1.283,0,1.924,0
			c0.526,0,0.526-0.814,0-0.816c-1.75-0.006-3.404-0.035-5.039-0.72c0.033,0.249,0.065,0.497,0.098,0.746
			c2.542-1.718,5.013-3.485,7.991-4.372c0.508-0.151,0.296-0.896-0.217-0.787c-1.454,0.307-2.767,1.34-3.856,2.311
			c-0.364,0.324,0.099,0.84,0.495,0.642c1.471-0.734,2.941-1.471,4.412-2.206c-0.165-0.214-0.33-0.428-0.495-0.642
			c-1.316,1.214-2.745,2.079-4.33,2.878c-0.471,0.237-0.057,0.939,0.412,0.705c0.98-0.49,1.961-0.979,2.941-1.47
			c0.447-0.224,0.108-0.812-0.314-0.746c-1.54,0.242-2.873,1.228-4.412,1.47c0.072,0.263,0.145,0.524,0.217,0.787
			c2.369-0.795,4.587-1.659,6.715-2.982c-0.2-0.153-0.4-0.308-0.6-0.461c-0.669,1.904-1.455,3.48-2.836,4.967
			c-0.358,0.386,0.217,0.963,0.577,0.578c1.481-1.582,2.72-3.317,3.741-5.23c0.255-0.478-0.393-0.819-0.705-0.412
			c-1.002,1.308-1.514,2.931-2.207,4.413c-0.168,0.359,0.18,0.771,0.559,0.559c1.66-0.929,2.921-1.964,4.942-2.151
			c-0.036-0.268-0.072-0.534-0.108-0.802c-1.366,0.431-2.359,2.04-3.185,3.129c0.249,0.104,0.498,0.21,0.746,0.314
			c0.043-0.794,0.438-1.435,1.186-1.921c-0.153-0.2-0.307-0.399-0.461-0.6c-0.783,1.357-1.782,2.489-2.878,3.593
			c-0.313,0.315,0.016,0.739,0.397,0.683c0.818-0.122,1.562-0.418,2.304-0.774c-0.205-0.117-0.41-0.235-0.614-0.353
			c-0.109,0.108-0.218,0.217-0.327,0.325c0.096,0.232,0.192,0.465,0.289,0.697c1.379-1.384,2.752-2.798,3.739-4.494
			c0.229-0.395-0.326-0.846-0.641-0.495c-1.049,1.171-1.891,2.508-2.94,3.678c-0.35,0.39,0.202,0.953,0.577,0.578
			c0.735-0.736,1.471-1.472,2.206-2.207c-0.228-0.061-0.455-0.12-0.682-0.181c0.335,1.676-1.157,1.849-2.019,2.479
			c-0.354,0.26-0.159,0.885,0.314,0.746c1.117-0.327,1.698-1.27,2.94-1.47c-0.072-0.263-0.145-0.524-0.217-0.787
			c-1.617,0.339-3.07,1.485-4.509,2.246c0.205,0.117,0.41,0.235,0.614,0.353c0-0.735,0-1.47,0-2.205
			c0-0.385-0.432-0.502-0.697-0.289c-0.956,0.77-2.786,1.833-3.141,3.072c-0.048,0.169,0.028,0.378,0.188,0.461
			c0.032,0.017,0.063,0.033,0.095,0.05c0.175,0.091,0.347,0.06,0.495-0.063c1.316-1.103,3.153-1.924,4.86-2.086
			c0.458-0.044,0.557-0.646,0.108-0.802c-0.762-0.267-2.059-0.829-2.895-0.353c-0.812,0.462-1.057,1.348-1.833,1.862
			c-0.437,0.29-0.028,0.997,0.412,0.705c1.441-0.956,1.854-2.212,4.099-1.428c0.036-0.268,0.072-0.534,0.108-0.802
			c-1.811,0.172-3.536,0.985-5.033,1.991c-0.252,0.159-0.082,0.241,0.512,0.247c0.32-0.352,0.694-0.661,1.048-0.977
			c0.504-0.448,1.028-0.878,1.554-1.301c-0.232-0.097-0.464-0.192-0.697-0.289c0,0.735,0,1.47,0,2.205
			c0,0.319,0.344,0.495,0.614,0.353c1.363-0.721,2.796-1.846,4.314-2.164c0.522-0.109,0.292-0.869-0.217-0.787
			c-1.224,0.196-1.816,1.14-2.94,1.47c0.104,0.249,0.209,0.497,0.314,0.746c1.507-1.104,2.83-1.224,2.394-3.401
			c-0.062-0.308-0.477-0.386-0.682-0.181c-0.735,0.736-1.471,1.472-2.206,2.207c0.192,0.192,0.385,0.386,0.577,0.578
			c1.05-1.171,1.891-2.508,2.94-3.678c-0.214-0.165-0.427-0.33-0.641-0.495c-0.952,1.636-2.283,2.996-3.611,4.328
			c-0.242,0.242-0.075,0.717,0.289,0.697c0.886-0.047,1.096-0.256,1.143-1.142c0.018-0.332-0.354-0.478-0.614-0.353
			c-0.694,0.333-1.353,0.579-2.108,0.692c0.132,0.228,0.265,0.455,0.397,0.683c1.153-1.161,2.187-2.339,3.006-3.759
			c0.168-0.291-0.112-0.728-0.461-0.6c-1.094,0.398-1.576,1.372-1.756,2.491c-0.076,0.47,0.462,0.688,0.746,0.314
			c0.656-0.864,1.618-2.413,2.697-2.754c0.421-0.133,0.368-0.846-0.108-0.802c-2.101,0.194-3.548,1.252-5.354,2.263
			c0.186,0.187,0.373,0.372,0.559,0.559c0.693-1.482,1.205-3.105,2.207-4.413c-0.235-0.138-0.47-0.274-0.705-0.412
			c-0.989,1.852-2.176,3.528-3.613,5.064c0.192,0.192,0.385,0.386,0.577,0.578c1.469-1.582,2.334-3.303,3.046-5.328
			c0.12-0.341-0.307-0.643-0.6-0.461c-2.055,1.277-4.236,2.134-6.52,2.9c-0.508,0.171-0.296,0.868,0.217,0.787
			c1.54-0.242,2.873-1.228,4.412-1.47c-0.104-0.249-0.209-0.497-0.314-0.746c-0.98,0.49-1.961,0.979-2.941,1.47
			c0.137,0.235,0.275,0.47,0.412,0.705c1.666-0.84,3.123-1.74,4.495-3.005c0.357-0.329-0.096-0.841-0.495-0.642
			c-1.471,0.735-2.941,1.472-4.412,2.206c0.165,0.214,0.33,0.428,0.495,0.642c0.966-0.861,2.197-1.827,3.496-2.102
			c-0.072-0.263-0.145-0.524-0.217-0.787c-3.041,0.905-5.583,2.695-8.186,4.454c-0.314,0.213-0.229,0.609,0.098,0.746
			c1.726,0.723,3.404,0.743,5.255,0.749c0-0.272,0-0.544,0-0.816c-0.641,0-1.283,0-1.924,0c-0.526,0-0.526,0.816,0,0.816
			c1.132,0,2.263,0,3.395,0c-0.036-0.268-0.072-0.534-0.108-0.802c-0.818,0.122-1.562,0.42-2.304,0.777
			c-0.377,0.182-0.181,0.761,0.206,0.761c0.49,0,0.981,0,1.471,0c0.448,0,0.573-0.728,0.108-0.802
			c-1.073-0.171-1.933-0.669-2.762-1.366c-0.165,0.214-0.33,0.428-0.495,0.642c0.584,0.427,0.963,0.701,1.677,0.79
			c0-0.272,0-0.544,0-0.816c-1.716,0-3.431,0-5.147,0c0.036,0.268,0.072,0.534,0.108,0.802c2.085-0.414,3.641-0.667,5.665,0
			c0.036-0.268,0.072-0.534,0.108-0.802c-1.979,0.102-3.903,0.635-5.882,0.736c0.036,0.268,0.072,0.534,0.108,0.802
			c2.682-0.701,5.178-1.398,7.98-1.456c0.526-0.011,0.527-0.814,0-0.816c-1.745-0.008-3.366-0.226-5.04-0.722
			C112.924,264.405,112.709,265.193,113.213,265.343L113.213,265.343z"/>
	</g>
</g>
<g>
	<g>
		<path fill="#231F20" d="M115.91,261.802c-0.614,1.29-0.789,2.464-0.791,3.884c0.136-0.136,0.272-0.272,0.408-0.408
			c-0.998,0.007-1.733,0.197-2.495,0.854c-0.354,0.306,0.105,0.886,0.495,0.642c1.846-1.16,3.945-1.316,5.883-2.206
			c0.478-0.22,0.063-0.923-0.412-0.705c-1.939,0.891-4.032,1.043-5.883,2.206c0.165,0.214,0.33,0.428,0.495,0.642
			c0.625-0.54,1.156-0.61,1.918-0.615c0.223-0.002,0.408-0.185,0.408-0.408c0.002-1.263,0.129-2.315,0.679-3.472
			C116.84,261.741,116.136,261.326,115.91,261.802L115.91,261.802z"/>
	</g>
</g>
<g>
	<g>
		<path fill="#231F20" d="M120.469,266.038c0.95,0.443,2.06,0.714,2.859,1.407c0.096-0.232,0.192-0.465,0.289-0.697
			c-1.016,0.116-1.929,0.618-2.941,0.733c0.131,0.172,0.263,0.345,0.394,0.517c0.222-1.514,2.552-0.87,2.941-2.204
			c0.104-0.357-0.292-0.624-0.6-0.461c-1.139,0.604-2.14,1.318-3.47,1.415c0.096,0.232,0.192,0.465,0.289,0.697
			c1.451-1.391,3.08-2.189,4.966-2.838c-0.172-0.131-0.344-0.263-0.517-0.394c-0.173,1.405-1.896,1.587-2.189,2.834
			c-0.262,1.113,1.162,1.24,1.863,1.25c0-0.272,0-0.544,0-0.816c-1.226,0-2.452,0-3.677,0c0.096,0.232,0.192,0.465,0.289,0.697
			c0.769-0.765,1.564-1.584,2.488-2.159c-0.126-0.173-0.252-0.346-0.377-0.519c-0.261,0.131-0.521,0.261-0.783,0.391
			c-0.607,0.304-1.215,0.607-1.822,0.911c-0.98,0.489-1.96,0.979-2.941,1.47c0.165,0.214,0.33,0.428,0.495,0.642
			c1.276-1.141,2.817-1.46,4.33-2.142c0.314-0.142,0.238-0.687-0.098-0.746c-0.873-0.155-2.389-0.878-3.293-0.652
			c-0.885,0.221-1.664,1.627-2.251,2.227c-0.201,0.205-0.125,0.484,0.083,0.642c1.46,1.107,2.946,1.857,4.805,1.561
			c1.78-0.285,3.303-1.899,4.514-3.094c0.375-0.371-0.202-0.947-0.577-0.578c-1.117,1.102-2.262,2.226-3.76,2.779
			c-1.671,0.617-3.29-0.403-4.569-1.373c0.027,0.214,0.055,0.428,0.083,0.642c0.594-0.607,1.126-1.475,1.802-1.989
			c0.326-0.248,2.577,0.559,2.948,0.624c-0.033-0.249-0.065-0.497-0.098-0.746c-1.617,0.729-3.14,1.058-4.495,2.269
			c-0.363,0.325,0.098,0.84,0.495,0.642c1.96-0.98,3.921-1.96,5.882-2.939c0.16-0.08,0.236-0.295,0.188-0.461
			c-0.425-1.456-3.228,1.63-3.624,2.023c-0.253,0.252-0.067,0.697,0.289,0.697c1.226,0,2.452,0,3.677,0c0.527,0,0.526-0.81,0-0.816
			c-1.783-0.024,0.003-1.28,0.452-1.726c0.436-0.433,0.618-0.948,0.691-1.542c0.032-0.258-0.286-0.474-0.517-0.394
			c-2.008,0.69-3.782,1.567-5.327,3.047c-0.246,0.236-0.071,0.724,0.289,0.697c1.5-0.109,2.578-0.834,3.882-1.526
			c-0.2-0.153-0.4-0.308-0.6-0.461c-0.107,0.366-1.521,0.672-1.896,0.848c-0.574,0.269-0.955,0.736-1.045,1.356
			c-0.034,0.232,0.102,0.55,0.394,0.517c1.016-0.116,1.929-0.617,2.941-0.733c0.317-0.036,0.588-0.438,0.289-0.697
			c-0.882-0.765-1.977-1.046-3.024-1.534C120.407,265.112,119.992,265.815,120.469,266.038L120.469,266.038z"/>
	</g>
</g>
<g>
	<g>
		<path fill="#231F20" d="M117.528,260.92c-3.049,1.481-5.906,2.563-6.806,6.128c-0.083,0.327,0.2,0.548,0.502,0.502
			c1.167-0.177,2.983,0.041,4.073-0.55c1.253-0.679,2.029-2.182,2.79-3.315c0.207-0.309-0.132-0.686-0.461-0.6
			c-2.973,0.776-4.907,2.078-6.798,4.516c-0.256,0.33-0.023,0.75,0.397,0.683c1.089-0.175,2.543-0.139,3.499-0.775
			c0.899-0.6,1.378-2.209,1.893-3.088c0.172-0.295-0.058-0.575-0.353-0.614c-4.137-0.553-6.829,1.416-7.746,5.447
			c-0.063,0.278,0.125,0.488,0.394,0.517c5.514,0.574,9.246-3.336,12.117-7.556c0.229-0.336-0.224-0.784-0.559-0.559
			c-2.185,1.47-4.292,3.046-6.3,4.75c-1.063,0.902-2.057,1.88-2.97,2.934c-0.581,0.671-2.168-0.639-2.818-1.066
			c-0.105,0.249-0.21,0.497-0.314,0.746c3.103,1.093,4.025-0.606,6.833-1.469c0.502-0.154,0.288-0.942-0.217-0.787
			c-2.478,0.76-3.584,2.46-6.4,1.469c-0.456-0.161-0.684,0.503-0.314,0.746c0.925,0.608,1.934,1.307,3.039,1.514
			c0.133,0.025,0.305,0.013,0.397-0.104c2.562-3.239,6.076-5.738,9.477-8.026c-0.186-0.187-0.373-0.372-0.559-0.559
			c-2.711,3.984-6.183,7.696-11.412,7.151c0.131,0.172,0.263,0.345,0.394,0.517c0.839-3.688,3.201-5.35,6.959-4.848
			c-0.118-0.205-0.235-0.409-0.353-0.614c-0.512,0.875-0.909,1.922-1.538,2.722c-0.55,0.7-2.6,0.644-3.365,0.767
			c0.132,0.228,0.265,0.455,0.397,0.683c1.785-2.301,3.617-3.57,6.438-4.307c-0.153-0.2-0.307-0.399-0.461-0.6
			c-0.722,1.075-1.511,2.797-2.88,3.13c-1.107,0.27-2.358,0.188-3.494,0.36c0.167,0.167,0.334,0.335,0.502,0.502
			c0.844-3.344,3.638-4.283,6.431-5.64C118.414,261.395,118,260.69,117.528,260.92L117.528,260.92z"/>
	</g>
</g>
<g>
	<g>
		<path fill="#231F20" d="M117.381,269.155c-0.417,0.639-1.23,2.11-0.276,2.67c0.724,0.424,1.458-0.216,2.008-0.647
			c1.093-0.855,1.988-1.86,2.65-3.082c-0.253-0.068-0.507-0.138-0.761-0.206c-0.06,0.697-0.375,1.381-0.681,2.002
			c-0.164,0.334,0.101,0.667,0.461,0.6c0.971-0.181,1.028-1.011,1.036-1.866c0.004-0.399-0.566-0.566-0.761-0.206
			c-0.74,1.37-1.786,2.5-2.878,3.595c-0.373,0.374,0.201,0.946,0.577,0.578c1.865-1.824,4.018-3.324,5.883-5.146
			c-0.228-0.133-0.455-0.266-0.682-0.397c-0.325,1.445-0.905,2.569-2.173,3.377c-0.894,0.569-1.893,0.952-2.787,1.525
			c-0.441,0.283-0.033,0.99,0.412,0.705c1.068-0.685,2.314-1.107,3.318-1.889c1.148-0.895,1.703-2.104,2.018-3.502
			c0.088-0.394-0.381-0.691-0.682-0.397c-1.865,1.823-4.019,3.323-5.883,5.146c0.192,0.192,0.385,0.386,0.577,0.578
			c1.14-1.144,2.234-2.332,3.006-3.761c-0.253-0.068-0.507-0.138-0.761-0.206c0.058,0.418-0.087,0.777-0.437,1.079
			c0.153,0.2,0.307,0.399,0.461,0.6c0.374-0.761,0.719-1.563,0.792-2.414c0.035-0.41-0.574-0.55-0.761-0.206
			c-0.754,1.393-1.821,2.497-3.164,3.333c-0.659,0.409-0.109-0.929-0.105-0.938c0.087-0.177,0.189-0.348,0.296-0.512
			C118.375,269.125,117.668,268.716,117.381,269.155L117.381,269.155z"/>
	</g>
</g>
<g>
	<g>
		<path fill="#231F20" d="M125.471,264.743c-0.561,1.093-1.278,1.995-2.143,2.857c-0.373,0.373,0.204,0.95,0.577,0.578
			c0.913-0.911,1.68-1.871,2.271-3.023C126.416,264.688,125.711,264.274,125.471,264.743L125.471,264.743z"/>
	</g>
</g>
</svg>
