<?xml version="1.0" encoding="utf-8"?>
<!-- Generator: Adobe Illustrator 16.0.0, SVG Export Plug-In . SVG Version: 6.00 Build 0)  -->
<!DOCTYPE svg PUBLIC "-//W3C//DTD SVG 1.1//EN" "http://www.w3.org/Graphics/SVG/1.1/DTD/svg11.dtd">
<svg version="1.1" id="Layer_1" xmlns="http://www.w3.org/2000/svg" xmlns:xlink="http://www.w3.org/1999/xlink" x="0px" y="0px"
	 width="275px" height="275px" viewBox="0 0 275 275" enable-background="new 0 0 275 275" xml:space="preserve">
<g>
	<g>
		<path fill="#231F20" d="M11.277,14.304c-0.724,5.763-0.12,11.759,2.529,16.986c0.56,1.106,2.218,0.133,1.659-0.97
			c-2.496-4.928-2.946-10.6-2.266-16.016C13.354,13.076,11.43,13.091,11.277,14.304L11.277,14.304z"/>
	</g>
</g>
<g>
	<g>
		<path fill="#231F20" d="M11.983,14.13c10.811,1.81,21.364-5.005,31.962-1.1c1.166,0.429,1.664-1.429,0.511-1.854
			c-10.75-3.961-21.112,2.917-31.962,1.1C11.282,12.074,10.762,13.925,11.983,14.13L11.983,14.13z"/>
	</g>
</g>
<g>
	<g>
		<path fill="#231F20" d="M42.475,12.358c0.683,4.994,0.683,9.896,0,14.89c-0.166,1.211,1.686,1.734,1.854,0.511
			c0.732-5.356,0.732-10.555,0-15.912C44.161,10.624,42.31,11.147,42.475,12.358L42.475,12.358z"/>
	</g>
</g>
<g>
	<g>
		<path fill="#231F20" d="M15.978,31.731c8.396,2.057,17.036,1.283,25.282-1.1c1.188-0.343,0.683-2.198-0.511-1.854
			c-7.924,2.29-16.185,3.079-24.26,1.1C15.285,29.583,14.774,31.437,15.978,31.731L15.978,31.731z"/>
	</g>
</g>
<g>
	<g>
		<path fill="#231F20" d="M42.603,29.565c1.239,0,1.239-1.922,0-1.922S41.363,29.565,42.603,29.565L42.603,29.565z"/>
	</g>
</g>
<g>
	<g>
		<path fill="#231F20" d="M13.869,20.383c7.709,1.736,15.574-0.785,23.172,1.1c-0.424-1.606-0.848-3.213-1.272-4.819
			c-4.908,5.883-15.149,2.987-21.9,4.759c1.217,0.927,2.433,1.854,3.649,2.78c0-1.1,0-2.2,0-3.3
			c-1.888,0.255-3.775,0.511-5.663,0.767C16.92,36.351,40.8,31.335,41.49,16.502c0.059-1.267-0.922-2.459-2.116-2.78
			c-7.558-2.027-14.929-1.303-22.309,1.101c-3.048,0.993-2.572,5.663,0.767,5.663c7.191,0,14.383,0,21.574,0
			c-0.927-1.216-1.854-2.433-2.78-3.649c-0.648,2.549-0.335,5.124-0.799,7.701c-0.651,3.624,4.85,5.195,5.561,1.533
			c0.715-3.687,1.682-7.314,2.397-11c-1.888-0.256-3.775-0.511-5.663-0.767c0.561,4.241,0.054,8.243-0.696,12.434
			c0.927-0.706,1.854-1.411,2.78-2.116c-7.253,0.121-14.349,1.979-21.575,2.201c-3.709,0.113-3.72,5.88,0,5.766
			c7.226-0.221,14.322-2.079,21.575-2.201c1.195-0.02,2.554-0.855,2.78-2.116c0.839-4.686,1.53-9.21,0.901-13.967
			c-0.387-2.93-4.984-4.261-5.663-0.767c-0.715,3.687-1.682,7.314-2.397,11c1.854,0.511,3.707,1.022,5.561,1.533
			c0.456-2.54,0.169-5.224,0.799-7.701c0.46-1.812-0.878-3.649-2.78-3.649c-7.191,0-14.383,0-21.574,0
			c0.255,1.888,0.511,3.775,0.767,5.663c6.422-2.092,12.64-2.873,19.242-1.101c-0.706-0.927-1.411-1.854-2.116-2.78
			c-0.383,8.229-15.399,12.068-18.308,3.634c-1.038-3.007-5.663-2.604-5.663,0.767c0,1.1,0,2.2,0,3.3
			c0,1.891,1.838,3.255,3.649,2.78c8.163-2.143,18.292,1.131,24.444-6.242c1.324-1.587,0.99-4.257-1.272-4.819
			c-7.689-1.907-15.488,0.631-23.172-1.1C11.781,14.007,10.242,19.566,13.869,20.383L13.869,20.383z"/>
	</g>
</g>
<g>
	<g>
		<path fill="#231F20" d="M16.361,30.549c-0.196-0.563-0.408-1.235-0.128-1.69c0.21-0.342,1.135-0.389,1.599-0.395
			c1.238-0.016,1.24-1.938,0-1.922c-1.182,0.015-2.456,0.241-3.193,1.257c-0.691,0.951-0.491,2.224-0.13,3.26
			C14.913,32.223,16.77,31.723,16.361,30.549L16.361,30.549z"/>
	</g>
</g>
<g>
	<g>
		<path fill="#231F20" d="M38.607,10.042c-1.87,0.068-3.038,1.314-4.479,2.332c-1.004,0.708-0.045,2.376,0.97,1.659
			c1.059-0.747,2.134-2.019,3.51-2.069C39.843,11.918,39.847,9.996,38.607,10.042L38.607,10.042z"/>
	</g>
</g>
<g>
	<g>
		<path fill="#231F20" d="M14.138,32.195c4.575,9.075,4.02,19.658,1.54,29.258c-0.186,0.721,0.926,1.026,1.112,0.307
			c2.562-9.921,3.062-20.787-1.656-30.147C14.799,30.949,13.804,31.533,14.138,32.195L14.138,32.195z"/>
	</g>
</g>
<g>
	<g>
		<path fill="#231F20" d="M42.026,25.304C41.937,35.981,39.139,49.4,46.1,58.598c0.443,0.585,1.445,0.011,0.996-0.582
			c-6.802-8.987-4.005-22.231-3.917-32.711C43.186,24.56,42.032,24.561,42.026,25.304L42.026,25.304z"/>
	</g>
</g>
<g>
	<g>
		<path fill="#231F20" d="M14.345,62.209C6.623,67.858,5.046,79.311,3.989,88.098c-1.73,14.389-1.023,29.092-0.089,43.512
			c2.416,37.307,7.136,73.982,14.973,110.565c0.156,0.727,1.268,0.419,1.112-0.307C12.397,206.45,7.879,171.003,5.28,134.91
			c-0.953-13.231-1.529-26.534-0.75-39.789c0.587-9.99,1.441-25.364,10.397-31.916C15.521,62.771,14.946,61.77,14.345,62.209
			L14.345,62.209z"/>
	</g>
</g>
<g>
	<g>
		<path fill="#231F20" d="M44.846,58.863c11.495,4.243,15.367,18.186,17.588,28.972c3.039,14.754,3.323,30.075,3.445,45.085
			c0.309,37.928-0.349,75.774-4.677,113.502c-0.084,0.738,1.069,0.729,1.153,0c4.505-39.276,5.175-78.766,4.624-118.256
			c-0.209-15.002-0.864-30.257-4.383-44.9C60.185,73.229,55.62,61.614,45.152,57.75C44.453,57.493,44.154,58.607,44.846,58.863
			L44.846,58.863z"/>
	</g>
</g>
<g>
	<g>
		<path fill="#231F20" d="M18.054,242.021c-0.601,9.417,11.473,11.318,18.495,11.677c8.286,0.422,22.003-0.541,27.327-8.085
			c0.43-0.609-0.571-1.185-0.996-0.582c-4.599,6.519-16.245,7.387-23.4,7.552c-6.756,0.156-20.885-0.955-20.272-10.562
			C19.255,241.278,18.102,241.283,18.054,242.021L18.054,242.021z"/>
	</g>
</g>
<g>
	<g>
		<path fill="#231F20" d="M15.842,63.115c8.633-7.304,19.959-11.449,29.548-3.3c0.563,0.479,1.383-0.333,0.815-0.815
			c-10.076-8.562-21.985-4.478-31.179,3.3C14.458,62.78,15.278,63.592,15.842,63.115L15.842,63.115z"/>
	</g>
</g>
<g>
	<g>
		<path fill="#231F20" d="M16.062,125.139c0.062,12.483,1.277,24.921,1.344,37.403c0.353,0,0.705,0,1.058,0
			c-0.763-6.019-1.681-12.01-2.239-18.054c-0.303-3.283-0.477-6.58-0.401-9.877c0.02-0.874,0.912-9.389,3.691-7.196
			c3.435,2.71,3.09,12.147,3.386,15.938c0.384,4.915,0.549,9.857,0.559,14.786c0.353,0,0.705,0,1.058,0
			c-0.079-9.586-1.988-20.697,1.193-29.93c1.529-4.439,3.761,1.799,4.095,3.469c0.75,3.752,0.762,7.695,0.805,11.507
			c0.068,6.092-0.383,12.169-0.425,18.257c-0.005,0.683,1.053,0.682,1.058,0c0.026-3.743,2.513-37.841-4.402-35.948
			c-3.904,1.069-3.465,9.941-3.598,12.834c-0.303,6.612,0.162,13.203,0.217,19.812c0.005,0.682,1.059,0.683,1.058,0
			c-0.013-6.864-0.312-13.756-1.119-20.575c-0.247-2.09-0.774-11.549-4.367-11.486c-4.759,0.084-4.318,8.736-4.275,11.577
			c0.125,8.351,1.601,16.621,2.649,24.886c0.083,0.655,1.062,0.702,1.058,0c-0.067-12.481-1.282-24.92-1.344-37.403
			C17.116,124.457,16.058,124.457,16.062,125.139L16.062,125.139z"/>
	</g>
</g>
<g>
	<g>
		<path fill="#231F20" d="M34.083,128.989c0,10.634,0,21.268,0,31.901c0,0.683,1.058,0.683,1.058,0c0-10.634,0-21.268,0-31.901
			C35.141,128.307,34.083,128.307,34.083,128.989L34.083,128.989z"/>
	</g>
</g>
<g>
	<g>
		<path fill="#231F20" d="M38.711,128.989c0.612,10.626,0.672,21.261,0.673,31.901c0,0.431,0.442,0.619,0.796,0.457
			c2.385-1.093,4.216-1.646,6.16-3.384c0.51-0.456-0.241-1.201-0.748-0.748c-2.833,2.534-5.148,4.138-5.151,0.137
			c-0.001-3.058-0.017-6.116-0.046-9.174c-0.06-6.401-0.257-12.799-0.626-19.189C39.729,128.311,38.671,128.307,38.711,128.989
			L38.711,128.989z"/>
	</g>
</g>
<g>
	<g>
		<path fill="#231F20" d="M47.295,124.587c0.719,12.323,2.644,24.532,3.363,36.855c0.042,0.729,1.18,0.732,1.137,0
			c-0.718-12.323-2.644-24.533-3.363-36.855C48.389,123.858,47.252,123.854,47.295,124.587L47.295,124.587z"/>
	</g>
</g>
<g>
	<g>
		<path fill="#231F20" d="M57.439,125.547c-1.141,3.631-2.404,7.216-3.682,10.8c-0.922,2.589-3.061,6.393-3.061,9.144
			c0,1.906,5.271,6.939,6.985,8.156c0.558,0.396,1.085-0.522,0.534-0.914c-3.542-2.513-6.725-6.442-5.321-10.703
			c1.787-5.425,3.852-10.75,5.564-16.202C58.665,125.176,57.644,124.899,57.439,125.547L57.439,125.547z"/>
	</g>
</g>
<g>
	<g>
		<path fill="#231F20" d="M14.636,63.284c11.043,0.289,21.855,5.753,30.771-3.469c0.517-0.535-0.298-1.351-0.815-0.815
			c-8.614,8.911-19.382,3.408-29.956,3.131C13.892,62.111,13.894,63.264,14.636,63.284L14.636,63.284z"/>
	</g>
</g>
<g>
	<g>
		<path fill="#231F20" d="M125.58,139.699c-10.549,1.583-22.436,4.237-30.479,11.74c-7.187,6.704-1.564,13.814,5.239,17.716
			c10.495,6.019,24.575,6.446,36.344,6.675c14.611,0.282,29.221-1.303,43.731-2.813c11.595-1.208,23.518-1.545,34.944-3.961
			c6.574-1.391,18.299-5.76,13.46-14.42c-2.449-4.383-8.411-7.047-12.735-8.968c-6.145-2.729-12.816-4.224-19.418-5.33
			c-14.615-2.45-29.613-3.017-44.404-3.255c-1.821-0.029-3.643-0.039-5.464-0.048c-0.85-0.004-0.85,1.313,0,1.317
			c11.797,0.063,23.581,0.486,35.334,1.537c12.349,1.104,24.891,2.823,36.172,8.251c5.878,2.827,15.282,9.488,6.908,15.701
			c-3.628,2.692-8.542,3.658-12.887,4.482c-9.892,1.878-20.202,2.156-30.206,3.198c-22.735,2.367-46.082,5.132-68.742,0.705
			c-9.095-1.776-28.369-9.57-16.449-20.691c7.378-6.884,19.374-9.121,29.001-10.566C126.768,140.844,126.411,139.574,125.58,139.699
			L125.58,139.699z"/>
	</g>
</g>
<g>
	<g>
		<path fill="#231F20" d="M90.914,162.315c-1.78,6.771,5.837,10.487,10.983,12.447c11.348,4.322,24.131,5.384,36.144,6.155
			c15.167,0.974,30.451,0.696,45.587-0.629c12.011-1.051,24.502-2.569,35.85-6.848c4.691-1.77,12.904-5.643,10.349-12.034
			c-0.311-0.779-1.586-0.439-1.27,0.35c5.976,14.95-49.982,17.682-56.624,18.017c-14.982,0.754-30.083,0.505-45.001-1.127
			c-10.227-1.118-22.825-2.43-31.456-8.627c-2.428-1.742-4.091-4.311-3.291-7.354C92.401,161.843,91.13,161.494,90.914,162.315
			L90.914,162.315z"/>
	</g>
</g>
<g>
	<g>
		<path fill="#231F20" d="M89.669,166.316c0.442,21.788,3.854,44.142,22.614,57.927c17.63,12.955,43.204,15.292,64.263,12.926
			c19.899-2.236,39.314-11.286,50.589-28.338c9.664-14.616,10.177-33.406,1.362-48.487c-0.428-0.733-1.566-0.07-1.137,0.664
			c8.736,14.949,7.778,32.636-1.363,47.158c-10.918,17.346-31.255,25.641-50.873,27.845c-20.075,2.256-42.753-0.644-60.114-11.508
			c-20.123-12.593-23.581-36.434-24.023-58.187C90.97,165.468,89.652,165.467,89.669,166.316L89.669,166.316z"/>
	</g>
</g>
<g>
	<g>
		<path fill="#231F20" d="M131.323,234.43c0.972,2.934,1.238,5.838,1.24,8.908c0,0.85,1.318,0.85,1.317,0
			c-0.002-3.192-0.276-6.21-1.287-9.258C132.328,233.277,131.055,233.621,131.323,234.43L131.323,234.43z"/>
	</g>
</g>
<g>
	<g>
		<path fill="#231F20" d="M152.618,243.869c15.011,1.388,29.806-1.47,44.747-2.396c0.63-0.039,0.633-1.021,0-0.982
			c-14.941,0.926-29.736,3.783-44.747,2.396C151.987,242.828,151.992,243.812,152.618,243.869L152.618,243.869z"/>
	</g>
</g>
<g>
	<g>
		<path fill="#231F20" d="M198.23,230.621c0.072,3.392,1.207,6.376,2.612,9.416c0.355,0.771,1.491,0.102,1.137-0.664
			c-1.312-2.839-2.364-5.585-2.433-8.752C199.529,229.772,198.212,229.771,198.23,230.621L198.23,230.621z"/>
	</g>
</g>
<g>
	<g>
		<path fill="#231F20" d="M140.229,235.496c0.876,1.966,1.17,3.893,1.171,6.026c0.001,0.85,1.318,0.85,1.318,0
			c-0.002-2.38-0.376-4.503-1.353-6.69C141.021,234.057,139.886,234.728,140.229,235.496L140.229,235.496z"/>
	</g>
</g>
<g>
	<g>
		<path fill="#231F20" d="M148.979,238.797c0,0.605,0,1.211,0,1.816c0,0.85,1.316,0.85,1.316,0c0-0.605,0-1.211,0-1.816
			C150.295,237.947,148.979,237.947,148.979,238.797L148.979,238.797z"/>
	</g>
</g>
<g>
	<g>
		<path fill="#231F20" d="M190.66,233.91c0.688,2.483,1.379,4.966,2.069,7.448c0.227,0.817,1.498,0.47,1.27-0.35
			c-0.689-2.483-1.381-4.965-2.069-7.448C191.703,232.742,190.433,233.09,190.66,233.91L190.66,233.91z"/>
	</g>
</g>
<g>
	<g>
		<path fill="#231F20" d="M192.209,234.696c1.763,1.744,3.128,3.832,3.973,6.167c0.286,0.793,1.56,0.451,1.27-0.35
			c-0.922-2.551-2.383-4.841-4.311-6.749C192.536,233.167,191.604,234.098,192.209,234.696L192.209,234.696z"/>
	</g>
</g>
<g>
	<g>
		<path fill="#231F20" d="M172.021,236.541c-0.694,2.728,0.137,5.014,2.375,6.702c0.678,0.513,1.333-0.632,0.664-1.137
			c-1.753-1.324-2.306-3.105-1.77-5.216C173.5,236.067,172.229,235.718,172.021,236.541L172.021,236.541z"/>
	</g>
</g>
<g>
	<g>
		<path fill="#231F20" d="M174.756,236.716c0.067,2.393,1.744,4.026,3.782,5.036c0.758,0.376,1.426-0.76,0.664-1.137
			c-1.598-0.793-3.075-1.98-3.128-3.899C176.05,235.868,174.732,235.866,174.756,236.716L174.756,236.716z"/>
	</g>
</g>
<g>
	<g>
		<path fill="#231F20" d="M180.969,234.729c0.047,2.65,0.904,4.977,2.162,7.283c0.406,0.746,1.544,0.082,1.137-0.664
			c-1.147-2.106-1.938-4.199-1.98-6.619C182.271,233.88,180.954,233.879,180.969,234.729L180.969,234.729z"/>
	</g>
</g>
<g>
	<g>
		<path fill="#231F20" d="M185.111,235.721c0.045,2.225,0.788,4.256,2.264,5.929c0.563,0.638,1.491-0.297,0.932-0.932
			c-1.242-1.408-1.84-3.131-1.879-4.997C186.411,234.872,185.094,234.871,185.111,235.721L185.111,235.721z"/>
	</g>
</g>
<g>
	<g>
		<path fill="#231F20" d="M134.027,235.721c0.081,3.451,1.861,6.129,4.336,8.413c0.623,0.575,1.558-0.354,0.932-0.932
			c-2.213-2.042-3.877-4.377-3.95-7.481C135.325,234.873,134.007,234.871,134.027,235.721L134.027,235.721z"/>
	</g>
</g>
<g>
	<g>
		<path fill="#231F20" d="M146.545,237.543c0.68,1.59,0.698,3.369,1.379,4.967c0.331,0.78,1.466,0.107,1.137-0.664
			c-0.677-1.592-0.695-3.37-1.379-4.967C147.349,236.1,146.215,236.771,146.545,237.543L146.545,237.543z"/>
	</g>
</g>
<g>
	<g>
		<path fill="#231F20" d="M151.287,238.701c0.001,1.885,0.297,3.478,1.572,4.934c0.561,0.64,1.489-0.296,0.932-0.932
			c-1.036-1.183-1.186-2.491-1.188-4.002C152.604,237.852,151.286,237.852,151.287,238.701L151.287,238.701z"/>
	</g>
</g>
<g>
	<g>
		<path fill="#231F20" d="M155.43,236.716c0.044,1.557,0.603,3.021,1.469,4.305c0.472,0.7,1.613,0.042,1.137-0.664
			c-0.736-1.093-1.25-2.31-1.287-3.641C156.724,235.868,155.406,235.866,155.43,236.716L155.43,236.716z"/>
	</g>
</g>
<g>
	<g>
		<path fill="#231F20" d="M158.879,238.205c0.04,2.126,0.854,3.864,2.266,5.43c0.57,0.632,1.499-0.303,0.932-0.932
			c-1.178-1.305-1.847-2.726-1.879-4.498C160.181,237.356,158.863,237.355,158.879,238.205L158.879,238.205z"/>
	</g>
</g>
<g>
	<g>
		<path fill="#231F20" d="M162.33,237.708c0.012,0.953,0.163,1.883,0.694,2.691c0.564,0.859,1.494,1.407,2.395,1.849
			c0.759,0.373,1.427-0.763,0.664-1.137c-0.702-0.346-1.445-0.731-1.921-1.377c-0.432-0.587-0.506-1.32-0.516-2.026
			C163.636,236.859,162.318,236.858,162.33,237.708L162.33,237.708z"/>
	</g>
</g>
<g>
	<g>
		<path fill="#231F20" d="M165.978,238.174c1.264,1.403,2.186,3.066,3.451,4.47c0.57,0.632,1.499-0.303,0.932-0.932
			c-1.266-1.402-2.187-3.065-3.451-4.47C166.34,236.609,165.411,237.545,165.978,238.174L165.978,238.174z"/>
	</g>
</g>
<g>
	<g>
		<path fill="#231F20" d="M125.542,141.134c7.503-1.683,15.181-1.954,22.78-2.981c0.839-0.113,0.48-1.382-0.35-1.27
			c-7.605,1.027-15.273,1.297-22.781,2.982C124.363,140.05,124.714,141.319,125.542,141.134L125.542,141.134z"/>
	</g>
</g>
<g>
	<g>
		<path fill="#231F20" d="M119.789,227.453c1.152-6.634-0.192-13.433,0.463-20.116c1.088-11.103,12.583-15.096,22.122-10.779
			c12.965,5.865,11.285,26.626,10.293,38.17c-0.072,0.847,1.246,0.84,1.318,0c1.125-13.102,2.318-34.288-12.77-40.069
			c-7.417-2.842-17.494-0.645-20.905,6.958c-3.557,7.928-0.354,17.205-1.792,25.487
			C118.374,227.934,119.644,228.289,119.789,227.453L119.789,227.453z"/>
	</g>
</g>
<g>
	<g>
		<path fill="#231F20" d="M124.966,228.943c0.798-5.538,0.088-11.196,0.854-16.763c1.036-7.534,7.073-13.667,14.835-9.313
			c8.686,4.869,7.152,23.114,3.817,30.784c-0.336,0.771,0.799,1.441,1.137,0.664c3.892-8.945,4.842-26.43-4.289-32.586
			c-5.22-3.521-12.401-1.136-15.101,4.177c-3.54,6.967-1.458,15.282-2.525,22.688C123.576,229.424,124.846,229.782,124.966,228.943
			L124.966,228.943z"/>
	</g>
</g>
<g>
	<g>
		<path fill="#231F20" d="M168.457,235.647c2.259-9.005-3.758-19.986-5.998-28.52c-1.254-4.774-2.893-11.412,0.577-15.641
			c3.016-3.677,9.302-5.382,13.739-3.978c8.367,2.647,11.856,14.674,13.889,22.077c1.883,6.86,3.357,14.271,3.422,21.416
			c0.008,0.849,1.325,0.85,1.318,0c-0.072-7.853-1.807-15.967-3.948-23.476c-2.25-7.888-5.993-18.086-14.331-21.288
			c-3.767-1.447-7.855-0.2-11.242,1.603c-4.374,2.327-6.134,5.615-6.157,10.516c-0.029,6.04,2.248,12.157,4.022,17.843
			c1.793,5.745,4.968,13,3.439,19.098C166.98,236.122,168.251,236.472,168.457,235.647L168.457,235.647z"/>
	</g>
</g>
<g>
	<g>
		<path fill="#231F20" d="M174.671,234.902c1.318-6.634-2.396-14.319-4.172-20.562c-1.151-4.044-2.167-8.198-2.093-12.428
			c0.066-3.806,3.091-8.584,7.276-6.063c5.483,3.304,7.355,13.321,8.835,18.961c1.414,5.393,2.431,10.878,3.38,16.367
			c0.144,0.836,1.413,0.48,1.27-0.35c-1.226-7.1-2.626-14.163-4.698-21.071c-1.56-5.196-3.901-13.754-9.696-15.784
			c-6.787-2.378-7.936,7.739-7.488,11.815c0.543,4.947,2.179,9.784,3.599,14.53c1.305,4.359,3.435,9.623,2.519,14.234
			C173.236,235.382,174.506,235.735,174.671,234.902L174.671,234.902z"/>
	</g>
</g>
<g>
	<g>
		<path fill="#231F20" d="M202.652,227.278c-0.112-5.654-1.137-11.229-1.825-16.829c-0.723-5.866-1.224-11.76,4.086-15.543
			c7.182-5.117,19.434-2.982,21.298,6.475c0.164,0.833,1.434,0.479,1.27-0.35c-1.846-9.366-12.856-12.266-20.845-8.55
			c-13.3,6.188-5.522,23.621-5.302,34.797C201.352,228.127,202.669,228.128,202.652,227.278L202.652,227.278z"/>
	</g>
</g>
<g>
	<g>
		<path fill="#231F20" d="M206.793,224.299c-0.232-6.144-2.953-12.023-1.953-18.249c0.681-4.234,5.458-6.52,9.312-6.433
			c4.886,0.11,7.699,4.643,7.892,9.039c0.037,0.846,1.355,0.85,1.318,0c-0.344-7.84-7.479-12.547-14.714-9.147
			c-9.684,4.55-3.463,17.098-3.171,24.79C205.508,225.146,206.825,225.148,206.793,224.299L206.793,224.299z"/>
	</g>
</g>
<g>
	<g>
		<path fill="#231F20" d="M90.561,158.574c-0.961,4.484-1.057,9.012-1.059,13.582c0,0.85,1.317,0.85,1.317,0
			c0.002-4.453,0.075-8.859,1.012-13.232C92.008,158.096,90.739,157.743,90.561,158.574L90.561,158.574z"/>
	</g>
</g>
<g>
	<g>
		<path fill="#231F20" d="M123.761,172.622c3.753-4.227,10.718-5.022,15.989-5.72c6.831-0.903,13.771-1.019,20.652-1.039
			c5.798-0.019,11.593,0.171,17.39,0.239c10.508,0.126,21.051-0.796,31.275,2.219c0.816,0.241,1.163-1.03,0.35-1.27
			c-10.079-2.973-20.516-2.229-30.894-2.261c-6.445-0.019-12.887-0.262-19.333-0.242c-7.3,0.023-14.618,0.313-21.848,1.371
			c-4.922,0.72-11.034,1.852-14.514,5.771C122.267,172.323,123.195,173.259,123.761,172.622L123.761,172.622z"/>
	</g>
</g>
<g>
	<g>
		<path fill="#231F20" d="M123.999,170.099c-0.952,0.496-1.989,0.804-3.043,0.986c0.117,0.424,0.233,0.847,0.351,1.271
			c6.517-2.34,11.916-6.878,18.732-8.503c5.414-1.29,12.257,0.22,17.737,0.565c13.984,0.883,29.662-2.044,42.851,3.837
			c0.769,0.344,1.439-0.792,0.664-1.137c-12.777-5.699-27.768-3.303-41.319-3.895c-6.447-0.281-13.001-1.291-19.454-0.756
			c-7.127,0.59-13.021,6.27-19.561,8.617c-0.806,0.289-0.484,1.415,0.351,1.271c1.176-0.204,2.301-0.569,3.357-1.12
			C125.417,170.843,124.751,169.706,123.999,170.099L123.999,170.099z"/>
	</g>
</g>
<g>
	<g>
		<path fill="#231F20" d="M127.437,172.469c6.335,0.639,12.662-0.14,16.827-5.433c-1.331,0.171-2.661,0.343-3.991,0.515
			c3.3,1.794,6.55,2.499,10.296,2.385c3.513-0.107,7.925-1.951,10.784,0.824c0.776-1.874,1.553-3.748,2.329-5.622
			c-4.252-0.438-8.204-1.857-12.353-2.77c-2.987-0.657-8.34-1.451-11.057,0.24c-4.782,2.977-10.521,5.159-15.781,7.117
			c0.846,2.007,1.692,4.013,2.538,6.02c3.423-2.15,8.251-1.979,12.147-2.136c4.965-0.2,9.938-0.088,14.906-0.219
			c11.104-0.291,23.795-7.493,34.609-3.272c0-2.117,0-4.234,0-6.352c-10.29,2.1-20.824,2.312-31.225,3.607
			c-4.157,0.518-4.208,7.11,0,6.586c10.987-1.368,22.103-1.623,32.977-3.842c3.511-0.717,2.744-5.28,0-6.352
			c-11.711-4.57-24.521,2.599-36.361,3.038c-9.251,0.343-22.112-1.94-30.377,3.253c-3.042,1.911-1.089,7.369,2.538,6.02
			c5.502-2.048,10.904-4.514,16.159-7.126c2.742-1.363,6.657-0.407,9.531,0.328c3.932,1.007,7.692,2.028,11.749,2.444
			c2.941,0.303,4.251-3.757,2.329-5.622c-6.635-6.438-15.045-0.233-22.414-4.238c-1.187-0.646-3.07-0.655-3.991,0.515
			c-3.146,4-7.458,3.979-12.168,3.505C123.211,165.457,123.252,172.048,127.437,172.469L127.437,172.469z"/>
	</g>
</g>
<g>
	<g>
		<path fill="#231F20" d="M180.248,171.724c7.601,0.601,15.174,0.047,22.782,0c4.246-0.025,4.249-6.612,0-6.586
			c-7.608,0.046-15.182,0.6-22.782,0C176.011,164.803,176.043,171.393,180.248,171.724L180.248,171.724z"/>
	</g>
</g>
<g>
	<g>
		<path fill="#231F20" d="M137.792,175.449c8.306,0.643,16.528-0.006,24.694-1.606c4.166-0.816,2.397-7.165-1.752-6.352
			c-7.598,1.489-15.221,1.968-22.942,1.372C133.554,168.535,133.586,175.125,137.792,175.449L137.792,175.449z"/>
	</g>
</g>
<g>
	<g>
		<path fill="#231F20" d="M183.515,166.746c-7.222,1.382-14.594,1.498-21.904,2.117c-4.2,0.354-4.234,6.944,0,6.586
			c7.905-0.668,15.845-0.856,23.656-2.352C189.436,172.3,187.665,165.952,183.515,166.746L183.515,166.746z"/>
	</g>
</g>
<g>
	<g>
		<path fill="#231F20" d="M127.437,175.449c5.513,0.625,11.025,0.744,16.568,0.745c4.248,0.001,4.248-6.586,0-6.586
			c-5.543-0.002-11.055-0.121-16.568-0.745C123.22,168.385,123.266,174.977,127.437,175.449L127.437,175.449z"/>
	</g>
</g>
<g>
	<g>
		<path fill="#231F20" d="M206.135,164.394c-2.905-0.097-5.654-1.404-8.442-2.117c-4.118-1.053-5.864,5.3-1.752,6.352
			c3.413,0.873,6.625,2.234,10.194,2.352C210.385,171.12,210.371,164.533,206.135,164.394L206.135,164.394z"/>
	</g>
</g>
<g>
	<g>
		<path fill="#231F20" d="M127.598,163.021c-3.982,0.563-7.751,0.951-11.142,3.311c-2.407,1.675-1.979,5.024,0.787,6.02
			c2.387,0.859,4.784,1.629,7.249,2.236c4.125,1.017,5.874-5.335,1.751-6.352c-2.464-0.607-4.861-1.378-7.249-2.236
			c0.262,2.007,0.524,4.013,0.787,6.02c2.878-2.003,6.179-2.167,9.568-2.646c1.781-0.252,2.729-2.49,2.3-4.052
			C131.128,163.427,129.374,162.771,127.598,163.021L127.598,163.021z"/>
	</g>
</g>
<g>
	<g>
		<path fill="#231F20" d="M183.612,164.613c-8.99-9.638-27.186-4.836-38.57-3.943c-4.179,0.327-4.297,6.624,0,6.586
			c10.031-0.087,19.997-1.402,30.028-1.49c4.245-0.036,4.249-6.623,0-6.586c-10.031,0.087-19.997,1.402-30.028,1.49
			c0,2.195,0,4.391,0,6.586c5.686-0.445,11.336-1.206,17.034-1.503c5.331-0.278,12.899-0.748,16.878,3.519
			C181.857,172.383,186.505,167.715,183.612,164.613L183.612,164.613z"/>
	</g>
</g>
<g>
	<g>
		<path fill="#231F20" d="M237.281,60.352c13.756-12.924,24.687,3.899,29.076,16.323c2.595,7.342,4.021,15.208,4.055,22.994
			c0.023,5.315-0.585,13.199-5.855,16.109c-0.587,0.324-0.062,1.223,0.525,0.898c5.245-2.897,6.104-10.066,6.341-15.435
			c0.393-8.95-1.591-18.153-4.664-26.511c-2.536-6.897-6.348-14.257-12.672-18.384c-6.103-3.983-12.686-1.292-17.542,3.27
			C236.056,60.077,236.793,60.811,237.281,60.352L237.281,60.352z"/>
	</g>
</g>
<g>
	<g>
		<path fill="#231F20" d="M236.464,59.722c-6.095,11.516-15.787,62.086,9.889,57.007c0.657-0.13,0.378-1.132-0.277-1.003
			c-24.072,4.762-14.462-44.618-8.713-55.479C237.676,59.654,236.778,59.129,236.464,59.722L236.464,59.722z"/>
	</g>
</g>
<g>
	<g>
		<path fill="#231F20" d="M244.55,118.02c3.467,8.495,5.64,17.403,6.976,26.468c0.098,0.661,1.101,0.379,1.004-0.277
			c-1.337-9.064-3.51-17.972-6.976-26.467C245.304,117.131,244.297,117.399,244.55,118.02L244.55,118.02z"/>
	</g>
</g>
<g>
	<g>
		<path fill="#231F20" d="M263.287,115.859c-1.28,1.644-3.56,1.501-5.445,1.502c-0.671,0-0.671,1.041,0,1.04
			c2.154-0.001,4.724,0.064,6.182-1.807C264.43,116.072,263.699,115.331,263.287,115.859L263.287,115.859z"/>
	</g>
</g>
<g>
	<g>
		<path fill="#231F20" d="M256.178,119.674c1.15,8.202,2.221,16.383,2.308,24.675c0.008,0.67,1.048,0.671,1.041,0
			c-0.089-8.384-1.183-16.663-2.345-24.952C257.088,118.736,256.086,119.019,256.178,119.674L256.178,119.674z"/>
	</g>
</g>
<g>
	<g>
		<path fill="#231F20" d="M249.702,146.523c2.966-0.002,5.856-0.015,8.402-1.725c0.417-0.28,0.277-0.97-0.263-0.97
			c-2.713,0-5.427,0-8.14,0c-0.671,0-0.671,1.041,0,1.041c2.713,0,5.427,0,8.14,0c0.671,0,0.671-1.041,0-1.041
			c-2.713,0-5.427,0-8.14,0c-0.671,0-0.671,1.041,0,1.041c2.713,0,5.427,0,8.14,0c-0.088-0.323-0.175-0.646-0.263-0.97
			c-2.393,1.607-5.096,1.581-7.877,1.582C249.031,145.483,249.031,146.523,249.702,146.523L249.702,146.523z"/>
	</g>
</g>
<g>
	<g>
		<path fill="#231F20" d="M250.866,149.833c1.988,0.021,4.045,0.411,5.865-0.612c2.664-1.5,2.765-5.561,2.795-8.181
			c0.005-0.438-0.581-0.711-0.889-0.368c-1.933,2.164-3.369,4.66-3.518,7.609c-0.049,0.977,0.162,2.98,1.421,3.186
			c0.656,0.106,0.938-0.896,0.277-1.004c-0.983-0.159-0.629-2.774-0.534-3.361c0.353-2.178,1.653-4.086,3.09-5.693
			c-0.296-0.123-0.593-0.245-0.889-0.368c-0.028,2.485-0.058,6.451-2.849,7.561c-1.475,0.587-3.232,0.208-4.771,0.191
			C250.195,148.785,250.196,149.825,250.866,149.833L250.866,149.833z"/>
	</g>
</g>
<g>
	<g>
		<path fill="#231F20" d="M250.346,149.312c0.045,32.549,2.15,65.13-1.164,97.595c-0.067,0.667,0.974,0.66,1.041,0
			c3.313-32.465,1.208-65.046,1.164-97.595C251.386,148.642,250.346,148.642,250.346,149.312L250.346,149.312z"/>
	</g>
</g>
<g>
	<g>
		<path fill="#231F20" d="M259.646,144.35c-1.031,33.774,5.685,67.167,5.814,100.905c0.003,0.671,1.043,0.671,1.041,0
			c-0.13-33.738-6.847-67.131-5.814-100.905C260.707,143.679,259.666,143.681,259.646,144.35L259.646,144.35z"/>
	</g>
</g>
<g>
	<g>
		<path fill="#231F20" d="M250.728,247.409c4.951,1.655,10.084,1.673,15.253,1.675c0.671,0,0.671-1.04,0-1.041
			c-5.071-0.002-10.114-0.012-14.976-1.638C250.366,246.192,250.095,247.197,250.728,247.409L250.728,247.409z"/>
	</g>
</g>
<g>
	<g>
		<path fill="#231F20" d="M264.819,245.775c0.671,0,0.671-1.041,0-1.041S264.148,245.775,264.819,245.775L264.819,245.775z"/>
	</g>
</g>
<g>
	<g>
		<path fill="#231F20" d="M256.159,174.123c-0.944,24.416,5.595,48.368,4.65,72.784c-0.025,0.671,1.015,0.669,1.041,0
			c0.944-24.416-5.596-48.368-4.65-72.784C257.226,173.452,256.186,173.454,256.159,174.123L256.159,174.123z"/>
	</g>
</g>
<g>
	<g>
		<path fill="#231F20" d="M252.671,185.703c2.18,19.252,2.37,38.653,0,57.897c-0.081,0.665,0.96,0.657,1.041,0
			c2.369-19.244,2.179-38.646,0-57.897C253.637,185.045,252.596,185.037,252.671,185.703L252.671,185.703z"/>
	</g>
</g>
<g>
	<g>
		<path fill="#231F20" d="M260.81,207.208c1.106,13.214,1.071,26.498,2.325,39.699c0.063,0.662,1.104,0.668,1.041,0
			c-1.254-13.201-1.219-26.485-2.325-39.699C261.795,206.545,260.754,206.539,260.81,207.208L260.81,207.208z"/>
	</g>
</g>
<g>
	<g>
		<path fill="#231F20" d="M250.346,195.629c1.114,16.521,1.161,33.074,1.161,49.626c0,0.671,1.041,0.671,1.041,0
			c-0.001-16.552-0.048-33.104-1.161-49.626C251.342,194.963,250.301,194.959,250.346,195.629L250.346,195.629z"/>
	</g>
</g>
<g>
	<g>
		<path fill="#231F20" d="M253.851,190.805c2.375,11.528,5.66,22.874,6.959,34.602c0.341-0.046,0.682-0.092,1.022-0.139
			c-2.521-12.646-4.744-25.348-6.978-38.047c-0.317,0.134-0.634,0.268-0.951,0.401c7.09,12.401,6.905,27.254,8.069,41.091
			c0.057,0.663,1.097,0.669,1.041,0c-1.18-14.012-1.031-29.056-8.212-41.616c-0.31-0.541-1.049-0.155-0.951,0.401
			c2.234,12.698,4.457,25.4,6.978,38.047c0.114,0.57,1.087,0.445,1.022-0.139c-1.31-11.821-4.603-23.257-6.996-34.879
			C254.719,189.871,253.716,190.149,253.851,190.805L253.851,190.805z"/>
	</g>
</g>
<g>
	<g>
		<path fill="#231F20" d="M258.867,193.474c-4.24,0.61-2.809,15.143-2.778,17.627c0.133,10.841,1.18,21.66,1.232,32.5
			c0.004,0.671,1.037,0.671,1.041,0c0.099-20.983,3.423-42.262-1.181-63c-0.109-0.492-0.901-0.503-1.004,0
			c-3.431,16.927-3.505,34.22-3.507,51.421c0,0.68,0.987,0.659,1.041,0c1.251-15.47,3.518-30.836,4.65-46.318
			c-0.347,0-0.694,0-1.041,0c0.042,18.224,1.166,36.408,2.324,54.588c0.043,0.663,1.049,0.676,1.041,0
			c-0.093-7.185-1.086-14.315-1.16-21.505c-0.007-0.591-0.857-0.703-1.022-0.139c-2.565,8.825-4.504,19.062,3.727,25.402
			c0.145,0.111,0.377,0.081,0.525,0c0.771-0.426,0.92-1.057,1.179-1.881c0.341-1.086,1.312-2.518,1.405-3.531
			c-0.078,0.844-0.902,0.08-0.639,1.6c0.191,1.109,0.351,2.224,0.516,3.337c0.083,0.56,0.163,1.12,0.242,1.681
			c-0.084-0.593-3.524-0.959-4.135-1.274c-4.746-2.453-4.492-10.967-4.557-15.387c-0.079-5.477,0.396-10.948,0.433-16.424
			c-0.347,0-0.694,0-1.041,0c0.99,11.085,0.142,22.095-2.309,32.946c-0.147,0.653,0.855,0.931,1.004,0.277
			c2.469-10.937,3.344-22.045,2.346-33.224c-0.06-0.657-1.036-0.681-1.041,0c-0.054,8.288-4.94,34.858,9.821,33.605
			c0.367-0.031,0.551-0.307,0.502-0.659c-0.282-1.995-0.137-5.224-1.194-6.954c-0.285-0.468-0.924-0.237-0.97,0.262
			c0.01-0.103-0.887,1.472-0.941,1.646c-0.271,0.862-0.24,3.542-2.322,1.655c-1.06-0.96-1.802-2.203-2.466-3.451
			c-3.064-5.759-0.769-13.549,0.919-19.349c-0.341-0.047-0.682-0.093-1.022-0.139c0.075,7.189,1.068,14.32,1.16,21.505
			c0.347,0,0.694,0,1.041,0c-1.159-18.18-2.283-36.364-2.324-54.588c-0.002-0.678-0.992-0.661-1.041,0
			c-1.133,15.482-3.398,30.849-4.65,46.318c0.347,0,0.694,0,1.041,0c0-9.172,0.042-18.34,0.536-27.502
			c0.233-4.329,0.639-8.646,1.155-12.95c0.359-2.989,0.864-5.955,1.417-8.913c-0.135,0.721,0.4,3.526,0.622,4.952
			c2.876,18.486-0.033,37.417-0.121,55.992c0.347,0,0.694,0,1.041,0c-0.042-8.574-0.742-17.149-1.056-25.716
			c-0.096-2.59-1.89-22.871,1.838-23.407C259.806,194.382,259.523,193.38,258.867,193.474L258.867,193.474z"/>
	</g>
</g>
<g>
	<g>
		<path fill="#231F20" d="M252.671,172.47c0,6.616,0,13.233,0,19.85c0,0.671,1.041,0.671,1.041,0c0-6.616,0-13.233,0-19.85
			C253.712,171.799,252.671,171.799,252.671,172.47L252.671,172.47z"/>
	</g>
</g>
<g>
	<g>
		<path fill="#231F20" d="M256.159,174.123c1.233,22.678,5.688,45.073,5.813,67.824c0.004,0.671,1.044,0.671,1.041,0
			c-0.126-22.751-4.581-45.146-5.813-67.824C257.163,173.456,256.123,173.452,256.159,174.123L256.159,174.123z"/>
	</g>
</g>
<g>
	<g>
		<path fill="#231F20" d="M256.159,179.087c0.061,11.26,1.062,22.496,4.669,33.222c0.213,0.632,1.218,0.36,1.004-0.277
			c-3.578-10.635-4.572-21.779-4.632-32.944C257.196,178.416,256.156,178.416,256.159,179.087L256.159,179.087z"/>
	</g>
</g>
<g>
	<g>
		<path fill="#231F20" d="M257.321,180.739c1.161,13.215,2.268,26.43,2.324,39.704c0.003,0.671,1.044,0.671,1.041,0
			c-0.058-13.274-1.164-26.489-2.324-39.704C258.304,180.076,257.263,180.07,257.321,180.739L257.321,180.739z"/>
	</g>
</g>
<g>
	<g>
		<path fill="#231F20" d="M258.485,184.05c1.158,14.869,2.274,29.741,2.324,44.663c0.003,0.671,1.043,0.671,1.041,0
			c-0.051-14.922-1.167-29.794-2.324-44.663C259.475,183.386,258.434,183.381,258.485,184.05L258.485,184.05z"/>
	</g>
</g>
<g>
	<g>
		<path fill="#231F20" d="M252.548,179.087c0.004-4.979,0.12-9.855,1.146-14.75c-0.335,0-0.669,0-1.004,0
			c1.162,4.963,2.325,9.926,3.488,14.889c0.137,0.579,1.022,0.441,1.022-0.139c0-4.411,0-8.822,0-13.233
			c-0.341,0.046-0.682,0.092-1.022,0.139c1.269,5.436,2.219,10.803,2.308,16.404c0.011,0.67,1.051,0.671,1.041,0
			c-0.092-6.089-1.046-12.115-1.164-18.198c-0.012-0.572-0.898-0.728-1.022-0.139c-1.034,4.927-1.289,9.964-2.326,14.889
			c0.341,0.047,0.682,0.093,1.022,0.139c0-5.515,0-11.028,0-16.543c0-0.501-0.727-0.731-0.97-0.263
			c-1.565,3.017-1.229,6.898-1.234,10.188c0.341-0.046,0.682-0.092,1.022-0.139c-0.953-4.383-1.37-8.85-2.325-13.232
			c-0.127-0.581-1.025-0.44-1.022,0.139c0.018,3.375,0.549,5.685,2.396,8.533c0.275,0.425,0.97,0.271,0.97-0.263
			c0-2.206,0-4.412,0-6.618c-0.341,0.046-0.682,0.092-1.022,0.139c0.492,2.126,1.014,4.298,1.145,6.479
			c0.041,0.669,1.003,0.671,1.041,0c0.163-2.934,0.73-5.476,2.255-8.008c-0.323-0.088-0.646-0.175-0.97-0.263
			c0,2.757,0,5.514,0,8.271c0,0.671,1.041,0.671,1.041,0c0-2.757,0-5.514,0-8.271c0-0.522-0.704-0.703-0.97-0.263
			c-1.592,2.645-2.227,5.472-2.397,8.533c0.347,0,0.694,0,1.041,0c-0.138-2.28-0.669-4.536-1.182-6.757
			c-0.135-0.58-1.022-0.441-1.022,0.139c0,2.206,0,4.412,0,6.618c0.323-0.088,0.646-0.175,0.97-0.263
			c-1.704-2.626-2.238-4.938-2.254-8.008c-0.341,0.046-0.682,0.092-1.022,0.139c0.956,4.382,1.373,8.849,2.325,13.232
			c0.127,0.583,1.021,0.438,1.022-0.139c0.004-3.064-0.357-6.871,1.092-9.663c-0.323-0.088-0.646-0.175-0.97-0.263
			c0,5.515,0,11.028,0,16.543c0,0.576,0.899,0.723,1.022,0.139c1.036-4.927,1.291-9.964,2.326-14.889
			c-0.341-0.047-0.682-0.093-1.022-0.139c0.119,6.083,1.073,12.109,1.164,18.198c0.347,0,0.694,0,1.041,0
			c-0.091-5.703-1.052-11.139-2.345-16.682c-0.136-0.579-1.022-0.441-1.022,0.139c0,4.411,0,8.822,0,13.233
			c0.341-0.046,0.682-0.092,1.022-0.139c-1.164-4.962-2.327-9.925-3.488-14.889c-0.115-0.49-0.897-0.505-1.004,0
			c-1.041,4.975-1.178,9.958-1.183,15.027C251.507,179.758,252.547,179.758,252.548,179.087L252.548,179.087z"/>
	</g>
</g>
<g>
	<g>
		<path fill="#231F20" d="M252.671,152.619c0,2.757,0,5.514,0,8.271c0,0.544,0.687,0.675,0.97,0.263
			c2.122-3.096,2.709-6.451,3.541-10.049c-0.341-0.047-0.682-0.093-1.022-0.139c0,1.972-0.018,3.945,0.024,5.917
			c0.009,0.422-0.084,1.275,0.467,1.427c1.015,0.279,0.829-1.813,1.191-1.859c0.655-0.085,0.664-1.126,0-1.041
			c-0.884,0.114-1.138,1.08-1.364,1.813c-0.265,0.858,0.385-0.912,0.783,0.38c-0.088-0.286-0.036-0.682-0.043-0.977
			c-0.04-1.886-0.018-3.774-0.018-5.66c0-0.58-0.888-0.719-1.022-0.139c-0.809,3.502-1.366,6.783-3.436,9.801
			c0.323,0.088,0.646,0.175,0.97,0.263c0-2.757,0-5.514,0-8.271C253.712,151.948,252.671,151.948,252.671,152.619L252.671,152.619z"
			/>
	</g>
</g>
<g>
	<g>
		<path fill="#231F20" d="M241.043,56.676c-0.098,17.229-3.996,34.143-4.65,51.28c-0.025,0.671,1.015,0.668,1.041,0
			c0.653-17.137,4.552-34.051,4.65-51.28C242.087,56.005,241.047,56.006,241.043,56.676L241.043,56.676z"/>
	</g>
</g>
<g>
	<g>
		<path fill="#231F20" d="M237.207,69.91c0.927,6.926,0.986,13.007-2.205,19.412c0.538,0.146,1.076,0.292,1.615,0.438
			c0.004-8.306,0.19-16.493,2.293-24.583c0.281-1.083-1.373-1.538-1.672-0.461c-2.441,8.792-4.533,17.676-6.976,26.467
			c0.558,0.154,1.114,0.307,1.672,0.461c2.445-10.127,5.853-19.955,9.302-29.775c-0.567-0.077-1.135-0.154-1.703-0.23
			c-1.284,12.905-5.475,25.175-8.108,37.815c0.567,0.077,1.135,0.154,1.703,0.23c0-3.309,0-6.617,0-9.925
			c-0.568,0.077-1.136,0.154-1.703,0.23c1.022,4.928,1.304,9.96,2.326,14.888c0.205,0.987,1.677,0.719,1.703-0.23
			c0.119-4.443,0.994-8.801,1.163-13.234c-0.578,0-1.156,0-1.734,0c-0.003,6.046-0.152,11.985-1.132,17.967
			c0.567,0.077,1.135,0.154,1.703,0.23c0.159-3.035,0.753-5.53-0.031-8.502c-0.285-1.08-1.957-0.622-1.672,0.461
			c0.735,2.789,0.116,5.258-0.031,8.042c-0.051,0.967,1.544,1.2,1.703,0.23c1.003-6.127,1.19-12.228,1.194-18.428
			c0-1.122-1.691-1.113-1.734,0c-0.168,4.433-1.043,8.791-1.163,13.234c0.568-0.077,1.136-0.154,1.703-0.23
			c-1.022-4.928-1.304-9.96-2.326-14.888c-0.202-0.976-1.703-0.729-1.703,0.23c0,3.309,0,6.617,0,9.925c0,0.96,1.5,1.206,1.703,0.23
			c2.666-12.796,6.87-25.213,8.171-38.276c0.102-1.028-1.398-1.099-1.703-0.23c-3.449,9.82-6.856,19.648-9.302,29.775
			c-0.262,1.086,1.372,1.539,1.672,0.461c2.442-8.792,4.534-17.675,6.976-26.467c-0.558-0.154-1.114-0.307-1.672-0.461
			c-2.141,8.237-2.351,16.576-2.355,25.043c0,0.828,1.221,1.23,1.615,0.438c3.329-6.681,3.421-12.979,2.443-20.287
			C238.795,68.819,237.06,68.805,237.207,69.91L237.207,69.91z"/>
	</g>
</g>
<g>
	<g>
		<path fill="#231F20" d="M238.489,57.893c-8.534,16.006-12.894,35.977-7.064,53.603c0.303,0.915,1.699,0.775,1.703-0.23
			c0.011-3.329,0.177-6.472,1.132-9.695c0.318-1.075-1.355-1.53-1.672-0.461c-0.998,3.371-1.183,6.648-1.194,10.156
			c0.568-0.077,1.136-0.154,1.703-0.23c-5.685-17.188-1.436-36.654,6.889-52.267C240.512,57.782,239.015,56.906,238.489,57.893
			L238.489,57.893z"/>
	</g>
</g>
<g>
	<g>
		<path fill="#231F20" d="M132.333,243.914c7.863,0,15.725,0,23.587,0c0.85,0,0.85-1.318,0-1.318c-7.862,0-15.725,0-23.587,0
			C131.483,242.596,131.483,243.914,132.333,243.914L132.333,243.914z"/>
	</g>
</g>
<g>
	<g>
		<path fill="#231F20" d="M193.923,241.293c2.401-0.058,4.061-1.17,5.709-2.813c0.603-0.601-0.329-1.532-0.932-0.932
			c-1.393,1.389-2.73,2.379-4.777,2.429C193.075,239.996,193.073,241.313,193.923,241.293L193.923,241.293z"/>
	</g>
</g>
<g>
	<g>
		<path fill="#231F20" d="M256.19,246.052c0.202,0.598,0.376,1.615,1.137,1.706c0.758,0.091,0.705-0.834,0.641-1.296
			c-0.292-2.078-0.97-4.274-1.885-6.159c-0.379,0.222-0.758,0.442-1.137,0.664c1.267,2.486,2.992,4.212,5.479,5.479
			c0.755,0.386,1.422-0.751,0.664-1.137c-2.3-1.173-3.833-2.706-5.006-5.006c-0.388-0.761-1.505-0.094-1.137,0.664
			c0.662,1.365,1.069,2.865,1.435,4.333c0.126,0.508,0.26,1.027,0.32,1.548c0.063,0.553,1.313,0.224,1.066-0.292
			c-0.129-0.271-0.212-0.571-0.308-0.854C257.189,244.901,255.917,245.245,256.19,246.052L256.19,246.052z"/>
	</g>
</g>
<g>
	<g>
		<path fill="#231F20" d="M265.342,244.566c0,1.311,0,2.62,0,3.931c0,0.85,1.316,0.85,1.316,0c0-1.311,0-2.62,0-3.931
			C266.658,243.717,265.342,243.717,265.342,244.566L265.342,244.566z"/>
	</g>
</g>
</svg>
