<?xml version="1.0" encoding="utf-8"?>
<!-- Generator: Adobe Illustrator 16.0.0, SVG Export Plug-In . SVG Version: 6.00 Build 0)  -->
<!DOCTYPE svg PUBLIC "-//W3C//DTD SVG 1.1//EN" "http://www.w3.org/Graphics/SVG/1.1/DTD/svg11.dtd">
<svg version="1.1" id="Layer_1" xmlns="http://www.w3.org/2000/svg" xmlns:xlink="http://www.w3.org/1999/xlink" x="0px" y="0px"
	 width="275px" height="275px" viewBox="0 0 275 275" enable-background="new 0 0 275 275" xml:space="preserve">
<g>
	<g>
		<path fill="#231F20" stroke="#000000" stroke-width="0.15" stroke-miterlimit="10" d="M133.481,62.208
			c0.184,4.895-0.023,9.793,0.163,14.69c0.016,0.41,0.656,0.45,0.641,0.037c-0.185-4.895,0.022-9.793-0.164-14.689
			C134.106,61.834,133.466,61.793,133.481,62.208L133.481,62.208z"/>
	</g>
</g>
<g>
	<g>
		<path fill="#231F20" stroke="#000000" stroke-width="0.15" stroke-miterlimit="10" d="M133.24,74.726
			c-0.746,3.746-2.325,7.169-3.633,10.734c-0.16,0.437,0.522,0.665,0.682,0.23c1.31-3.566,2.89-6.987,3.634-10.734
			C134.011,74.508,133.329,74.273,133.24,74.726L133.24,74.726z"/>
	</g>
</g>
<g>
	<g>
		<path fill="#231F20" stroke="#000000" stroke-width="0.15" stroke-miterlimit="10" d="M134.184,76.426
			c0.806,1.914,1.586,3.863,2.695,5.625c0.245,0.39,0.891,0.066,0.642-0.327c-1.109-1.762-1.89-3.712-2.694-5.625
			C134.646,75.67,134.005,76,134.184,76.426L134.184,76.426z"/>
	</g>
</g>
<g>
	<g>
		<path fill="#231F20" stroke="#000000" stroke-width="0.15" stroke-miterlimit="10" d="M128.585,85.498
			c-1.193,12.947-1.104,26.002-0.221,38.968c0.031,0.456,0.75,0.503,0.72,0.042c-0.884-12.965-0.973-26.021,0.221-38.968
			C129.347,85.076,128.629,85.036,128.585,85.498L128.585,85.498z"/>
	</g>
</g>
<g>
	<g>
		<path fill="#231F20" stroke="#000000" stroke-width="0.15" stroke-miterlimit="10" d="M136.959,79.822
			c0.201,14.13,0.809,28.275-0.417,42.377c-0.041,0.463,0.679,0.503,0.719,0.04c1.227-14.101,0.618-28.245,0.417-42.375
			C137.671,79.402,136.952,79.357,136.959,79.822L136.959,79.822z"/>
	</g>
</g>
<g>
	<g>
		<path fill="#231F20" stroke="#000000" stroke-width="0.15" stroke-miterlimit="10" d="M136.152,89.279
			c-2.699,3.301-5.035,6.829-7.142,10.532c-0.088,0.157,0.144,0.312,0.233,0.155c2.107-3.704,4.442-7.231,7.142-10.532
			C136.5,89.295,136.265,89.142,136.152,89.279L136.152,89.279z"/>
	</g>
</g>
<g>
	<g>
		<path fill="#231F20" stroke="#000000" stroke-width="0.15" stroke-miterlimit="10" d="M128.546,92.474
			c3.11,0.247,5.45,1.9,7.167,4.445c0.1,0.147,0.35,0.022,0.25-0.127c-1.777-2.631-4.19-4.343-7.401-4.598
			C128.383,92.18,128.367,92.459,128.546,92.474L128.546,92.474z"/>
	</g>
</g>
<g>
	<g>
		<path fill="#231F20" stroke="#000000" stroke-width="0.15" stroke-miterlimit="10" d="M136.568,99.562
			c-2.501,3.096-4.417,6.565-6.601,9.879c-0.1,0.151,0.133,0.306,0.233,0.155c2.184-3.313,4.099-6.785,6.602-9.879
			C136.917,99.576,136.682,99.423,136.568,99.562L136.568,99.562z"/>
	</g>
</g>
<g>
	<g>
		<path fill="#231F20" stroke="#000000" stroke-width="0.15" stroke-miterlimit="10" d="M128.382,104.769
			c3.392-0.351,6.241,0.988,8.733,3.2c0.133,0.119,0.344-0.066,0.209-0.187c-2.581-2.292-5.5-3.649-9.001-3.289
			C128.145,104.515,128.204,104.787,128.382,104.769L128.382,104.769z"/>
	</g>
</g>
<g>
	<g>
		<path fill="#231F20" stroke="#000000" stroke-width="0.15" stroke-miterlimit="10" d="M136.852,112.543
			c-2.649,2.601-4.971,5.439-7.048,8.516c-0.102,0.149,0.132,0.303,0.234,0.155c2.062-3.055,4.369-5.879,7-8.462
			C137.167,112.625,136.981,112.416,136.852,112.543L136.852,112.543z"/>
	</g>
</g>
<g>
	<g>
		<path fill="#231F20" stroke="#000000" stroke-width="0.15" stroke-miterlimit="10" d="M129.232,114.378
			c2.912,1.571,5.286,3.763,7.12,6.513c0.1,0.148,0.35,0.024,0.25-0.127c-1.865-2.795-4.254-5.021-7.214-6.619
			C129.229,114.059,129.073,114.292,129.232,114.378L129.232,114.378z"/>
	</g>
</g>
<g>
	<g>
		<path fill="#231F20" stroke="#000000" stroke-width="0.15" stroke-miterlimit="10" d="M128.825,125.175
			c-0.177,3.693,0.066,7.382,0.386,11.061c0.04,0.46,0.744,0.306,0.703-0.152c-0.315-3.615-0.543-7.238-0.37-10.867
			C129.567,124.754,128.848,124.711,128.825,125.175L128.825,125.175z"/>
	</g>
</g>
<g>
	<g>
		<path fill="#231F20" stroke="#000000" stroke-width="0.15" stroke-miterlimit="10" d="M136.581,121.518
			c-0.248,4.325-0.485,8.646-0.241,12.98c0.025,0.458,0.744,0.503,0.719,0.04c-0.243-4.332-0.005-8.654,0.241-12.979
			C137.325,121.095,136.607,121.054,136.581,121.518L136.581,121.518z"/>
	</g>
</g>
<g>
	<g>
		<path fill="#231F20" stroke="#000000" stroke-width="0.15" stroke-miterlimit="10" d="M128.403,123.785
			c-0.092,1.623-0.2,3.31,0.235,4.896c0.123,0.445,0.827,0.297,0.704-0.152c-0.419-1.528-0.309-3.141-0.22-4.706
			C129.148,123.361,128.429,123.32,128.403,123.785L128.403,123.785z"/>
	</g>
</g>
<g>
	<g>
		<path fill="#231F20" stroke="#000000" stroke-width="0.15" stroke-miterlimit="10" d="M123.52,134.865
			c6.425,0.415,12.815,1.296,19.236,0.407c0.538-0.074,0.358-0.896-0.176-0.823c-6.349,0.881-12.665-0.012-19.012-0.421
			C123.029,133.993,122.98,134.832,123.52,134.865L123.52,134.865z"/>
	</g>
</g>
<g>
	<g>
		<path fill="#231F20" stroke="#000000" stroke-width="0.15" stroke-miterlimit="10" d="M123.132,135.318
			c0.604,1.502,0.649,3.187,1.052,4.748c0.135,0.522,0.958,0.35,0.822-0.176c-0.423-1.64-0.49-3.374-1.126-4.953
			C123.678,134.436,122.931,134.82,123.132,135.318L123.132,135.318z"/>
	</g>
</g>
<g>
	<g>
		<path fill="#231F20" stroke="#000000" stroke-width="0.15" stroke-miterlimit="10" d="M141.569,134.796
			c-0.104,1.818-0.209,3.635-0.313,5.454c-0.03,0.539,0.808,0.587,0.839,0.048c0.104-1.819,0.209-3.635,0.312-5.454
			C142.438,134.304,141.6,134.256,141.569,134.796L141.569,134.796z"/>
	</g>
</g>
<g>
	<g>
		<path fill="#231F20" stroke="#000000" stroke-width="0.15" stroke-miterlimit="10" d="M124.5,139.694
			c5.218,1.441,10.459,0.714,15.788,0.92c0.54,0.021,0.59-0.818,0.048-0.838c-5.253-0.202-10.415,0.547-15.567-0.878
			C124.249,138.754,123.977,139.551,124.5,139.694L124.5,139.694z"/>
	</g>
</g>
<g>
	<g>
		<path fill="#231F20" stroke="#000000" stroke-width="0.15" stroke-miterlimit="10" d="M127.099,136.702
			c-0.065,1.137-0.13,2.274-0.196,3.409c-0.031,0.541,0.808,0.589,0.839,0.048c0.065-1.135,0.13-2.271,0.195-3.408
			C127.968,136.208,127.13,136.161,127.099,136.702L127.099,136.702z"/>
	</g>
</g>
<g>
	<g>
		<path fill="#231F20" stroke="#000000" stroke-width="0.15" stroke-miterlimit="10" d="M129.288,136.441
			c0.454,0.548,0.498,1.099,0.459,1.779c-0.029,0.541,0.81,0.588,0.838,0.048c0.052-0.913-0.074-1.664-0.669-2.386
			C129.57,135.464,128.944,136.024,129.288,136.441L129.288,136.441z"/>
	</g>
</g>
<g>
	<g>
		<path fill="#231F20" stroke="#000000" stroke-width="0.15" stroke-miterlimit="10" d="M131.976,137.279
			c0.452,0.548,0.496,1.1,0.458,1.779c-0.029,0.54,0.809,0.588,0.839,0.048c0.05-0.913-0.074-1.663-0.67-2.388
			C132.258,136.302,131.633,136.861,131.976,137.279L131.976,137.279z"/>
	</g>
</g>
<g>
	<g>
		<path fill="#231F20" stroke="#000000" stroke-width="0.15" stroke-miterlimit="10" d="M134.641,137.347
			c0.453,1.085,0.508,2.071,0.442,3.232c-0.031,0.539,0.808,0.589,0.838,0.048c0.075-1.317-0.021-2.435-0.53-3.662
			C135.182,136.464,134.434,136.848,134.641,137.347L134.641,137.347z"/>
	</g>
</g>
<g>
	<g>
		<path fill="#231F20" stroke="#000000" stroke-width="0.15" stroke-miterlimit="10" d="M136.686,137.464
			c0.407,0.97,0.572,2.072,1.268,2.894c0.352,0.413,0.978-0.146,0.628-0.559c-0.63-0.741-0.778-1.837-1.147-2.715
			C137.225,136.583,136.478,136.966,136.686,137.464L136.686,137.464z"/>
	</g>
</g>
<g>
	<g>
		<path fill="#231F20" stroke="#000000" stroke-width="0.15" stroke-miterlimit="10" d="M138.764,136.003
			c-0.075,1.318,0.021,2.434,0.531,3.662c0.209,0.5,0.955,0.115,0.749-0.383c-0.454-1.087-0.509-2.071-0.443-3.231
			C139.633,135.511,138.794,135.463,138.764,136.003L138.764,136.003z"/>
	</g>
</g>
<g>
	<g>
		<path fill="#231F20" stroke="#000000" stroke-width="0.15" stroke-miterlimit="10" d="M129.249,137.124
			c0.597,0.701,0.469,1.601,0.42,2.461c-0.031,0.539,0.807,0.588,0.838,0.049c0.064-1.111,0.131-2.173-0.63-3.07
			C129.524,136.151,128.899,136.711,129.249,137.124L129.249,137.124z"/>
	</g>
</g>
<g>
	<g>
		<path fill="#231F20" stroke="#000000" stroke-width="0.15" stroke-miterlimit="10" d="M124.489,134.5
			c-0.078,1.365-0.156,2.726-0.234,4.089c-0.031,0.542,0.807,0.59,0.838,0.049c0.078-1.364,0.156-2.725,0.234-4.091
			C125.359,134.007,124.52,133.959,124.489,134.5L124.489,134.5z"/>
	</g>
</g>
<g>
	<g>
		<path fill="#231F20" stroke="#000000" stroke-width="0.15" stroke-miterlimit="10" d="M128.342,140.791
			c-3.079,12.559-9.751,23.688-15.022,35.384c-0.171,0.379,0.44,0.58,0.608,0.206c5.27-11.693,11.944-22.825,15.022-35.384
			C129.049,140.597,128.44,140.389,128.342,140.791L128.342,140.791z"/>
	</g>
</g>
<g>
	<g>
		<path fill="#231F20" stroke="#000000" stroke-width="0.15" stroke-miterlimit="10" d="M138.02,139.54
			c4.701,12.138,11.312,23.553,14.299,36.308c0.094,0.4,0.723,0.269,0.629-0.135c-3.002-12.812-9.633-24.271-14.354-36.461
			C138.443,138.863,137.873,139.158,138.02,139.54L138.02,139.54z"/>
	</g>
</g>
<g>
	<g>
		<path fill="#231F20" stroke="#000000" stroke-width="0.15" stroke-miterlimit="10" d="M127.043,144.356
			c6.062,1.887,10.585,6.095,15.071,10.404c0.13,0.123,0.338-0.062,0.209-0.188c-4.513-4.334-9.093-8.584-15.191-10.479
			C126.961,144.037,126.872,144.304,127.043,144.356L127.043,144.356z"/>
	</g>
</g>
<g>
	<g>
		<path fill="#231F20" stroke="#000000" stroke-width="0.15" stroke-miterlimit="10" d="M135.72,143.873
			c-2.482,2.987-4.452,6.229-5.394,10.025c-0.1,0.399,0.507,0.609,0.608,0.206c0.929-3.745,2.876-6.935,5.321-9.876
			C136.521,143.908,135.983,143.558,135.72,143.873L135.72,143.873z"/>
	</g>
</g>
<g>
	<g>
		<path fill="#231F20" stroke="#000000" stroke-width="0.15" stroke-miterlimit="10" d="M122.62,158.558
			c3.108,3.485,6.219,6.979,9.677,10.128c0.304,0.276,0.786-0.149,0.479-0.427c-3.459-3.149-6.568-6.643-9.678-10.129
			C122.823,157.819,122.344,158.248,122.62,158.558L122.62,158.558z"/>
	</g>
</g>
<g>
	<g>
		<path fill="#231F20" stroke="#000000" stroke-width="0.15" stroke-miterlimit="10" d="M133.172,156.747
			c-5.54,1.235-9.129,5.989-10.992,11.095c-0.062,0.17,0.203,0.259,0.265,0.09c1.827-5.011,5.34-9.696,10.786-10.911
			C133.407,156.98,133.348,156.707,133.172,156.747L133.172,156.747z"/>
	</g>
</g>
<g>
	<g>
		<path fill="#231F20" stroke="#000000" stroke-width="0.15" stroke-miterlimit="10" d="M134.362,156.494
			c4.115,4.546,8.814,8.512,12.93,13.052c0.277,0.307,0.758-0.119,0.479-0.428c-4.117-4.54-8.815-8.503-12.93-13.05
			C134.564,155.761,134.085,156.187,134.362,156.494L134.362,156.494z"/>
	</g>
</g>
<g>
	<g>
		<path fill="#231F20" stroke="#000000" stroke-width="0.15" stroke-miterlimit="10" d="M142.588,158.035
			c-2.097,3.729-3.76,7.698-6.117,11.274c-0.1,0.151,0.133,0.306,0.233,0.155c2.357-3.578,4.021-7.549,6.117-11.274
			C142.91,158.035,142.676,157.879,142.588,158.035L142.588,158.035z"/>
	</g>
</g>
<g>
	<g>
		<path fill="#231F20" stroke="#000000" stroke-width="0.15" stroke-miterlimit="10" d="M126.999,169.414
			c-3.245,2.389-6.239,5.094-9.486,7.48c-0.146,0.108,0.042,0.316,0.187,0.21c3.246-2.388,6.239-5.092,9.485-7.48
			C127.331,169.516,127.143,169.309,126.999,169.414L126.999,169.414z"/>
	</g>
</g>
<g>
	<g>
		<path fill="#231F20" stroke="#000000" stroke-width="0.15" stroke-miterlimit="10" d="M117.215,168.44
			c1.882,2.87,3.462,5.987,5.713,8.599c0.27,0.315,0.75-0.113,0.479-0.427c-2.213-2.569-3.767-5.64-5.62-8.464
			C117.563,167.805,116.987,168.094,117.215,168.44L117.215,168.44z"/>
	</g>
</g>
<g>
	<g>
		<path fill="#231F20" stroke="#000000" stroke-width="0.15" stroke-miterlimit="10" d="M126.828,176.579
			c2.521-2.332,4.597-5.049,6.793-7.675c1.401-1.673,2.336,1.038,3.146,2.125c1.179,1.582,2.418,3.077,3.271,4.874
			c0.178,0.374,0.749,0.083,0.572-0.291c-1.471-3.101-4.002-5.535-5.665-8.53c-0.091-0.165-0.357-0.256-0.5-0.096
			c-2.683,3.038-5.062,6.353-8.045,9.114C126.097,176.381,126.524,176.861,126.828,176.579L126.828,176.579z"/>
	</g>
</g>
<g>
	<g>
		<path fill="#231F20" stroke="#000000" stroke-width="0.15" stroke-miterlimit="10" d="M147.111,171.272
			c-0.903,2.152-2.33,4.014-3.726,5.865c-0.249,0.332,0.289,0.685,0.536,0.355c1.429-1.899,2.871-3.808,3.797-6.015
			C147.88,171.096,147.271,170.894,147.111,171.272L147.111,171.272z"/>
	</g>
</g>
<g>
	<g>
		<path fill="#231F20" stroke="#000000" stroke-width="0.15" stroke-miterlimit="10" d="M141.255,169.757
			c2.401,2.655,5.082,4.999,7.813,7.308c0.141,0.115,0.291-0.119,0.155-0.235c-2.717-2.291-5.374-4.62-7.761-7.262
			C141.343,169.435,141.134,169.62,141.255,169.757L141.255,169.757z"/>
	</g>
</g>
<g>
	<g>
		<path fill="#231F20" stroke="#000000" stroke-width="0.15" stroke-miterlimit="10" d="M113.31,175.233
			c-0.48,1.566-1.241,2.907-2.399,4.07c-0.292,0.291,0.135,0.773,0.427,0.479c1.235-1.24,2.067-2.672,2.581-4.344
			C114.04,175.044,113.431,174.838,113.31,175.233L113.31,175.233z"/>
	</g>
</g>
<g>
	<g>
		<path fill="#231F20" stroke="#000000" stroke-width="0.15" stroke-miterlimit="10" d="M110.879,175.498
			c6.046,1.482,12.26,1.099,18.435,1.057c7.94-0.052,16.055,0.517,23.98,1.048c0.412,0.028,0.449-0.612,0.036-0.64
			c-6.754-0.456-13.523-0.535-20.279-0.975c-7.361-0.478-14.707,0.68-21.967-1.097C110.685,174.79,110.476,175.398,110.879,175.498
			L110.879,175.498z"/>
	</g>
</g>
<g>
	<g>
		<path fill="#231F20" stroke="#000000" stroke-width="0.15" stroke-miterlimit="10" d="M109.833,175.159
			c1.042,3.054,2.446,4.384,5.749,4.298c6.924-0.183,13.667,0.259,20.608,0.424c3.558,0.084,17.913,2.703,19.125-2.568
			c0.041-0.176-0.023-0.34-0.2-0.408c-1.166-0.449-0.773-0.338-1.995-0.531c-0.408-0.065-0.44,0.575-0.037,0.64
			c2.679,0.426-1.714,2.184-1.968,2.235c-1.764,0.347-3.606,0.328-5.398,0.346c-2.901,0.03-5.807-0.182-8.702-0.323
			c-4.113-0.2-8.192-0.423-12.3-0.776c-4.4-0.377-12.336,2.146-14.253-3.471C110.329,174.637,109.7,174.767,109.833,175.159
			L109.833,175.159z"/>
	</g>
</g>
<g>
	<g>
		<path fill="#231F20" stroke="#000000" stroke-width="0.15" stroke-miterlimit="10" d="M112.85,176.168
			c0.436,1.166,1.169,2.146,1.928,3.119c0.255,0.326,0.732-0.102,0.479-0.427c-0.728-0.933-1.418-1.868-1.836-2.982
			C113.276,175.488,112.705,175.785,112.85,176.168L112.85,176.168z"/>
	</g>
</g>
<g>
	<g>
		<path fill="#231F20" stroke="#000000" stroke-width="0.15" stroke-miterlimit="10" d="M115.401,176.166
			c0.24,0.952,0.752,1.766,1.472,2.429c0.25,0.229,0.649-0.122,0.397-0.354c-0.653-0.603-1.129-1.32-1.347-2.186
			C115.84,175.724,115.319,175.834,115.401,176.166L115.401,176.166z"/>
	</g>
</g>
<g>
	<g>
		<path fill="#231F20" stroke="#000000" stroke-width="0.15" stroke-miterlimit="10" d="M116.855,176.155
			c0.642,0.839,1.158,1.785,1.95,2.497c0.305,0.275,0.787-0.151,0.478-0.427c-0.791-0.712-1.307-1.659-1.949-2.495
			C117.081,175.4,116.604,175.831,116.855,176.155L116.855,176.155z"/>
	</g>
</g>
<g>
	<g>
		<path fill="#231F20" stroke="#000000" stroke-width="0.15" stroke-miterlimit="10" d="M119.065,176.083
			c0.922,1.446,2.167,2.543,3.657,3.377c0.359,0.203,0.717-0.331,0.354-0.533c-1.387-0.779-2.578-1.784-3.44-3.136
			C119.416,175.446,118.842,175.733,119.065,176.083L119.065,176.083z"/>
	</g>
</g>
<g>
	<g>
		<path fill="#231F20" stroke="#000000" stroke-width="0.15" stroke-miterlimit="10" d="M122.927,176.482
			c0.269,1.149,1.123,2.007,2.194,2.454c0.384,0.16,0.586-0.452,0.206-0.608c-0.86-0.358-1.556-1.06-1.773-1.982
			C123.46,175.945,122.832,176.078,122.927,176.482L122.927,176.482z"/>
	</g>
</g>
<g>
	<g>
		<path fill="#231F20" stroke="#000000" stroke-width="0.15" stroke-miterlimit="10" d="M125.773,176.266
			c0.153,1.087,0.587,2.059,1.076,3.028c0.188,0.369,0.759,0.08,0.572-0.291c-0.463-0.924-0.875-1.838-1.02-2.87
			C126.343,175.723,125.715,175.86,125.773,176.266L125.773,176.266z"/>
	</g>
</g>
<g>
	<g>
		<path fill="#231F20" stroke="#000000" stroke-width="0.15" stroke-miterlimit="10" d="M127.956,176.73
			c-0.102,0.839-0.114,1.541,0.398,2.246c0.243,0.337,0.721-0.094,0.48-0.428c-0.398-0.546-0.313-1.147-0.237-1.781
			C128.646,176.356,128.005,176.322,127.956,176.73L127.956,176.73z"/>
	</g>
</g>
<g>
	<g>
		<path fill="#231F20" stroke="#000000" stroke-width="0.15" stroke-miterlimit="10" d="M129.351,176.989
			c0.157,0.831,0.219,1.623,0.586,2.4c0.179,0.376,0.75,0.082,0.574-0.292c-0.345-0.723-0.388-1.469-0.533-2.245
			C129.902,176.446,129.275,176.581,129.351,176.989L129.351,176.989z"/>
	</g>
</g>
<g>
	<g>
		<path fill="#231F20" stroke="#000000" stroke-width="0.15" stroke-miterlimit="10" d="M132.232,176.497
			c0.151,0.85,0.097,1.716,0.25,2.567c0.073,0.406,0.701,0.272,0.628-0.135c-0.152-0.85-0.099-1.719-0.25-2.568
			C132.789,175.954,132.16,176.089,132.232,176.497L132.232,176.497z"/>
	</g>
</g>
<g>
	<g>
		<path fill="#231F20" stroke="#000000" stroke-width="0.15" stroke-miterlimit="10" d="M135.288,176.871
			c0.113,1.012,0.021,1.998-0.104,3.003c-0.049,0.413,0.592,0.446,0.642,0.038c0.13-1.066,0.209-2.104,0.09-3.176
			C135.87,176.324,135.242,176.463,135.288,176.871L135.288,176.871z"/>
	</g>
</g>
<g>
	<g>
		<path fill="#231F20" stroke="#000000" stroke-width="0.15" stroke-miterlimit="10" d="M134.203,176.371
			c-0.14,1.152-0.247,2.292-0.125,3.453c0.044,0.409,0.671,0.273,0.628-0.135c-0.116-1.102,0.006-2.19,0.139-3.282
			C134.896,175.996,134.253,175.962,134.203,176.371L134.203,176.371z"/>
	</g>
</g>
<g>
	<g>
		<path fill="#231F20" stroke="#000000" stroke-width="0.15" stroke-miterlimit="10" d="M137.754,177.455
			c0.147,0.822,0.065,1.628-0.035,2.45c-0.049,0.41,0.593,0.445,0.642,0.037c0.106-0.882,0.177-1.742,0.021-2.622
			C138.31,176.912,137.682,177.048,137.754,177.455L137.754,177.455z"/>
	</g>
</g>
<g>
	<g>
		<path fill="#231F20" stroke="#000000" stroke-width="0.15" stroke-miterlimit="10" d="M139.979,177.727
			c0.118,0.645,0.108,1.248,0.029,1.896c-0.049,0.411,0.593,0.446,0.642,0.037c0.086-0.702,0.083-1.37-0.045-2.066
			C140.531,177.185,139.903,177.319,139.979,177.727L139.979,177.727z"/>
	</g>
</g>
<g>
	<g>
		<path fill="#231F20" stroke="#000000" stroke-width="0.15" stroke-miterlimit="10" d="M143.129,177.184
			c-0.103,0.834-0.205,1.667-0.308,2.501c-0.049,0.411,0.592,0.444,0.643,0.036c0.103-0.834,0.204-1.667,0.307-2.5
			C143.822,176.809,143.181,176.774,143.129,177.184L143.129,177.184z"/>
	</g>
</g>
<g>
	<g>
		<path fill="#231F20" stroke="#000000" stroke-width="0.15" stroke-miterlimit="10" d="M141.949,177.604
			c-0.068,0.555-0.136,1.11-0.205,1.666c-0.049,0.411,0.592,0.445,0.643,0.036c0.067-0.554,0.135-1.11,0.204-1.666
			C142.641,177.227,142,177.192,141.949,177.604L141.949,177.604z"/>
	</g>
</g>
<g>
	<g>
		<path fill="#231F20" stroke="#000000" stroke-width="0.15" stroke-miterlimit="10" d="M144.518,177.354
			c-0.103,0.833-0.205,1.666-0.307,2.499c-0.049,0.411,0.591,0.445,0.642,0.036c0.103-0.833,0.205-1.666,0.307-2.498
			C145.21,176.98,144.569,176.945,144.518,177.354L144.518,177.354z"/>
	</g>
</g>
<g>
	<g>
		<path fill="#231F20" stroke="#000000" stroke-width="0.15" stroke-miterlimit="10" d="M146.567,177.403
			c0.147,0.632,0.115,1.241,0.038,1.877c-0.04,0.324,0.468,0.352,0.507,0.03c0.083-0.682,0.107-1.341-0.049-2.015
			C146.99,176.979,146.492,177.084,146.567,177.403L146.567,177.403z"/>
	</g>
</g>
<g>
	<g>
		<path fill="#231F20" stroke="#000000" stroke-width="0.15" stroke-miterlimit="10" d="M148.495,177.679
			c-0.113,0.758-0.442,1.462-0.556,2.223c-0.048,0.325,0.459,0.35,0.507,0.029c0.112-0.762,0.44-1.464,0.556-2.224
			C149.05,177.384,148.544,177.357,148.495,177.679L148.495,177.679z"/>
	</g>
</g>
<g>
	<g>
		<path fill="#231F20" stroke="#000000" stroke-width="0.15" stroke-miterlimit="10" d="M151.273,177.734
			c-0.305,0.484-0.43,0.95-0.501,1.515c-0.053,0.41,0.589,0.445,0.642,0.037c0.056-0.452,0.148-0.808,0.395-1.196
			C152.031,177.739,151.496,177.384,151.273,177.734L151.273,177.734z"/>
	</g>
</g>
<g>
	<g>
		<path fill="#231F20" stroke="#000000" stroke-width="0.15" stroke-miterlimit="10" d="M140.172,135.516
			c-0.074,1.645,0.117,3.264,0.296,4.896c0.059,0.538,0.881,0.356,0.821-0.178c-0.17-1.556-0.35-3.1-0.277-4.669
			C141.034,135.023,140.196,134.975,140.172,135.516L140.172,135.516z"/>
	</g>
</g>
<g>
	<g>
		<path fill="#231F20" stroke="#000000" stroke-width="0.15" stroke-miterlimit="10" d="M111.358,178.456
			c-5.758,17.711-16.762,33.003-23.628,50.238c-0.201,0.503,0.596,0.768,0.796,0.269c6.866-17.237,17.868-32.522,23.628-50.237
			C112.322,178.209,111.526,177.941,111.358,178.456L111.358,178.456z"/>
	</g>
</g>
<g>
	<g>
		<path fill="#231F20" stroke="#000000" stroke-width="0.15" stroke-miterlimit="10" d="M152.775,180.594
			c6.507,16.707,15.863,32.184,21.244,49.345c0.162,0.511,0.985,0.341,0.821-0.178c-5.401-17.229-14.784-32.773-21.314-49.549
			C153.329,179.707,152.581,180.092,152.775,180.594L152.775,180.594z"/>
	</g>
</g>
<g>
	<g>
		<path fill="#231F20" stroke="#000000" stroke-width="0.15" stroke-miterlimit="10" d="M111.988,182.628
			c3.161,3.546,6.322,7.092,9.484,10.639c0.12,0.133,0.329-0.052,0.209-0.188c-3.162-3.545-6.323-7.091-9.484-10.638
			C112.076,182.308,111.866,182.494,111.988,182.628L111.988,182.628z"/>
	</g>
</g>
<g>
	<g>
		<path fill="#231F20" stroke="#000000" stroke-width="0.15" stroke-miterlimit="10" d="M119.759,185.083
			c-2.796,0.439-5.174,1.985-5.98,4.803c-0.049,0.172,0.216,0.263,0.265,0.089c0.783-2.731,3.07-4.194,5.775-4.619
			C119.997,185.329,119.938,185.056,119.759,185.083L119.759,185.083z"/>
	</g>
</g>
<g>
	<g>
		<path fill="#231F20" stroke="#000000" stroke-width="0.15" stroke-miterlimit="10" d="M127.606,184.084
			c2.284,2.561,4.566,5.123,6.85,7.684c0.12,0.133,0.329-0.052,0.209-0.188c-2.284-2.561-4.566-5.121-6.85-7.683
			C127.694,183.763,127.484,183.95,127.606,184.084L127.606,184.084z"/>
	</g>
</g>
<g>
	<g>
		<path fill="#231F20" stroke="#000000" stroke-width="0.15" stroke-miterlimit="10" d="M136.031,184.347
			c-1.845,1.111-3.466,2.559-4.781,4.263c-0.11,0.145,0.124,0.297,0.233,0.156c1.284-1.667,2.873-3.083,4.674-4.168
			C136.311,184.504,136.185,184.254,136.031,184.347L136.031,184.347z"/>
	</g>
</g>
<g>
	<g>
		<path fill="#231F20" stroke="#000000" stroke-width="0.15" stroke-miterlimit="10" d="M141.67,183.791
			c4.964,2.525,9.955,4.767,14.057,8.635c0.131,0.123,0.341-0.062,0.21-0.188c-4.111-3.876-9.13-6.147-14.111-8.682
			C141.666,183.478,141.51,183.709,141.67,183.791L141.67,183.791z"/>
	</g>
</g>
<g>
	<g>
		<path fill="#231F20" stroke="#000000" stroke-width="0.15" stroke-miterlimit="10" d="M150.629,183.524
			c-2.758,2.485-5.266,5.207-7.746,7.967c-0.121,0.134,0.064,0.344,0.186,0.212c2.48-2.762,4.988-5.484,7.747-7.969
			C150.95,183.612,150.764,183.403,150.629,183.524L150.629,183.524z"/>
	</g>
</g>
<g>
	<g>
		<path fill="#231F20" stroke="#000000" stroke-width="0.15" stroke-miterlimit="10" d="M109.09,193.65
			c3.742,6.001,7.822,11.77,11.916,17.533c0.105,0.146,0.312-0.041,0.208-0.187c-4.078-5.743-8.147-11.495-11.874-17.476
			C109.245,193.371,108.994,193.496,109.09,193.65L109.09,193.65z"/>
	</g>
</g>
<g>
	<g>
		<path fill="#231F20" stroke="#000000" stroke-width="0.15" stroke-miterlimit="10" d="M118.049,198.063
			c-7.205,7.229-14.685,14.207-20.913,22.14c-0.178,0.23,0.231,0.469,0.409,0.242c6.201-7.902,13.655-14.861,20.83-22.06
			C118.582,198.182,118.256,197.856,118.049,198.063L118.049,198.063z"/>
	</g>
</g>
<g>
	<g>
		<path fill="#231F20" stroke="#000000" stroke-width="0.15" stroke-miterlimit="10" d="M115.183,192.971
			c18.096,11.046,32.387,26.622,50.684,37.427c0.189,0.112,0.38-0.158,0.19-0.271c-18.293-10.803-32.586-26.378-50.683-37.426
			C115.185,192.586,114.994,192.855,115.183,192.971L115.183,192.971z"/>
	</g>
</g>
<g>
	<g>
		<path fill="#231F20" stroke="#000000" stroke-width="0.15" stroke-miterlimit="10" d="M149.441,194.429
			c-11.486,3.061-19.783,9.662-27.73,16.206c-0.195,0.159,0.115,0.419,0.311,0.261c7.915-6.52,16.188-13.108,27.636-16.157
			C149.931,194.663,149.715,194.356,149.441,194.429L149.441,194.429z"/>
	</g>
</g>
<g>
	<g>
		<path fill="#231F20" stroke="#000000" stroke-width="0.15" stroke-miterlimit="10" d="M153.111,198.309
			c-2.018,4.881-4.797,9.379-6.981,14.18c-0.075,0.164,0.192,0.252,0.266,0.09c2.185-4.802,4.965-9.3,6.981-14.18
			C153.444,198.23,153.179,198.143,153.111,198.309L153.111,198.309z"/>
	</g>
</g>
<g>
	<g>
		<path fill="#231F20" stroke="#000000" stroke-width="0.15" stroke-miterlimit="10" d="M105.078,214.73
			c2.504,3.936,5.264,7.663,8.355,11.161c0.12,0.136,0.329-0.051,0.208-0.188c-3.074-3.479-5.821-7.184-8.313-11.103
			C105.232,214.452,104.981,214.577,105.078,214.73L105.078,214.73z"/>
	</g>
</g>
<g>
	<g>
		<path fill="#231F20" stroke="#000000" stroke-width="0.15" stroke-miterlimit="10" d="M112.193,214.298
			c-5.942,1.479-11.225,3.585-16.473,5.758c-0.259,0.108,0.084,0.339,0.342,0.234c5.22-2.158,10.467-4.245,16.371-5.714
			C112.726,214.504,112.486,214.227,112.193,214.298L112.193,214.298z"/>
	</g>
</g>
<g>
	<g>
		<path fill="#231F20" stroke="#000000" stroke-width="0.15" stroke-miterlimit="10" d="M164.289,209.009
			c-3.678,5.284-8.169,9.906-12.076,15.01c-0.112,0.144,0.123,0.297,0.233,0.156c3.907-5.104,8.398-9.728,12.076-15.011
			C164.623,209.016,164.392,208.861,164.289,209.009L164.289,209.009z"/>
	</g>
</g>
<g>
	<g>
		<path fill="#231F20" stroke="#000000" stroke-width="0.15" stroke-miterlimit="10" d="M148.535,201.009
			c3.288,2.452,6.717,4.701,10.268,6.757c0.155,0.09,0.312-0.143,0.155-0.233c-3.552-2.056-6.979-4.306-10.268-6.758
			C148.543,200.666,148.39,200.901,148.535,201.009L148.535,201.009z"/>
	</g>
</g>
<g>
	<g>
		<path fill="#231F20" stroke="#000000" stroke-width="0.15" stroke-miterlimit="10" d="M160.689,213.458
			c1.685,1.89,3.402,3.729,5.327,5.376c0.138,0.116,0.292-0.118,0.156-0.234c-1.909-1.628-3.606-3.456-5.274-5.326
			C160.778,213.137,160.57,213.325,160.689,213.458L160.689,213.458z"/>
	</g>
</g>
<g>
	<g>
		<path fill="#231F20" stroke="#000000" stroke-width="0.15" stroke-miterlimit="10" d="M146.681,212.558
			c-0.139,1.731-0.763,3.329-1.399,4.93c-0.066,0.167,0.198,0.257,0.266,0.089c0.646-1.623,1.271-3.248,1.412-5.003
			C146.976,212.393,146.696,212.376,146.681,212.558L146.681,212.558z"/>
	</g>
</g>
<g>
	<g>
		<path fill="#231F20" stroke="#000000" stroke-width="0.15" stroke-miterlimit="10" d="M127.105,214.1
			c3.913,0.224,7.826,0.448,11.738,0.672c0.539,0.031,0.588-0.807,0.048-0.839c-3.912-0.224-7.825-0.448-11.738-0.672
			C126.614,213.229,126.566,214.067,127.105,214.1L127.105,214.1z"/>
	</g>
</g>
<g>
	<g>
		<path fill="#231F20" stroke="#000000" stroke-width="0.15" stroke-miterlimit="10" d="M138.493,214.543
			c2.466,5.621,5.523,10.885,9.256,15.757c0.331,0.429,0.957-0.131,0.629-0.56c-3.694-4.82-6.697-10.021-9.135-15.579
			C139.023,213.665,138.276,214.047,138.493,214.543L138.493,214.543z"/>
	</g>
</g>
<g>
	<g>
		<path fill="#231F20" stroke="#000000" stroke-width="0.15" stroke-miterlimit="10" d="M126.679,214.215
			c-0.88,4.63-3.027,8.762-6.187,12.244c-0.36,0.397,0.196,1.027,0.559,0.628c3.33-3.674,5.539-7.948,6.466-12.827
			C127.618,213.731,126.779,213.69,126.679,214.215L126.679,214.215z"/>
	</g>
</g>
<g>
	<g>
		<path fill="#231F20" stroke="#000000" stroke-width="0.15" stroke-miterlimit="10" d="M117.426,226.442
			c4.484,0.255,8.958,0.469,13.447,0.21c0.535-0.031,0.587-0.873,0.048-0.839c-4.489,0.26-8.963,0.045-13.447-0.21
			C116.934,225.573,116.885,226.411,117.426,226.442L117.426,226.442z"/>
	</g>
</g>
<g>
	<g>
		<path fill="#231F20" stroke="#000000" stroke-width="0.15" stroke-miterlimit="10" d="M129.754,226.588
			c3.562,0.364,6.292-0.301,7.391,3.674c1.351,4.892,1.836,10.024,2.127,15.069c0.512,8.908-0.25,17.868-0.771,26.759
			c-0.03,0.54,0.808,0.588,0.839,0.048c0.896-15.27,2.22-30.852-2.443-45.675c-0.075-0.237-0.255-0.349-0.499-0.322
			c-2.238,0.235-4.387-0.168-6.595-0.394C129.263,225.694,129.218,226.533,129.754,226.588L129.754,226.588z"/>
	</g>
</g>
<g>
	<g>
		<path fill="#231F20" stroke="#000000" stroke-width="0.15" stroke-miterlimit="10" d="M135.986,225.5
			c6.291,1.134,12.481,0.89,18.809,0.305c2.102-0.193,11.5-2.344,11.811,0.554c0.347,3.242,0.663,6.485,0.963,9.732
			c1.297,14.019,1.932,28.133,0.778,42.183c-0.053,0.646,0.952,0.703,1.005,0.058c1.48-18.048-0.048-36.128-1.967-54.081
			c-0.022-0.205-0.257-0.403-0.463-0.396c-10.352,0.384-20.554,2.506-30.88,0.641C135.406,224.381,135.356,225.385,135.986,225.5
			L135.986,225.5z"/>
	</g>
</g>
<g>
	<g>
		<path fill="#231F20" stroke="#000000" stroke-width="0.15" stroke-miterlimit="10" d="M165.56,228.079
			c5.277,0.335,10.521,1.067,15.794,0.328c0.538-0.074,0.358-0.896-0.176-0.82c-5.198,0.728-10.372-0.016-15.569-0.349
			C165.068,227.206,165.021,228.044,165.56,228.079L165.56,228.079z"/>
	</g>
</g>
<g>
	<g>
		<path fill="#231F20" stroke="#000000" stroke-width="0.15" stroke-miterlimit="10" d="M182.244,228.055
			c0.407-7.153,0.699-14.267,0.091-21.417c-0.046-0.54-0.867-0.355-0.821,0.176c0.601,7.073,0.294,14.114-0.109,21.19
			C181.374,228.545,182.213,228.594,182.244,228.055L182.244,228.055z"/>
	</g>
</g>
<g>
	<g>
		<path fill="#231F20" stroke="#000000" stroke-width="0.15" stroke-miterlimit="10" d="M181.964,206.027
			c11.271,1.743,22.617,2.943,34.031,3.072c0.539,0.006,0.589-0.833,0.048-0.839c-11.413-0.128-22.76-1.329-34.031-3.071
			C181.479,205.106,181.435,205.945,181.964,206.027L181.964,206.027z"/>
	</g>
</g>
<g>
	<g>
		<path fill="#231F20" stroke="#000000" stroke-width="0.15" stroke-miterlimit="10" d="M216.087,208.685
			c-2.33,23.7,1.021,47.393,1.533,71.095c0.014,0.632,0.996,0.691,0.982,0.056c-0.513-23.7-3.863-47.395-1.532-71.094
			C217.132,208.108,216.148,208.054,216.087,208.685L216.087,208.685z"/>
	</g>
</g>
<g>
	<g>
		<path fill="#231F20" stroke="#000000" stroke-width="0.15" stroke-miterlimit="10" d="M117.062,225.439
			c-0.085,1.489-0.17,2.981-0.256,4.472c-0.031,0.539,0.808,0.587,0.839,0.048c0.085-1.49,0.171-2.981,0.256-4.471
			C117.932,224.946,117.094,224.898,117.062,225.439L117.062,225.439z"/>
	</g>
</g>
<g>
	<g>
		<path fill="#231F20" stroke="#000000" stroke-width="0.15" stroke-miterlimit="10" d="M85.278,229.646
			c12.668,2.123,25.368-0.044,38.104,0.502c0.541,0.021,0.59-0.816,0.048-0.839c-12.736-0.546-25.436,1.622-38.104-0.502
			C84.792,228.718,84.749,229.557,85.278,229.646L85.278,229.646z"/>
	</g>
</g>
<g>
	<g>
		<path fill="#231F20" stroke="#000000" stroke-width="0.15" stroke-miterlimit="10" d="M123.088,228.938
			c-2.533,3.294-5.528,6.179-7.843,9.645c-0.301,0.452,0.4,0.914,0.7,0.465c2.313-3.464,5.312-6.354,7.843-9.645
			C124.119,228.971,123.417,228.512,123.088,228.938L123.088,228.938z"/>
	</g>
</g>
<g>
	<g>
		<path fill="#231F20" stroke="#000000" stroke-width="0.15" stroke-miterlimit="10" d="M114.569,238.756
			c-0.72,12.057-1.837,24.09-0.951,36.168c0.043,0.594,0.978,0.654,0.934,0.054c-0.885-12.078,0.231-24.111,0.952-36.168
			C115.539,238.207,114.604,238.153,114.569,238.756L114.569,238.756z"/>
	</g>
</g>
<g>
	<g>
		<path fill="#231F20" stroke="#000000" stroke-width="0.15" stroke-miterlimit="10" d="M85.797,233.069
			c-0.581,2.585-1.394,6.463,0.974,8.463c2.475,2.092,6.511,1.681,9.508,1.643c0.19-0.002,0.355-0.099,0.422-0.283
			c1-2.793,1.737-6.232-0.892-8.341c-2.39-1.916-6.375-1.452-9.175-1.165c-0.538,0.054-0.356,0.875,0.177,0.82
			c2.669-0.274,5.83-0.554,8.248,0.853c1.203,0.698,1.679,1.977,1.748,3.3c0.042,0.808-0.133,1.639-0.314,2.42
			c-0.291,1.255-0.456,1.567-1.726,1.574c-2.308,0.012-5.033,0.117-7.065-1.152c-2.509-1.565-1.629-5.545-1.109-7.86
			C86.711,232.815,85.916,232.542,85.797,233.069L85.797,233.069z"/>
	</g>
</g>
<g>
	<g>
		<path fill="#231F20" stroke="#000000" stroke-width="0.15" stroke-miterlimit="10" d="M100.18,236.249
			c-0.047,1.803,0.22,3.62,0.875,5.309c0.053,0.135,0.214,0.219,0.351,0.229c2.67,0.203,5.249,0.734,7.938,0.438
			c0.538-0.059,0.356-0.879-0.176-0.82c-2.214,0.239-4.361-0.084-6.553-0.353c-1.759-0.217-1.629-3.388-1.595-4.757
			C101.033,235.757,100.195,235.706,100.18,236.249L100.18,236.249z"/>
	</g>
</g>
<g>
	<g>
		<path fill="#231F20" stroke="#000000" stroke-width="0.15" stroke-miterlimit="10" d="M101.839,236.188
			c1.975-0.302,3.987,0.033,5.953,0.27c1.11,0.132,1.974-0.124,2.182,1.165c0.194,1.202,0.079,2.466,0.011,3.674
			c-0.029,0.539,0.809,0.588,0.839,0.048c0.098-1.762,0.122-3.449-0.279-5.175c-0.043-0.184-0.197-0.318-0.387-0.331
			c-2.815-0.194-5.675-0.901-8.497-0.471C101.125,235.448,101.305,236.27,101.839,236.188L101.839,236.188z"/>
	</g>
</g>
<g>
	<g>
		<path fill="#231F20" stroke="#000000" stroke-width="0.15" stroke-miterlimit="10" d="M66.85,218.496
			c2.981,0.171,5.962,0.343,8.943,0.513c0.541,0.031,0.589-0.808,0.048-0.839c-2.981-0.17-5.962-0.341-8.943-0.513
			C66.357,217.627,66.31,218.466,66.85,218.496L66.85,218.496z"/>
	</g>
</g>
<g>
	<g>
		<path fill="#231F20" stroke="#000000" stroke-width="0.15" stroke-miterlimit="10" d="M74.839,218.533
			c1.072,18.569-0.358,37.229,1.868,55.735c0.064,0.539,0.885,0.358,0.821-0.176c-2.217-18.431-0.782-37.017-1.85-55.512
			C75.646,218.048,74.809,217.994,74.839,218.533L74.839,218.533z"/>
	</g>
</g>
<g>
	<g>
		<path fill="#231F20" stroke="#000000" stroke-width="0.15" stroke-miterlimit="10" d="M75.217,229.07
			c4.246,0.739,8.526,1.047,12.824,1.296c0.541,0.03,0.588-0.809,0.048-0.839c-4.297-0.248-8.579-0.557-12.824-1.296
			C74.732,228.138,74.689,228.976,75.217,229.07L75.217,229.07z"/>
	</g>
</g>
<g>
	<g>
		<path fill="#231F20" stroke="#000000" stroke-width="0.15" stroke-miterlimit="10" d="M67.694,255.136
			c0.247,4.116,0.104,8.246,0.413,12.36c0.04,0.532,0.878,0.587,0.838,0.048c-0.309-4.113-0.167-8.243-0.413-12.36
			C68.5,254.649,67.663,254.597,67.694,255.136L67.694,255.136z"/>
	</g>
</g>
<g>
	<g>
		<path fill="#231F20" stroke="#000000" stroke-width="0.15" stroke-miterlimit="10" d="M69.256,254.804
			c-0.047-0.002-0.095-0.005-0.144-0.008c-0.541-0.031-0.589,0.808-0.048,0.839c0.462,0.026,1.977-0.19,1.929,0.649
			c-0.091,1.584-0.157,3.167-0.185,4.753c-0.044,2.462,0.139,4.908,0.628,7.321c0.108,0.53,0.93,0.354,0.822-0.176
			c-0.858-4.235-0.615-8.522-0.372-12.807c0.013-0.229-0.167-0.43-0.396-0.443c-0.792-0.046-1.585-0.092-2.379-0.137
			c-0.541-0.031-0.589,0.808-0.048,0.839c0.047,0.002,0.095,0.006,0.143,0.008C69.749,255.673,69.796,254.836,69.256,254.804
			L69.256,254.804z"/>
	</g>
</g>
<g>
	<g>
		<path fill="#231F20" stroke="#000000" stroke-width="0.15" stroke-miterlimit="10" d="M67.912,268.466
			c0.559,0.033,1.117,0.064,1.677,0.097c0.541,0.031,0.589-0.808,0.047-0.838c-0.559-0.033-1.118-0.064-1.677-0.097
			C67.419,267.597,67.371,268.436,67.912,268.466L67.912,268.466z"/>
	</g>
</g>
<g>
	<g>
		<path fill="#231F20" stroke="#000000" stroke-width="0.15" stroke-miterlimit="10" d="M68.822,268.462
			c0.482,0.269,0.957,0.488,1.507,0.563c0.585,0.08,1.183-0.16,1.71-0.379c0.5-0.208,0.117-0.955-0.382-0.748
			c-0.897,0.373-1.522,0.338-2.372-0.137C68.814,267.499,68.348,268.198,68.822,268.462L68.822,268.462z"/>
	</g>
</g>
<g>
	<g>
		<path fill="#231F20" stroke="#000000" stroke-width="0.15" stroke-miterlimit="10" d="M48.751,204.753
			c-1.333,23.244-2.649,46.49-3.438,69.76c-0.019,0.562,0.74,0.604,0.76,0.044c0.789-23.27,2.105-46.516,3.438-69.76
			C49.543,204.237,48.783,204.193,48.751,204.753L48.751,204.753z"/>
	</g>
</g>
<g>
	<g>
		<path fill="#231F20" stroke="#000000" stroke-width="0.15" stroke-miterlimit="10" d="M48.519,205.67
			c6.8-0.179,13.592-0.4,20.363-1.093c0.539-0.054,0.356-0.876-0.176-0.822c-6.697,0.684-13.413,0.898-20.137,1.074
			C48.029,204.844,47.978,205.682,48.519,205.67L48.519,205.67z"/>
	</g>
</g>
<g>
	<g>
		<path fill="#231F20" stroke="#000000" stroke-width="0.15" stroke-miterlimit="10" d="M69.002,203.967
			c-1.915,3.21-4.656,5.735-7.149,8.477c-0.36,0.398,0.194,1.028,0.559,0.629c2.542-2.796,5.338-5.37,7.291-8.641
			C69.979,203.967,69.28,203.501,69.002,203.967L69.002,203.967z"/>
	</g>
</g>
<g>
	<g>
		<path fill="#231F20" stroke="#000000" stroke-width="0.15" stroke-miterlimit="10" d="M61.242,211.859
			c-2.06,18.854,0.999,37.778,3.508,56.438c0.065,0.486,0.809,0.324,0.744-0.161c-2.502-18.598-5.546-37.444-3.493-56.234
			C62.054,211.412,61.295,211.373,61.242,211.859L61.242,211.859z"/>
	</g>
</g>
<g>
	<g>
		<path fill="#231F20" stroke="#000000" stroke-width="0.15" stroke-miterlimit="10" d="M67.458,217.69
			c-2.417-0.137-4.705-0.13-6.986,0.777c-0.502,0.199-0.118,0.945,0.382,0.749c2.129-0.847,4.306-0.815,6.557-0.688
			C67.949,218.56,67.998,217.721,67.458,217.69L67.458,217.69z"/>
	</g>
</g>
<g>
	<g>
		<path fill="#231F20" stroke="#000000" stroke-width="0.15" stroke-miterlimit="10" d="M50.772,217.716
			c-0.17,2.979-0.341,5.96-0.513,8.942c-0.031,0.538,0.808,0.586,0.839,0.048c0.171-2.982,0.342-5.963,0.512-8.943
			C51.642,217.221,50.804,217.173,50.772,217.716L50.772,217.716z"/>
	</g>
</g>
<g>
	<g>
		<path fill="#231F20" stroke="#000000" stroke-width="0.15" stroke-miterlimit="10" d="M51.104,219.275
			c4.562,0.396,4.436,4.808,4.722,8.374c0.043,0.537,0.864,0.356,0.822-0.176c-0.327-4.067-0.457-8.601-5.495-9.036
			C50.612,218.392,50.566,219.229,51.104,219.275L51.104,219.275z"/>
	</g>
</g>
<g>
	<g>
		<path fill="#231F20" stroke="#000000" stroke-width="0.15" stroke-miterlimit="10" d="M50.848,223.747
			c0.746,0.044,1.49,0.086,2.235,0.129c0.542,0.03,0.589-0.808,0.048-0.839c-0.746-0.042-1.49-0.085-2.236-0.128
			C50.354,222.878,50.306,223.717,50.848,223.747L50.848,223.747z"/>
	</g>
</g>
<g>
	<g>
		<path fill="#231F20" stroke="#000000" stroke-width="0.15" stroke-miterlimit="10" d="M51.771,220.127
			c0.379,2.206,0.292,4.402,0.166,6.627c-0.03,0.538,0.808,0.586,0.839,0.048c0.131-2.3,0.208-4.574-0.183-6.853
			C52.5,219.415,51.679,219.594,51.771,220.127L51.771,220.127z"/>
	</g>
</g>
<g>
	<g>
		<path fill="#231F20" stroke="#000000" stroke-width="0.15" stroke-miterlimit="10" d="M52.235,223.704
			c0.552,0.564,1.162,0.748,1.934,0.794c0.542,0.032,0.588-0.807,0.048-0.838c-0.539-0.033-0.962-0.115-1.355-0.517
			C52.484,222.76,51.856,223.315,52.235,223.704L52.235,223.704z"/>
	</g>
</g>
<g>
	<g>
		<path fill="#231F20" stroke="#000000" stroke-width="0.15" stroke-miterlimit="10" d="M48.835,227.542
			c2.783,0.682,5.611,0.896,8.463,1.062c0.541,0.031,0.588-0.808,0.048-0.838c-2.777-0.162-5.532-0.354-8.241-1.017
			C48.583,226.618,48.31,227.413,48.835,227.542L48.835,227.542z"/>
	</g>
</g>
<g>
	<g>
		<path fill="#231F20" stroke="#000000" stroke-width="0.15" stroke-miterlimit="10" d="M51.328,237.374
			c-0.121,2.877,0.246,5.713,0.646,8.561c0.075,0.536,0.896,0.357,0.821-0.177c-0.389-2.771-0.747-5.532-0.628-8.336
			C52.19,236.88,51.352,236.832,51.328,237.374L51.328,237.374z"/>
	</g>
</g>
<g>
	<g>
		<path fill="#231F20" stroke="#000000" stroke-width="0.15" stroke-miterlimit="10" d="M52.25,238.408
			c0.729,0.042,1.46,0.083,2.188,0.126c1.228,0.07,1.458,0.026,1.92,1.213c0.721,1.848,1.281,3.838,1.228,5.837
			c-0.014,0.539,0.824,0.589,0.838,0.048c0.073-2.648-0.847-5.204-1.864-7.609c-0.056-0.135-0.211-0.22-0.351-0.229
			c-1.304-0.074-2.608-0.148-3.912-0.225C51.757,237.539,51.709,238.378,52.25,238.408L52.25,238.408z"/>
	</g>
</g>
<g>
	<g>
		<path fill="#231F20" stroke="#000000" stroke-width="0.15" stroke-miterlimit="10" d="M53.048,244.062
			c1.701,0.096,3.447,0.17,4.839-0.967c0.42-0.344-0.14-0.97-0.559-0.627c-1.198,0.975-2.782,0.836-4.232,0.755
			C52.556,243.192,52.507,244.031,53.048,244.062L53.048,244.062z"/>
	</g>
</g>
<g>
	<g>
		<path fill="#231F20" stroke="#000000" stroke-width="0.15" stroke-miterlimit="10" d="M53.489,239.068
			c-0.635,2.675-0.322,5.129,0.725,7.656c0.207,0.5,0.955,0.115,0.748-0.382c-0.954-2.301-1.258-4.565-0.678-7.005
			C54.409,238.814,53.615,238.541,53.489,239.068L53.489,239.068z"/>
	</g>
</g>
<g>
	<g>
		<path fill="#231F20" stroke="#000000" stroke-width="0.15" stroke-miterlimit="10" d="M54.054,246.082
			c-0.256-0.018-0.52-0.026-0.77-0.091c0.75,0.199-0.33,0.71,0.159,0.498c0.115-0.051,0.242-0.08,0.363-0.115
			c0.688-0.198,1.402-0.329,2.105-0.468c1.49-0.294,3.013-0.495,4.483-0.878c0.522-0.137,0.349-0.957-0.176-0.82
			c-2.067,0.536-4.208,0.755-6.283,1.266c-0.394,0.094-1.312,0.231-1.344,0.782c-0.038,0.662,1.001,0.637,1.414,0.664
			C54.546,246.956,54.593,246.117,54.054,246.082L54.054,246.082z"/>
	</g>
</g>
<g>
	<g>
		<path fill="#231F20" stroke="#000000" stroke-width="0.15" stroke-miterlimit="10" d="M52.505,245.697
			c2.799-0.238,5.351,0.57,7.992-0.705c-0.18-0.202-0.36-0.405-0.541-0.606c-0.263,0.455-1.17,2.605-1.968,2.288
			c-0.371-0.148-3.479-1.323-3.48-1.34c-0.024-0.324-0.41-0.632-0.698-0.338c-0.525,0.538-0.615,1.751-0.8,2.455
			c-0.1,0.38,0.24,0.64,0.588,0.511c2.323-0.871,4.824-0.299,7.228-0.667c0.536-0.084,0.357-0.903-0.176-0.82
			c-2.504,0.384-5.007-0.17-7.433,0.736c0.197,0.169,0.393,0.34,0.589,0.51c0.134-0.516,0.335-1.866,0.563-2.098
			c-0.232-0.113-0.466-0.226-0.698-0.337c0.082,1.146,3.808,2.084,4.666,2.427c0.129,0.051,0.316,0.017,0.414-0.083
			c0.793-0.819,1.341-1.799,1.908-2.78c0.208-0.36-0.147-0.797-0.541-0.608c-2.507,1.21-5.123,0.407-7.787,0.635
			C51.79,244.923,51.972,245.741,52.505,245.697L52.505,245.697z"/>
	</g>
</g>
<g>
	<g>
		<path fill="#231F20" stroke="#000000" stroke-width="0.15" stroke-miterlimit="10" d="M48.995,228.673
			c2.439-0.327,4.358-0.15,6.323,1.442c0.085-0.258,0.17-0.514,0.256-0.77c-1.677-0.097-3.354-0.192-5.031-0.288
			c0.056,0.264,0.111,0.527,0.167,0.793c0.917-0.489,2.668-1.618,3.747-0.985c0.402,0.235,0.502,0.827,0.779,1.182
			c0.335,0.423,0.961-0.136,0.626-0.561c-0.406-0.515-0.486-1.138-1.155-1.436c-1.401-0.623-3.189,0.417-4.38,1.052
			c-0.366,0.195-0.255,0.769,0.166,0.793c1.677,0.097,3.354,0.192,5.031,0.289c0.445,0.024,0.566-0.519,0.256-0.769
			c-2.138-1.733-4.309-1.921-6.964-1.563C48.282,227.924,48.46,228.745,48.995,228.673L48.995,228.673z"/>
	</g>
</g>
<g>
	<g>
		<path fill="#231F20" stroke="#000000" stroke-width="0.15" stroke-miterlimit="10" d="M119.437,238.318
			c0.721,0.307,1.342,0.795,2.069,1.087c0.729,0.291,1.488,0.025,2.137-0.326c0.154-0.086,0.277-0.282,0.22-0.463
			c-0.182-0.581-0.422-1.021-0.991-1.279c-0.604-0.273-1.311,0.04-1.917-0.262c-0.478-0.238-0.948,0.458-0.465,0.701
			c0.388,0.192,0.756,0.282,1.19,0.295c0.681,0.023,1.115-0.058,1.363,0.72c0.074-0.154,0.146-0.31,0.22-0.463
			c-0.673,0.365-1.2,0.462-1.882,0.095c-0.562-0.305-1.083-0.648-1.673-0.9C119.208,237.309,118.943,238.108,119.437,238.318
			L119.437,238.318z"/>
	</g>
</g>
<g>
	<g>
		<path fill="#231F20" stroke="#000000" stroke-width="0.15" stroke-miterlimit="10" d="M125.841,238.125
			c0.656-0.231,1.278,0.009,1.939,0.087c0.623,0.073,1.163-0.174,1.639-0.549c0.201-0.162,0.183-0.537-0.048-0.664
			c-0.774-0.432-1.525-0.706-2.412-0.758c-0.134-0.008-0.308,0.059-0.374,0.188c-0.486,0.952-0.487,2.095-0.22,3.116
			c0.136,0.521,0.958,0.349,0.821-0.177c-0.205-0.784-0.279-1.734,0.101-2.475c-0.125,0.062-0.25,0.124-0.375,0.188
			c0.737,0.043,1.347,0.257,1.996,0.618c-0.015-0.223-0.031-0.443-0.047-0.665c-0.952,0.757-2.119-0.111-3.194,0.27
			C125.162,237.481,125.33,238.306,125.841,238.125L125.841,238.125z"/>
	</g>
</g>
<g>
	<g>
		<path fill="#231F20" stroke="#000000" stroke-width="0.15" stroke-miterlimit="10" d="M131.733,237.3
			c0.467,0.288,0.558,0.755,0.854,1.179c0.35,0.501,0.915,0.646,1.494,0.694c0.402,0.032,0.626-0.562,0.256-0.768
			c-0.966-0.539-1.879-0.728-2.971-0.79c-0.54-0.03-0.588,0.808-0.048,0.839c0.938,0.054,1.723,0.187,2.554,0.649
			c0.086-0.257,0.171-0.514,0.256-0.769c-0.58-0.049-0.819-0.211-1.057-0.716c-0.202-0.428-0.47-0.771-0.873-1.02
			C131.738,236.312,131.273,237.012,131.733,237.3L131.733,237.3z"/>
	</g>
</g>
<g>
	<g>
		<path fill="#231F20" stroke="#000000" stroke-width="0.15" stroke-miterlimit="10" d="M132.682,237.914
			c0.551-0.207,1.312,0.426,1.872,0.486c0.977,0.106,1.165-1.092,1.215-1.794c0.012-0.167-0.106-0.388-0.284-0.421
			c-0.85-0.165-2.562-0.528-2.709,0.755c-0.042,0.365,0.114,0.756,0.225,1.095c0.085,0.263,0.304,0.739,0.162,1.014
			c-0.245,0.479,0.453,0.945,0.7,0.465c0.342-0.667,0.049-1.343-0.154-2.005c-0.052-0.17-0.165-0.494-0.057-0.591
			c0.295-0.265,1.246,0.002,1.563,0.063c-0.095-0.142-0.19-0.282-0.284-0.421c-0.012,0.174-0.007,0.922-0.246,0.997
			c-0.191,0.062-0.483-0.11-0.651-0.182c-0.574-0.238-1.121-0.437-1.734-0.209C131.794,237.354,132.18,238.1,132.682,237.914
			L132.682,237.914z"/>
	</g>
</g>
<g>
	<g>
		<path fill="#231F20" stroke="#000000" stroke-width="0.15" stroke-miterlimit="10" d="M116.038,243.326
			c-0.053,0.93-0.107,1.863-0.16,2.795c-0.013,0.217,0.166,0.44,0.395,0.442c0.82,0.003,0.999-0.851,0.507-1.4
			c-0.318-0.355-0.833-0.068-0.777,0.38c0.085,0.677,0.644,1.406,0.973,1.976c0.203-0.182,0.405-0.361,0.607-0.542
			c-0.883-0.594-0.283-1.977-0.876-2.788c-0.233-0.318-0.696-0.075-0.732,0.256c-0.103,0.948-0.617,1.811-0.719,2.762
			c-0.04,0.36,0.441,0.589,0.698,0.34c0.416-0.411,0.707-0.843,0.889-1.396c0.214-0.655,0.173-1.351,0.493-1.976
			c0.244-0.478-0.454-0.944-0.7-0.464c-0.542,1.061-0.344,2.332-1.239,3.208c0.233,0.112,0.466,0.225,0.699,0.339
			c0.102-0.948,0.616-1.813,0.719-2.762c-0.244,0.084-0.488,0.168-0.733,0.256c0.274,0.372,0.153,1.114,0.207,1.56
			c0.07,0.573,0.358,1.048,0.833,1.368c0.339,0.229,0.823-0.168,0.606-0.541c-0.307-0.53-0.75-1.132-0.896-1.737
			c0.09,0.37-0.525,0.548-0.671,0.322c0.026,0.039,0.044,0.084,0.063,0.129c0.038,0.084,0.105-0.123,0.101-0.123
			c0.131,0.147,0.263,0.295,0.395,0.442c0.054-0.932,0.107-1.864,0.161-2.795C116.907,242.833,116.069,242.784,116.038,243.326
			L116.038,243.326z"/>
	</g>
</g>
<g>
	<g>
		<path fill="#231F20" stroke="#000000" stroke-width="0.15" stroke-miterlimit="10" d="M125.583,250.462
			c1.138,0.113,2.181,0.637,3.321,0.751c0.241,0.023,0.413-0.178,0.443-0.395c0.104-0.768,0.582-1.434,0.688-2.203
			c0.023-0.172-0.116-0.382-0.285-0.423c-1.032-0.251-2.035-0.375-3.048,0.002c-0.768,0.284-1.343,0.968-1.933,1.502
			c-0.401,0.365,0.157,0.989,0.56,0.628c0.47-0.429,0.904-0.911,1.455-1.241c0.814-0.483,1.831-0.306,2.697-0.098
			c-0.095-0.141-0.19-0.282-0.284-0.421c-0.104,0.766-0.581,1.432-0.687,2.203c0.147-0.131,0.295-0.263,0.443-0.395
			c-1.139-0.116-2.181-0.638-3.322-0.751C125.092,249.568,125.046,250.407,125.583,250.462L125.583,250.462z"/>
	</g>
</g>
<g>
	<g>
		<path fill="#231F20" stroke="#000000" stroke-width="0.15" stroke-miterlimit="10" d="M133.217,247.888
			c0.404,1.031,0.383,2.083,0.322,3.171c-0.013,0.233,0.167,0.424,0.396,0.443c0.529,0.047,1.021,0.228,1.542,0.31
			c0.657,0.104,1.282,0.031,1.924-0.126c0.181-0.045,0.32-0.197,0.331-0.386c0.043-0.747,0.085-1.492,0.128-2.236
			c0.012-0.206-0.113-0.341-0.284-0.421c-1.062-0.521-2.267-0.236-3.321-0.752c-0.486-0.238-0.748,0.561-0.269,0.798
			c1.061,0.52,2.267,0.232,3.321,0.75c-0.095-0.142-0.19-0.282-0.284-0.421c-0.043,0.744-0.085,1.489-0.128,2.236
			c0.11-0.131,0.221-0.26,0.33-0.388c-0.66,0.162-1.264,0.213-1.926,0.057c-0.439-0.103-0.864-0.219-1.315-0.258
			c0.132,0.148,0.264,0.297,0.395,0.444c0.071-1.251,0.051-2.42-0.411-3.602C133.769,247.002,133.022,247.386,133.217,247.888
			L133.217,247.888z"/>
	</g>
</g>
<g>
	<g>
		<path fill="#231F20" stroke="#000000" stroke-width="0.15" stroke-miterlimit="10" d="M148.218,239.563
			c-0.128,2.234-0.256,4.471-0.385,6.707c0.264-0.058,0.529-0.112,0.794-0.167c-0.764-1.547-0.816-3.183-0.776-4.875
			c0.033-1.372,1.733-1.467,2.834-1.791c1.987-0.583,4.209-1.013,6.229-0.38c1.208,0.379,1.882,1.421,2.214,2.574
			c0.206,0.72,0.637,3.698-0.517,3.946c-3.774,0.812-7.638,0.979-11.484,0.792c-0.54-0.026-0.588,0.812-0.049,0.839
			c4.225,0.205,8.366-0.091,12.506-0.982c0.197-0.043,0.303-0.199,0.331-0.386c0.452-2.92,0.402-6.299-2.731-7.577
			c-3.033-1.241-7.057,0.368-9.888,1.445c-0.132,0.051-0.221,0.213-0.229,0.349c-0.121,2.192-0.183,4.412,0.811,6.427
			c0.187,0.378,0.77,0.246,0.794-0.166c0.128-2.236,0.256-4.472,0.384-6.707C149.087,239.068,148.249,239.021,148.218,239.563
			L148.218,239.563z"/>
	</g>
</g>
<g>
	<g>
		<path fill="#231F20" stroke="#000000" stroke-width="0.15" stroke-miterlimit="10" d="M147.783,242.747
			c3.465,0.739,6.857,0.888,10.315,0.031c0.524-0.131,0.351-0.953-0.176-0.821c-3.305,0.817-6.56,0.702-9.87-0.005
			C147.528,241.839,147.255,242.634,147.783,242.747L147.783,242.747z"/>
	</g>
</g>
<g>
	<g>
		<path fill="#231F20" stroke="#000000" stroke-width="0.15" stroke-miterlimit="10" d="M151.021,239.835
			c0.521,2.536,1.6,4.839,3.005,7.003c0.292,0.448,1.044,0.072,0.749-0.383c-1.366-2.102-2.426-4.329-2.934-6.796
			C151.732,239.129,150.911,239.303,151.021,239.835L151.021,239.835z"/>
	</g>
</g>
<g>
	<g>
		<path fill="#231F20" stroke="#000000" stroke-width="0.15" stroke-miterlimit="10" d="M196.147,215.393
			c-0.148,2.607-0.299,5.216-0.448,7.825c-0.031,0.538,0.808,0.586,0.839,0.048c0.149-2.608,0.298-5.218,0.448-7.824
			C197.017,214.898,196.179,214.852,196.147,215.393L196.147,215.393z"/>
	</g>
</g>
<g>
	<g>
		<path fill="#231F20" stroke="#000000" stroke-width="0.15" stroke-miterlimit="10" d="M195.425,215.771
			c2.908,0.167,5.818,0.333,8.727,0.501c1.027,0.059,1.983,7.211,2.145,8.225c0.086,0.536,0.906,0.356,0.821-0.176
			c-0.456-2.865-1.298-5.646-1.756-8.512c-0.027-0.184-0.206-0.321-0.386-0.331c-3.166-0.182-6.334-0.363-9.502-0.545
			C194.934,214.902,194.886,215.74,195.425,215.771L195.425,215.771z"/>
	</g>
</g>
<g>
	<g>
		<path fill="#231F20" stroke="#000000" stroke-width="0.15" stroke-miterlimit="10" d="M196.781,221.457
			c2.743,0.155,5.5,0.307,8.104-0.714c0.503-0.199,0.119-0.947-0.382-0.749c-2.451,0.961-5.103,0.77-7.676,0.624
			C196.291,220.588,196.242,221.427,196.781,221.457L196.781,221.457z"/>
	</g>
</g>
<g>
	<g>
		<path fill="#231F20" stroke="#000000" stroke-width="0.15" stroke-miterlimit="10" d="M200.005,216.847
			c0.351,2.767,0.228,5.527,0.07,8.305c-0.032,0.538,0.807,0.586,0.838,0.048c0.162-2.855,0.271-5.687-0.087-8.53
			C200.759,216.132,199.938,216.312,200.005,216.847L200.005,216.847z"/>
	</g>
</g>
<g>
	<g>
		<path fill="#231F20" stroke="#000000" stroke-width="0.15" stroke-miterlimit="10" d="M196.03,224.779
			c3.826,0.657,7.548-0.04,11.354-0.487c0.539-0.063,0.357-0.884-0.176-0.82c-3.727,0.433-7.382,1.108-11.13,0.467
			C195.545,223.849,195.503,224.688,196.03,224.779L196.03,224.779z"/>
	</g>
</g>
<g>
	<g>
		<path fill="#231F20" stroke="#000000" stroke-width="0.15" stroke-miterlimit="10" d="M183.032,238.754
			c-0.16,2.795-0.32,5.59-0.48,8.385c-0.03,0.538,0.808,0.586,0.838,0.048c0.161-2.795,0.32-5.59,0.481-8.385
			C183.901,238.261,183.063,238.213,183.032,238.754L183.032,238.754z"/>
	</g>
</g>
<g>
	<g>
		<path fill="#231F20" stroke="#000000" stroke-width="0.15" stroke-miterlimit="10" d="M183.317,239.176
			c3.015,0.729,6.087,0.905,9.166,0.525c-0.168-0.108-0.334-0.216-0.499-0.322c0.318,3.328,0.162,6.648-0.027,9.98
			c-0.031,0.538,0.807,0.586,0.838,0.048c0.194-3.408,0.337-6.799,0.008-10.206c-0.022-0.242-0.292-0.347-0.498-0.321
			c-2.926,0.359-5.854,0.192-8.721-0.5C183.062,238.254,182.79,239.049,183.317,239.176L183.317,239.176z"/>
	</g>
</g>
<g>
	<g>
		<path fill="#231F20" stroke="#000000" stroke-width="0.15" stroke-miterlimit="10" d="M184.288,243.733
			c2.982,0.171,5.963,0.342,8.944,0.512c0.539,0.032,0.587-0.807,0.048-0.837c-2.982-0.172-5.962-0.343-8.943-0.514
			C183.798,242.864,183.749,243.702,184.288,243.733L184.288,243.733z"/>
	</g>
</g>
<g>
	<g>
		<path fill="#231F20" stroke="#000000" stroke-width="0.15" stroke-miterlimit="10" d="M185.204,240
			c-0.152,2.673-0.228,5.309,0.119,7.97c0.069,0.537,0.891,0.357,0.821-0.176c-0.336-2.59-0.249-5.149-0.101-7.745
			C186.073,239.507,185.235,239.459,185.204,240L185.204,240z"/>
	</g>
</g>
<g>
	<g>
		<path fill="#231F20" stroke="#000000" stroke-width="0.15" stroke-miterlimit="10" d="M182.388,247.55
			c3.896,0.742,7.782,0.966,11.737,0.673c0.533-0.04,0.588-0.88,0.049-0.839c-3.955,0.293-7.842,0.069-11.737-0.673
			C181.904,246.608,181.863,247.449,182.388,247.55L182.388,247.55z"/>
	</g>
</g>
<g>
	<g>
		<path fill="#231F20" stroke="#000000" stroke-width="0.15" stroke-miterlimit="10" d="M179.73,226.789
			c0.213,17.031,2.965,33.929,2.688,50.973c-0.012,0.619,0.95,0.676,0.961,0.055c0.277-17.045-2.476-33.94-2.687-50.973
			C180.686,226.229,179.724,226.167,179.73,226.789L179.73,226.789z"/>
	</g>
</g>
</svg>
