<?xml version="1.0" encoding="utf-8"?>
<!-- Generator: Adobe Illustrator 16.0.0, SVG Export Plug-In . SVG Version: 6.00 Build 0)  -->
<!DOCTYPE svg PUBLIC "-//W3C//DTD SVG 1.1//EN" "http://www.w3.org/Graphics/SVG/1.1/DTD/svg11.dtd">
<svg version="1.1" id="Layer_1" xmlns="http://www.w3.org/2000/svg" xmlns:xlink="http://www.w3.org/1999/xlink" x="0px" y="0px"
	 width="70px" height="70px" viewBox="0 0 70 70" enable-background="new 0 0 70 70" xml:space="preserve">
<path fill="none" stroke="#231F20" stroke-width="0.8724" stroke-miterlimit="10" d="M34.697,5.404
	c-13.338,0-26.089,4.758-28.332,19.186C4.277,38.016,9.568,49.084,20.625,57.1c9.989,7.245,23.486,8.248,33.253-0.174
	c8.836-7.611,12.902-27.562,7.088-37.606C54.914,8.847,44.666,7.393,34.262,5.404"/>
<g>
	<g>
		<path fill="#231F20" d="M33.13,31.856c0.106,0.507,0.431,1.345,1.11,1.148c0.606-0.176,0.672-1.025,0.621-1.536
			c-0.024-0.231-0.213-0.417-0.458-0.35c-0.116,0.031-0.23,0.059-0.347,0.082c-0.124,0.022-0.084,0.015-0.208,0.027
			c-0.171,0.02-0.315,0.036-0.449,0.154c-0.325,0.284,0.079,0.857,0.205,1.143c0.15,0.346,0.677,0.153,0.677-0.183
			c0.002-0.273-0.025-0.579,0.096-0.834c-0.21,0-0.42,0-0.629,0c0.1,0.215,0.095,0.454,0.097,0.688c0,0.471,0.726,0.471,0.726,0
			c0-0.373-0.038-0.713-0.194-1.055c-0.111-0.24-0.517-0.236-0.629,0c-0.181,0.385-0.196,0.781-0.196,1.201
			c0.228-0.061,0.453-0.122,0.68-0.183c-0.069-0.155-0.137-0.307-0.208-0.461c-0.046-0.101,0.006,0.04-0.025-0.065
			c0.03,0.094-0.059,0.279-0.208,0.337c0.015-0.007,0.028-0.009,0.045-0.012c0.07-0.015-0.098,0.013-0.015,0.001
			c0.058-0.007,0.118-0.013,0.177-0.02c0.201-0.027,0.4-0.064,0.595-0.12c-0.153-0.117-0.304-0.233-0.459-0.35
			c0.021,0.213,0.026,0.427-0.023,0.636c-0.023,0.095-0.026,0.095-0.062,0.162c-0.006,0.012-0.069,0.091-0.016,0.027
			c-0.013,0.015-0.025,0.029-0.042,0.04c0.039-0.028,0.043-0.032,0.009-0.011c0.08-0.047-0.028-0.008,0.07-0.018
			c-0.08,0.008,0.083,0.021,0.003,0c0.082,0.022,0.017,0.004-0.009-0.013c0.083,0.057-0.048-0.066-0.009-0.014
			c-0.131-0.177-0.183-0.402-0.226-0.612C33.734,31.204,33.034,31.401,33.13,31.856L33.13,31.856z"/>
	</g>
</g>
<g>
	<g>
		<path fill="#231F20" d="M34.353,31.105c-0.998,0.018-1.717,0.726-1.503,1.745c0.173,0.827,1.061,1.279,1.701,0.612
			c0.584-0.603,1.014-2.03-0.018-2.423c-0.361-0.137-0.773,0.043-1.03,0.297c-0.366,0.36-0.458,0.922-0.428,1.415
			c0.02,0.332,0.069,0.575,0.383,0.743c0.289,0.157,0.475-0.035,0.75-0.061c0.461-0.044,0.468-0.771,0-0.726
			c-0.114,0.011-0.216,0.027-0.328,0.066c-0.042,0.021-0.089,0.039-0.131,0.054c0.022,0.021,0.045,0.043,0.067,0.062
			c-0.006-0.047-0.01-0.094-0.014-0.139c-0.017-0.188-0.009-0.373,0.036-0.555c0.06-0.249,0.214-0.421,0.372-0.465
			c0.086-0.025,0.167,0.013,0.193,0.082c0.113,0.28-0.067,0.659-0.218,0.928c-0.06,0.109-0.165,0.244-0.245,0.3
			c-0.065,0.043-0.042,0.026-0.08,0.04c-0.054,0.015,0.017,0.008-0.031,0c-0.039-0.009-0.068-0.027-0.139-0.104
			c-0.022-0.024-0.099-0.177-0.119-0.242c-0.064-0.208-0.055-0.415,0.051-0.601c0.132-0.233,0.458-0.296,0.732-0.302
			C34.821,31.825,34.823,31.098,34.353,31.105L34.353,31.105z"/>
	</g>
</g>
<path fill="none" stroke="#231F20" stroke-width="0.5816" stroke-miterlimit="10" d="M23.986,14.138
	c0.576,1.454,0.008,3.262,0.217,4.84c0.207,1.545,0.834,2.456,1.685,3.713c1.266,1.875,2.913,4.498,5.294,4.75"/>
<path fill="none" stroke="#231F20" stroke-width="0.5816" stroke-miterlimit="10" d="M23.986,13.919
	c3.179,3.309,7.719,8.457,7.42,13.333c-0.024,0.146-0.168-0.051-0.44-0.028"/>
<path fill="none" stroke="#231F20" stroke-width="0.5816" stroke-miterlimit="10" d="M24.117,14.124
	c-0.284,2.087,2.625,5.237,3.667,6.947c1.239,2.032,1.817,4.584,3.457,6.285"/>
<path fill="none" stroke="#231F20" stroke-width="0.5816" stroke-miterlimit="10" d="M41.412,11.216
	c0.727,3.325-3.041,4.953-4.961,7.521c-1.698,2.271-2.493,5.772-2.141,8.409"/>
<path fill="none" stroke="#231F20" stroke-width="0.5816" stroke-miterlimit="10" d="M41.412,11.216
	c2.348,4.51-2.732,12.934-7.102,16.286"/>
<path fill="none" stroke="#231F20" stroke-width="0.5816" stroke-miterlimit="10" d="M41.412,13.34
	c-1.291,4.661-5.588,8.909-7.102,13.453"/>
<path fill="none" stroke="#231F20" stroke-width="0.6336" stroke-miterlimit="10" d="M38.221,29.057
	c2.896-3.181,10.305-10.317,14.248-5.868"/>
<g>
	<g>
		<path fill="#231F20" d="M38.512,29.797c2.59,0.129,4.807-1.011,6.883-2.441c2.055-1.417,4.055-3.051,6.6-3.438
			c0.412-0.063,0.348-0.662,0-0.764c-2.328-0.69-4.643,0.343-6.656,1.464c-2.258,1.262-4.396,3.033-6.93,3.712
			c-0.312,0.083-0.414,0.575-0.094,0.724c2.275,1.055,4.549-0.219,6.506-1.381c-0.133-0.229-0.266-0.456-0.4-0.684
			c-1.166,0.689-2.328,1.381-3.486,2.07c0.16,0.207,0.318,0.416,0.479,0.623c0.482-0.546,1.037-0.946,1.664-1.319
			c0.338-0.2,0.193-0.738-0.201-0.738c-0.773,0.002-1.531,0.041-2.236,0.398c-0.379,0.198-0.154,0.703,0.199,0.738
			c1.449,0.15,2.816-0.525,4.039-1.212c1.506-0.848,2.896-1.938,4.506-2.597c-0.105-0.241-0.209-0.483-0.309-0.722
			c-1.367,0.82-2.662,1.768-3.859,2.822c0.201,0.158,0.414,0.319,0.621,0.48c0.973-1.478,2.504-2.602,4.125-3.27
			c0.467-0.193,0.264-0.96-0.207-0.764c-1.828,0.751-3.508,1.972-4.602,3.631c-0.26,0.396,0.303,0.765,0.623,0.482
			c1.146-1.011,2.389-1.91,3.701-2.699c0.371-0.225,0.119-0.9-0.309-0.724c-1.402,0.572-2.646,1.438-3.93,2.225
			c-1.307,0.799-2.805,1.72-4.4,1.556c0.07,0.246,0.139,0.493,0.203,0.739c0.568-0.293,1.211-0.29,1.836-0.292
			c-0.068-0.245-0.131-0.49-0.199-0.738c-0.686,0.406-1.295,0.846-1.826,1.443c-0.293,0.327,0.084,0.86,0.482,0.622
			c1.162-0.689,2.324-1.382,3.49-2.07c0.434-0.262,0.041-0.946-0.402-0.685c-1.66,0.984-3.746,2.292-5.705,1.382
			c-0.035,0.241-0.066,0.482-0.096,0.724c2.273-0.609,4.244-2.072,6.227-3.271c2.031-1.223,4.496-2.629,6.941-1.906
			c0-0.255,0-0.509,0-0.763c-4.977,0.757-7.996,6.114-13.275,5.852C38.002,28.981,38.008,29.772,38.512,29.797L38.512,29.797z"/>
	</g>
</g>
<g>
	<g>
		<path fill="#231F20" d="M42.189,27.712c2.416,0.74,4.521-0.95,5.68-2.941c0.242-0.416-0.283-0.747-0.621-0.48
			c-1.627,1.297-3.146,2.709-4.652,4.143c0.207,0.158,0.414,0.318,0.623,0.479c0.838-1.586,2.207-2.634,3.637-3.655
			c-0.16-0.209-0.322-0.417-0.479-0.623c-0.939,1.084-1.936,1.635-3.318,1.97c0.07,0.254,0.141,0.509,0.209,0.762
			c0.994-0.41,1.918-0.97,2.906-1.38c0.473-0.191,0.266-0.958-0.207-0.762c-0.992,0.41-1.91,0.97-2.908,1.38
			c-0.457,0.19-0.301,0.887,0.209,0.762c1.512-0.365,2.646-0.987,3.666-2.17c0.277-0.321-0.09-0.898-0.48-0.623
			c-1.535,1.098-3.023,2.234-3.922,3.938c-0.209,0.399,0.291,0.795,0.623,0.48c1.506-1.431,3.025-2.844,4.652-4.142
			c-0.205-0.158-0.418-0.319-0.621-0.479c-0.982,1.686-2.719,3.212-4.785,2.577C41.91,26.799,41.701,27.565,42.189,27.712
			L42.189,27.712z"/>
	</g>
</g>
<g>
	<g>
		<path fill="#231F20" d="M40.26,29.453c1.93-0.064,3.494-1.33,5.34-1.74c-0.102-0.24-0.203-0.482-0.309-0.724
			c-0.643,0.331-1.387,0.359-2.035,0.691c-0.35,0.181-0.182,0.751,0.201,0.738c2.615-0.076,4.248-2.588,6.305-3.848
			c-0.156-0.207-0.318-0.416-0.48-0.624c-1.893,2.2-4.445,3.338-7.092,4.386c-0.418,0.165-0.354,0.739,0.105,0.777
			c3.439,0.291,5.547-3.167,8.344-4.54c0.457-0.226,0.057-0.909-0.4-0.685c-2.633,1.294-4.736,4.703-7.943,4.432
			c0.035,0.259,0.07,0.519,0.107,0.778c2.764-1.097,5.461-2.286,7.441-4.59c0.281-0.327-0.078-0.868-0.479-0.621
			c-0.992,0.608-1.852,1.377-2.73,2.135c-0.918,0.794-1.914,1.571-3.178,1.606c0.066,0.247,0.133,0.492,0.199,0.738
			c0.645-0.33,1.389-0.355,2.037-0.688c0.416-0.215,0.117-0.817-0.307-0.726c-1.76,0.392-3.297,1.652-5.127,1.712
			C39.748,28.678,39.748,29.47,40.26,29.453L40.26,29.453z"/>
	</g>
</g>
<g>
	<g>
		<path fill="#231F20" d="M43.354,28.33c-1.477,0.375-2.803,1.111-4.168,1.765c-0.459,0.221-0.059,0.904,0.4,0.685
			c1.307-0.625,2.564-1.327,3.979-1.685C44.057,28.968,43.844,28.204,43.354,28.33L43.354,28.33z"/>
	</g>
</g>
<path fill="none" stroke="#231F20" stroke-width="0.5816" stroke-miterlimit="10" d="M37.205,33.153
	c3-0.126,6.146,1.438,9.305,1.744c2.734,0.266,6.426,1.211,6.689,4.655"/>
<path fill="none" stroke="#231F20" stroke-width="0.5816" stroke-miterlimit="10" d="M37.205,33.153
	c2.121-0.064,1.965,1.309,3.414,2.107c1.143,0.628,3.174,0.795,4.436,1.092c2.555,0.602,5.359,3.236,7.85,3.2"/>
<path fill="none" stroke="#231F20" stroke-width="0.5816" stroke-miterlimit="10" d="M37.205,33.153
	c0.357,2.91,3.73,3.988,6.105,4.363c3.029,0.48,6.064,1.46,9.018,2.036"/>
<g>
	<g>
		<path fill="#231F20" d="M38.184,35.793c1.523,1.105,3.539,1.514,5.34,1.888c2.021,0.418,4.068,0.66,6.09,1.057
			c0.457,0.091,0.652-0.61,0.193-0.7c-1.889-0.374-3.799-0.611-5.691-0.977c-1.865-0.363-3.99-0.756-5.566-1.893
			C38.168,34.889,37.811,35.52,38.184,35.793L38.184,35.793z"/>
	</g>
</g>
<g>
	<g>
		<path fill="#231F20" d="M40.889,36.701c2.107,0.588,4.289,0.869,6.398,1.454c0.449,0.128,0.641-0.576,0.195-0.7
			c-2.113-0.589-4.293-0.865-6.402-1.453C40.627,35.875,40.439,36.576,40.889,36.701L40.889,36.701z"/>
	</g>
</g>
<g>
	<g>
		<path fill="#231F20" d="M36.947,33.702c0.838,0.835,1.637,1.53,2.873,1.561c0.285,0.004,0.439-0.314,0.314-0.547
			c-0.154-0.294-1.887-2.496-2.117-1.37c-0.029,0.159,0.018,0.327,0.166,0.411c0.037,0.02,0.072,0.039,0.109,0.061
			c0-0.119,0-0.245,0-0.366c0.172-0.106,0.166-0.137-0.016-0.087c-0.164,0.012-0.328,0.007-0.494,0.007
			c-0.467,0.001-0.467,0.728,0,0.728c0.385,0,0.885,0.067,1.137-0.281c0.082-0.109,0.053-0.254,0-0.366
			c-0.068-0.159-0.227-0.24-0.373-0.321c0.059,0.136,0.113,0.274,0.168,0.409c-0.021,0.04-0.049,0.08-0.068,0.118
			c-0.082,0.036-0.172,0.071-0.254,0.105c-0.135,0.007,0.018,0.046,0.1,0.119c0.143,0.119,0.271,0.254,0.396,0.392
			c0.236,0.248,0.457,0.51,0.617,0.811c0.104-0.183,0.209-0.367,0.312-0.55c-1.031-0.025-1.668-0.656-2.361-1.346
			C37.129,32.854,36.618,33.368,36.947,33.702L36.947,33.702z"/>
	</g>
</g>
<g>
	<g>
		<path fill="#231F20" d="M48.158,38.155c1.566,0.327,3.088,0.84,4.652,1.165c0.457,0.095,0.656-0.604,0.193-0.702
			c-1.566-0.324-3.086-0.833-4.65-1.161C47.895,37.359,47.699,38.058,48.158,38.155L48.158,38.155z"/>
	</g>
</g>
<g>
	<g>
		<path fill="#231F20" d="M16.458,24.944c4.911,0.972,8.866,4.559,12.709,7.523c0.373,0.287,0.734-0.346,0.367-0.627
			c-3.9-3.007-7.901-6.613-12.883-7.598C16.194,24.152,15.998,24.852,16.458,24.944L16.458,24.944z"/>
	</g>
</g>
<g>
	<g>
		<path fill="#231F20" d="M16.081,25.199c4.094,3.131,8.639,5.77,13.464,7.597c0.44,0.168,0.628-0.536,0.193-0.701
			c-4.764-1.804-9.251-4.433-13.291-7.525C16.076,24.285,15.715,24.916,16.081,25.199L16.081,25.199z"/>
	</g>
</g>
<g>
	<g>
		<path fill="#231F20" d="M17.041,25.816c1.716,0.627,3.425,1.272,5.064,2.085c1.6,0.791,3.28,1.777,4.315,3.274
			c0.265,0.382,0.894,0.02,0.626-0.366c-1.034-1.499-2.608-2.504-4.192-3.342c-1.798-0.947-3.714-1.658-5.621-2.352
			C16.792,24.955,16.604,25.657,17.041,25.816L17.041,25.816z"/>
	</g>
</g>
<g>
	<g>
		<path fill="#231F20" d="M20.314,27.103c0.912,1.746,2.464,2.742,4.288,3.368c0.317,0.108,0.552-0.27,0.411-0.534
			c-0.712-1.324-2.089-2.008-3.331-2.75c-0.403-0.241-0.769,0.389-0.367,0.628c1.129,0.674,2.42,1.283,3.069,2.487
			c0.135-0.176,0.274-0.355,0.41-0.534c-1.651-0.565-3.029-1.451-3.855-3.031C20.724,26.322,20.096,26.688,20.314,27.103
			L20.314,27.103z"/>
	</g>
</g>
<g>
	<g>
		<path fill="#231F20" d="M17.115,26.231c1.123,1.463,2.516,2.561,4.226,3.261c1.818,0.744,3.751,1.154,5.588,1.85
			c0.031-0.238,0.063-0.475,0.095-0.714c-1.343-0.017-2.685-0.391-3.909-0.929c-1.183-0.52-2.503-1.333-3.011-2.584
			c-0.084,0.149-0.169,0.297-0.252,0.447c0.548-0.148,0.749,0.293,1.173,0.544c0.405,0.24,0.771-0.39,0.367-0.628
			c-0.675-0.397-0.857-0.852-1.733-0.618c-0.176,0.046-0.33,0.264-0.254,0.447c1.102,2.716,4.911,4.015,7.62,4.048
			c0.435,0.005,0.465-0.576,0.098-0.715c-1.599-0.605-3.266-1.004-4.877-1.575c-1.801-0.636-3.334-1.678-4.502-3.201
			C17.462,25.498,16.828,25.86,17.115,26.231L17.115,26.231z"/>
	</g>
</g>
<g>
	<g>
		<path fill="#231F20" d="M19.366,28.135c1.172,1.362,2.741,2.238,4.522,2.493c0.459,0.065,0.657-0.635,0.195-0.702
			c-1.673-0.237-3.103-1.026-4.203-2.306C19.574,27.265,19.061,27.782,19.366,28.135L19.366,28.135z"/>
	</g>
</g>
<g>
	<g>
		<path fill="#231F20" d="M18.354,26.095c-0.311-0.312-0.605-0.628-0.815-1.017c-0.173-0.32-0.686-0.175-0.679,0.183
			c0.011,0.5,0.139,0.92,0.456,1.309c0.329,0.401,0.84,0.662,1.251,0.968c0.378,0.28,0.738-0.352,0.366-0.628
			c-0.625-0.464-1.326-0.778-1.346-1.649c-0.226,0.061-0.453,0.123-0.677,0.184c0.236,0.44,0.577,0.812,0.929,1.165
			C18.171,26.939,18.686,26.426,18.354,26.095L18.354,26.095z"/>
	</g>
</g>
<g>
	<g>
		<path fill="#231F20" d="M16.482,38.883c1.061-2.918,4.449-2.774,7.024-2.652c2.422,0.118,5.486,0.584,7.497-1.113
			c0.359-0.304-0.159-0.816-0.515-0.518c-1.008,0.849-2.403,0.984-3.671,1.017c-1.528,0.032-3.056-0.128-4.583-0.16
			c-2.661-0.052-5.438,0.439-6.451,3.23C15.622,39.13,16.324,39.317,16.482,38.883L16.482,38.883z"/>
	</g>
</g>
<g>
	<g>
		<path fill="#231F20" d="M16.133,39.145c5.305,0.363,9.381-4.079,14.613-3.924c0.47,0.014,0.469-0.713,0-0.728
			c-5.249-0.155-9.334,4.283-14.613,3.928C15.666,38.389,15.667,39.116,16.133,39.145L16.133,39.145z"/>
	</g>
</g>
<g>
	<g>
		<path fill="#231F20" d="M16.448,38.917c1.374-0.404,2.779-0.699,4.162-1.063c1.207-0.316,2.515-0.66,3.559-1.371
			c0.289-0.197,0.196-0.676-0.183-0.676c-2.704,0-5.288,0.193-7.236,2.283c-0.236,0.253-0.051,0.582,0.255,0.622
			c1.693,0.219,3.443-0.089,4.619-1.413c0.235-0.266,0.013-0.709-0.353-0.609c-0.95,0.258-1.828,0.689-2.705,1.129
			c-0.389,0.193-0.104,0.737,0.279,0.666c1.163-0.234,2.328-0.43,3.491-0.66c0.458-0.092,0.265-0.789-0.194-0.697
			c-1.162,0.229-2.329,0.424-3.49,0.655c0.094,0.219,0.188,0.439,0.281,0.663c0.821-0.408,1.641-0.811,2.532-1.055
			c-0.12-0.203-0.237-0.405-0.355-0.608c-1.059,1.194-2.595,1.398-4.105,1.202c0.085,0.207,0.171,0.413,0.258,0.623
			c1.816-1.953,4.214-2.072,6.722-2.072c-0.062-0.229-0.124-0.453-0.184-0.68c-1.051,0.719-2.37,1.033-3.586,1.354
			c-1.316,0.346-2.653,0.623-3.96,1.007C15.807,38.348,15.997,39.05,16.448,38.917L16.448,38.917z"/>
	</g>
</g>
<g>
	<g>
		<path fill="#231F20" d="M20.277,36.094c2.761,0.162,5.32-1.266,8.071-1.091c-0.062-0.227-0.123-0.45-0.185-0.679
			c-0.859,0.618-1.803,1.014-2.87,1.044c0.061,0.224,0.123,0.452,0.183,0.676c1.188-0.883,2.767-0.824,4.178-0.824
			c0.361,0,0.498-0.496,0.184-0.679c-0.755-0.436-1.532-0.283-2.362-0.265c-0.47,0.009-0.47,0.736,0,0.727
			c0.673-0.014,1.382-0.186,1.996,0.168c0.062-0.228,0.123-0.451,0.184-0.678c-1.531,0-3.257-0.032-4.544,0.921
			c-0.27,0.201-0.21,0.691,0.183,0.677c1.19-0.031,2.274-0.447,3.237-1.139c0.295-0.212,0.191-0.652-0.184-0.677
			c-2.755-0.18-5.31,1.257-8.069,1.092C19.809,35.34,19.811,36.069,20.277,36.094L20.277,36.094z"/>
	</g>
</g>
<path fill="none" stroke="#231F20" stroke-width="0.5816" stroke-miterlimit="10" d="M18.968,38.781
	c2.187,0,4.062,0.134,6.054-0.705c1.821-0.77,3.471-1.963,5.289-2.563"/>
<g>
	<g>
		<path fill="#231F20" d="M18,37.824c1.271,0.422,2.433,0.214,3.605-0.385c1.208-0.619,2.259-1.422,3.689-1.346
			c-0.034-0.238-0.065-0.477-0.097-0.713c-1.881,0.706-3.785,1.485-5.792,1.732c0.061,0.227,0.122,0.45,0.184,0.674
			c2.804-1.611,6.153-2.753,9.412-2.784c0.468-0.002,0.468-0.732,0-0.727c-3.388,0.034-6.861,1.206-9.781,2.884
			c-0.292,0.168-0.19,0.725,0.185,0.679c2.081-0.26,4.035-1.022,5.985-1.761c0.381-0.139,0.328-0.69-0.096-0.709
			c-2.633-0.139-4.427,2.643-7.101,1.757C17.746,36.977,17.557,37.679,18,37.824L18,37.824z"/>
	</g>
</g>
<g>
	<g>
		<path fill="#231F20" d="M17.66,39.145c0.8,0,1.599,0,2.399,0c0.469,0,0.469-0.724,0-0.724c-0.8,0-1.6,0-2.399,0
			C17.193,38.421,17.193,39.145,17.66,39.145L17.66,39.145z"/>
	</g>
</g>
<g>
	<g>
		<path fill="#231F20" d="M16.531,25.299c0.457,0.479,0.836,0.978,1.381,1.367c0.343,0.242,0.732-0.29,0.441-0.572
			c-0.431-0.419-0.993-0.789-1.215-1.368c-0.234,0.065-0.468,0.128-0.702,0.195c0.158,0.394,0.302,0.805,0.555,1.15
			c0.284,0.389,0.694,0.677,1.066,0.973c0.146-0.191,0.292-0.381,0.439-0.571c-0.973-0.415-1.6-1.169-2.327-1.906
			c-0.052,0.203-0.105,0.405-0.159,0.608c1.351-0.334,2.161,0.705,2.918,1.651c0.293,0.365,0.804-0.152,0.515-0.515
			c-0.953-1.189-1.984-2.242-3.626-1.839c-0.269,0.067-0.347,0.418-0.161,0.607c0.77,0.779,1.444,1.581,2.473,2.021
			c0.343,0.147,0.792-0.289,0.44-0.573c-0.697-0.558-1.099-0.969-1.432-1.801c-0.172-0.426-0.872-0.245-0.702,0.194
			c0.28,0.733,0.853,1.153,1.402,1.688c0.147-0.19,0.295-0.38,0.44-0.572c-0.49-0.35-0.823-0.821-1.235-1.251
			C16.719,24.447,16.208,24.961,16.531,25.299L16.531,25.299z"/>
	</g>
</g>
<g>
	<g>
		<path fill="#231F20" d="M32.875,36.551c-2.832,3.471-6.169,7.73-5.923,12.471c0.009,0.162,0.104,0.31,0.268,0.354
			c2.608,0.682,4.021-2.456,4.729-4.4c0.929-2.547,1.532-5.446,1.545-8.166c0.003-0.471-0.725-0.471-0.726,0
			c-0.013,2.377-0.532,4.83-1.227,7.092c-0.507,1.667-1.732,5.4-4.128,4.774c0.088,0.113,0.178,0.229,0.266,0.347
			c-0.236-4.532,3-8.639,5.708-11.958C33.683,36.704,33.173,36.187,32.875,36.551L32.875,36.551z"/>
	</g>
</g>
<g>
	<g>
		<path fill="#231F20" d="M30.746,39.038c-0.855,3.632-2.346,7.036-3.779,10.471c-0.091,0.217,0.134,0.463,0.35,0.457
			c2.303-0.048,3.203-2.396,3.709-4.288c0.336-1.251,0.548-2.531,0.809-3.798c0.221-1.062,0.434-2.216,1.03-3.145
			c-0.225-0.061-0.451-0.124-0.677-0.184c0.249,3.455-2.203,6.688-4.022,9.413c0.222,0.095,0.444,0.188,0.663,0.279
			c0.792-2.126,1.364-4.436,2.814-6.239c0.293-0.359-0.217-0.875-0.513-0.511c-1.541,1.91-2.163,4.301-3,6.558
			c-0.152,0.409,0.447,0.605,0.664,0.279c1.892-2.83,4.38-6.183,4.122-9.78c-0.025-0.359-0.475-0.496-0.678-0.184
			c-1.113,1.728-1.234,4.1-1.661,6.062c-0.379,1.747-0.983,4.762-3.259,4.813c0.115,0.149,0.233,0.302,0.349,0.455
			c1.432-3.429,2.926-6.837,3.781-10.468C31.555,38.774,30.852,38.581,30.746,39.038L30.746,39.038z"/>
	</g>
</g>
<g>
	<g>
		<path fill="#231F20" d="M31.605,40.589c-0.296,2.423-1.253,4.822-2.802,6.724c0.206,0.083,0.414,0.169,0.621,0.252
			c-0.233-1.942,0.555-3.641,1.404-5.336c0.212-0.423-0.367-0.759-0.626-0.37c-1.267,1.893-2.616,3.902-2.377,6.291
			c0.034,0.333,0.363,0.459,0.621,0.259c2.673-2.104,2.249-6.224,4.363-8.729c0.3-0.352-0.214-0.871-0.515-0.512
			c-1.056,1.252-1.548,2.835-2.045,4.368c-0.499,1.546-0.984,3.309-2.318,4.357c0.208,0.084,0.415,0.167,0.622,0.256
			c-0.227-2.26,1.082-4.137,2.276-5.923c-0.208-0.124-0.418-0.245-0.626-0.368c-0.901,1.806-1.751,3.642-1.504,5.706
			c0.034,0.276,0.394,0.534,0.622,0.26c1.681-2.064,2.692-4.603,3.014-7.235C32.389,40.125,31.663,40.13,31.605,40.589
			L31.605,40.589z"/>
	</g>
</g>
<g>
	<g>
		<path fill="#231F20" d="M27.534,48.731c0.024,0.42,0.407,1.139,0.107,1.487c0.188,0.026,0.38,0.048,0.57,0.074
			c-0.263-0.583-0.24-1.226-0.24-1.852c-0.001-0.336-0.527-0.531-0.676-0.187c-0.276,0.635-0.339,1.239-0.342,1.928
			c-0.001,0.398,0.474,0.454,0.678,0.186c0.752-0.989,1.623-1.886,2.326-2.91c-0.209-0.121-0.417-0.24-0.627-0.366
			c-0.658,1.024-1.086,2.179-1.745,3.199c-0.222,0.346,0.298,0.753,0.571,0.438c2.47-2.822,3.836-6.449,4.747-10.046
			c-0.237-0.031-0.476-0.063-0.714-0.094c-0.355,3.621-2.783,6.689-4.604,9.704c-0.243,0.402,0.387,0.769,0.628,0.366
			c1.901-3.151,4.331-6.291,4.704-10.072c0.041-0.411-0.615-0.485-0.714-0.096c-0.879,3.47-2.175,6.997-4.56,9.728
			c0.19,0.147,0.38,0.297,0.57,0.44c0.66-1.026,1.087-2.175,1.746-3.199c0.256-0.398-0.363-0.747-0.627-0.368
			c-0.703,1.026-1.575,1.926-2.327,2.909c0.227,0.062,0.452,0.121,0.68,0.184c0.001-0.541,0.02-1.049,0.239-1.56
			c-0.225-0.062-0.451-0.125-0.676-0.184c0,0.773,0.017,1.501,0.339,2.218c0.094,0.207,0.428,0.238,0.571,0.069
			c0.607-0.7,0.154-1.189,0.106-1.999C28.234,48.266,27.506,48.264,27.534,48.731L27.534,48.731z"/>
	</g>
</g>
<path fill="none" stroke="#231F20" stroke-width="0.5816" stroke-miterlimit="10" d="M35.75,38.264
	c-0.464,4.313,6.002,10.436,10.469,10.18"/>
<path fill="none" stroke="#231F20" stroke-width="0.5816" stroke-miterlimit="10" d="M35.75,38.552
	c1.67,0.095,5.365,2.897,6.689,4.075c1.961,1.749,2.02,4.42,3.777,6.395"/>
<path fill="none" stroke="#231F20" stroke-width="0.5816" stroke-miterlimit="10" d="M36.332,38.846
	c0.607,2.278,8.488,10.988,10.469,10.176"/>
<g>
	<g>
		<path fill="#231F20" d="M29.061,14.778c0.469,0,0.469-0.728,0-0.728C28.593,14.051,28.593,14.778,29.061,14.778L29.061,14.778z"/>
	</g>
</g>
<g>
	<g>
		<path fill="#231F20" d="M31.679,14.778c0.467,0,0.467-0.728,0-0.728C31.209,14.051,31.209,14.778,31.679,14.778L31.679,14.778z"/>
	</g>
</g>
<g>
	<g>
		<path fill="#231F20" d="M29.933,14.778c0.47,0,0.47-0.728,0-0.728C29.464,14.051,29.464,14.778,29.933,14.778L29.933,14.778z"/>
	</g>
</g>
<g>
	<g>
		<path fill="#231F20" d="M28.769,15.359c0.469,0,0.469-0.726,0-0.726C28.3,14.632,28.3,15.359,28.769,15.359L28.769,15.359z"/>
	</g>
</g>
<g>
	<g>
		<path fill="#231F20" d="M30.225,16.231c0.469,0,0.469-0.727,0-0.727C29.755,15.505,29.755,16.231,30.225,16.231L30.225,16.231z"/>
	</g>
</g>
<g>
	<g>
		<path fill="#231F20" d="M32.551,16.231c0.468,0,0.468-0.727,0-0.727C32.082,15.505,32.082,16.231,32.551,16.231L32.551,16.231z"/>
	</g>
</g>
<g>
	<g>
		<path fill="#231F20" d="M32.551,15.067c0.468,0,0.468-0.726,0-0.726C32.082,14.342,32.082,15.067,32.551,15.067L32.551,15.067z"/>
	</g>
</g>
<g>
	<g>
		<path fill="#231F20" d="M34.586,15.067c0.468,0,0.468-0.726,0-0.726C34.118,14.342,34.118,15.067,34.586,15.067L34.586,15.067z"/>
	</g>
</g>
<g>
	<g>
		<path fill="#231F20" d="M36.043,15.359c0.469,0,0.469-0.726,0-0.726C35.572,14.632,35.572,15.359,36.043,15.359L36.043,15.359z"/>
	</g>
</g>
<g>
	<g>
		<path fill="#231F20" d="M37.205,13.906c0.469,0,0.469-0.726,0-0.726C36.735,13.179,36.735,13.906,37.205,13.906L37.205,13.906z"/>
	</g>
</g>
<g>
	<g>
		<path fill="#231F20" d="M38.658,13.906c0.469,0,0.469-0.726,0-0.726C38.189,13.179,38.189,13.906,38.658,13.906L38.658,13.906z"/>
	</g>
</g>
<g>
	<g>
		<path fill="#231F20" d="M37.783,15.067c0.471,0,0.471-0.726,0-0.726C37.316,14.342,37.316,15.067,37.783,15.067L37.783,15.067z"/>
	</g>
</g>
<g>
	<g>
		<path fill="#231F20" d="M44.182,17.394c0.475,0,0.475-0.726,0-0.726C43.719,16.667,43.719,17.394,44.182,17.394L44.182,17.394z"/>
	</g>
</g>
<g>
	<g>
		<path fill="#231F20" d="M43.02,18.848c0.467,0,0.467-0.726,0-0.726C42.555,18.123,42.555,18.848,43.02,18.848L43.02,18.848z"/>
	</g>
</g>
<g>
	<g>
		<path fill="#231F20" d="M43.893,19.141c0.469,0,0.469-0.727,0-0.727C43.424,18.413,43.424,19.141,43.893,19.141L43.893,19.141z"/>
	</g>
</g>
<g>
	<g>
		<path fill="#231F20" d="M45.346,19.431c0.469,0,0.469-0.726,0-0.726C44.879,18.705,44.879,19.431,45.346,19.431L45.346,19.431z"/>
	</g>
</g>
<g>
	<g>
		<path fill="#231F20" d="M44.475,18.559c0.471,0,0.471-0.727,0-0.727S44.004,18.559,44.475,18.559L44.475,18.559z"/>
	</g>
</g>
<g>
	<g>
		<path fill="#231F20" d="M45.928,18.559c0.471,0,0.471-0.727,0-0.727C45.463,17.832,45.463,18.559,45.928,18.559L45.928,18.559z"/>
	</g>
</g>
<g>
	<g>
		<path fill="#231F20" d="M46.51,19.141c0.473,0,0.473-0.727,0-0.727C46.043,18.413,46.043,19.141,46.51,19.141L46.51,19.141z"/>
	</g>
</g>
<g>
	<g>
		<path fill="#231F20" d="M47.674,19.722c0.469,0,0.469-0.728,0-0.728C47.207,18.994,47.207,19.722,47.674,19.722L47.674,19.722z"/>
	</g>
</g>
<g>
	<g>
		<path fill="#231F20" d="M49.418,20.013c0.471,0,0.471-0.728,0-0.728S48.947,20.013,49.418,20.013L49.418,20.013z"/>
	</g>
</g>
<g>
	<g>
		<path fill="#231F20" d="M50.293,21.176c0.467,0,0.467-0.726,0-0.726C49.82,20.449,49.82,21.176,50.293,21.176L50.293,21.176z"/>
	</g>
</g>
<g>
	<g>
		<path fill="#231F20" d="M45.346,16.523c0.469,0,0.469-0.727,0-0.727C44.879,15.796,44.879,16.523,45.346,16.523L45.346,16.523z"/>
	</g>
</g>
<g>
	<g>
		<path fill="#231F20" d="M46.801,18.268c0.471,0,0.471-0.728,0-0.728C46.332,17.541,46.332,18.268,46.801,18.268L46.801,18.268z"/>
	</g>
</g>
<g>
	<g>
		<path fill="#231F20" d="M47.674,18.268c0.469,0,0.469-0.728,0-0.728C47.207,17.541,47.207,18.268,47.674,18.268L47.674,18.268z"/>
	</g>
</g>
<g>
	<g>
		<path fill="#231F20" d="M47.965,19.141c0.467,0,0.467-0.727,0-0.727C47.496,18.413,47.496,19.141,47.965,19.141L47.965,19.141z"/>
	</g>
</g>
<g>
	<g>
		<path fill="#231F20" d="M48.256,19.431c0.469,0,0.469-0.726,0-0.726C47.785,18.705,47.785,19.431,48.256,19.431L48.256,19.431z"/>
	</g>
</g>
<g>
	<g>
		<path fill="#231F20" d="M49.129,19.431c0.469,0,0.469-0.726,0-0.726S48.66,19.431,49.129,19.431L49.129,19.431z"/>
	</g>
</g>
<g>
	<g>
		<path fill="#231F20" d="M41.857,21.758c0.473,0,0.473-0.728,0-0.728C41.389,21.031,41.389,21.758,41.857,21.758L41.857,21.758z"/>
	</g>
</g>
<g>
	<g>
		<path fill="#231F20" d="M44.766,21.758c0.473,0,0.473-0.728,0-0.728C44.297,21.031,44.297,21.758,44.766,21.758L44.766,21.758z"/>
	</g>
</g>
<g>
	<g>
		<path fill="#231F20" d="M47.094,21.758c0.469,0,0.469-0.728,0-0.728C46.623,21.031,46.623,21.758,47.094,21.758L47.094,21.758z"/>
	</g>
</g>
<g>
	<g>
		<path fill="#231F20" d="M39.24,23.21c0.467,0,0.467-0.727,0-0.727C38.771,22.484,38.771,23.21,39.24,23.21L39.24,23.21z"/>
	</g>
</g>
<g>
	<g>
		<path fill="#231F20" d="M41.857,23.793c0.473,0,0.473-0.728,0-0.728C41.389,23.066,41.389,23.793,41.857,23.793L41.857,23.793z"/>
	</g>
</g>
<g>
	<g>
		<path fill="#231F20" d="M33.132,22.34c0.47,0,0.47-0.729,0-0.729C32.663,21.612,32.663,22.34,33.132,22.34L33.132,22.34z"/>
	</g>
</g>
<g>
	<g>
		<path fill="#231F20" d="M34.006,21.176c0.468,0,0.468-0.726,0-0.726C33.536,20.449,33.536,21.176,34.006,21.176L34.006,21.176z"/>
	</g>
</g>
<g>
	<g>
		<path fill="#231F20" d="M50.873,26.119c0.469,0,0.469-0.726,0-0.726S50.404,26.119,50.873,26.119L50.873,26.119z"/>
	</g>
</g>
<g>
	<g>
		<path fill="#231F20" d="M52.619,26.702c0.467,0,0.467-0.726,0-0.726C52.146,25.975,52.146,26.702,52.619,26.702L52.619,26.702z"/>
	</g>
</g>
<g>
	<g>
		<path fill="#231F20" d="M53.199,26.702c0.471,0,0.471-0.726,0-0.726C52.729,25.975,52.729,26.702,53.199,26.702L53.199,26.702z"/>
	</g>
</g>
<g>
	<g>
		<path fill="#231F20" d="M53.779,26.702c0.473,0,0.473-0.726,0-0.726C53.312,25.975,53.312,26.702,53.779,26.702L53.779,26.702z"/>
	</g>
</g>
<g>
	<g>
		<path fill="#231F20" d="M53.779,26.991c0.473,0,0.473-0.726,0-0.726C53.312,26.266,53.312,26.991,53.779,26.991L53.779,26.991z"/>
	</g>
</g>
<g>
	<g>
		<path fill="#231F20" d="M53.779,26.991c0.473,0,0.473-0.726,0-0.726C53.312,26.266,53.312,26.991,53.779,26.991L53.779,26.991z"/>
	</g>
</g>
<g>
	<g>
		<path fill="#231F20" d="M53.49,25.538c0.471,0,0.471-0.727,0-0.727C53.021,24.81,53.021,25.538,53.49,25.538L53.49,25.538z"/>
	</g>
</g>
<g>
	<g>
		<path fill="#231F20" d="M52.906,25.538c0.471,0,0.471-0.727,0-0.727C52.441,24.81,52.441,25.538,52.906,25.538L52.906,25.538z"/>
	</g>
</g>
<g>
	<g>
		<path fill="#231F20" d="M52.906,25.83c0.471,0,0.471-0.728,0-0.728C52.441,25.101,52.441,25.83,52.906,25.83L52.906,25.83z"/>
	</g>
</g>
<g>
	<g>
		<path fill="#231F20" d="M53.199,26.412c0.471,0,0.471-0.727,0-0.727C52.729,25.685,52.729,26.412,53.199,26.412L53.199,26.412z"/>
	</g>
</g>
<g>
	<g>
		<path fill="#231F20" d="M53.779,26.412c0.473,0,0.473-0.727,0-0.727C53.312,25.685,53.312,26.412,53.779,26.412L53.779,26.412z"/>
	</g>
</g>
<g>
	<g>
		<path fill="#231F20" d="M53.779,26.412c0.473,0,0.473-0.727,0-0.727C53.312,25.685,53.312,26.412,53.779,26.412L53.779,26.412z"/>
	</g>
</g>
<g>
	<g>
		<path fill="#231F20" d="M52.906,29.609c0.471,0,0.471-0.727,0-0.727C52.441,28.883,52.441,29.609,52.906,29.609L52.906,29.609z"/>
	</g>
</g>
<g>
	<g>
		<path fill="#231F20" d="M51.166,29.318c0.467,0,0.467-0.726,0-0.726C50.695,28.593,50.695,29.318,51.166,29.318L51.166,29.318z"/>
	</g>
</g>
<g>
	<g>
		<path fill="#231F20" d="M49.418,30.192c0.471,0,0.471-0.728,0-0.728S48.947,30.192,49.418,30.192L49.418,30.192z"/>
	</g>
</g>
<g>
	<g>
		<path fill="#231F20" d="M49.129,30.192c0.469,0,0.469-0.728,0-0.728S48.66,30.192,49.129,30.192L49.129,30.192z"/>
	</g>
</g>
<g>
	<g>
		<path fill="#231F20" d="M54.361,29.609c0.471,0,0.471-0.727,0-0.727C53.895,28.883,53.895,29.609,54.361,29.609L54.361,29.609z"/>
	</g>
</g>
<g>
	<g>
		<path fill="#231F20" d="M48.838,33.681c0.469,0,0.469-0.727,0-0.727S48.369,33.681,48.838,33.681L48.838,33.681z"/>
	</g>
</g>
<g>
	<g>
		<path fill="#231F20" d="M44.766,33.681c0.473,0,0.473-0.727,0-0.727C44.297,32.954,44.297,33.681,44.766,33.681L44.766,33.681z"/>
	</g>
</g>
<g>
	<g>
		<path fill="#231F20" d="M46.801,31.936c0.471,0,0.471-0.726,0-0.726C46.332,31.209,46.332,31.936,46.801,31.936L46.801,31.936z"/>
	</g>
</g>
<g>
	<g>
		<path fill="#231F20" d="M46.217,33.1c0.475,0,0.475-0.728,0-0.728C45.752,32.373,45.752,33.1,46.217,33.1L46.217,33.1z"/>
	</g>
</g>
<g>
	<g>
		<path fill="#231F20" d="M43.311,31.645c0.471,0,0.471-0.727,0-0.727C42.842,30.918,42.842,31.645,43.311,31.645L43.311,31.645z"/>
	</g>
</g>
<g>
	<g>
		<path fill="#231F20" d="M45.346,30.773c0.469,0,0.469-0.728,0-0.728C44.879,30.044,44.879,30.773,45.346,30.773L45.346,30.773z"/>
	</g>
</g>
<g>
	<g>
		<path fill="#231F20" d="M50.873,33.681c0.469,0,0.469-0.727,0-0.727S50.404,33.681,50.873,33.681L50.873,33.681z"/>
	</g>
</g>
<g>
	<g>
		<path fill="#231F20" d="M50.873,32.518c0.469,0,0.469-0.728,0-0.728S50.404,32.518,50.873,32.518L50.873,32.518z"/>
	</g>
</g>
<g>
	<g>
		<path fill="#231F20" d="M52.619,31.064c0.467,0,0.467-0.728,0-0.728C52.146,30.337,52.146,31.064,52.619,31.064L52.619,31.064z"/>
	</g>
</g>
<g>
	<g>
		<path fill="#231F20" d="M50.58,30.773c0.469,0,0.469-0.728,0-0.728C50.109,30.044,50.109,30.773,50.58,30.773L50.58,30.773z"/>
	</g>
</g>
<g>
	<g>
		<path fill="#231F20" d="M52.328,36.59c0.467,0,0.467-0.727,0-0.727C51.859,35.863,51.859,36.59,52.328,36.59L52.328,36.59z"/>
	</g>
</g>
<g>
	<g>
		<path fill="#231F20" d="M53.49,37.462c0.471,0,0.471-0.729,0-0.729C53.021,36.732,53.021,37.462,53.49,37.462L53.49,37.462z"/>
	</g>
</g>
<g>
	<g>
		<path fill="#231F20" d="M54.068,36.882c0.469,0,0.469-0.728,0-0.728C53.604,36.154,53.604,36.882,54.068,36.882L54.068,36.882z"/>
	</g>
</g>
<g>
	<g>
		<path fill="#231F20" d="M54.943,38.043c0.471,0,0.471-0.727,0-0.727C54.477,37.316,54.477,38.043,54.943,38.043L54.943,38.043z"/>
	</g>
</g>
<g>
	<g>
		<path fill="#231F20" d="M54.943,38.917c0.471,0,0.471-0.726,0-0.726C54.477,38.191,54.477,38.917,54.943,38.917L54.943,38.917z"/>
	</g>
</g>
<g>
	<g>
		<path fill="#231F20" d="M53.779,40.078c0.473,0,0.473-0.728,0-0.728C53.312,39.353,53.312,40.078,53.779,40.078L53.779,40.078z"/>
	</g>
</g>
<g>
	<g>
		<path fill="#231F20" d="M55.816,38.043c0.473,0,0.473-0.727,0-0.727C55.35,37.316,55.35,38.043,55.816,38.043L55.816,38.043z"/>
	</g>
</g>
<g>
	<g>
		<path fill="#231F20" d="M38.367,38.917c0.471,0,0.471-0.726,0-0.726S37.896,38.917,38.367,38.917L38.367,38.917z"/>
	</g>
</g>
<g>
	<g>
		<path fill="#231F20" d="M41.275,41.243c0.467,0,0.467-0.729,0-0.729C40.807,40.514,40.807,41.243,41.275,41.243L41.275,41.243z"/>
	</g>
</g>
<g>
	<g>
		<path fill="#231F20" d="M42.15,41.825c0.467,0,0.467-0.726,0-0.726C41.682,41.1,41.682,41.825,42.15,41.825L42.15,41.825z"/>
	</g>
</g>
<g>
	<g>
		<path fill="#231F20" d="M43.604,41.825c0.465,0,0.465-0.726,0-0.726C43.133,41.1,43.133,41.825,43.604,41.825L43.604,41.825z"/>
	</g>
</g>
<g>
	<g>
		<path fill="#231F20" d="M43.893,43.858c0.469,0,0.469-0.723,0-0.723S43.424,43.858,43.893,43.858L43.893,43.858z"/>
	</g>
</g>
<g>
	<g>
		<path fill="#231F20" d="M43.893,42.696c0.469,0,0.469-0.729,0-0.729S43.424,42.696,43.893,42.696L43.893,42.696z"/>
	</g>
</g>
<g>
	<g>
		<path fill="#231F20" d="M44.475,43.278c0.471,0,0.471-0.726,0-0.726S44.004,43.278,44.475,43.278L44.475,43.278z"/>
	</g>
</g>
<g>
	<g>
		<path fill="#231F20" d="M46.801,45.024c0.471,0,0.471-0.73,0-0.73C46.332,44.294,46.332,45.024,46.801,45.024L46.801,45.024z"/>
	</g>
</g>
<g>
	<g>
		<path fill="#231F20" d="M46.801,42.99c0.471,0,0.471-0.731,0-0.731C46.332,42.259,46.332,42.99,46.801,42.99L46.801,42.99z"/>
	</g>
</g>
<g>
	<g>
		<path fill="#231F20" d="M45.635,41.535c0.475,0,0.475-0.729,0-0.729C45.172,40.806,45.172,41.535,45.635,41.535L45.635,41.535z"/>
	</g>
</g>
<g>
	<g>
		<path fill="#231F20" d="M45.635,45.024c0.475,0,0.475-0.73,0-0.73C45.172,44.294,45.172,45.024,45.635,45.024L45.635,45.024z"/>
	</g>
</g>
<g>
	<g>
		<path fill="#231F20" d="M45.635,46.185c0.475,0,0.475-0.724,0-0.724C45.172,45.461,45.172,46.185,45.635,46.185L45.635,46.185z"/>
	</g>
</g>
<g>
	<g>
		<path fill="#231F20" d="M46.51,47.06c0.473,0,0.473-0.728,0-0.728C46.043,46.332,46.043,47.06,46.51,47.06L46.51,47.06z"/>
	</g>
</g>
<g>
	<g>
		<path fill="#231F20" d="M46.801,46.478c0.471,0,0.471-0.728,0-0.728C46.332,45.75,46.332,46.478,46.801,46.478L46.801,46.478z"/>
	</g>
</g>
<g>
	<g>
		<path fill="#231F20" d="M47.383,44.443c0.471,0,0.471-0.729,0-0.729S46.912,44.443,47.383,44.443L47.383,44.443z"/>
	</g>
</g>
<g>
	<g>
		<path fill="#231F20" d="M49.713,45.604c0.465,0,0.465-0.726,0-0.726C49.24,44.879,49.24,45.604,49.713,45.604L49.713,45.604z"/>
	</g>
</g>
<g>
	<g>
		<path fill="#231F20" d="M47.674,45.604c0.469,0,0.469-0.726,0-0.726C47.207,44.879,47.207,45.604,47.674,45.604L47.674,45.604z"/>
	</g>
</g>
<g>
	<g>
		<path fill="#231F20" d="M47.674,47.35c0.469,0,0.469-0.729,0-0.729C47.207,46.62,47.207,47.35,47.674,47.35L47.674,47.35z"/>
	</g>
</g>
<g>
	<g>
		<path fill="#231F20" d="M47.383,49.098c0.471,0,0.471-0.732,0-0.732S46.912,49.098,47.383,49.098L47.383,49.098z"/>
	</g>
</g>
<g>
	<g>
		<path fill="#231F20" d="M48.838,49.098c0.469,0,0.469-0.732,0-0.732S48.369,49.098,48.838,49.098L48.838,49.098z"/>
	</g>
</g>
<g>
	<g>
		<path fill="#231F20" d="M48.838,48.223c0.469,0,0.469-0.728,0-0.728C48.369,47.497,48.369,48.223,48.838,48.223L48.838,48.223z"/>
	</g>
</g>
<g>
	<g>
		<path fill="#231F20" d="M50.002,47.35c0.469,0,0.469-0.729,0-0.729C49.529,46.62,49.529,47.35,50.002,47.35L50.002,47.35z"/>
	</g>
</g>
<g>
	<g>
		<path fill="#231F20" d="M49.713,45.898c0.465,0,0.465-0.729,0-0.729C49.24,45.169,49.24,45.898,49.713,45.898L49.713,45.898z"/>
	</g>
</g>
<g>
	<g>
		<path fill="#231F20" d="M49.129,43.858c0.469,0,0.469-0.723,0-0.723S48.66,43.858,49.129,43.858L49.129,43.858z"/>
	</g>
</g>
<g>
	<g>
		<path fill="#231F20" d="M51.166,47.931c0.467,0,0.467-0.726,0-0.726C50.695,47.207,50.695,47.931,51.166,47.931L51.166,47.931z"/>
	</g>
</g>
<g>
	<g>
		<path fill="#231F20" d="M49.418,49.098c0.471,0,0.471-0.732,0-0.732S48.947,49.098,49.418,49.098L49.418,49.098z"/>
	</g>
</g>
<g>
	<g>
		<path fill="#231F20" d="M50.873,46.185c0.469,0,0.469-0.724,0-0.724S50.404,46.185,50.873,46.185L50.873,46.185z"/>
	</g>
</g>
<g>
	<g>
		<path fill="#231F20" d="M51.748,48.805c0.465,0,0.465-0.728,0-0.728C51.275,48.077,51.275,48.805,51.748,48.805L51.748,48.805z"/>
	</g>
</g>
<g>
	<g>
		<path fill="#231F20" d="M50.293,49.678c0.467,0,0.467-0.728,0-0.728C49.82,48.95,49.82,49.678,50.293,49.678L50.293,49.678z"/>
	</g>
</g>
<g>
	<g>
		<path fill="#231F20" d="M48.838,50.258c0.469,0,0.469-0.728,0-0.728S48.369,50.258,48.838,50.258L48.838,50.258z"/>
	</g>
</g>
<g>
	<g>
		<path fill="#231F20" d="M33.712,51.714c0.468,0,0.468-0.73,0-0.73C33.243,50.983,33.243,51.714,33.712,51.714L33.712,51.714z"/>
	</g>
</g>
<g>
	<g>
		<path fill="#231F20" d="M32.551,52.584c0.468,0,0.468-0.728,0-0.728C32.082,51.858,32.082,52.584,32.551,52.584L32.551,52.584z"/>
	</g>
</g>
<g>
	<g>
		<path fill="#231F20" d="M31.97,51.421c0.468,0,0.468-0.726,0-0.726C31.501,50.695,31.501,51.421,31.97,51.421L31.97,51.421z"/>
	</g>
</g>
<g>
	<g>
		<path fill="#231F20" d="M33.132,50.841c0.47,0,0.47-0.728,0-0.728C32.663,50.113,32.663,50.841,33.132,50.841L33.132,50.841z"/>
	</g>
</g>
<g>
	<g>
		<path fill="#231F20" d="M33.132,48.515c0.47,0,0.47-0.724,0-0.724C32.663,47.791,32.663,48.515,33.132,48.515L33.132,48.515z"/>
	</g>
</g>
<g>
	<g>
		<path fill="#231F20" d="M33.132,46.77c0.47,0,0.47-0.729,0-0.729C32.663,46.04,32.663,46.77,33.132,46.77L33.132,46.77z"/>
	</g>
</g>
<g>
	<g>
		<path fill="#231F20" d="M34.296,46.77c0.47,0,0.47-0.729,0-0.729C33.828,46.04,33.828,46.77,34.296,46.77L34.296,46.77z"/>
	</g>
</g>
<g>
	<g>
		<path fill="#231F20" d="M34.876,46.77c0.47,0,0.47-0.729,0-0.729C34.408,46.04,34.408,46.77,34.876,46.77L34.876,46.77z"/>
	</g>
</g>
<g>
	<g>
		<path fill="#231F20" d="M34.876,46.77c0.47,0,0.47-0.729,0-0.729C34.408,46.04,34.408,46.77,34.876,46.77L34.876,46.77z"/>
	</g>
</g>
<g>
	<g>
		<path fill="#231F20" d="M34.876,45.024c0.47,0,0.47-0.73,0-0.73C34.408,44.294,34.408,45.024,34.876,45.024L34.876,45.024z"/>
	</g>
</g>
<g>
	<g>
		<path fill="#231F20" d="M34.876,45.898c0.47,0,0.47-0.729,0-0.729C34.408,45.169,34.408,45.898,34.876,45.898L34.876,45.898z"/>
	</g>
</g>
<g>
	<g>
		<path fill="#231F20" d="M34.296,46.185c0.47,0,0.47-0.724,0-0.724C33.828,45.461,33.828,46.185,34.296,46.185L34.296,46.185z"/>
	</g>
</g>
<g>
	<g>
		<path fill="#231F20" d="M35.168,46.185c0.471,0,0.471-0.724,0-0.724C34.699,45.461,34.699,46.185,35.168,46.185L35.168,46.185z"/>
	</g>
</g>
<g>
	<g>
		<path fill="#231F20" d="M35.75,52.003c0.47,0,0.47-0.728,0-0.728S35.28,52.003,35.75,52.003L35.75,52.003z"/>
	</g>
</g>
<g>
	<g>
		<path fill="#231F20" d="M38.078,49.098c0.469,0,0.469-0.732,0-0.732S37.609,49.098,38.078,49.098L38.078,49.098z"/>
	</g>
</g>
<g>
	<g>
		<path fill="#231F20" d="M40.113,50.551c0.467,0,0.467-0.728,0-0.728C39.645,49.823,39.645,50.551,40.113,50.551L40.113,50.551z"/>
	</g>
</g>
<g>
	<g>
		<path fill="#231F20" d="M37.496,52.003c0.471,0,0.471-0.728,0-0.728C37.027,51.275,37.027,52.003,37.496,52.003L37.496,52.003z"/>
	</g>
</g>
<g>
	<g>
		<path fill="#231F20" d="M43.02,50.841c0.467,0,0.467-0.728,0-0.728C42.555,50.113,42.555,50.841,43.02,50.841L43.02,50.841z"/>
	</g>
</g>
<g>
	<g>
		<path fill="#231F20" d="M44.182,50.841c0.475,0,0.475-0.728,0-0.728C43.719,50.113,43.719,50.841,44.182,50.841L44.182,50.841z"/>
	</g>
</g>
<g>
	<g>
		<path fill="#231F20" d="M41.568,52.003c0.469,0,0.469-0.728,0-0.728C41.096,51.275,41.096,52.003,41.568,52.003L41.568,52.003z"/>
	</g>
</g>
<g>
	<g>
		<path fill="#231F20" d="M40.404,52.294c0.467,0,0.467-0.728,0-0.728C39.934,51.566,39.934,52.294,40.404,52.294L40.404,52.294z"/>
	</g>
</g>
<g>
	<g>
		<path fill="#231F20" d="M36.623,52.294c0.47,0,0.47-0.728,0-0.728C36.154,51.566,36.154,52.294,36.623,52.294L36.623,52.294z"/>
	</g>
</g>
<g>
	<g>
		<path fill="#231F20" d="M34.586,54.331c0.468,0,0.468-0.728,0-0.728C34.118,53.604,34.118,54.331,34.586,54.331L34.586,54.331z"/>
	</g>
</g>
<g>
	<g>
		<path fill="#231F20" d="M32.84,54.331c0.469,0,0.469-0.728,0-0.728C32.374,53.604,32.374,54.331,32.84,54.331L32.84,54.331z"/>
	</g>
</g>
<g>
	<g>
		<path fill="#231F20" d="M29.933,37.462c0.47,0,0.47-0.729,0-0.729C29.464,36.732,29.464,37.462,29.933,37.462L29.933,37.462z"/>
	</g>
</g>
<g>
	<g>
		<path fill="#231F20" d="M28.769,37.462c0.469,0,0.469-0.729,0-0.729S28.3,37.462,28.769,37.462L28.769,37.462z"/>
	</g>
</g>
<g>
	<g>
		<path fill="#231F20" d="M28.188,38.333c0.469,0,0.469-0.728,0-0.728C27.72,37.605,27.72,38.333,28.188,38.333L28.188,38.333z"/>
	</g>
</g>
<g>
	<g>
		<path fill="#231F20" d="M29.352,38.333c0.469,0,0.469-0.728,0-0.728C28.883,37.605,28.883,38.333,29.352,38.333L29.352,38.333z"/>
	</g>
</g>
<g>
	<g>
		<path fill="#231F20" d="M29.061,39.207c0.469,0,0.469-0.725,0-0.725C28.593,38.482,28.593,39.207,29.061,39.207L29.061,39.207z"/>
	</g>
</g>
<g>
	<g>
		<path fill="#231F20" d="M24.99,40.37c0.469,0,0.469-0.728,0-0.728C24.52,39.643,24.52,40.37,24.99,40.37L24.99,40.37z"/>
	</g>
</g>
<g>
	<g>
		<path fill="#231F20" d="M25.863,38.917c0.468,0,0.468-0.726,0-0.726C25.393,38.191,25.393,38.917,25.863,38.917L25.863,38.917z"/>
	</g>
</g>
<g>
	<g>
		<path fill="#231F20" d="M27.024,40.37c0.469,0,0.469-0.728,0-0.728C26.556,39.643,26.556,40.37,27.024,40.37L27.024,40.37z"/>
	</g>
</g>
<g>
	<g>
		<path fill="#231F20" d="M27.607,40.952c0.469,0,0.469-0.728,0-0.728C27.14,40.225,27.14,40.952,27.607,40.952L27.607,40.952z"/>
	</g>
</g>
<g>
	<g>
		<path fill="#231F20" d="M25.863,40.078c0.468,0,0.468-0.728,0-0.728C25.393,39.353,25.393,40.078,25.863,40.078L25.863,40.078z"/>
	</g>
</g>
<g>
	<g>
		<path fill="#231F20" d="M26.153,42.99c0.468,0,0.468-0.731,0-0.731C25.684,42.259,25.684,42.99,26.153,42.99L26.153,42.99z"/>
	</g>
</g>
<g>
	<g>
		<path fill="#231F20" d="M23.828,43.858c0.467,0,0.467-0.723,0-0.723C23.358,43.136,23.358,43.858,23.828,43.858L23.828,43.858z"/>
	</g>
</g>
<g>
	<g>
		<path fill="#231F20" d="M23.535,45.604c0.468,0,0.468-0.726,0-0.726C23.065,44.879,23.065,45.604,23.535,45.604L23.535,45.604z"/>
	</g>
</g>
<g>
	<g>
		<path fill="#231F20" d="M22.954,46.77c0.468,0,0.468-0.729,0-0.729C22.485,46.04,22.485,46.77,22.954,46.77L22.954,46.77z"/>
	</g>
</g>
<g>
	<g>
		<path fill="#231F20" d="M21.791,47.931c0.469,0,0.469-0.726,0-0.726C21.322,47.207,21.322,47.931,21.791,47.931L21.791,47.931z"/>
	</g>
</g>
<g>
	<g>
		<path fill="#231F20" d="M22.663,50.551c0.47,0,0.47-0.728,0-0.728C22.193,49.823,22.193,50.551,22.663,50.551L22.663,50.551z"/>
	</g>
</g>
<g>
	<g>
		<path fill="#231F20" d="M24.117,50.841c0.47,0,0.47-0.728,0-0.728C23.648,50.113,23.648,50.841,24.117,50.841L24.117,50.841z"/>
	</g>
</g>
<g>
	<g>
		<path fill="#231F20" d="M25.863,52.003c0.468,0,0.468-0.728,0-0.728C25.393,51.275,25.393,52.003,25.863,52.003L25.863,52.003z"/>
	</g>
</g>
<g>
	<g>
		<path fill="#231F20" d="M23.828,52.584c0.467,0,0.467-0.728,0-0.728C23.358,51.858,23.358,52.584,23.828,52.584L23.828,52.584z"/>
	</g>
</g>
<g>
	<g>
		<path fill="#231F20" d="M21.5,51.421c0.468,0,0.468-0.726,0-0.726C21.031,50.695,21.031,51.421,21.5,51.421L21.5,51.421z"/>
	</g>
</g>
<g>
	<g>
		<path fill="#231F20" d="M24.117,48.805c0.47,0,0.47-0.728,0-0.728C23.648,48.077,23.648,48.805,24.117,48.805L24.117,48.805z"/>
	</g>
</g>
<g>
	<g>
		<path fill="#231F20" d="M24.117,50.551c0.47,0,0.47-0.728,0-0.728C23.648,49.823,23.648,50.551,24.117,50.551L24.117,50.551z"/>
	</g>
</g>
<g>
	<g>
		<path fill="#231F20" d="M24.99,50.551c0.469,0,0.469-0.728,0-0.728C24.52,49.823,24.52,50.551,24.99,50.551L24.99,50.551z"/>
	</g>
</g>
<g>
	<g>
		<path fill="#231F20" d="M24.99,51.131c0.469,0,0.469-0.729,0-0.729C24.52,50.401,24.52,51.131,24.99,51.131L24.99,51.131z"/>
	</g>
</g>
<g>
	<g>
		<path fill="#231F20" d="M24.99,49.384c0.469,0,0.469-0.726,0-0.726C24.52,48.658,24.52,49.384,24.99,49.384L24.99,49.384z"/>
	</g>
</g>
<g>
	<g>
		<path fill="#231F20" d="M22.371,49.678c0.47,0,0.47-0.728,0-0.728C21.902,48.95,21.902,49.678,22.371,49.678L22.371,49.678z"/>
	</g>
</g>
<g>
	<g>
		<path fill="#231F20" d="M24.117,46.77c0.47,0,0.47-0.729,0-0.729C23.648,46.04,23.648,46.77,24.117,46.77L24.117,46.77z"/>
	</g>
</g>
<g>
	<g>
		<path fill="#231F20" d="M20.336,45.024c0.47,0,0.47-0.73,0-0.73C19.868,44.294,19.868,45.024,20.336,45.024L20.336,45.024z"/>
	</g>
</g>
<g>
	<g>
		<path fill="#231F20" d="M17.72,40.952c0.469,0,0.469-0.728,0-0.728C17.25,40.225,17.25,40.952,17.72,40.952L17.72,40.952z"/>
	</g>
</g>
<g>
	<g>
		<path fill="#231F20" d="M18.882,40.952c0.468,0,0.468-0.728,0-0.728C18.413,40.225,18.413,40.952,18.882,40.952L18.882,40.952z"/>
	</g>
</g>
<g>
	<g>
		<path fill="#231F20" d="M19.464,40.952c0.469,0,0.469-0.728,0-0.728S18.996,40.952,19.464,40.952L19.464,40.952z"/>
	</g>
</g>
<g>
	<g>
		<path fill="#231F20" d="M20.045,40.952c0.469,0,0.469-0.728,0-0.728C19.576,40.225,19.576,40.952,20.045,40.952L20.045,40.952z"/>
	</g>
</g>
<g>
	<g>
		<path fill="#231F20" d="M21.791,40.952c0.469,0,0.469-0.728,0-0.728S21.322,40.952,21.791,40.952L21.791,40.952z"/>
	</g>
</g>
<g>
	<g>
		<path fill="#231F20" d="M20.336,40.37c0.47,0,0.47-0.728,0-0.728C19.868,39.643,19.868,40.37,20.336,40.37L20.336,40.37z"/>
	</g>
</g>
<g>
	<g>
		<path fill="#231F20" d="M16.265,40.37c0.467,0,0.467-0.728,0-0.728C15.796,39.643,15.796,40.37,16.265,40.37L16.265,40.37z"/>
	</g>
</g>
<g>
	<g>
		<path fill="#231F20" d="M17.137,41.825c0.47,0,0.47-0.726,0-0.726C16.667,41.1,16.667,41.825,17.137,41.825L17.137,41.825z"/>
	</g>
</g>
<g>
	<g>
		<path fill="#231F20" d="M18.3,42.403c0.469,0,0.469-0.723,0-0.723C17.83,41.681,17.83,42.403,18.3,42.403L18.3,42.403z"/>
	</g>
</g>
<g>
	<g>
		<path fill="#231F20" d="M19.464,42.115c0.469,0,0.469-0.728,0-0.728S18.996,42.115,19.464,42.115L19.464,42.115z"/>
	</g>
</g>
<g>
	<g>
		<path fill="#231F20" d="M21.209,40.952c0.468,0,0.468-0.728,0-0.728C20.739,40.225,20.739,40.952,21.209,40.952L21.209,40.952z"/>
	</g>
</g>
<g>
	<g>
		<path fill="#231F20" d="M25.511,14.501c0.469,0,0.469-0.727,0-0.727C25.042,13.774,25.042,14.501,25.511,14.501L25.511,14.501z"/>
	</g>
</g>
<g>
	<g>
		<path fill="#231F20" d="M26.603,13.846c0.468,0,0.468-0.726,0-0.726C26.134,13.12,26.134,13.846,26.603,13.846L26.603,13.846z"/>
	</g>
</g>
<g>
	<g>
		<path fill="#231F20" d="M27.911,13.411c0.469,0,0.469-0.727,0-0.727C27.443,12.685,27.443,13.411,27.911,13.411L27.911,13.411z"/>
	</g>
</g>
<g>
	<g>
		<path fill="#231F20" d="M29.002,13.411c0.468,0,0.468-0.727,0-0.727C28.532,12.685,28.532,13.411,29.002,13.411L29.002,13.411z"/>
	</g>
</g>
<g>
	<g>
		<path fill="#231F20" d="M31.402,13.629c0.468,0,0.468-0.728,0-0.728C30.932,12.901,30.932,13.629,31.402,13.629L31.402,13.629z"/>
	</g>
</g>
<g>
	<g>
		<path fill="#231F20" d="M30.966,12.757c0.468,0,0.468-0.729,0-0.729C30.496,12.028,30.496,12.757,30.966,12.757L30.966,12.757z"/>
	</g>
</g>
<g>
	<g>
		<path fill="#231F20" d="M29.655,12.757c0.469,0,0.469-0.729,0-0.729S29.186,12.757,29.655,12.757L29.655,12.757z"/>
	</g>
</g>
<g>
	<g>
		<path fill="#231F20" d="M32.492,12.757c0.468,0,0.468-0.729,0-0.729C32.021,12.028,32.021,12.757,32.492,12.757L32.492,12.757z"/>
	</g>
</g>
<g>
	<g>
		<path fill="#231F20" d="M33.363,13.629c0.47,0,0.47-0.728,0-0.728C32.895,12.901,32.895,13.629,33.363,13.629L33.363,13.629z"/>
	</g>
</g>
<g>
	<g>
		<path fill="#231F20" d="M34.236,12.757c0.47,0,0.47-0.729,0-0.729C33.767,12.028,33.767,12.757,34.236,12.757L34.236,12.757z"/>
	</g>
</g>
<g>
	<g>
		<path fill="#231F20" d="M37.945,12.757c0.469,0,0.469-0.729,0-0.729C37.475,12.028,37.475,12.757,37.945,12.757L37.945,12.757z"/>
	</g>
</g>
<g>
	<g>
		<path fill="#231F20" d="M35.327,12.757c0.468,0,0.468-0.729,0-0.729C34.859,12.028,34.859,12.757,35.327,12.757L35.327,12.757z"/>
	</g>
</g>
<g>
	<g>
		<path fill="#231F20" d="M36.417,11.01c0.466,0,0.466-0.726,0-0.726S35.951,11.01,36.417,11.01L36.417,11.01z"/>
	</g>
</g>
<g>
	<g>
		<path fill="#231F20" d="M37.51,11.01c0.467,0,0.467-0.726,0-0.726C37.037,10.285,37.037,11.01,37.51,11.01L37.51,11.01z"/>
	</g>
</g>
<g>
	<g>
		<path fill="#231F20" d="M39.037,11.884c0.465,0,0.465-0.728,0-0.728C38.566,11.156,38.566,11.884,39.037,11.884L39.037,11.884z"/>
	</g>
</g>
<g>
	<g>
		<path fill="#231F20" d="M40.344,12.757c0.471,0,0.471-0.729,0-0.729C39.875,12.028,39.875,12.757,40.344,12.757L40.344,12.757z"/>
	</g>
</g>
<g>
	<g>
		<path fill="#231F20" d="M39.908,13.192c0.471,0,0.471-0.726,0-0.726C39.439,12.466,39.439,13.192,39.908,13.192L39.908,13.192z"/>
	</g>
</g>
<g>
	<g>
		<path fill="#231F20" d="M39.688,14.065c0.469,0,0.469-0.728,0-0.728C39.221,13.337,39.221,14.065,39.688,14.065L39.688,14.065z"/>
	</g>
</g>
<g>
	<g>
		<path fill="#231F20" d="M35.11,12.32c0.468,0,0.468-0.727,0-0.727C34.64,11.594,34.64,12.32,35.11,12.32L35.11,12.32z"/>
	</g>
</g>
<g>
	<g>
		<path fill="#231F20" d="M34.018,11.884c0.468,0,0.468-0.728,0-0.728C33.548,11.156,33.548,11.884,34.018,11.884L34.018,11.884z"/>
	</g>
</g>
<g>
	<g>
		<path fill="#231F20" d="M35.327,11.884c0.468,0,0.468-0.728,0-0.728C34.859,11.156,34.859,11.884,35.327,11.884L35.327,11.884z"/>
	</g>
</g>
<g>
	<g>
		<path fill="#231F20" d="M36.198,12.103c0.47,0,0.47-0.728,0-0.728C35.73,11.375,35.73,12.103,36.198,12.103L36.198,12.103z"/>
	</g>
</g>
<g>
	<g>
		<path fill="#231F20" d="M36.198,13.192c0.47,0,0.47-0.726,0-0.726C35.73,12.466,35.73,13.192,36.198,13.192L36.198,13.192z"/>
	</g>
</g>
<g>
	<g>
		<path fill="#231F20" d="M27.256,14.938c0.469,0,0.469-0.729,0-0.729C26.788,14.209,26.788,14.938,27.256,14.938L27.256,14.938z"/>
	</g>
</g>
<g>
	<g>
		<path fill="#231F20" d="M29.874,15.156c0.468,0,0.468-0.728,0-0.728C29.405,14.428,29.405,15.156,29.874,15.156L29.874,15.156z"/>
	</g>
</g>
<g>
	<g>
		<path fill="#231F20" d="M29.874,16.246c0.468,0,0.468-0.727,0-0.727C29.405,15.519,29.405,16.246,29.874,16.246L29.874,16.246z"/>
	</g>
</g>
<g>
	<g>
		<path fill="#231F20" d="M30.747,16.246c0.47,0,0.47-0.727,0-0.727C30.278,15.519,30.278,16.246,30.747,16.246L30.747,16.246z"/>
	</g>
</g>
<g>
	<g>
		<path fill="#231F20" d="M30.966,15.811c0.468,0,0.468-0.729,0-0.729C30.496,15.082,30.496,15.811,30.966,15.811L30.966,15.811z"/>
	</g>
</g>
<g>
	<g>
		<path fill="#231F20" d="M16.351,23.66c0.47,0,0.47-0.726,0-0.726C15.883,22.934,15.883,23.66,16.351,23.66L16.351,23.66z"/>
	</g>
</g>
<g>
	<g>
		<path fill="#231F20" d="M17.005,21.48c0.469,0,0.469-0.727,0-0.727C16.538,20.754,16.538,21.48,17.005,21.48L17.005,21.48z"/>
	</g>
</g>
<g>
	<g>
		<path fill="#231F20" d="M16.351,23.007c0.47,0,0.47-0.728,0-0.728C15.883,22.28,15.883,23.007,16.351,23.007L16.351,23.007z"/>
	</g>
</g>
<g>
	<g>
		<path fill="#231F20" d="M17.005,20.389c0.469,0,0.469-0.727,0-0.727C16.538,19.662,16.538,20.389,17.005,20.389L17.005,20.389z"/>
	</g>
</g>
<g>
	<g>
		<path fill="#231F20" d="M19.186,19.735c0.469,0,0.469-0.727,0-0.727C18.718,19.008,18.718,19.735,19.186,19.735L19.186,19.735z"/>
	</g>
</g>
<g>
	<g>
		<path fill="#231F20" d="M19.405,19.299c0.468,0,0.468-0.727,0-0.727C18.936,18.573,18.936,19.299,19.405,19.299L19.405,19.299z"/>
	</g>
</g>
<g>
	<g>
		<path fill="#231F20" d="M20.932,18.646c0.468,0,0.468-0.729,0-0.729C20.462,17.917,20.462,18.646,20.932,18.646L20.932,18.646z"/>
	</g>
</g>
<g>
	<g>
		<path fill="#231F20" d="M17.005,18.646c0.469,0,0.469-0.729,0-0.729C16.538,17.917,16.538,18.646,17.005,18.646L17.005,18.646z"/>
	</g>
</g>
<g>
	<g>
		<path fill="#231F20" d="M19.841,16.682c0.47,0,0.47-0.726,0-0.726C19.374,15.956,19.374,16.682,19.841,16.682L19.841,16.682z"/>
	</g>
</g>
<g>
	<g>
		<path fill="#231F20" d="M20.713,16.899c0.469,0,0.469-0.726,0-0.726C20.246,16.174,20.246,16.899,20.713,16.899L20.713,16.899z"/>
	</g>
</g>
<g>
	<g>
		<path fill="#231F20" d="M20.495,17.553c0.469,0,0.469-0.725,0-0.725C20.027,16.828,20.027,17.553,20.495,17.553L20.495,17.553z"/>
	</g>
</g>
<g>
	<g>
		<path fill="#231F20" d="M21.587,15.592c0.469,0,0.469-0.728,0-0.728C21.116,14.863,21.116,15.592,21.587,15.592L21.587,15.592z"/>
	</g>
</g>
<g>
	<g>
		<path fill="#231F20" d="M21.804,16.028c0.469,0,0.469-0.727,0-0.727C21.336,15.301,21.336,16.028,21.804,16.028L21.804,16.028z"/>
	</g>
</g>
<g>
	<g>
		<path fill="#231F20" d="M22.677,15.156c0.469,0,0.469-0.728,0-0.728S22.208,15.156,22.677,15.156L22.677,15.156z"/>
	</g>
</g>
<g>
	<g>
		<path fill="#231F20" d="M22.677,16.028c0.469,0,0.469-0.727,0-0.727S22.208,16.028,22.677,16.028L22.677,16.028z"/>
	</g>
</g>
<g>
	<g>
		<path fill="#231F20" d="M22.46,14.283c0.468,0,0.468-0.727,0-0.727C21.989,13.556,21.989,14.283,22.46,14.283L22.46,14.283z"/>
	</g>
</g>
<g>
	<g>
		<path fill="#231F20" d="M16.133,21.044c0.469,0,0.469-0.728,0-0.728C15.666,20.317,15.666,21.044,16.133,21.044L16.133,21.044z"/>
	</g>
</g>
<g>
	<g>
		<path fill="#231F20" d="M16.133,22.352c0.469,0,0.469-0.726,0-0.726C15.666,21.625,15.666,22.352,16.133,22.352L16.133,22.352z"/>
	</g>
</g>
<g>
	<g>
		<path fill="#231F20" d="M18.75,23.007c0.47,0,0.47-0.728,0-0.728S18.281,23.007,18.75,23.007L18.75,23.007z"/>
	</g>
</g>
<g>
	<g>
		<path fill="#231F20" d="M21.15,23.225c0.468,0,0.468-0.727,0-0.727C20.68,22.499,20.68,23.225,21.15,23.225L21.15,23.225z"/>
	</g>
</g>
<g>
	<g>
		<path fill="#231F20" d="M23.113,24.316c0.469,0,0.469-0.728,0-0.728S22.644,24.316,23.113,24.316L23.113,24.316z"/>
	</g>
</g>
<g>
	<g>
		<path fill="#231F20" d="M23.333,25.625c0.467,0,0.467-0.728,0-0.728C22.862,24.897,22.862,25.625,23.333,25.625L23.333,25.625z"/>
	</g>
</g>
<g>
	<g>
		<path fill="#231F20" d="M25.294,25.842c0.469,0,0.469-0.727,0-0.727C24.826,25.115,24.826,25.842,25.294,25.842L25.294,25.842z"/>
	</g>
</g>
<g>
	<g>
		<path fill="#231F20" d="M25.73,26.498c0.47,0,0.47-0.729,0-0.729S25.26,26.498,25.73,26.498L25.73,26.498z"/>
	</g>
</g>
<g>
	<g>
		<path fill="#231F20" d="M21.15,25.188c0.468,0,0.468-0.728,0-0.728C20.68,24.461,20.68,25.188,21.15,25.188L21.15,25.188z"/>
	</g>
</g>
<g>
	<g>
		<path fill="#231F20" d="M20.713,24.316c0.469,0,0.469-0.728,0-0.728C20.246,23.588,20.246,24.316,20.713,24.316L20.713,24.316z"/>
	</g>
</g>
<g>
	<g>
		<path fill="#231F20" d="M17.441,24.316c0.47,0,0.47-0.728,0-0.728C16.974,23.588,16.974,24.316,17.441,24.316L17.441,24.316z"/>
	</g>
</g>
<g>
	<g>
		<path fill="#231F20" d="M24.64,26.716c0.469,0,0.469-0.729,0-0.729C24.171,25.986,24.171,26.716,24.64,26.716L24.64,26.716z"/>
	</g>
</g>
<g>
	<g>
		<path fill="#231F20" d="M24.64,27.805c0.469,0,0.469-0.727,0-0.727C24.171,27.079,24.171,27.805,24.64,27.805L24.64,27.805z"/>
	</g>
</g>
<g>
	<g>
		<path fill="#231F20" d="M25.73,28.023c0.47,0,0.47-0.726,0-0.726S25.26,28.023,25.73,28.023L25.73,28.023z"/>
	</g>
</g>
<g>
	<g>
		<path fill="#231F20" d="M21.804,20.171c0.469,0,0.469-0.727,0-0.727C21.336,19.445,21.336,20.171,21.804,20.171L21.804,20.171z"/>
	</g>
</g>
<g>
	<g>
		<path fill="#231F20" d="M22.241,17.772c0.469,0,0.469-0.727,0-0.727C21.771,17.045,21.771,17.772,22.241,17.772L22.241,17.772z"/>
	</g>
</g>
<g>
	<g>
		<path fill="#231F20" d="M22.022,19.081c0.469,0,0.469-0.728,0-0.728C21.555,18.354,21.555,19.081,22.022,19.081L22.022,19.081z"/>
	</g>
</g>
<g>
	<g>
		<path fill="#231F20" d="M22.895,19.299c0.469,0,0.469-0.727,0-0.727C22.427,18.573,22.427,19.299,22.895,19.299L22.895,19.299z"/>
	</g>
</g>
<g>
	<g>
		<path fill="#231F20" d="M19.841,21.262c0.47,0,0.47-0.727,0-0.727C19.374,20.536,19.374,21.262,19.841,21.262L19.841,21.262z"/>
	</g>
</g>
<g>
	<g>
		<path fill="#231F20" d="M20.277,20.171c0.469,0,0.469-0.727,0-0.727C19.809,19.445,19.809,20.171,20.277,20.171L20.277,20.171z"/>
	</g>
</g>
<g>
	<g>
		<path fill="#231F20" d="M20.277,18.863c0.469,0,0.469-0.727,0-0.727C19.809,18.137,19.809,18.863,20.277,18.863L20.277,18.863z"/>
	</g>
</g>
<g>
	<g>
		<path fill="#231F20" d="M22.022,20.171c0.469,0,0.469-0.727,0-0.727C21.555,19.445,21.555,20.171,22.022,20.171L22.022,20.171z"/>
	</g>
</g>
<g>
	<g>
		<path fill="#231F20" d="M22.022,21.044c0.469,0,0.469-0.728,0-0.728C21.555,20.317,21.555,21.044,22.022,21.044L22.022,21.044z"/>
	</g>
</g>
<g>
	<g>
		<path fill="#231F20" d="M22.241,21.044c0.469,0,0.469-0.728,0-0.728C21.771,20.317,21.771,21.044,22.241,21.044L22.241,21.044z"/>
	</g>
</g>
<g>
	<g>
		<path fill="#231F20" d="M22.241,21.044c0.469,0,0.469-0.728,0-0.728C21.771,20.317,21.771,21.044,22.241,21.044L22.241,21.044z"/>
	</g>
</g>
<g>
	<g>
		<path fill="#231F20" d="M16.57,29.115c0.468,0,0.468-0.728,0-0.728C16.101,28.386,16.101,29.115,16.57,29.115L16.57,29.115z"/>
	</g>
</g>
<g>
	<g>
		<path fill="#231F20" d="M16.133,31.078c0.469,0,0.469-0.728,0-0.728C15.666,30.351,15.666,31.078,16.133,31.078L16.133,31.078z"/>
	</g>
</g>
<g>
	<g>
		<path fill="#231F20" d="M17.225,29.55c0.469,0,0.469-0.727,0-0.727S16.755,29.55,17.225,29.55L17.225,29.55z"/>
	</g>
</g>
<g>
	<g>
		<path fill="#231F20" d="M17.66,31.949c0.469,0,0.469-0.727,0-0.727C17.193,31.222,17.193,31.949,17.66,31.949L17.66,31.949z"/>
	</g>
</g>
<g>
	<g>
		<path fill="#231F20" d="M17.88,31.949c0.29,0,0.58,0,0.871,0c0.47,0,0.47-0.727,0-0.727c-0.291,0-0.581,0-0.871,0
			C17.409,31.222,17.409,31.949,17.88,31.949L17.88,31.949z"/>
	</g>
</g>
<g>
	<g>
		<path fill="#231F20" d="M20.932,31.73c0.468,0,0.468-0.727,0-0.727C20.462,31.004,20.462,31.73,20.932,31.73L20.932,31.73z"/>
	</g>
</g>
<g>
	<g>
		<path fill="#231F20" d="M19.624,31.296c0.468,0,0.468-0.727,0-0.727C19.155,30.569,19.155,31.296,19.624,31.296L19.624,31.296z"/>
	</g>
</g>
<g>
	<g>
		<path fill="#231F20" d="M19.624,30.641c0.468,0,0.468-0.727,0-0.727C19.155,29.914,19.155,30.641,19.624,30.641L19.624,30.641z"/>
	</g>
</g>
<g>
	<g>
		<path fill="#231F20" d="M21.587,30.859c0.469,0,0.469-0.726,0-0.726C21.116,30.133,21.116,30.859,21.587,30.859L21.587,30.859z"/>
	</g>
</g>
<g>
	<g>
		<path fill="#231F20" d="M21.587,32.822c0.469,0,0.469-0.728,0-0.728C21.116,32.095,21.116,32.822,21.587,32.822L21.587,32.822z"/>
	</g>
</g>
<g>
	<g>
		<path fill="#231F20" d="M19.624,33.476c0.468,0,0.468-0.727,0-0.727C19.155,32.749,19.155,33.476,19.624,33.476L19.624,33.476z"/>
	</g>
</g>
<g>
	<g>
		<path fill="#231F20" d="M23.427,33.297c0.224-0.481,0.269-0.969,0.269-1.494c0-0.468-0.727-0.468-0.728,0
			c0,0.385-0.002,0.769-0.168,1.126C22.603,33.351,23.229,33.72,23.427,33.297L23.427,33.297z"/>
	</g>
</g>
<g>
	<g>
		<path fill="#231F20" d="M23.113,31.949c0.469,0,0.469-0.727,0-0.727S22.644,31.949,23.113,31.949L23.113,31.949z"/>
	</g>
</g>
<g>
	<g>
		<path fill="#231F20" d="M22.895,31.949c0.469,0,0.469-0.727,0-0.727C22.427,31.222,22.427,31.949,22.895,31.949L22.895,31.949z"/>
	</g>
</g>
<g>
	<g>
		<path fill="#231F20" d="M15.48,30.204c0.468,0,0.468-0.726,0-0.726C15.011,29.477,15.011,30.204,15.48,30.204L15.48,30.204z"/>
	</g>
</g>
<g>
	<g>
		<path fill="#231F20" d="M14.388,29.332c0.469,0,0.469-0.727,0-0.727S13.919,29.332,14.388,29.332L14.388,29.332z"/>
	</g>
</g>
<g>
	<g>
		<path fill="#231F20" d="M14.388,31.513c0.469,0,0.469-0.726,0-0.726C13.919,30.786,13.919,31.513,14.388,31.513L14.388,31.513z"/>
	</g>
</g>
<g>
	<g>
		<path fill="#231F20" d="M15.042,28.46c0.469,0,0.469-0.727,0-0.727C14.574,27.733,14.574,28.46,15.042,28.46L15.042,28.46z"/>
	</g>
</g>
<g>
	<g>
		<path fill="#231F20" d="M15.697,27.369c0.467,0,0.467-0.727,0-0.727C15.228,26.642,15.228,27.369,15.697,27.369L15.697,27.369z"/>
	</g>
</g>
<g>
	<g>
		<path fill="#231F20" d="M18.096,33.476c0.469,0,0.469-0.727,0-0.727C17.627,32.749,17.627,33.476,18.096,33.476L18.096,33.476z"/>
	</g>
</g>
<g>
	<g>
		<path fill="#231F20" d="M18.096,33.912c0.469,0,0.469-0.725,0-0.725C17.627,33.187,17.627,33.912,18.096,33.912L18.096,33.912z"/>
	</g>
</g>
<g>
	<g>
		<path fill="#231F20" d="M19.405,33.912c0.468,0,0.468-0.725,0-0.725C18.936,33.187,18.936,33.912,19.405,33.912L19.405,33.912z"/>
	</g>
</g>
<g>
	<g>
		<path fill="#231F20" d="M19.405,33.912c0.468,0,0.468-0.725,0-0.725C18.936,33.187,18.936,33.912,19.405,33.912L19.405,33.912z"/>
	</g>
</g>
<g>
	<g>
		<path fill="#231F20" d="M19.405,34.784c0.468,0,0.468-0.727,0-0.727C18.936,34.058,18.936,34.784,19.405,34.784L19.405,34.784z"/>
	</g>
</g>
<g>
	<g>
		<path fill="#231F20" d="M20.932,34.784c0.468,0,0.468-0.727,0-0.727C20.462,34.058,20.462,34.784,20.932,34.784L20.932,34.784z"/>
	</g>
</g>
<g>
	<g>
		<path fill="#231F20" d="M20.713,33.476c0.469,0,0.469-0.727,0-0.727C20.246,32.749,20.246,33.476,20.713,33.476L20.713,33.476z"/>
	</g>
</g>
<g>
	<g>
		<path fill="#231F20" d="M21.367,34.566c0.47,0,0.47-0.729,0-0.729C20.899,33.838,20.899,34.566,21.367,34.566L21.367,34.566z"/>
	</g>
</g>
<g>
	<g>
		<path fill="#231F20" d="M22.677,34.566c0.469,0,0.469-0.729,0-0.729S22.208,34.566,22.677,34.566L22.677,34.566z"/>
	</g>
</g>
<g>
	<g>
		<path fill="#231F20" d="M16.133,28.241c0.469,0,0.469-0.726,0-0.726C15.666,27.515,15.666,28.241,16.133,28.241L16.133,28.241z"/>
	</g>
</g>
<g>
	<g>
		<path fill="#231F20" d="M17.66,28.896c0.469,0,0.469-0.728,0-0.728C17.193,28.168,17.193,28.896,17.66,28.896L17.66,28.896z"/>
	</g>
</g>
<g>
	<g>
		<path fill="#231F20" d="M18.314,29.986c0.469,0,0.469-0.727,0-0.727C17.847,29.259,17.847,29.986,18.314,29.986L18.314,29.986z"/>
	</g>
</g>
<g>
	<g>
		<path fill="#231F20" d="M17.441,30.421c0.47,0,0.47-0.726,0-0.726C16.974,29.695,16.974,30.421,17.441,30.421L17.441,30.421z"/>
	</g>
</g>
<g>
	<g>
		<path fill="#231F20" d="M17.441,31.078c0.47,0,0.47-0.728,0-0.728C16.974,30.351,16.974,31.078,17.441,31.078L17.441,31.078z"/>
	</g>
</g>
<g>
	<g>
		<path fill="#231F20" d="M13.952,33.259c0.469,0,0.469-0.729,0-0.729C13.485,32.53,13.485,33.259,13.952,33.259L13.952,33.259z"/>
	</g>
</g>
<g>
	<g>
		<path fill="#231F20" d="M17.225,35.003c0.469,0,0.469-0.727,0-0.727S16.755,35.003,17.225,35.003L17.225,35.003z"/>
	</g>
</g>
<g>
	<g>
		<path fill="#231F20" d="M16.788,35.003c0.468,0,0.468-0.727,0-0.727C16.319,34.276,16.319,35.003,16.788,35.003L16.788,35.003z"/>
	</g>
</g>
<g>
	<g>
		<path fill="#231F20" d="M16.133,34.349c0.469,0,0.469-0.727,0-0.727C15.666,33.622,15.666,34.349,16.133,34.349L16.133,34.349z"/>
	</g>
</g>
<g>
	<g>
		<path fill="#231F20" d="M15.48,34.349c0.468,0,0.468-0.727,0-0.727C15.011,33.622,15.011,34.349,15.48,34.349L15.48,34.349z"/>
	</g>
</g>
<g>
	<g>
		<path fill="#231F20" d="M16.351,36.094c0.47,0,0.47-0.725,0-0.725C15.883,35.369,15.883,36.094,16.351,36.094L16.351,36.094z"/>
	</g>
</g>
<g>
	<g>
		<path fill="#231F20" d="M16.351,36.531c0.47,0,0.47-0.727,0-0.727C15.883,35.805,15.883,36.531,16.351,36.531L16.351,36.531z"/>
	</g>
</g>
<g>
	<g>
		<path fill="#231F20" d="M16.351,36.747c0.47,0,0.47-0.724,0-0.724C15.883,36.023,15.883,36.747,16.351,36.747L16.351,36.747z"/>
	</g>
</g>
<g>
	<g>
		<path fill="#231F20" d="M16.351,37.183c0.47,0,0.47-0.724,0-0.724C15.883,36.459,15.883,37.183,16.351,37.183L16.351,37.183z"/>
	</g>
</g>
<g>
	<g>
		<path fill="#231F20" d="M28.13,29.986c0.467,0,0.467-0.727,0-0.727C27.661,29.259,27.661,29.986,28.13,29.986L28.13,29.986z"/>
	</g>
</g>
<g>
	<g>
		<path fill="#231F20" d="M35.11,48.31c0.468,0,0.468-0.728,0-0.728C34.64,47.582,34.64,48.31,35.11,48.31L35.11,48.31z"/>
	</g>
</g>
<g>
	<g>
		<path fill="#231F20" d="M36.636,49.396c0.466,0,0.466-0.722,0-0.722C36.168,48.675,36.168,49.396,36.636,49.396L36.636,49.396z"/>
	</g>
</g>
<g>
	<g>
		<path fill="#231F20" d="M37.729,50.706c0.463,0,0.463-0.726,0-0.726C37.258,49.98,37.258,50.706,37.729,50.706L37.729,50.706z"/>
	</g>
</g>
<g>
	<g>
		<path fill="#231F20" d="M41.652,33.041c0.471,0,0.471-0.729,0-0.729C41.184,32.312,41.184,33.041,41.652,33.041L41.652,33.041z"/>
	</g>
</g>
<g>
	<g>
		<path fill="#231F20" d="M39.473,31.949c0.469,0,0.469-0.727,0-0.727C39.002,31.222,39.002,31.949,39.473,31.949L39.473,31.949z"/>
	</g>
</g>
</svg>
