<?xml version="1.0" encoding="utf-8"?>
<!-- Generator: Adobe Illustrator 16.0.0, SVG Export Plug-In . SVG Version: 6.00 Build 0)  -->
<!DOCTYPE svg PUBLIC "-//W3C//DTD SVG 1.1//EN" "http://www.w3.org/Graphics/SVG/1.1/DTD/svg11.dtd">
<svg version="1.1" id="Layer_1" xmlns="http://www.w3.org/2000/svg" xmlns:xlink="http://www.w3.org/1999/xlink" x="0px" y="0px"
	 width="275px" height="275px" viewBox="0 0 275 275" enable-background="new 0 0 275 275" xml:space="preserve">
<g>
	<g>
		<path fill="#231F20" d="M168.445,8.524c1.115,9.507,5.818,17.924,7.878,27.19c0.103,0.458,0.805,0.264,0.703-0.193
			c-2.046-9.2-6.745-17.556-7.853-26.997C169.12,8.064,168.391,8.059,168.445,8.524L168.445,8.524z"/>
	</g>
</g>
<g>
	<g>
		<path fill="#231F20" d="M167.936,8.015c3.431-0.104,6.695-0.656,10.038-1.434c3.536-0.822,8.254-3.432,10.527,0.47
			c4.284,7.352,6.243,16.037,7.924,24.292c0.094,0.46,0.796,0.265,0.703-0.193c-1.931-9.482-4.403-18.941-9.651-27.18
			c-0.096-0.15-0.242-0.195-0.411-0.167c-6.44,1.062-12.548,3.285-19.13,3.483C167.467,7.301,167.466,8.029,167.936,8.015
			L167.936,8.015z"/>
	</g>
</g>
<g>
	<g>
		<path fill="#231F20" d="M177.548,35.545c6.743-0.205,12.757-3.278,19.325-4.383c0.463-0.078,0.266-0.779-0.193-0.702
			c-6.51,1.095-12.446,4.154-19.132,4.356C177.079,34.831,177.078,35.559,177.548,35.545L177.548,35.545z"/>
	</g>
</g>
<g>
	<g>
		<path fill="#231F20" d="M182.994,26.756c-0.289-0.001-0.579-0.003-0.868-0.023c-0.322-0.022-0.274,0.871,0.068,0.781
			c0.484-0.127,0.995-0.182,1.491-0.247c1.044-0.138,2.117-0.305,3.172-0.318c0.622-0.008,0.623-0.974,0-0.966
			c-1.442,0.019-2.93,0.256-4.351,0.488c-0.367,0.06-1.204,0.129-1.154,0.683c0.064,0.719,1.153,0.566,1.642,0.568
			C183.617,27.724,183.617,26.758,182.994,26.756L182.994,26.756z"/>
	</g>
</g>
<g>
	<g>
		<path fill="#231F20" d="M184.847,27.367c0.79,5.835,1.089,11.991-2.103,17.195c-2.545,4.149-7.501,6.35-11.803,8.147
			c-8.999,3.761-18.865,6.386-24.968,14.646c-11.749,15.903-3.953,37.663-0.533,55.049c0.12,0.611,1.051,0.352,0.932-0.256
			c-3.845-19.545-12.854-45.252,6.146-59.837c8.183-6.28,19.137-7.178,27.373-13.335c6.938-5.186,6.945-14.052,5.887-21.867
			C185.695,26.496,184.765,26.758,184.847,27.367L184.847,27.367z"/>
	</g>
</g>
<g>
	<g>
		<path fill="#231F20" d="M141.27,125.08c4.235-0.059,8.15-1.045,11.834-3.158c0.415-0.238,0.238-0.906-0.244-0.9
			c-4.06,0.059-7.932,0.875-11.719,2.336c-0.574,0.221-0.324,1.156,0.258,0.932c3.703-1.428,7.484-2.244,11.461-2.301
			c-0.08-0.301-0.162-0.6-0.243-0.9c-3.55,2.037-7.267,2.969-11.347,3.025C140.647,124.121,140.646,125.088,141.27,125.08
			L141.27,125.08z"/>
	</g>
</g>
<g>
	<g>
		<path fill="#231F20" d="M125.043,120.443c8.931-0.679,17.272-3.703,25.677-6.597c4.494-1.547,9.018-2.93,13.668-3.92
			c4.1-0.874,1.509,15.999,1.141,17.633c-0.137,0.607,0.795,0.865,0.932,0.256c1.407-6.256,1.581-12.561,0-18.8
			c-0.069-0.271-0.34-0.384-0.594-0.337c-13.908,2.542-26.612,9.719-40.824,10.8C124.426,119.524,124.422,120.49,125.043,120.443
			L125.043,120.443z"/>
	</g>
</g>
<g>
	<g>
		<path fill="#231F20" d="M123.929,121.074c4.067,4.961,6.854,10.564,9.969,16.129c0.098,0.174,0.348,0.297,0.545,0.221
			c10.086-3.836,20.365-6.963,30.907-9.271c0.608-0.133,0.351-1.064-0.256-0.932c-8.206,1.799-16.261,4.076-24.202,6.811
			c-1.688,0.582-3.359,1.203-5.031,1.824c-2.199,0.818-3.66-3.773-4.343-5.041c-1.994-3.701-4.242-7.172-6.907-10.423
			C124.217,119.91,123.538,120.597,123.929,121.074L123.929,121.074z"/>
	</g>
</g>
<g>
	<g>
		<path fill="#231F20" d="M123.805,119.832c-3.554,13.299-11.259,24.967-17.723,36.973c-0.295,0.549,0.539,1.035,0.834,0.488
			c6.504-12.082,14.244-23.82,17.82-37.205C124.897,119.486,123.965,119.23,123.805,119.832L123.805,119.832z"/>
	</g>
</g>
<g>
	<g>
		<path fill="#231F20" d="M105.034,157.604c12.998,31.953,26.827,63.864,33,98c0.11,0.612,1.042,0.353,0.932-0.256
			c-6.173-34.137-20.002-66.047-33-98C105.734,156.778,104.799,157.026,105.034,157.604L105.034,157.604z"/>
	</g>
</g>
<g>
	<g>
		<path fill="#231F20" d="M138.834,256.603c15.065,2.166,30.52-3.158,44.387-8.479c15.031-5.769,29.359-13.136,44.095-19.583
			c0.737-0.323,0.1-1.399-0.631-1.08c-14.186,6.208-28.004,13.195-42.405,18.914c-13.938,5.535-29.896,11.211-45.113,9.023
			C138.378,255.284,138.038,256.488,138.834,256.603L138.834,256.603z"/>
	</g>
</g>
<g>
	<g>
		<path fill="#231F20" d="M165.273,110.631c12.185,6.159,23.814,13.34,35.999,19.499c0.718,0.363,1.351-0.715,0.631-1.079
			c-12.185-6.159-23.814-13.34-35.999-19.499C165.187,109.189,164.554,110.268,165.273,110.631L165.273,110.631z"/>
	</g>
</g>
<g>
	<g>
		<path fill="#231F20" d="M201.375,130c1.586,15.844,9.191,30.121,14.327,44.976c5.737,16.591,12.054,33.013,17.028,49.857
			c0.228,0.771,1.434,0.442,1.205-0.332c-4.821-16.328-11.41-32.032-16.499-48.258c-4.851-15.469-13.173-29.875-14.812-46.243
			C202.546,129.206,201.295,129.198,201.375,130L201.375,130z"/>
	</g>
</g>
<g>
	<g>
		<path fill="#231F20" d="M226.832,228.603c2.148-0.716,4.237-1.494,6.149-2.729c0.675-0.437,0.049-1.519-0.631-1.08
			c-1.822,1.178-3.803,1.921-5.851,2.604C225.739,227.651,226.065,228.858,226.832,228.603L226.832,228.603z"/>
	</g>
</g>
<g>
	<g>
		<path fill="#231F20" d="M139.091,219.586c0.208,9.593,3.083,18.635,6.088,27.664c0.393,1.178,1.762,2.272,3.076,1.746
			c22.747-9.12,45.291-19.071,68.997-25.499c3.108-0.844,1.787-5.667-1.33-4.822c-23.705,6.429-46.249,16.379-68.997,25.499
			c1.025,0.582,2.051,1.164,3.076,1.746c-2.861-8.593-5.712-17.195-5.91-26.334C144.021,216.366,139.021,216.359,139.091,219.586
			L139.091,219.586z"/>
	</g>
</g>
<g>
	<g>
		<path fill="#231F20" d="M142.425,221.997c18.309,2.922,37.564,1.416,49.321-14.648c1.908-2.606-2.434-5.097-4.316-2.523
			c-10.256,14.012-27.886,14.87-43.675,12.35C140.602,216.672,139.248,221.489,142.425,221.997L142.425,221.997z"/>
	</g>
</g>
<g>
	<g>
		<path fill="#231F20" d="M191.088,205.587c3.225,0,3.225-5,0-5S187.863,205.587,191.088,205.587L191.088,205.587z"/>
	</g>
</g>
<g>
	<g>
		<path fill="#231F20" d="M143.09,220.586c16.449,1.111,31.704-5.757,47.998-5.999c3.222-0.048,3.226-5.048,0-5
			c-16.292,0.242-31.584,7.108-47.998,5.999C139.869,215.368,139.891,220.37,143.09,220.586L143.09,220.586z"/>
	</g>
</g>
<g>
	<g>
		<path fill="#231F20" d="M190.253,205.498c7.304-1.358,14.745-1.639,21.596-4.752c-1.224-0.498-2.448-0.995-3.673-1.493
			c1.635,6.213,4.176,12.349,4.411,18.833c0.116,3.213,5.096,3.229,5,0c-0.223-7.522-2.695-14.457-4.589-21.663
			c-0.203-0.771-0.921-1.609-1.746-1.746c-9.486-1.564-18.513,2.034-23.822,10.148c-1.539,2.352,2.183,5.286,3.926,3.029
			c2.834-3.667,6.737-4.089,10.896-5.356c3.074-0.938,1.763-5.765-1.33-4.822c-5.02,1.53-9.722,2.269-13.102,6.644
			c1.309,1.01,2.617,2.02,3.926,3.029c3.991-6.099,11.004-9.033,18.176-7.85c-0.582-0.582-1.164-1.164-1.746-1.746
			c1.776,6.754,4.202,13.276,4.411,20.333c1.667,0,3.333,0,5,0c-0.253-6.973-2.833-13.484-4.589-20.163
			c-0.443-1.683-2.238-2.146-3.673-1.493c-6.36,2.889-13.624,2.986-20.402,4.246C185.756,201.265,187.102,206.083,190.253,205.498
			L190.253,205.498z"/>
	</g>
</g>
<g>
	<g>
		<path fill="#231F20" d="M201.825,197.929c-5.857,4.289-12.186,7.521-18.902,10.247c0.941,1.225,1.883,2.449,2.823,3.673
			c3.066-5.958,10.036-19.558,18.845-15.292c7.017,3.397,9.639,13.833,11.085,20.695c0.665,3.154,5.484,1.815,4.822-1.33
			c-1.951-9.254-5.815-20.783-15.424-24.568c-11.024-4.342-19.708,10.319-23.645,17.972c-0.893,1.734,0.616,4.568,2.823,3.673
			c7.115-2.89,13.881-6.201,20.096-10.753C206.921,200.361,204.431,196.02,201.825,197.929L201.825,197.929z"/>
	</g>
</g>
<g>
	<g>
		<path fill="#231F20" d="M191.088,210.087c7.155,0.085,13.314,0.829,18.267-5.232c1.662-2.034-0.54-5.693-3.029-3.926
			c-10.998,7.805-22.459,14.91-34.498,20.999c-2.887,1.459-0.354,5.724,2.523,4.316c4.674-2.284,9.474-4.102,14.402-5.747
			c3.062-1.023,1.827-5.482-1.33-4.822c-13.838,2.897-27.026,8.685-41.333,8.911c0.72,1.254,1.439,2.508,2.158,3.762
			c2.043-3.228,6.562-4.534,9.978-5.637c5.537-1.789,11.301-2.9,16.985-4.101c10.769-2.275,22.815-4.106,32.138-10.365
			c-1.14-0.299-2.28-0.598-3.42-0.896c4.67,10.14-14.022,18.13-20.598,21.123c-11.045,5.026-23.014,8.778-34.906,11.202
			c1.056,0.804,2.11,1.607,3.165,2.411c-0.173-4.039-1.328-7.963-1.5-11.999c-0.833,0.833-1.667,1.667-2.5,2.5
			c5.171,0.639,10.669-0.373,15.773-1.118c8.124-1.186,16.185-2.958,24.064-5.257c6.855-2,27.136-7.473,22.317-18.386
			c-0.666-1.51-2.878-1.538-3.926-0.506c-5.775,5.685-11.819,9.823-19.896,11.355c-3.165,0.601-1.821,5.42,1.33,4.822
			c8.863-1.682,15.766-6.404,22.102-12.643c-1.309-0.169-2.617-0.337-3.926-0.506c2.561,5.801-22.314,11.909-25.364,12.688
			c-10.005,2.555-22.042,5.837-32.475,4.549c-1.316-0.162-2.553,1.261-2.5,2.5c0.173,4.039,1.328,7.963,1.5,11.999
			c0.072,1.698,1.534,2.743,3.165,2.411c13.747-2.803,27.456-7.393,40.048-13.573c9.365-4.597,24.187-13.626,18.442-26.098
			c-0.546-1.186-2.368-1.604-3.42-0.896c-9.928,6.664-23.145,8.188-34.593,10.635c-8.304,1.775-21.281,3.327-26.301,11.261
			c-1.014,1.601,0.305,3.791,2.158,3.762c14.79-0.233,28.363-6.096,42.663-9.089c-0.443-1.607-0.887-3.215-1.33-4.822
			c-5.34,1.784-10.534,3.778-15.596,6.253c0.841,1.438,1.683,2.878,2.523,4.316c12.039-6.088,23.501-13.193,34.498-20.999
			c-1.01-1.309-2.02-2.617-3.029-3.926c-4.009,4.906-9.014,3.835-14.731,3.768C187.862,205.049,187.866,210.049,191.088,210.087
			L191.088,210.087z"/>
	</g>
</g>
<g>
	<g>
		<path fill="#231F20" d="M142.822,225.854c1.398,1.698,3.005,2.967,4.887,4.092c3.14,1.875,2.901,3.373,1.97,6.976
			c-0.552,2.137,1.749,3.909,3.673,2.823c11.244-6.345,23.331-11.54,36.236-13.158c-0.421-1.553-0.841-3.105-1.262-4.658
			c-9.723,4.199-19.127,8.844-27.505,15.39c-2.364,1.847,0.64,5.1,3.029,3.926c9.26-4.545,19.011-7.973,28.499-11.999
			c2.96-1.255,0.408-5.561-2.523-4.316c-9.491,4.026-19.234,7.45-28.499,11.999c1.01,1.309,2.02,2.617,3.029,3.926
			c8-6.25,17.222-10.603,26.493-14.608c2.232-0.964,1.16-4.962-1.262-4.658c-13.834,1.735-26.686,7.027-38.76,13.842
			c1.224,0.94,2.448,1.882,3.673,2.823c0.821-3.18,1.639-6.828-0.466-9.689c-1.976-2.685-5.519-3.622-7.678-6.243
			C144.306,219.827,140.789,223.386,142.822,225.854L142.822,225.854z"/>
	</g>
</g>
<g>
	<g>
		<path fill="#231F20" d="M202.429,207.349c1.42,2.827,2.812,5.601,4.891,8.006c1.507,1.745,4.19,0.258,4.268-1.768
			c0.16-4.201,1.464-8.586-0.089-12.665c-1.523,0.643-3.047,1.285-4.569,1.927c1.789,3.886,2.707,8.108,4.5,12
			c0.13-1.01,0.26-2.02,0.391-3.029c-2.357,2.172-5.142,3.826-7.5,5.999c1.309,0.169,2.617,0.337,3.926,0.506
			c-3.28-7.708-9.102-7.493-16.492-8.648c-1.579-0.246-3.165,0.646-3.165,2.411c0,1,0,2,0,3c0,1.088,0.76,2.147,1.835,2.411
			c6.611,1.619,13.338,2.962,20.164,3.088c3.227,0.06,3.221-4.94,0-5c-6.392-0.117-12.645-1.394-18.834-2.91
			c0.611,0.804,1.224,1.607,1.835,2.411c0-1,0-2,0-3c-1.055,0.804-2.109,1.607-3.165,2.411c2.76,0.431,5.555,0.645,8.304,1.128
			c2.991,0.525,4.086,2.601,5.202,5.222c0.661,1.555,2.864,1.483,3.926,0.506c2.357-2.172,5.142-3.826,7.5-5.999
			c0.88-0.811,0.853-2.028,0.391-3.029c-1.789-3.886-2.707-8.108-4.5-12c-1.181-2.564-5.575-0.718-4.569,1.927
			c1.359,3.569,0.052,7.641-0.089,11.335c1.423-0.589,2.845-1.179,4.268-1.768c-1.772-2.052-2.902-4.592-4.109-6.994
			C205.298,201.943,200.985,204.476,202.429,207.349L202.429,207.349z"/>
	</g>
</g>
<g>
	<g>
		<path fill="#231F20" d="M157.425,238.497c21.164,2.901,35.79-19.02,56.162-20.91c3.183-0.295,3.211-5.298,0-5
			c-10.063,0.934-18.735,5.652-27.249,10.78c-8.173,4.923-17.505,11.689-27.583,10.308
			C155.603,233.243,154.243,238.061,157.425,238.497L157.425,238.497z"/>
	</g>
</g>
<g>
	<g>
		<path fill="#231F20" d="M192.588,218.586c-2.591,0.207-4.931,1.295-7.5,1.5c0.804,1.055,1.607,2.109,2.411,3.165
			c0.461-2.035,0.721-4.099,1.128-6.144c0.675-3.391,3.198-5.628,5.729-7.753c1.691-1.42,0.305-4.332-1.768-4.268
			c-8.698,0.269-16.504,3.725-22.767,9.732c-1.546,1.482-0.41,4.346,1.768,4.268c9.177-0.33,17.62-4.659,26.164-7.589
			c3.031-1.04,1.729-5.871-1.33-4.822c-8.037,2.757-16.205,7.101-24.834,7.411c0.589,1.423,1.179,2.845,1.768,4.268
			c5.302-5.085,11.855-8.039,19.231-8.268c-0.589-1.423-1.179-2.845-1.768-4.268c-5.764,4.839-6.568,9.162-8.144,16.102
			c-0.334,1.475,0.717,3.301,2.411,3.165c2.591-0.207,4.931-1.295,7.5-1.5C195.779,223.331,195.804,218.329,192.588,218.586
			L192.588,218.586z"/>
	</g>
</g>
<g>
	<g>
		<path fill="#231F20" d="M205.5,218.5c-0.588,0-1.176,0-1.764,0c-3.225,0-3.225,5,0,5c2.042,0,4.006-1.131,5.947-1.728
			c1.188-0.365,5.693-1.898,6.658-0.511c1.825,2.628,6.162,0.132,4.316-2.523c-1.793-2.581-4.618-3.064-7.594-2.765
			c-1.83,0.185-3.612,0.64-5.365,1.179c-1.19,0.365-2.72,1.348-3.963,1.348c-3.225,0-3.225,5,0,5c0.588,0,1.176,0,1.764,0
			C208.725,223.5,208.725,218.5,205.5,218.5L205.5,218.5z"/>
	</g>
</g>
<g>
	<g>
		<path fill="#231F20" d="M215.232,220.268c0.798,0.796,1.619,1.229,2.768,1.232c1.363,0.004,2.5-1.141,2.5-2.5
			c0-1.366-1.138-2.496-2.5-2.5c-0.076,0.001-0.152,0-0.229-0.003c0.343,0.002,0.662,0.09,0.957,0.263
			c0.382,0.314,0.472,0.38,0.27,0.198c-0.077-0.074-0.153-0.149-0.229-0.226c-0.965-0.962-2.571-0.965-3.535,0
			C214.271,217.694,214.268,219.306,215.232,220.268L215.232,220.268z"/>
	</g>
</g>
<g>
	<g>
		<path fill="#231F20" d="M215.238,218.158c0.187,0.098,0.364,0.203,0.539,0.319c0.216,0.156,0.175,0.124-0.123-0.097
			c0.124,0.102,0.236,0.217,0.348,0.332c0.175,0.202,0.144,0.153-0.094-0.145c0.058,0.082,0.112,0.167,0.162,0.255
			c0.121,0.238,0.096,0.172-0.074-0.201c0.18,0.479-0.019-0.624,0.004-0.122c0.061,1.361,1.091,2.5,2.5,2.5
			c1.316,0,2.561-1.138,2.5-2.5c-0.092-2.043-1.468-3.733-3.238-4.658c-1.208-0.632-2.708-0.319-3.42,0.896
			C213.678,215.871,214.031,217.528,215.238,218.158L215.238,218.158z"/>
	</g>
</g>
<g>
	<g>
		<path fill="#231F20" d="M151.089,231.165c0.565,2.855,2.31,5.857,5.678,4.995c2.955-0.757,4.413-4.682,4.656-7.358
			c0.34-3.725-1.335-7.535-4.975-8.946c-3.999-1.549-9.549,0.896-12.29-3.117c-1.806-2.646-6.141-0.147-4.316,2.523
			c1.61,2.359,3.553,3.978,6.386,4.6c2.51,0.55,5.096-0.073,7.603,0.39c2.448,0.451,2.941,2.864,2.481,4.963
			c-0.181,0.82-0.533,1.599-1.115,2.206c-0.402,0.42,0.97-0.186,1.184,0.141c-0.308-0.471-0.364-1.194-0.469-1.726
			C155.285,226.674,150.466,228.016,151.089,231.165L151.089,231.165z"/>
	</g>
</g>
<g>
	<g>
		<path fill="#231F20" d="M210,202c0.067-2.117,0.311-4.06-0.089-6.165c-0.804,1.056-1.607,2.11-2.411,3.165
			c-0.49-0.333-0.543-0.246-0.158,0.262c1.438-0.841,2.878-1.683,4.316-2.523c-1.489-1.999-2.923-3.946-4.891-5.506
			c-0.811,1.393-1.621,2.785-2.433,4.179c4.164,0.571,3.824,6.368,4.165,9.589c0.335,3.172,5.339,3.205,5,0
			c-0.576-5.451-0.892-13.458-7.835-14.411c-2.122-0.291-4.662,2.412-2.433,4.179c1.638,1.299,2.866,2.826,4.109,4.494
			c1.88,2.523,5.938,0.356,4.316-2.523c-0.97-1.724-2.205-2.522-4.158-2.738c-1.737-0.191-2.683,1.729-2.411,3.165
			c0.304,1.595-0.038,3.229-0.089,4.835C204.898,205.226,209.898,205.216,210,202L210,202z"/>
	</g>
</g>
<g>
	<g>
		<path fill="#231F20" d="M187.342,204.738c-1.389,2.031-3.165,2.853-5.507,3.351c0.941,1.225,1.883,2.449,2.823,3.673
			c2.054-2.785,5.121-4.637,7.609-6.994c2.059-1.949-0.619-5.447-3.029-3.926c-6.097,3.847-11.525,8.787-18.403,11.247
			c-2.479,0.888-2.303,5.266,0.665,4.911c6.493-0.775,10.371-5.259,16.165-7.589c2.951-1.188,1.664-6.026-1.33-4.822
			c-5.089,2.048-9.257,6.745-14.835,7.411c0.222,1.637,0.443,3.273,0.665,4.911c7.352-2.631,13.081-7.641,19.597-11.753
			c-1.01-1.309-2.02-2.617-3.029-3.926c-2.848,2.697-6.039,4.815-8.391,8.006c-1.415,1.918,0.903,4.081,2.823,3.673
			c3.644-0.776,6.395-2.576,8.493-5.649C193.483,204.592,189.147,202.094,187.342,204.738L187.342,204.738z"/>
	</g>
</g>
</svg>
