<?xml version="1.0" encoding="utf-8"?>
<!-- Generator: Adobe Illustrator 16.0.0, SVG Export Plug-In . SVG Version: 6.00 Build 0)  -->
<!DOCTYPE svg PUBLIC "-//W3C//DTD SVG 1.1//EN" "http://www.w3.org/Graphics/SVG/1.1/DTD/svg11.dtd">
<svg version="1.1" id="Layer_1" xmlns="http://www.w3.org/2000/svg" xmlns:xlink="http://www.w3.org/1999/xlink" x="0px" y="0px"
	 width="275px" height="275px" viewBox="0 0 275 275" enable-background="new 0 0 275 275" xml:space="preserve">
<g>
	<g>
		<path fill="#231F20" d="M84.03,25.302c33.314,2.359,66.596-1.317,99.911-1.688c0.681-0.007,0.682-1.064,0-1.057
			c-33.314,0.371-66.596,4.047-99.911,1.688C83.35,24.197,83.354,25.254,84.03,25.302L84.03,25.302z"/>
	</g>
</g>
<g>
	<g>
		<path fill="#231F20" d="M83.521,23.78c-5.373,38.566,10.803,90.692,55.318,96.467c49.266,6.391,56.03-63.158,53.003-96.626
			c-0.061-0.673-1.118-0.679-1.057,0c3.056,33.782-2.887,98.837-50.533,95.707c-20.319-1.335-36.822-16.316-45.936-33.535
			c-9.868-18.645-12.665-41.003-9.777-61.732C84.632,23.395,83.614,23.108,83.521,23.78L83.521,23.78z"/>
	</g>
</g>
<g>
	<g>
		<path fill="#231F20" d="M182.043,23.596c3.139,0.047,5.707,0.476,8.645-0.925c-0.213-0.027-0.427-0.055-0.641-0.083
			c1.02,1.22,0.189,2.657,0.702,4.033c0.236,0.632,1.258,0.359,1.02-0.281c-0.353-0.946-0.02-1.813-0.058-2.774
			c-0.028-0.689-0.501-1.229-0.916-1.725c-0.16-0.191-0.439-0.179-0.641-0.083c-2.725,1.299-5.219,0.824-8.111,0.781
			C181.361,22.529,181.362,23.585,182.043,23.596L182.043,23.596z"/>
	</g>
</g>
<g>
	<g>
		<path fill="#231F20" d="M83.859,48.509c15.791,4.266,32.234-0.816,48.027-2.529c18.656-2.023,37.436,0.456,56.114,0.548
			c0.682,0.003,0.682-1.053,0-1.057c-17.65-0.087-35.167-1.846-52.83-0.828c-16.973,0.979-34.092,7.422-51.029,2.847
			C83.481,47.312,83.202,48.332,83.859,48.509L83.859,48.509z"/>
	</g>
</g>
<g>
	<g>
		<path fill="#231F20" d="M186.267,47.456c1.566-0.759,3.015-0.927,4.733-0.928c0.682,0,0.682-1.057,0-1.057
			c-1.916,0.001-3.527,0.229-5.267,1.072C185.12,46.841,185.656,47.752,186.267,47.456L186.267,47.456z"/>
	</g>
</g>
<g>
	<g>
		<path fill="#231F20" d="M83,51.528c36.014,2.825,71.986-3.825,108-1c0.68,0.053,0.675-1.004,0-1.057
			c-36.014-2.825-71.986,3.825-108,1C82.32,50.418,82.325,51.476,83,51.528L83,51.528z"/>
	</g>
</g>
<g>
	<g>
		<path fill="#231F20" d="M84,54.528c34.613,3.195,70.844,4.676,105.141-2.019c0.668-0.13,0.385-1.149-0.281-1.019
			C154.671,58.165,118.505,56.657,84,53.472C83.321,53.409,83.327,54.466,84,54.528L84,54.528z"/>
	</g>
</g>
<g>
	<g>
		<path fill="#231F20" d="M117,53.528c24.038,2.845,48.132,0.105,72-3c0.666-0.086,0.675-1.145,0-1.057
			c-23.868,3.104-47.962,5.845-72,3C116.324,52.392,116.332,53.449,117,53.528L117,53.528z"/>
	</g>
</g>
<g>
	<g>
		<path fill="#231F20" d="M125.859,48.509c20.005,2.696,40.142-3.599,60,1c0.663,0.154,0.945-0.865,0.281-1.019
			c-19.875-4.604-39.993,1.695-60-1C125.475,47.401,125.187,48.419,125.859,48.509L125.859,48.509z"/>
	</g>
</g>
<g>
	<g>
		<path fill="#231F20" d="M101,53.528c9.019-0.001,18.021-0.072,27-1c0.671-0.069,0.678-1.127,0-1.057
			c-8.979,0.928-17.981,0.998-27,1C100.318,52.472,100.318,53.528,101,53.528L101,53.528z"/>
	</g>
</g>
<g>
	<g>
		<path fill="#231F20" d="M128,48.472c-14.049,0.959-28.185,0.977-42.141,3.019c-0.512,0.075-0.5,0.933,0,1.019
			c30.123,5.193,61.22,2.112,91.281-2c0.604-0.083,0.438-1.036-0.141-1.038c-15.345-0.039-30.726-0.912-46,1
			c-0.659,0.083-0.689,1.112,0,1.057c9.104-0.736,18.074-2.818,27.124-4.007c8.896-1.168,20.933-2.879,28.609,2.935
			c0.544,0.412,1.069-0.506,0.533-0.912c-6.897-5.224-17.075-4.304-25.149-3.537c-10.438,0.991-20.671,3.62-31.117,4.465
			c0,0.352,0,0.705,0,1.057c15.274-1.912,30.655-1.039,46-1c-0.047-0.346-0.094-0.692-0.141-1.038
			c-21.084,2.884-42.326,4.964-63.629,4.528c-5.218-0.106-10.428-0.446-15.623-0.945c-2.746-0.265-5.481-0.635-8.209-1.041
			c-2.192-0.355-2.18-0.35,0.037,0.018c1.761-0.232,3.529-0.401,5.296-0.573c11.056-1.078,22.19-1.192,33.269-1.948
			C128.676,49.482,128.681,48.425,128,48.472L128,48.472z"/>
	</g>
</g>
<g>
	<g>
		<path fill="#231F20" d="M84,56.528c33.833,2.254,70.075,13.338,103.141,0.981c0.438-0.164,0.565-0.92,0-1.019
			c-6.672-1.169-13.658-0.278-20.318,0.531c-9.205,1.118-18.347,2.734-27.503,4.179c-9.79,1.544-19.625,2.996-29.533,3.473
			c-6.935,0.333-15.204,0.538-21.33-3.248c-2.59-1.601-1.245-1.075,0.942-1.406c2.359-0.356,4.716-0.719,7.075-1.079
			c6.183-0.942,12.372-1.851,18.573-2.67c12.071-1.594,24.211-2.78,36.391-2.997c10.884-0.194,22.155,0.4,32.502,4.039
			c1.686,0.592,1.546,0.532-0.462,1.008c-1.715,0.407-3.447,0.735-5.178,1.066c-4.074,0.778-8.196,1.288-12.317,1.729
			c-7.892,0.845-15.842,1.112-23.771,1.262c-9.952,0.188-19.782,0.09-29.695-0.806c-8.241-0.745-17.042-1.556-24.782,1.971
			c-0.506,0.23-0.22,0.97,0.267,0.984c32.351,0.95,64.676-0.971,97-2c0.173-0.005,0.38-0.093,0.456-0.262
			c1.067-2.35,1.851-4.685,2.072-7.267c-0.346,0.047-0.691,0.094-1.038,0.141c0.309,1.131,2.292,7.169,0.135,7.592
			c-2.521,0.495-5.08,0.768-7.636,1.001c-4.196,0.383-8.422,0.427-12.632,0.402c-9.582-0.055-19.154-0.826-28.716-1.373
			c-16.462-0.941-34.459-2.073-49.908,4.78c-0.436,0.193-0.279,0.854,0.126,0.965c33.272,9.196,67.346-6.743,101-2
			c0.047-0.346,0.094-0.692,0.141-1.038c-33.015,2.021-68.313-3.022-100.141,8.019c-0.389,0.135-0.577,0.758-0.126,0.965
			c13.999,6.443,30.117,5.632,45.086,4.227c16.723-1.57,33.343-5.039,50.181-5.155c0.682-0.004,0.682-1.053,0-1.057
			c-29.318-0.149-60.729-8.496-89.141,2.019c-0.557,0.206-0.472,1.003,0.141,1.038c30.523,1.706,60.472-12.674,90.859-5.019
			c0.047-0.346,0.094-0.692,0.141-1.038c-8.333,0-16.667,0-25,0c-0.682,0-0.682,1.057,0,1.057c6.667,0,13.333,0,20,0
			c1.065,0.285,2.035,0.142,2.908-0.43c-0.845,0.568-1.749,1.043-2.647,1.52c-2.201,1.168-4.577,1.979-6.952,2.709
			c-8.956,2.75-18.616,3.145-27.917,3.345c-18.105,0.39-36.534-1.802-54.532,0.819c-0.613,0.089-0.428,1.016,0.141,1.038
			c16.271,0.621,32.484,2.264,48.75,3c15.729,0.711,32.036,0.958,47.391-3.019c0.445-0.115,0.517-0.737,0.126-0.965
			c-13.47-7.877-30.548-6.96-45.463-5.134c-16.624,2.035-32.897,6.408-48.944,11.081c-0.59,0.172-0.445,1,0.141,1.038
			c29.002,1.888,57.99-0.933,87-1c0.682-0.001,0.682-1.058,0-1.057c-29.01,0.067-57.998,2.888-87,1
			c0.047,0.346,0.094,0.692,0.141,1.038c13.726-3.997,27.551-7.646,41.662-10.018c14.939-2.51,31.458-4.029,46.014,1.127
			c1.725,0.611,3.365,1.417,4.972,2.284c-0.652-0.352-3.208,0.594-3.983,0.752c-4.08,0.831-8.232,1.276-12.378,1.624
			c-8.786,0.737-17.643,0.618-26.446,0.321c-17.353-0.585-34.632-2.466-51.98-3.128c0.047,0.346,0.094,0.692,0.141,1.038
			c16.479-2.399,33.444-0.701,50.026-0.734c14.147-0.028,30.896-0.113,43.1-8.319c0.424-0.285,0.282-0.984-0.267-0.984
			c-8,0-16,0-24,0c-0.682,0-0.682,1.057,0,1.057c8.333,0,16.667,0,25,0c0.593,0,0.725-0.891,0.141-1.038
			c-30.505-7.685-60.523,6.692-91.141,4.981c0.047,0.346,0.094,0.692,0.141,1.038c28.307-10.476,59.643-2.129,88.859-1.981
			c0-0.352,0-0.705,0-1.057c-15.257,0.105-30.386,2.948-45.508,4.667c-15.757,1.79-33.105,3.261-48.078-3.066
			c1.214,0.513,6.88-2.012,8.35-2.368c4.381-1.061,8.849-1.769,13.313-2.364c8.546-1.139,17.186-1.552,25.797-1.812
			c17.038-0.515,34.103,0.042,51.125-1c0.561-0.034,0.761-0.95,0.141-1.038c-17.451-2.459-34.924,0.333-52.239,2.591
			c-8.875,1.157-17.772,2.115-26.73,2.192c-4.787,0.041-9.562-0.33-14.292-1.049c-2.093-0.318-4.156-0.8-6.209-1.312
			c0.907,0.226,4.398-1.63,5.448-1.937c15.037-4.392,31.719-2.808,47.124-1.886c15.207,0.911,30.825,2.377,45.898-0.582
			c0.228-0.044,0.389-0.288,0.388-0.509c-0.018-2.834-0.273-5.403-1.019-8.141c-0.165-0.604-0.989-0.433-1.038,0.141
			c-0.146,1.708-0.666,6.446-3.393,6.533c-1.926,0.062-3.852,0.129-5.777,0.196c-4.516,0.157-9.03,0.332-13.546,0.505
			c-9.084,0.349-18.169,0.702-27.256,0.987c-9.083,0.285-18.168,0.47-27.256,0.517c-4.516,0.023-9.031-0.014-13.546-0.083
			c-1.926-0.03-3.852-0.079-5.777-0.128c1.464,0.038,3.132-0.716,4.583-0.997c6.865-1.326,14.245-0.244,21.128,0.381
			c7.645,0.695,15.261,0.641,22.931,0.573c16.293-0.145,32.725-0.943,48.577-4.976c0.411-0.104,0.557-0.775,0.126-0.965
			c-15.027-6.633-32.897-5.833-48.906-4.75c-17.618,1.192-35.054,4.099-52.501,6.697c-0.418,0.062-0.474,0.622-0.233,0.883
			c7.193,7.804,22.395,5.671,31.672,4.823c16.267-1.486,32.292-4.878,48.479-6.986c6.153-0.801,12.444-1.506,18.654-1.027
			c0.609,0.052,1.217,0.125,1.821,0.22c-1.509-0.222-2.321,0.145-3.882,0.648c-2.528,0.816-5.124,1.412-7.722,1.963
			c-6.353,1.347-12.872,1.802-19.351,1.956c-23.934,0.567-47.504-4.914-71.299-6.499C83.319,55.426,83.324,56.483,84,56.528
			L84,56.528z"/>
	</g>
</g>
<g>
	<g>
		<path fill="#231F20" d="M106,56.528c9.115,0.895,18.254,1.002,27.405,1.112c4.5,0.055,8.996,0.153,13.492,0.357
			c2.538,0.116,5.07,0.32,7.601,0.551c1.796,0.164,8.575-0.285,3.716,0.775c-18.721,4.085-38.228,2.202-57.213,2.147
			c0,0.352,0,0.705,0,1.057c25.004-0.026,49.996-0.974,75-1c0.682,0,0.682-1.058,0-1.057c-25.004,0.026-49.996,0.974-75,1
			c-0.682,0-0.682,1.055,0,1.057c20.445,0.059,41.054,1.785,61.141-3.019c0.483-0.115,0.527-0.936,0-1.019
			c-18.583-2.917-37.465-1.186-56.141-3.019C105.322,55.405,105.328,56.462,106,56.528L106,56.528z"/>
	</g>
</g>
<g>
	<g>
		<path fill="#231F20" d="M95,59.528c30.694,2.809,61.302-1.898,92-2c0.682-0.002,0.682-1.059,0-1.057
			c-30.698,0.101-61.306,4.809-92,2C94.321,58.41,94.327,59.467,95,59.528L95,59.528z"/>
	</g>
</g>
<g>
	<g>
		<path fill="#231F20" d="M103,85.528c26.39,2.903,53.218,0.309,79.141-5.019c0.667-0.137,0.384-1.155-0.281-1.019
			c-25.832,5.309-52.561,7.874-78.859,4.981C102.323,84.397,102.33,85.455,103,85.528L103,85.528z"/>
	</g>
</g>
<g>
	<g>
		<path fill="#231F20" d="M118,80.528c21.051,1,42.324,1.981,63.141-2.019c0.669-0.128,0.385-1.147-0.281-1.019
			c-20.721,3.981-41.907,2.976-62.859,1.981C117.318,79.439,117.322,80.496,118,80.528L118,80.528z"/>
	</g>
</g>
<g>
	<g>
		<path fill="#231F20" d="M91,82.528c30.028,3.815,60.04-0.874,90-3c0.676-0.048,0.681-1.105,0-1.057
			c-29.96,2.126-59.972,6.815-90,3C90.325,81.386,90.333,82.444,91,82.528L91,82.528z"/>
	</g>
</g>
<g>
	<g>
		<path fill="#231F20" d="M182.472,73c-0.058,1.055-1.155,1.936-1.846,2.626c-0.481,0.482,0.266,1.229,0.748,0.747
			c0.931-0.932,2.078-1.97,2.154-3.374C183.565,72.319,182.509,72.322,182.472,73L182.472,73z"/>
	</g>
</g>
<g>
	<g>
		<path fill="#231F20" d="M183.456,74.267c1.62-2.793,3.763-3.772,3.054-7.407c-0.34,0.094-0.68,0.188-1.02,0.281
			c1.846,5.096-0.334,9.586-4.757,12.403c-0.573,0.365-0.043,1.28,0.533,0.912c4.798-3.057,7.248-8.059,5.243-13.597
			c-0.232-0.641-1.15-0.39-1.02,0.281c0.631,3.233-1.558,4.198-2.946,6.593C182.201,74.324,183.114,74.856,183.456,74.267
			L183.456,74.267z"/>
	</g>
</g>
<g>
	<g>
		<path fill="#231F20" d="M186.472,54c0,1.667,0,3.333,0,5c0,0.682,1.057,0.682,1.057,0c0-1.667,0-3.333,0-5
			C187.528,53.318,186.472,53.318,186.472,54L186.472,54z"/>
	</g>
</g>
<g>
	<g>
		<path fill="#231F20" d="M97,88.528c28.61,2.929,57.335,0.065,86,0c0.682-0.001,0.682-1.058,0-1.057
			c-28.665,0.065-57.39,2.929-86,0C96.322,87.402,96.329,88.459,97,88.528L97,88.528z"/>
	</g>
</g>
<g>
	<g>
		<path fill="#231F20" d="M88.141,71.509c23.426-4.608,47.029-5.956,70.859-5.981c0.682,0,0.682-1.058,0-1.057
			c-23.924,0.025-47.627,1.394-71.141,6.019C87.191,70.622,87.475,71.641,88.141,71.509L88.141,71.509z"/>
	</g>
</g>
<g>
	<g>
		<path fill="#231F20" d="M88.859,60.509c22.973,5.729,47.03,2.273,70,8c0.661,0.165,0.942-0.854,0.281-1.019
			c-22.973-5.729-47.03-2.273-70-8C88.479,59.326,88.199,60.345,88.859,60.509L88.859,60.509z"/>
	</g>
</g>
<g>
	<g>
		<path fill="#231F20" d="M114,71.528c21.285,0.925,42.677-0.895,63.859,1.981c0.666,0.091,0.954-0.927,0.281-1.019
			c-21.282-2.89-42.756-1.089-64.141-2.019C113.318,70.442,113.321,71.499,114,71.528L114,71.528z"/>
	</g>
</g>
<g>
	<g>
		<path fill="#231F20" d="M102,70.528c22.621,1.912,45.314,2,68,2c0.682,0,0.682-1.057,0-1.057c-22.686,0-45.379-0.089-68-2
			C101.321,69.414,101.326,70.472,102,70.528L102,70.528z"/>
	</g>
</g>
<g>
	<g>
		<path fill="#231F20" d="M92,72.528c26,0,52,0,78,0c0.682,0,0.682-1.057,0-1.057c-26,0-52,0-78,0
			C91.318,71.472,91.318,72.528,92,72.528L92,72.528z"/>
	</g>
</g>
<g>
	<g>
		<path fill="#231F20" d="M101,73.528c24.934,1.866,50.053-0.808,74.859,2.981c0.667,0.102,0.953-0.916,0.281-1.019
			c-24.905-3.804-50.109-1.146-75.141-3.019C100.32,72.421,100.325,73.478,101,73.528L101,73.528z"/>
	</g>
</g>
<g>
	<g>
		<path fill="#231F20" d="M116,82.528c22.558,2.985,45.591,3.103,68.141-0.019c0.673-0.093,0.385-1.111-0.281-1.019
			c-22.448,3.107-45.406,2.952-67.859-0.019C115.326,81.382,115.334,82.44,116,82.528L116,82.528z"/>
	</g>
</g>
<g>
	<g>
		<path fill="#231F20" d="M182,86.472c-27.297-0.062-55.634-3.188-82.141,5.019c-0.649,0.201-0.372,1.221,0.281,1.019
			c26.411-8.177,54.658-5.042,81.859-4.981C182.682,87.53,182.682,86.473,182,86.472L182,86.472z"/>
	</g>
</g>
<g>
	<g>
		<path fill="#231F20" d="M101,95.528c25.762,1.736,51.139-6.487,76.859-2.019c0.666,0.116,0.951-0.902,0.281-1.019
			c-25.825-4.487-51.279,3.723-77.141,1.981C100.319,94.426,100.324,95.483,101,95.528L101,95.528z"/>
	</g>
</g>
<g>
	<g>
		<path fill="#231F20" d="M102,99.528c13.875,0.075,27.71,1.832,41.595,2.016c10.587,0.141,27.597,1.197,35.779-7.171
			c0.251-0.257,0.176-0.821-0.233-0.883c-13.266-2.012-26.462-4.406-39.841-5.58c-11.422-1.001-25.076-1.957-35.566,3.633
			c-0.423,0.226-0.289,0.832,0.126,0.965c12.521,4.055,26.439,5.067,39.511,5.278c11.63,0.188,27.93,0.187,37.004-8.414
			c0.338-0.32,0.078-0.902-0.374-0.902c-6.035,0.008-11.848,0.159-17.267,3.072c-0.419,0.225-0.293,0.835,0.126,0.965
			c9.147,2.854,18.237,1.59,21.65-8.369c0.196-0.574-0.678-0.924-0.966-0.407c-0.95,1.701-2.051,3.298-3,5
			c-0.333,0.596,0.58,1.128,0.912,0.533c0.95-1.701,2.051-3.298,3-5c-0.321-0.136-0.644-0.271-0.966-0.407
			c-2.621,7.649-8.975,9.96-16.51,8.657c-6.428-1.111,3.234-2.484,4.932-2.707c1.593-0.208,3.218-0.221,4.821-0.264
			c2.301-0.061,2.972-0.723,0.632,0.926c-7.342,5.175-17.992,5.783-26.622,6.165c-10.35,0.458-20.797-0.322-31.041-1.795
			c-3.817-0.549-7.614-1.258-11.363-2.161c-0.752-0.181-1.499-0.385-2.245-0.592c-1.052-0.291-1.117-0.012-1.023-0.062
			c2.329-1.241,4.956-1.905,7.518-2.462c10.918-2.371,22.753-1.121,33.734,0.105c5.876,0.656,11.727,1.536,17.567,2.452
			c2.467,0.387,4.932,0.79,7.396,1.189c1.257,0.204,6.023,1.66,6.897,0.766c-5.534,5.66-16.607,5.847-23.875,6.235
			c-9.99,0.533-20.036-0.005-30.01-0.611c-7.421-0.451-14.86-1.19-22.299-1.23C101.318,98.468,101.319,99.525,102,99.528L102,99.528
			z"/>
	</g>
</g>
<g>
	<g>
		<path fill="#231F20" d="M114,92.528c18.316,1.077,36.865,3.984,55.141,0.981c0.671-0.11,0.386-1.128-0.281-1.019
			c-18.168,2.985-36.651,0.051-54.859-1.019C113.319,91.432,113.323,92.489,114,92.528L114,92.528z"/>
	</g>
</g>
<g>
	<g>
		<path fill="#231F20" d="M118,94.528c16.036,0.998,32.253,1.983,48.141-1.019c0.669-0.126,0.385-1.145-0.281-1.019
			c-15.79,2.983-31.924,1.973-47.859,0.981C117.319,93.429,117.323,94.486,118,94.528L118,94.528z"/>
	</g>
</g>
<g>
	<g>
		<path fill="#231F20" d="M98,92.528c26.418,0.023,52.923,0.893,79.141-3.019c0.672-0.1,0.386-1.118-0.281-1.019
			C150.74,92.388,124.318,91.494,98,91.472C97.318,91.471,97.318,92.528,98,92.528L98,92.528z"/>
	</g>
</g>
<g>
	<g>
		<path fill="#231F20" d="M112,96.528c22.986,0.102,46.305,4.092,69.141-0.019c0.67-0.121,0.385-1.139-0.281-1.019
			c-22.73,4.092-45.979,0.082-68.859-0.019C111.318,95.469,111.319,96.525,112,96.528L112,96.528z"/>
	</g>
</g>
<g>
	<g>
		<path fill="#231F20" d="M138.859,48.491c-1.366,0.659-2.819,0.981-4.359,0.965c-0.005,0.138-0.01,0.277-0.015,0.415
			c1.218-0.561,2.46-1.061,3.726-1.502c3.07-1.128,6.302-1.759,9.546-2.102c6.449-0.682,12.854,0.959,17.869,5.106
			c0.521,0.431,1.273-0.312,0.748-0.747c-9.713-8.032-22.979-6.203-33.641-1.083c-0.486,0.233-0.236,0.99,0.267,0.984
			c2.254-0.023,4.024-0.203,6.141-1.019C139.77,49.267,139.496,48.245,138.859,48.491L138.859,48.491z"/>
	</g>
</g>
<g>
	<g>
		<path fill="#231F20" d="M107.859,101.509c21.693,3.255,44.583,7.145,66.281,2c0.605-0.144,0.433-1.002-0.141-1.038
			c-10.901-0.667-21.831-0.93-32.75-0.625c-10.333,0.288-21.689,0.687-31.391,4.644c-0.538,0.219-0.487,1.008,0.141,1.038
			c19.943,0.925,40.116-1.947,59.859,1.981c0.047-0.346,0.094-0.692,0.141-1.038c-16.292,1.849-32.719,2.041-49,4
			c-0.556,0.067-0.763,0.88-0.141,1.038c12.713,3.229,26.16,2.059,39.141,2.019c0.69-0.002,0.67-1.001,0-1.057
			c-8.78-0.731-17.256,1.814-26,2c-0.702,0.015-0.655,0.97,0,1.057c6.652,0.877,13.299,0.998,20,1c0.682,0,0.682-1.057,0-1.057
			c-6.701-0.003-13.348-0.123-20-1c0,0.352,0,0.705,0,1.057c8.733-0.185,17.233-2.729,26-2c0-0.352,0-0.705,0-1.057
			c-12.878,0.04-26.25,1.221-38.859-1.981c-0.047,0.346-0.094,0.692-0.141,1.038c16.281-1.958,32.708-2.151,49-4
			c0.546-0.062,0.772-0.912,0.141-1.038c-19.841-3.948-40.099-1.089-60.141-2.019c0.047,0.346,0.094,0.692,0.141,1.038
			c9.671-3.945,20.807-4.262,31.109-4.606c10.91-0.365,21.857-0.041,32.75,0.625c-0.047-0.346-0.094-0.692-0.141-1.038
			c-21.488,5.095-44.244,1.222-65.719-2C107.474,100.391,107.188,101.409,107.859,101.509L107.859,101.509z"/>
	</g>
</g>
<g>
	<g>
		<path fill="#231F20" d="M116,112.528c8.495-0.048,16.961-0.634,25.435-1.194c4.562-0.302,9.126-0.555,13.696-0.712
			c0.602-0.021,5.818-1.057,2.739,0.06c-2.317,0.84-4.81,1.115-7.252,1.248c-13.371,0.728-25.297-8.124-38.618-8.458
			c-0.587-0.015-0.733,0.927-0.141,1.038c10.946,2.051,21.943,3.874,33.105,4.039c9.827,0.145,20.957-1.127,28.409-8.175
			c0.339-0.32,0.077-0.902-0.374-0.902c-1.333,0-2.667,0-4,0c-0.682,0-0.681,1.048,0,1.057c2.654,0.036,2.119,0.622,0.282,2.28
			c-2.04,1.842-4.17,3.573-6.176,5.455c-1.329,1.247-2.874,4.073-4.557,4.772c-2.982,1.24-6.321,1.313-9.495,1.16
			c-10.938-0.528-20.958-6.205-32.055-5.723c-0.599,0.026-0.716,0.857-0.141,1.038c6.563,2.064,13.369,3.186,20,5
			c0.047-0.346,0.094-0.692,0.141-1.038c-1.72,0.02-2.895,0.037-4.267,1.072c-0.334,0.252-0.367,0.853,0.126,0.965
			c15.903,3.625,29.449-3.217,41.515-13.136c-0.249-0.249-0.499-0.498-0.748-0.747c-4.122,4.205-7.901,8.692-12.893,11.917
			c0.213,0.276,0.427,0.553,0.641,0.83c7.849-7.06,13.809-15.693,20.082-24.107c0.408-0.547-0.51-1.073-0.912-0.533
			c-6.219,8.34-12.139,16.897-19.918,23.893c-0.446,0.402,0.138,1.155,0.641,0.83c5.062-3.271,8.921-7.812,13.107-12.083
			c0.485-0.496-0.23-1.172-0.748-0.747c-5.945,4.888-12.21,9.179-19.467,11.866c-3.231,1.197-6.646,1.794-10.069,2.065
			c-1.543,0.122-3.093,0.042-4.635-0.038c-1.482-0.077-7.23-0.936-2.455-0.992c0.596-0.007,0.721-0.879,0.141-1.038
			c-6.632-1.815-13.437-2.936-20-5c-0.047,0.346-0.094,0.692-0.141,1.038c11.497-0.499,22.073,5.242,33.474,5.792
			c3.287,0.159,8.791-0.022,10.623-3.145c1.747-2.979,5.102-5.317,7.68-7.529c1.269-1.089,3.238-2.273,3.882-3.876
			c0.064-0.16-0.008-0.403-0.136-0.514c-0.937-0.812-2.338-0.769-3.522-0.785c0,0.352,0,0.705,0,1.057
			c0.655,0,2.428,0.232,2.855-0.173c-1.015,0.96-2.188,1.703-3.368,2.431c-2.225,1.372-4.736,2.22-7.233,2.939
			c-5.683,1.637-11.755,1.833-17.629,1.746c-10.592-0.157-21.102-2.036-31.484-3.981c-0.047,0.346-0.094,0.692-0.141,1.038
			c17.025,0.427,32.124,13.366,49.267,5.928c0.501-0.217,0.225-0.987-0.267-0.984c-15.026,0.084-29.974,1.916-45,2
			C115.319,111.476,115.318,112.532,116,112.528L116,112.528z"/>
	</g>
</g>
<g>
	<g>
		<path fill="#231F20" d="M180.859,53.509c2.039,0.859,3.95,1.009,6.141,1.019c-0.125-0.301-0.249-0.601-0.374-0.902
			c-1.574,1.352-3.012,1.162-4.767,1.864c-0.421,0.168-0.536,0.7-0.126,0.965c2.093,1.354,3.837,2.202,4.757,4.685
			c0.238,0.642,1.137,0.391,1.02-0.281c-0.806-4.607,0.315-8.462,2-12.719c-0.34-0.094-0.68-0.188-1.02-0.281
			c-1.276,5.274-2.107,10.651-3,16c-0.111,0.667,0.907,0.952,1.02,0.281c0.892-5.349,1.723-10.726,3-16
			c0.164-0.677-0.773-0.902-1.02-0.281c-1.78,4.5-2.845,8.445-2,13.281c0.34-0.094,0.68-0.188,1.02-0.281
			c-1.036-2.795-2.809-3.74-5.243-5.315c-0.042,0.322-0.084,0.644-0.126,0.965c1.961-0.784,3.566-0.706,5.233-2.136
			c0.361-0.31,0.061-0.9-0.374-0.902c-2.061-0.01-3.946-0.175-5.859-0.981C180.513,52.226,180.241,53.249,180.859,53.509
			L180.859,53.509z"/>
	</g>
</g>
<g>
	<g>
		<path fill="#231F20" d="M95,77.528c2.333,0,4.667,0,7,0c-0.047-0.346-0.094-0.692-0.141-1.038
			c-4.28,1.589-5.324,3.959-8.233,7.136c-0.316,0.346-0.094,0.881,0.374,0.902c4.413,0.197,8.604,1.75,13,2
			c-0.047-0.346-0.094-0.692-0.141-1.038c-3.577,1.298-6.916,3.008-10.126,5.053c-0.532,0.339-0.169,1.056,0.407,0.965
			c3.607-0.564,5.855,0.694,9.201,0.911c0.21,0.014-4.022,5.462-4.715,6.206c-0.32,0.344-0.091,0.882,0.374,0.902
			c2.312,0.101,4.509,0.513,6.726,1.147c1.43-0.168,1.862-0.143,1.296,0.076c-1.409,0.773-2.496,1.448-4.162,1.739
			c-0.538,0.094-0.471,0.883,0,1.019c2.198,0.633,4.164,0.929,6.445,1.011c1.215,0.044-0.922,1.351-1.678,2.106
			c-0.25,0.25-0.176,0.645,0.107,0.83c6.794,4.442,15.21,4.562,22,9c0.136-0.322,0.271-0.644,0.407-0.965
			c-2.289-0.871-4.711-1.13-7-2c-0.645-0.246-0.895,0.764-0.281,1.019c6.953,2.891,13.812,4.786,21.281,3
			c0.662-0.158,0.382-1.177-0.281-1.019c-7.298,1.745-13.995-0.206-20.719-3c-0.094,0.339-0.188,0.679-0.281,1.019
			c2.289,0.871,4.711,1.13,7,2c0.586,0.223,0.885-0.653,0.407-0.965c-3.699-2.418-7.633-3.62-11.876-4.754
			c-3.044-0.813-5.933-1.804-8.711-3.323c-1.244-0.011-1.423-0.298-0.538-0.862c0.744-0.744,1.488-1.488,2.232-2.232
			c0.327-0.327,0.086-0.9-0.374-0.902c-2.151-0.01-4.748-0.505-6.667-0.17c1.344-0.235,2.497-1.409,3.808-1.792
			c0.399-0.117,0.568-0.772,0.126-0.965c-2.072-0.909-4.264-1.589-6.52-1.851c-1.958-0.227-1.653-0.062-0.373-1.579
			c1.338-1.585,2.585-3.22,4-4.741c0.326-0.35,0.086-0.872-0.374-0.902c-3.875-0.252-7.259-1.588-11.141-0.981
			c0.136,0.322,0.271,0.644,0.407,0.965c3.133-1.995,6.375-3.676,9.874-4.947c0.561-0.203,0.469-1.003-0.141-1.038
			c-3.958-0.225-7.803-1.499-11.745-1.944c-0.33-0.038,0.774-1.199,0.986-1.513c1.634-2.415,3.05-3.448,5.899-4.506
			c0.54-0.2,0.485-1.038-0.141-1.038c-2.333,0-4.667,0-7,0C94.318,76.472,94.318,77.528,95,77.528L95,77.528z"/>
	</g>
</g>
<g>
	<g>
		<path fill="#231F20" d="M123.859,50.509c6.089,0.917,11.878,0.917,17.407-2.053c0.47-0.252,0.248-0.985-0.267-0.984
			c-4.665,0.008-8.743,0.381-13.141,2.019c-0.631,0.235-0.363,1.251,0.281,1.019c6.833-2.468,13.874-4.036,21.175-3.704
			c7.325,0.333-3.007,1.796-5.001,2.318c-3.778,0.989-7.597,1.767-11.455,2.367c-0.639,0.099-0.398,0.976,0.141,1.038
			c15.916,1.835,32.029,0.206,47.859,2.981c0.047-0.346,0.094-0.692,0.141-1.038c-27.304,3.082-54.323,8.083-81.141,14.019
			c-0.591,0.131-0.447,1.038,0.141,1.038c10,0,20,0,30,0c0.582,0,0.739-0.929,0.141-1.038c-10.307-1.874-20.73-1.075-31.141-1.019
			c0.047,0.346,0.094,0.692,0.141,1.038c2.96-0.974,5.711-1.785,8.859-1.981c0.57-0.036,0.75-0.902,0.141-1.038
			c-3.711-0.829-7.342-1.012-11.141-1.019c-0.58-0.001-0.743,0.956-0.141,1.038c15,2.053,29.854,5.329,44.506,9.105
			c1.949,0.502,7.418,3.022,9.168,2.37c-3.755,1.399-7.836,1.978-11.771,2.624c-7.269,1.192-14.522,2.286-21.029,5.936
			c-0.404,0.227-0.308,0.843,0.126,0.965c9.033,2.55,18.392,3.009,27.633,4.401c3.999,0.602-1.875,1.571-3.126,1.971
			c-2.19,0.7-4.436,1.237-6.668,1.785c-4.969,1.218-9.958,2.269-14.838,3.825c-0.595,0.189-0.439,0.977,0.141,1.038
			c9.309,0.971,18.65,0.999,28,1c0-0.352,0-0.705,0-1.057c-13.667,0-27.333,0-41,0c-0.682,0-0.681,1.052,0,1.057
			c20.057,0.131,41.601,5.49,61.141-1.019c0.449-0.149,0.556-0.931,0-1.019c-11.438-1.802-22.637,0.844-33.281,5
			c-0.576,0.225-0.454,0.96,0.141,1.038c6.648,0.866,13.305,0.997,20,1c0-0.352,0-0.705,0-1.057c-6.979,0.912-14.021,1.088-21,2
			c0,0.352,0,0.705,0,1.057c6.652-0.877,13.299-0.997,20-1c-0.047-0.346-0.094-0.692-0.141-1.038
			c-5.045,2.127-9.703,4.827-14.126,8.053c-0.424,0.309-0.281,0.949,0.267,0.984c0.883,0.057,1.755,0.197,2.628,0.333
			c0.543,0.088,1.084,0.187,1.624,0.296c0.634,0.354,0.884,0.125,0.748-0.686c-0.675,0.051-0.68,1.108,0,1.057
			c0.124-0.009,0.249-0.019,0.373-0.028c0.312-0.023,0.641-0.325,0.51-0.669c-0.405-1.062-2.955-0.986-3.844-1.125
			c-2.444-0.383-0.69-0.051,1.031-1.239c3.456-2.385,7.207-4.329,11.07-5.958c0.518-0.218,0.502-1.038-0.141-1.038
			c-6.701,0.002-13.348,0.123-20,1c-0.665,0.088-0.675,1.145,0,1.057c6.979-0.912,14.021-1.088,21-2
			c0.653-0.085,0.702-1.056,0-1.057c-6.695-0.003-13.352-0.134-20-1c0.047,0.346,0.094,0.692,0.141,1.038
			c8.308-3.243,16.838-5.503,25.807-5.617c1.728-0.021,3.981,0.574,5.652,0.018c-1.737,0.579-3.539,0.953-5.33,1.313
			c-3.815,0.768-7.732,1.003-11.613,1.147c-14.248,0.532-28.421-1.807-42.656-1.899c0,0.352,0,0.705,0,1.057c13.667,0,27.333,0,41,0
			c0.682,0,0.682-1.057,0-1.057c-9.35-0.001-18.691-0.029-28-1c0.047,0.346,0.094,0.692,0.141,1.038
			c9.316-2.971,19.078-4.227,28.126-8.053c0.418-0.177,0.299-0.886-0.126-0.965c-4.603-0.867-9.24-1.406-13.891-1.939
			c-3.452-0.396-6.893-0.852-10.316-1.45c-1.441-0.252-7.319-0.418-3.972-2.059c9.671-4.74,21.158-3.797,31.18-7.533
			c0.475-0.177,0.53-0.864,0-1.019c-17.979-5.237-36.438-9.46-55-12c-0.047,0.346-0.094,0.692-0.141,1.038
			c3.697,0.006,7.229,0.171,10.859,0.981c0.047-0.346,0.094-0.692,0.141-1.038c-3.19,0.198-6.106,1.021-9.141,2.019
			c-0.556,0.183-0.473,1.041,0.141,1.038c10.312-0.056,20.646-0.875,30.859,0.981c0.047-0.346,0.094-0.692,0.141-1.038
			c-10,0-20,0-30,0c0.047,0.346,0.094,0.692,0.141,1.038C126.865,63.594,153.79,58.6,181,55.528
			c0.543-0.061,0.776-0.926,0.141-1.038c-15.925-2.792-32.131-1.173-48.141-3.019c0.047,0.346,0.094,0.692,0.141,1.038
			c7.136-1.109,14.064-3.021,21-5c0.483-0.138,0.526-0.905,0-1.019c-8.87-1.916-17.88-0.035-26.281,3
			c0.094,0.339,0.188,0.679,0.281,1.019c3.711-1.382,7.312-1.927,11.262-1.978c-1.526,0.02-5.296,1.32-7.314,1.496
			c-2.63,0.229-5.36-0.147-7.947-0.537C123.474,49.39,123.188,50.408,123.859,50.509L123.859,50.509z"/>
	</g>
</g>
<line fill="none" stroke="#231F20" stroke-width="6" stroke-miterlimit="10" x1="141" y1="120.002" x2="141" y2="237.002"/>
<g>
	<g>
		<path fill="#231F20" d="M114,241.875c20.338-0.029,40.662-0.969,61-1c2.418-0.004,2.418-3.754,0-3.75
			c-20.338,0.031-40.662,0.971-61,1C111.582,238.129,111.582,241.879,114,241.875L114,241.875z"/>
	</g>
</g>
<g>
	<g>
		<path fill="#231F20" d="M138.192,226.502c-2.051,6.349-7.721,8.926-13.691,10.69c-2.367,0.699-1.342,3.992,0.997,3.615
			c5.913-0.95,12.006-3.695,18.003-2c2.331,0.659,3.319-2.959,0.996-3.615c-6.771-1.915-13.331,0.928-19.997,2
			c0.333,1.205,0.665,2.41,0.997,3.615c7.324-2.163,13.833-5.643,16.309-13.31C142.554,225.19,138.933,224.21,138.192,226.502
			L138.192,226.502z"/>
	</g>
</g>
<g>
	<g>
		<path fill="#231F20" d="M141.381,230.946c4.621,6.463,11.875,8.868,19.619,7.929c2.369-0.287,2.397-4.041,0-3.75
			c-6.308,0.766-12.519-0.669-16.381-6.071C143.226,227.105,139.972,228.975,141.381,230.946L141.381,230.946z"/>
	</g>
</g>
<g>
	<g>
		<path fill="#231F20" d="M161.517,234.744c-6.855-1.278-13.452-4.327-16.897-10.69c-1.151-2.127-4.39-0.234-3.238,1.893
			c3.882,7.169,11.364,10.964,19.14,12.413C162.884,238.801,163.893,235.187,161.517,234.744L161.517,234.744z"/>
	</g>
</g>
<g>
	<g>
		<path fill="#231F20" d="M143.502,235.808c2.13,0.684,4.523,0.855,6.552,1.812c0.315-1.165,0.631-2.329,0.946-3.494
			c-1.714,0.125-3.277,0.932-5,1c-1.294,0.051-2.503,1.603-1.619,2.821c0.854,1.177,1.768,2.073,3.178,2.518
			c0.491,0.154,1.062,0.168,1.575,0.154c0.241-0.006,0.482-0.033,0.724-0.049c0.392-0.026,0.081-0.028-0.184-0.243
			c1.856,1.516,4.526-1.122,2.652-2.652c-0.753-0.614-1.491-0.884-2.469-0.854c-1.039,0.03-1.557,0.175-2.238-0.766
			c-0.54,0.94-1.079,1.881-1.619,2.821c0.995-0.039,1.961-0.2,2.926-0.443c0.672-0.169,1.381-0.506,2.074-0.557
			c1.689-0.123,2.775-2.632,0.946-3.494c-2.366-1.115-4.973-1.396-7.448-2.188C142.189,231.451,141.208,235.072,143.502,235.808
			L143.502,235.808z"/>
	</g>
</g>
<g>
	<g>
		<path fill="#231F20" d="M164.5,236.125c-1.179,0.045-2.343,0.374-3.502,0.067c-0.166,1.228-0.332,2.455-0.498,3.683
			c2.333,0,4.667,0,7,0c2.425,0,2.409-3.664,0-3.75c-2.107-0.075-4.783-0.884-7.002-1.433c-2.348-0.581-3.343,3.035-0.996,3.615
			c2.573,0.638,5.334,1.473,7.998,1.567c0-1.25,0-2.5,0-3.75c-2.333,0-4.667,0-7,0c-2.115,0-2.557,3.137-0.498,3.683
			c1.551,0.412,2.933,0.127,4.498,0.067C166.91,239.783,166.919,236.033,164.5,236.125L164.5,236.125z"/>
	</g>
</g>
<g>
	<g>
		<path fill="#231F20" d="M137.881,226.054c-4.24,6.314-10.609,11.343-18.381,12.071c-2.386,0.224-2.408,3.976,0,3.75
			c9.183-0.86,16.576-6.418,21.619-13.929C142.472,225.933,139.222,224.058,137.881,226.054L137.881,226.054z"/>
	</g>
</g>
<g>
	<g>
		<path fill="#231F20" d="M165.5,239.875c3.492,0.4,7.061-0.416,10.502,0.433c2.348,0.58,3.344-3.036,0.996-3.615
			c-3.806-0.939-7.653-0.126-11.498-0.567C163.1,235.85,163.126,239.603,165.5,239.875L165.5,239.875z"/>
	</g>
</g>
<g>
	<g>
		<path fill="#231F20" d="M137.192,231.002c-0.358,1.702-2.047,1.29-3.875,1.806c-2.067,0.583-4.084,1.367-6.099,2.108
			c-4.988,1.837-9.849,3.53-15.218,3.709c-2.412,0.08-2.419,3.83,0,3.75c9.546-0.317,17.77-5.288,26.998-7.067
			c0.642-0.123,1.128-0.718,1.31-1.31c0.228-0.65,0.395-1.317,0.5-2C141.305,229.64,137.69,228.636,137.192,231.002L137.192,231.002
			z"/>
	</g>
</g>
<g>
	<g>
		<path fill="#231F20" d="M114,238.625c-3.175,0.002-6.311,0.102-9.366,1.049c-1.469,0.456-1.215,2.701,0.366,2.701
			c1.667,0,3.333,0,5,0c1.773,0,1.773-2.75,0-2.75c-1.667,0-3.333,0-5,0c0.122,0.9,0.244,1.801,0.366,2.701
			c2.829-0.878,5.696-0.949,8.634-0.951C115.773,241.374,115.773,238.624,114,238.625L114,238.625z"/>
	</g>
</g>
<g>
	<g>
		<path fill="#231F20" d="M174,239.375c2.333,0,4.667,0,7,0c1.773,0,1.773-2.75,0-2.75c-2.333,0-4.667,0-7,0
			C172.227,236.625,172.227,239.375,174,239.375L174,239.375z"/>
	</g>
</g>
<g>
	<g>
		<path fill="#231F20" d="M175.306,239.188c2.502,1.161,4.887,1.161,7.389,0c1.606-0.746,0.209-3.116-1.389-2.375
			c-1.532,0.712-3.079,0.712-4.611,0C175.097,236.071,173.699,238.441,175.306,239.188L175.306,239.188z"/>
	</g>
</g>
</svg>
